G04*
G04 #@! TF.GenerationSoftware,Altium Limited,Altium Designer,20.0.13 (296)*
G04*
G04 Layer_Color=8421504*
%FSLAX25Y25*%
%MOIN*%
G70*
G01*
G75*
%ADD20R,0.10630X0.03937*%
%ADD21R,0.10630X0.12992*%
%ADD22R,0.03740X0.03347*%
%ADD23R,0.04724X0.04331*%
G04:AMPARAMS|DCode=24|XSize=253.94mil|YSize=334.65mil|CornerRadius=2.54mil|HoleSize=0mil|Usage=FLASHONLY|Rotation=180.000|XOffset=0mil|YOffset=0mil|HoleType=Round|Shape=RoundedRectangle|*
%AMROUNDEDRECTD24*
21,1,0.25394,0.32957,0,0,180.0*
21,1,0.24886,0.33465,0,0,180.0*
1,1,0.00508,-0.12443,0.16478*
1,1,0.00508,0.12443,0.16478*
1,1,0.00508,0.12443,-0.16478*
1,1,0.00508,-0.12443,-0.16478*
%
%ADD24ROUNDEDRECTD24*%
G04:AMPARAMS|DCode=25|XSize=41.34mil|YSize=175.2mil|CornerRadius=2.07mil|HoleSize=0mil|Usage=FLASHONLY|Rotation=180.000|XOffset=0mil|YOffset=0mil|HoleType=Round|Shape=RoundedRectangle|*
%AMROUNDEDRECTD25*
21,1,0.04134,0.17106,0,0,180.0*
21,1,0.03720,0.17520,0,0,180.0*
1,1,0.00413,-0.01860,0.08553*
1,1,0.00413,0.01860,0.08553*
1,1,0.00413,0.01860,-0.08553*
1,1,0.00413,-0.01860,-0.08553*
%
%ADD25ROUNDEDRECTD25*%
%ADD26R,0.07874X0.12008*%
%ADD27R,0.17717X0.23622*%
%ADD28R,0.13780X0.09843*%
%ADD29R,0.17323X0.07480*%
%ADD30R,0.06693X0.04331*%
%ADD31R,0.03937X0.03543*%
%ADD32R,0.07087X0.05118*%
%ADD33R,0.03347X0.03740*%
%ADD34R,0.05807X0.01181*%
%ADD35R,0.01181X0.05807*%
%ADD36R,0.03740X0.03937*%
%ADD37R,0.03937X0.03740*%
%ADD38R,0.12205X0.03937*%
%ADD39R,0.03598X0.04799*%
%ADD40R,0.03543X0.03937*%
G04:AMPARAMS|DCode=41|XSize=23.62mil|YSize=57.09mil|CornerRadius=2.01mil|HoleSize=0mil|Usage=FLASHONLY|Rotation=180.000|XOffset=0mil|YOffset=0mil|HoleType=Round|Shape=RoundedRectangle|*
%AMROUNDEDRECTD41*
21,1,0.02362,0.05307,0,0,180.0*
21,1,0.01961,0.05709,0,0,180.0*
1,1,0.00402,-0.00980,0.02653*
1,1,0.00402,0.00980,0.02653*
1,1,0.00402,0.00980,-0.02653*
1,1,0.00402,-0.00980,-0.02653*
%
%ADD41ROUNDEDRECTD41*%
%ADD42R,0.02559X0.06004*%
%ADD43R,0.03071X0.03071*%
%ADD44R,0.01772X0.05807*%
%ADD45R,0.05906X0.05118*%
D20*
X687205Y277559D02*
D03*
Y268504D02*
D03*
Y259449D02*
D03*
D21*
X710433Y268504D02*
D03*
D22*
X614567Y265748D02*
D03*
Y270866D02*
D03*
X513854Y218886D02*
D03*
Y224004D02*
D03*
X505752D02*
D03*
Y218886D02*
D03*
X530059Y224004D02*
D03*
Y218886D02*
D03*
X521957D02*
D03*
Y224004D02*
D03*
X481445D02*
D03*
Y218886D02*
D03*
X473343D02*
D03*
Y224004D02*
D03*
X497650D02*
D03*
Y218886D02*
D03*
X489547Y224004D02*
D03*
Y218886D02*
D03*
X447713D02*
D03*
Y224004D02*
D03*
X439610Y218886D02*
D03*
Y224004D02*
D03*
X463917D02*
D03*
Y218886D02*
D03*
X455815Y224004D02*
D03*
Y218886D02*
D03*
X415303D02*
D03*
Y224004D02*
D03*
X407201Y218886D02*
D03*
Y224004D02*
D03*
X431508Y218886D02*
D03*
Y224004D02*
D03*
X423406Y218886D02*
D03*
Y224004D02*
D03*
D23*
X622835Y272244D02*
D03*
Y263976D02*
D03*
X632283Y263583D02*
D03*
Y271850D02*
D03*
X640901Y272047D02*
D03*
Y263780D02*
D03*
X648425Y272047D02*
D03*
Y263780D02*
D03*
D24*
X740157Y219488D02*
D03*
D25*
X753543Y177953D02*
D03*
X746850D02*
D03*
X740157D02*
D03*
X733465D02*
D03*
X726772D02*
D03*
D26*
X494094Y179134D02*
D03*
X465748D02*
D03*
X540945Y178740D02*
D03*
X512598D02*
D03*
D27*
X629331Y188189D02*
D03*
X670669D02*
D03*
D28*
X602165Y184252D02*
D03*
X576575D02*
D03*
D29*
X395768Y183071D02*
D03*
X426280D02*
D03*
X344193D02*
D03*
X374705D02*
D03*
D30*
X442126Y188583D02*
D03*
Y198819D02*
D03*
X635433Y227165D02*
D03*
Y237402D02*
D03*
X442520Y163780D02*
D03*
Y174016D02*
D03*
D31*
X646063Y227264D02*
D03*
Y232579D02*
D03*
X629921Y393406D02*
D03*
Y398720D02*
D03*
X654724Y332087D02*
D03*
Y337402D02*
D03*
X687008Y400689D02*
D03*
Y395374D02*
D03*
D32*
X657087Y239173D02*
D03*
Y227756D02*
D03*
D33*
X267705Y415634D02*
D03*
X262587D02*
D03*
X267705Y407532D02*
D03*
X262587D02*
D03*
X267705Y391327D02*
D03*
X262587D02*
D03*
X267705Y399429D02*
D03*
X262587D02*
D03*
X478335Y358846D02*
D03*
X473217D02*
D03*
X478335Y366949D02*
D03*
X473217D02*
D03*
X478335Y375051D02*
D03*
X473217D02*
D03*
X759831Y326602D02*
D03*
X754713D02*
D03*
X759831Y261783D02*
D03*
X754713D02*
D03*
X759831Y286091D02*
D03*
X754713D02*
D03*
X759831Y277988D02*
D03*
X754713D02*
D03*
Y269886D02*
D03*
X759831D02*
D03*
Y294193D02*
D03*
X754713D02*
D03*
X759831Y318500D02*
D03*
X754713D02*
D03*
X759831Y310398D02*
D03*
X754713D02*
D03*
X759831Y302295D02*
D03*
X754713D02*
D03*
D34*
X401425Y348622D02*
D03*
Y346654D02*
D03*
Y344685D02*
D03*
Y342717D02*
D03*
Y340748D02*
D03*
Y338780D02*
D03*
Y336811D02*
D03*
Y334843D02*
D03*
Y332874D02*
D03*
Y330906D02*
D03*
Y328937D02*
D03*
Y326969D02*
D03*
X434795D02*
D03*
Y328937D02*
D03*
Y330906D02*
D03*
Y332874D02*
D03*
Y334843D02*
D03*
Y336811D02*
D03*
Y338780D02*
D03*
Y340748D02*
D03*
Y342717D02*
D03*
Y344685D02*
D03*
Y346654D02*
D03*
Y348622D02*
D03*
D35*
X407283Y321110D02*
D03*
X409252D02*
D03*
X411220D02*
D03*
X413189D02*
D03*
X415157D02*
D03*
X417126D02*
D03*
X419094D02*
D03*
X421063D02*
D03*
X423032D02*
D03*
X425000D02*
D03*
X426969D02*
D03*
X428937D02*
D03*
Y354480D02*
D03*
X426969D02*
D03*
X425000D02*
D03*
X423032D02*
D03*
X421063D02*
D03*
X419094D02*
D03*
X417126D02*
D03*
X415157D02*
D03*
X413189D02*
D03*
X411220D02*
D03*
X409252D02*
D03*
X407283D02*
D03*
D36*
X408858Y312598D02*
D03*
X413976D02*
D03*
X420472Y364173D02*
D03*
X415354D02*
D03*
D37*
X444488Y332480D02*
D03*
Y337598D02*
D03*
D38*
X426378Y383701D02*
D03*
X405118D02*
D03*
X426378Y393701D02*
D03*
Y403701D02*
D03*
X405118Y393701D02*
D03*
Y403701D02*
D03*
D39*
X478872Y384039D02*
D03*
X465972D02*
D03*
X751030Y392126D02*
D03*
X763930D02*
D03*
D40*
X432972Y364173D02*
D03*
X427657D02*
D03*
X754102Y350909D02*
D03*
X759417D02*
D03*
X754102Y359012D02*
D03*
X759417D02*
D03*
X754102Y334705D02*
D03*
X759417D02*
D03*
X754102Y342807D02*
D03*
X759417D02*
D03*
X754102Y383319D02*
D03*
X759417D02*
D03*
X754102Y375217D02*
D03*
X759417D02*
D03*
X754102Y367114D02*
D03*
X759417D02*
D03*
D41*
X664134Y319587D02*
D03*
X669134D02*
D03*
X674134D02*
D03*
X679134D02*
D03*
X684134D02*
D03*
X689134D02*
D03*
X694134D02*
D03*
X664134Y341043D02*
D03*
X669134D02*
D03*
X674134D02*
D03*
X679134D02*
D03*
X684134D02*
D03*
X689134D02*
D03*
X694134D02*
D03*
D42*
X638150Y401575D02*
D03*
X643150D02*
D03*
X648150D02*
D03*
X653150D02*
D03*
Y380220D02*
D03*
X648150D02*
D03*
X643150D02*
D03*
X638150D02*
D03*
D43*
X640354Y427382D02*
D03*
X647835D02*
D03*
X644094Y436398D02*
D03*
D44*
X694587Y379772D02*
D03*
X697146D02*
D03*
X699705D02*
D03*
X702264D02*
D03*
X704823D02*
D03*
X707382D02*
D03*
X709941D02*
D03*
X712500D02*
D03*
Y402906D02*
D03*
X709941D02*
D03*
X707382D02*
D03*
X704823D02*
D03*
X702264D02*
D03*
X699705D02*
D03*
X697146D02*
D03*
X694587D02*
D03*
D45*
X511850Y262205D02*
D03*
X521850D02*
D03*
X531850D02*
D03*
X541850D02*
D03*
X551850D02*
D03*
X561850D02*
D03*
X571850D02*
D03*
X581850D02*
D03*
X511850Y297638D02*
D03*
X521850D02*
D03*
X531850D02*
D03*
X541850D02*
D03*
X551850D02*
D03*
X561850D02*
D03*
X571850D02*
D03*
X581850D02*
D03*
X373661Y261417D02*
D03*
X383661D02*
D03*
X393661D02*
D03*
X403661D02*
D03*
X413661D02*
D03*
X423661D02*
D03*
X433661D02*
D03*
X443661D02*
D03*
X373661Y296850D02*
D03*
X383661D02*
D03*
X393661D02*
D03*
X403661D02*
D03*
X413661D02*
D03*
X423661D02*
D03*
X433661D02*
D03*
X443661D02*
D03*
M02*
