M48
;Layer_Color=9474304
;FILE_FORMAT=2:5
INCH,TZ
;TYPE=PLATED
T1F00S00C0.01181
T2F00S00C0.03346
T3F00S00C0.03543
T4F00S00C0.04000
T5F00S00C0.04331
T6F00S00C0.04724
T7F00S00C0.10000
T8F00S00C0.10827
%
T01
X432500Y138700
X632800Y146400
X642321Y143900
X647203Y152800
X657100Y246100
X679504Y268504
X681800Y306800
X678400Y309400
X664023Y302722
X754700Y306800
X756900Y282000
X775600Y273200
X756000Y253600
X566000Y249600
X564100Y225500
X546000Y222600
X538100Y228200
X526000Y217400
X517600Y225500
X503937Y242126
X505700Y276400
X534500Y269700
X535100Y309900
X520400Y183800
X500300Y178600
X507300Y167500
X372500Y166500
X399700Y230400
X403661Y252000
X423661Y251300
X441300Y245100
X458900Y269700
X453400Y285000
X438000Y300400
X436200Y306000
X413400Y305200
X403200Y302400
X393661Y306600
X370600Y304900
X378100Y272800
X324100Y280700
X419600Y217400
X466400Y310200
X310000Y234600
X142400Y251900
X145200Y382500
X265200Y403500
X281800Y388900
X296800Y319200
X329200Y344400
X356400Y336000
X363700Y328500
X375000Y346100
X369600Y367000
X392300Y383400
X413900Y396200
X434700Y392900
X432972Y372800
X433600Y415600
X412920Y349300
X407800Y345200
X415122Y338378
X421000Y339278
X424400Y334500
X421817Y328000
X415761Y326900
X416800Y331900
X411378Y334222
X407400Y329900
X393800Y330906
X387900Y320900
X440600Y313100
X449900Y314521
X447400Y317300
X452900Y344000
X482531Y334500
X479935Y362900
X475900Y363000
X481900Y366949
X470000Y380100
X516298Y314200
X604100Y316100
X602800Y356600
X621000Y390400
X629921Y386200
X640354Y407554
X648150Y410400
X669500Y432400
X695932Y420700
X699705Y408000
X707200Y413800
X705623Y385600
X702264Y386831
X699600Y384400
X690900Y380300
X694134Y349000
X674134Y348100
X679134Y332800
X682300Y325100
X705100Y314400
X759831
X765800Y327300
X756500Y338900
X769600Y345100
X769678Y349000
X764400Y353007
X763400Y366700
X764900Y378600
X764500Y382600
X744600Y353700
X716800Y390200
X654100Y370300
T02
X509449Y329921
Y337795
Y345669
Y353543
Y361417
X599213Y360630
Y352756
Y344882
Y337008
Y329134
Y321260
Y368504
Y376378
Y384252
Y392126
T03
X471890Y427165
X481890
X491890
T04
X315000Y226000
Y236000
Y246000
Y256000
Y266000
Y276000
Y286000
Y296000
Y306000
X305000
Y296000
Y286000
Y276000
Y266000
Y256000
Y246000
Y236000
Y226000
Y316000
Y326000
Y336000
Y346000
Y356000
Y366000
Y376000
Y386000
Y396000
Y406000
Y416000
X315000
Y406000
Y396000
Y386000
Y376000
Y366000
Y356000
Y346000
Y336000
Y326000
Y316000
T05
X286087Y276000
Y286000
Y296000
Y306000
X127031Y305961
Y295961
Y285961
Y275961
Y315961
Y325961
Y335961
Y345961
Y355961
Y365961
X286087Y366000
Y356000
Y346000
Y336000
Y326000
Y316000
X389843Y427559
X399843
X409843
X419843
X429843
X439843
T06
X341732Y137402
X355512
X369291
X383071
X396850
X410630
X424409
X438189
X451969
X465748
X488189
X501969
X515748
X529528
X543307
X557087
X570866
X584646
X598425
X612205
X635039
X648819
X662598
X676378
X690157
X703937
X717717
X731496
X745276
X759055
T07
X788583Y120866
Y435173
T08
X310000Y206827
X117087
Y435173
X310000
M30
