G04*
G04 #@! TF.GenerationSoftware,Altium Limited,Altium Designer,20.0.13 (296)*
G04*
G04 Layer_Color=16711935*
%FSLAX25Y25*%
%MOIN*%
G70*
G01*
G75*
%ADD72C,0.06500*%
%ADD73C,0.24910*%
%ADD74C,0.20500*%
%ADD75R,1.06799X1.06799*%
%ADD76C,0.06799*%
%ADD77R,0.06799X0.06799*%
%ADD78R,0.06406X0.06406*%
%ADD79C,0.06406*%
%ADD80R,0.06799X0.06799*%
%ADD81R,0.07587X0.07587*%
%ADD82C,0.07587*%
%ADD83C,0.05618*%
%ADD84C,0.03256*%
D72*
X315000Y226000D02*
D03*
Y236000D02*
D03*
Y246000D02*
D03*
Y256000D02*
D03*
Y266000D02*
D03*
Y276000D02*
D03*
X305000Y226000D02*
D03*
Y236000D02*
D03*
Y246000D02*
D03*
Y256000D02*
D03*
Y266000D02*
D03*
Y276000D02*
D03*
X315000Y286000D02*
D03*
X305000D02*
D03*
X315000Y296000D02*
D03*
Y306000D02*
D03*
Y316000D02*
D03*
Y326000D02*
D03*
Y336000D02*
D03*
Y346000D02*
D03*
X305000Y296000D02*
D03*
Y306000D02*
D03*
Y316000D02*
D03*
Y326000D02*
D03*
Y336000D02*
D03*
Y346000D02*
D03*
X315000Y356000D02*
D03*
X305000D02*
D03*
X315000Y366000D02*
D03*
Y376000D02*
D03*
Y386000D02*
D03*
Y396000D02*
D03*
Y406000D02*
D03*
Y416000D02*
D03*
X305000Y366000D02*
D03*
Y376000D02*
D03*
Y386000D02*
D03*
Y396000D02*
D03*
Y406000D02*
D03*
Y416000D02*
D03*
D73*
X310000Y435173D02*
D03*
Y206827D02*
D03*
X117087D02*
D03*
Y435173D02*
D03*
D74*
X788583D02*
D03*
Y120866D02*
D03*
D75*
X220000Y321000D02*
D03*
D76*
X419843Y427559D02*
D03*
X399843D02*
D03*
X409843D02*
D03*
X429843D02*
D03*
X439843D02*
D03*
X286087Y366000D02*
D03*
Y356000D02*
D03*
Y326000D02*
D03*
Y306000D02*
D03*
Y286000D02*
D03*
Y296000D02*
D03*
Y316000D02*
D03*
Y336000D02*
D03*
Y346000D02*
D03*
X127031Y365961D02*
D03*
Y355961D02*
D03*
Y325961D02*
D03*
Y305961D02*
D03*
Y285961D02*
D03*
Y295961D02*
D03*
Y315961D02*
D03*
Y335961D02*
D03*
Y345961D02*
D03*
D77*
X389843Y427559D02*
D03*
D78*
X491890Y427165D02*
D03*
D79*
X481890D02*
D03*
X471890D02*
D03*
D80*
X286087Y276000D02*
D03*
X127031Y275961D02*
D03*
D81*
X635039Y137402D02*
D03*
X488189D02*
D03*
X341732D02*
D03*
D82*
X648819D02*
D03*
X662598D02*
D03*
X676378D02*
D03*
X690157D02*
D03*
X703937D02*
D03*
X717717D02*
D03*
X731496D02*
D03*
X745276D02*
D03*
X759055D02*
D03*
X501969D02*
D03*
X515748D02*
D03*
X529528D02*
D03*
X543307D02*
D03*
X557087D02*
D03*
X570866D02*
D03*
X584646D02*
D03*
X598425D02*
D03*
X612205D02*
D03*
X355512D02*
D03*
X369291D02*
D03*
X383071D02*
D03*
X396850D02*
D03*
X410630D02*
D03*
X424409D02*
D03*
X438189D02*
D03*
X451969D02*
D03*
X465748D02*
D03*
D83*
X509449Y361417D02*
D03*
Y353543D02*
D03*
Y345669D02*
D03*
Y337795D02*
D03*
Y329921D02*
D03*
X599213Y321260D02*
D03*
Y329134D02*
D03*
Y337008D02*
D03*
Y344882D02*
D03*
Y352756D02*
D03*
Y360630D02*
D03*
Y368504D02*
D03*
Y376378D02*
D03*
Y384252D02*
D03*
Y392126D02*
D03*
D84*
X503937Y242126D02*
D03*
X679504Y268504D02*
D03*
X657100Y246100D02*
D03*
X403200Y302400D02*
D03*
X145200Y382500D02*
D03*
X310000Y234600D02*
D03*
X372500Y166500D02*
D03*
X648150Y410400D02*
D03*
X744600Y353700D02*
D03*
X640354Y407554D02*
D03*
X356400Y336000D02*
D03*
X621000Y390400D02*
D03*
X407400Y329900D02*
D03*
X296800Y319200D02*
D03*
X507300Y167500D02*
D03*
X399700Y230400D02*
D03*
X393661Y306600D02*
D03*
X466400Y310200D02*
D03*
X520400Y183800D02*
D03*
X403661Y252000D02*
D03*
X423661Y251300D02*
D03*
X453400Y285000D02*
D03*
X438000Y300400D02*
D03*
X441300Y245100D02*
D03*
X436200Y306000D02*
D03*
X387900Y320900D02*
D03*
X378100Y272800D02*
D03*
X142400Y251900D02*
D03*
X421000Y339278D02*
D03*
X421817Y328000D02*
D03*
X482531Y334500D02*
D03*
X424400D02*
D03*
X764400Y353007D02*
D03*
X699600Y384400D02*
D03*
X763400Y366700D02*
D03*
X702264Y386831D02*
D03*
X765800Y327300D02*
D03*
X664023Y302722D02*
D03*
X759831Y314400D02*
D03*
X705100D02*
D03*
X416800Y331900D02*
D03*
X516298Y314200D02*
D03*
X538100Y228200D02*
D03*
X647203Y152800D02*
D03*
X370600Y304900D02*
D03*
X535100Y309900D02*
D03*
X566000Y249600D02*
D03*
X602800Y356600D02*
D03*
X375000Y346100D02*
D03*
X564100Y225500D02*
D03*
X517600D02*
D03*
X265200Y403500D02*
D03*
X669500Y432400D02*
D03*
X475900Y363000D02*
D03*
X369600Y367000D02*
D03*
X329200Y344400D02*
D03*
X481900Y366949D02*
D03*
X412920Y349300D02*
D03*
X363700Y328500D02*
D03*
X432500Y138700D02*
D03*
X479935Y362900D02*
D03*
X415761Y326900D02*
D03*
X679134Y332800D02*
D03*
X756900Y282000D02*
D03*
X682300Y325100D02*
D03*
X432972Y372800D02*
D03*
X392300Y383400D02*
D03*
X695932Y420700D02*
D03*
X413900Y396200D02*
D03*
X434700Y392900D02*
D03*
X449900Y314521D02*
D03*
X699705Y408000D02*
D03*
X546000Y222600D02*
D03*
X632800Y146400D02*
D03*
X642321Y143900D02*
D03*
X526000Y217400D02*
D03*
X470000Y380100D02*
D03*
X678400Y309400D02*
D03*
X681800Y306800D02*
D03*
X754700D02*
D03*
X694134Y349000D02*
D03*
X654100Y370300D02*
D03*
X413400Y305200D02*
D03*
X440600Y313100D02*
D03*
X604100Y316100D02*
D03*
X629921Y386200D02*
D03*
X775600Y273200D02*
D03*
X756000Y253600D02*
D03*
X419600Y217400D02*
D03*
X500300Y178600D02*
D03*
X281800Y388900D02*
D03*
X505700Y276400D02*
D03*
X407800Y345200D02*
D03*
X452900Y344000D02*
D03*
X705623Y385600D02*
D03*
X764900Y378600D02*
D03*
X769678Y349000D02*
D03*
X716800Y390200D02*
D03*
X764500Y382600D02*
D03*
X690900Y380300D02*
D03*
X756500Y338900D02*
D03*
X769600Y345100D02*
D03*
X674134Y348100D02*
D03*
X411378Y334222D02*
D03*
X447400Y317300D02*
D03*
X458900Y269700D02*
D03*
X534500D02*
D03*
X393800Y330906D02*
D03*
X415122Y338378D02*
D03*
X433600Y415600D02*
D03*
X707200Y413800D02*
D03*
X324100Y280700D02*
D03*
M02*
