G04*
G04 #@! TF.GenerationSoftware,Altium Limited,Altium Designer,20.0.13 (296)*
G04*
G04 Layer_Color=128*
%FSLAX25Y25*%
%MOIN*%
G70*
G01*
G75*
%ADD23R,0.03543X0.03937*%
%ADD83R,0.10630X0.03937*%
%ADD84R,0.10630X0.12992*%
%ADD85R,0.05118X0.02756*%
%ADD86R,0.03071X0.03071*%
%ADD87R,0.03347X0.03740*%
%ADD88R,0.03740X0.03937*%
%ADD89R,0.03937X0.03740*%
%ADD90R,0.03598X0.04799*%
D23*
X93602Y50295D02*
D03*
X98917D02*
D03*
D83*
X130315Y141339D02*
D03*
Y132283D02*
D03*
Y123228D02*
D03*
D84*
X107087Y132283D02*
D03*
D85*
X121260Y69685D02*
D03*
Y62205D02*
D03*
X130709D02*
D03*
Y65945D02*
D03*
Y69685D02*
D03*
D86*
X131102Y160630D02*
D03*
X140118Y156890D02*
D03*
Y164370D02*
D03*
D87*
X244291Y89984D02*
D03*
X249410D02*
D03*
X244291Y98087D02*
D03*
X249410D02*
D03*
X244291Y106189D02*
D03*
X249410D02*
D03*
X244291Y114291D02*
D03*
X249410D02*
D03*
X244291Y122394D02*
D03*
X249410D02*
D03*
X244291Y130496D02*
D03*
X249410D02*
D03*
D88*
X266536Y90157D02*
D03*
X271654D02*
D03*
X266536Y96894D02*
D03*
X271654D02*
D03*
X266536Y103631D02*
D03*
X271654D02*
D03*
X266536Y110555D02*
D03*
X271654D02*
D03*
X271654Y117544D02*
D03*
X266536D02*
D03*
Y124236D02*
D03*
X271654D02*
D03*
X280118Y33071D02*
D03*
X275000D02*
D03*
X284646Y81102D02*
D03*
X289764D02*
D03*
D89*
X141339Y42520D02*
D03*
Y47638D02*
D03*
X134252Y42520D02*
D03*
Y47638D02*
D03*
X312598Y52756D02*
D03*
Y47638D02*
D03*
D90*
X101870Y59350D02*
D03*
X88970D02*
D03*
M02*
