G04*
G04 #@! TF.GenerationSoftware,Altium Limited,Altium Designer,20.0.13 (296)*
G04*
G04 Layer_Physical_Order=1*
G04 Layer_Color=255*
%FSLAX25Y25*%
%MOIN*%
G70*
G01*
G75*
%ADD21R,0.01181X0.05807*%
%ADD22R,0.05807X0.01181*%
%ADD23R,0.03543X0.03937*%
%ADD24R,0.05118X0.07087*%
%ADD25R,0.03740X0.03347*%
G04:AMPARAMS|DCode=26|XSize=253.94mil|YSize=334.65mil|CornerRadius=2.54mil|HoleSize=0mil|Usage=FLASHONLY|Rotation=270.000|XOffset=0mil|YOffset=0mil|HoleType=Round|Shape=RoundedRectangle|*
%AMROUNDEDRECTD26*
21,1,0.25394,0.32957,0,0,270.0*
21,1,0.24886,0.33465,0,0,270.0*
1,1,0.00508,-0.16478,-0.12443*
1,1,0.00508,-0.16478,0.12443*
1,1,0.00508,0.16478,0.12443*
1,1,0.00508,0.16478,-0.12443*
%
%ADD26ROUNDEDRECTD26*%
G04:AMPARAMS|DCode=27|XSize=41.34mil|YSize=175.2mil|CornerRadius=2.07mil|HoleSize=0mil|Usage=FLASHONLY|Rotation=270.000|XOffset=0mil|YOffset=0mil|HoleType=Round|Shape=RoundedRectangle|*
%AMROUNDEDRECTD27*
21,1,0.04134,0.17106,0,0,270.0*
21,1,0.03720,0.17520,0,0,270.0*
1,1,0.00413,-0.08553,-0.01860*
1,1,0.00413,-0.08553,0.01860*
1,1,0.00413,0.08553,0.01860*
1,1,0.00413,0.08553,-0.01860*
%
%ADD27ROUNDEDRECTD27*%
G04:AMPARAMS|DCode=28|XSize=9.84mil|YSize=23.62mil|CornerRadius=1.97mil|HoleSize=0mil|Usage=FLASHONLY|Rotation=90.000|XOffset=0mil|YOffset=0mil|HoleType=Round|Shape=RoundedRectangle|*
%AMROUNDEDRECTD28*
21,1,0.00984,0.01968,0,0,90.0*
21,1,0.00591,0.02362,0,0,90.0*
1,1,0.00394,0.00984,0.00295*
1,1,0.00394,0.00984,-0.00295*
1,1,0.00394,-0.00984,-0.00295*
1,1,0.00394,-0.00984,0.00295*
%
%ADD28ROUNDEDRECTD28*%
%ADD29R,0.04724X0.04331*%
%ADD30R,0.07874X0.12008*%
%ADD31R,0.17717X0.23622*%
%ADD32R,0.09843X0.13780*%
%ADD33R,0.17323X0.07480*%
%ADD34R,0.06693X0.04331*%
%ADD35R,0.12205X0.03937*%
G04:AMPARAMS|DCode=36|XSize=23.62mil|YSize=57.09mil|CornerRadius=2.01mil|HoleSize=0mil|Usage=FLASHONLY|Rotation=180.000|XOffset=0mil|YOffset=0mil|HoleType=Round|Shape=RoundedRectangle|*
%AMROUNDEDRECTD36*
21,1,0.02362,0.05307,0,0,180.0*
21,1,0.01961,0.05709,0,0,180.0*
1,1,0.00402,-0.00980,0.02653*
1,1,0.00402,0.00980,0.02653*
1,1,0.00402,0.00980,-0.02653*
1,1,0.00402,-0.00980,-0.02653*
%
%ADD36ROUNDEDRECTD36*%
%ADD37R,0.03937X0.03543*%
%ADD38R,0.02559X0.06004*%
%ADD39R,0.04799X0.03598*%
%ADD40R,0.01772X0.05807*%
G04:AMPARAMS|DCode=71|XSize=118.11mil|YSize=102.36mil|CornerRadius=2.05mil|HoleSize=0mil|Usage=FLASHONLY|Rotation=90.000|XOffset=0mil|YOffset=0mil|HoleType=Round|Shape=RoundedRectangle|*
%AMROUNDEDRECTD71*
21,1,0.11811,0.09827,0,0,90.0*
21,1,0.11402,0.10236,0,0,90.0*
1,1,0.00409,0.04913,0.05701*
1,1,0.00409,0.04913,-0.05701*
1,1,0.00409,-0.04913,-0.05701*
1,1,0.00409,-0.04913,0.05701*
%
%ADD71ROUNDEDRECTD71*%
%ADD72C,0.00700*%
%ADD73C,0.01500*%
%ADD74C,0.05118*%
%ADD75C,0.06299*%
%ADD76R,0.06299X0.06299*%
%ADD77C,0.14173*%
%ADD78C,0.20000*%
%ADD79C,0.11024*%
%ADD80R,0.05906X0.05906*%
%ADD81C,0.05906*%
%ADD82C,0.02756*%
G36*
X241953Y197267D02*
X241504Y196818D01*
X241000Y196919D01*
X240189Y196757D01*
X239502Y196298D01*
X239043Y195611D01*
X238888Y194833D01*
X238756Y194748D01*
X238411Y194603D01*
X237557Y195457D01*
X237210Y195689D01*
X236800Y195771D01*
X216438D01*
X216247Y196232D01*
X217743Y197729D01*
X241762D01*
X241953Y197267D01*
D02*
G37*
G36*
X215682Y198696D02*
X212443Y195457D01*
X207943Y190957D01*
X207711Y190610D01*
X207629Y190200D01*
Y188591D01*
X207129Y188491D01*
X207103Y188556D01*
X206486Y189360D01*
X205682Y189977D01*
X204745Y190365D01*
X203740Y190497D01*
X202735Y190365D01*
X201799Y189977D01*
X201111Y189449D01*
X200611Y189620D01*
Y191797D01*
X204596Y195782D01*
X205100Y195681D01*
X205911Y195843D01*
X206598Y196302D01*
X207057Y196989D01*
X207219Y197800D01*
X207057Y198611D01*
X206987Y198716D01*
X207223Y199157D01*
X215490D01*
X215682Y198696D01*
D02*
G37*
G36*
X344446Y13035D02*
X313802D01*
X313611Y13496D01*
X316857Y16743D01*
X316857Y16743D01*
X317089Y17090D01*
X317171Y17500D01*
Y154016D01*
X317598Y154302D01*
X318057Y154989D01*
X318219Y155800D01*
X318057Y156611D01*
X317598Y157298D01*
X316911Y157757D01*
X316100Y157919D01*
X315289Y157757D01*
X314602Y157298D01*
X314143Y156611D01*
X313981Y155800D01*
X314143Y154989D01*
X314602Y154302D01*
X315029Y154016D01*
Y17943D01*
X311657Y14571D01*
X300553D01*
X300362Y15033D01*
X302785Y17455D01*
X303017Y17803D01*
X303099Y18212D01*
Y21705D01*
X303599Y21917D01*
X304305Y21375D01*
X305314Y20957D01*
X305327Y20956D01*
Y20602D01*
X305409Y20193D01*
X305641Y19845D01*
X308043Y17443D01*
X308043Y17443D01*
X308390Y17211D01*
X308800Y17129D01*
X308800Y17129D01*
X312000D01*
X312410Y17211D01*
X312757Y17443D01*
X313857Y18543D01*
X313857Y18543D01*
X314089Y18890D01*
X314171Y19300D01*
Y51200D01*
X314171Y51200D01*
X314089Y51610D01*
X313857Y51957D01*
X313857Y51957D01*
X311514Y54300D01*
X311167Y54532D01*
X310757Y54614D01*
X306514D01*
Y55134D01*
X306214D01*
Y58158D01*
Y62315D01*
X307500D01*
X307910Y62397D01*
X308257Y62629D01*
X312857Y67229D01*
X313089Y67576D01*
X313171Y67986D01*
Y161897D01*
X313171Y161897D01*
X313089Y162307D01*
X312857Y162654D01*
X308665Y166847D01*
X308704Y167084D01*
X308845Y167347D01*
X317277D01*
X314733Y169891D01*
X315581Y170739D01*
X318126Y168195D01*
Y169244D01*
X326400D01*
X326810Y169326D01*
X327157Y169558D01*
X330357Y172758D01*
X330819Y172567D01*
Y135276D01*
X330901Y134866D01*
X331133Y134519D01*
X333145Y132506D01*
X332763Y131583D01*
X332627Y130551D01*
X332763Y129519D01*
X333145Y128596D01*
X331133Y126584D01*
X330901Y126236D01*
X330819Y125827D01*
Y36540D01*
X330164Y36489D01*
X328480Y36085D01*
X326881Y35422D01*
X325404Y34517D01*
X324545Y33784D01*
X331890Y26439D01*
X339234Y33784D01*
X338375Y34517D01*
X336899Y35422D01*
X335299Y36085D01*
X333616Y36489D01*
X332960Y36540D01*
Y125383D01*
X334660Y127082D01*
X335582Y126700D01*
X336614Y126564D01*
X337646Y126700D01*
X338608Y127099D01*
X338953Y127364D01*
X336190Y130127D01*
X336614Y130551D01*
X336190Y130975D01*
X338953Y133739D01*
X338608Y134004D01*
X337646Y134402D01*
X336614Y134538D01*
X335582Y134402D01*
X334660Y134020D01*
X332960Y135719D01*
Y138521D01*
X333299Y138658D01*
X333460Y138661D01*
X334009Y137946D01*
X334772Y137361D01*
X335661Y136993D01*
X336614Y136867D01*
X337568Y136993D01*
X338456Y137361D01*
X339219Y137946D01*
X339805Y138709D01*
X340173Y139598D01*
X340299Y140551D01*
X340173Y141505D01*
X339805Y142393D01*
X339219Y143156D01*
X338456Y143742D01*
X337568Y144110D01*
X336614Y144236D01*
X335661Y144110D01*
X334772Y143742D01*
X334009Y143156D01*
X333460Y142441D01*
X333299Y142444D01*
X332960Y142582D01*
Y146399D01*
X332962Y146898D01*
X333460Y146898D01*
X340267D01*
Y154204D01*
X332962Y154204D01*
X332960Y154703D01*
Y175805D01*
Y178420D01*
X333616Y178472D01*
X335299Y178876D01*
X336899Y179539D01*
X338375Y180443D01*
X339234Y181177D01*
X331890Y188522D01*
X324545Y181177D01*
X325404Y180443D01*
X326881Y179539D01*
X328480Y178876D01*
X330164Y178472D01*
X330819Y178420D01*
Y176248D01*
X325957Y171386D01*
X319271D01*
Y183200D01*
X319189Y183610D01*
X318957Y183957D01*
X318157Y184757D01*
X317810Y184989D01*
X317400Y185071D01*
X279839D01*
X279839Y185071D01*
X279430Y184989D01*
X279082Y184757D01*
X279082Y184757D01*
X274282Y179957D01*
X274050Y179610D01*
X273969Y179200D01*
Y176135D01*
X273871Y176084D01*
X273371Y176388D01*
Y181957D01*
X280658Y189244D01*
X282961D01*
Y187646D01*
X296566D01*
Y192983D01*
X284920D01*
X284653Y193483D01*
X284857Y193789D01*
X285019Y194600D01*
X284857Y195411D01*
X284711Y195629D01*
X284979Y196129D01*
X298171D01*
X304221Y190080D01*
Y187646D01*
X317826D01*
Y192983D01*
X304345D01*
X299372Y197957D01*
X299025Y198189D01*
X298615Y198271D01*
X268500D01*
X268500Y198271D01*
X268090Y198189D01*
X267743Y197957D01*
X267743Y197957D01*
X266543Y196757D01*
X266469Y196646D01*
X266371Y196711D01*
X266020Y196781D01*
X265033D01*
X261175Y200639D01*
X261382Y201139D01*
X344446D01*
Y13035D01*
D02*
G37*
G36*
X238929Y191057D02*
Y184538D01*
X238468Y184346D01*
X231157Y191657D01*
X230810Y191889D01*
X230400Y191971D01*
X220800D01*
X220390Y191889D01*
X220043Y191657D01*
X218443Y190057D01*
X218211Y189710D01*
X218129Y189300D01*
Y185781D01*
X218008Y185712D01*
X217545Y186023D01*
X217623Y186614D01*
X217491Y187619D01*
X217103Y188556D01*
X216486Y189360D01*
X215682Y189977D01*
X214745Y190365D01*
X213740Y190497D01*
X212735Y190365D01*
X211799Y189977D01*
X210995Y189360D01*
X210378Y188556D01*
X210271Y188297D01*
X209771Y188397D01*
Y189757D01*
X213643Y193629D01*
X236357D01*
X238929Y191057D01*
D02*
G37*
G36*
X273141Y195862D02*
Y190555D01*
X273211Y190204D01*
X273410Y189906D01*
X273708Y189707D01*
X274059Y189637D01*
X276020D01*
X276371Y189707D01*
X276669Y189906D01*
X276868Y190204D01*
X276938Y190555D01*
Y192229D01*
X281800D01*
X282210Y192311D01*
X282461Y192479D01*
X282914Y192332D01*
X282961Y192304D01*
Y191386D01*
X280215D01*
X279805Y191304D01*
X279458Y191072D01*
X271610Y183224D01*
X271340Y183275D01*
X271110Y183409D01*
Y189655D01*
X271371Y189707D01*
X271669Y189906D01*
X271868Y190204D01*
X271938Y190555D01*
Y195862D01*
X272158Y196129D01*
X272921D01*
X273141Y195862D01*
D02*
G37*
G36*
X207629Y184638D02*
Y177240D01*
X197924Y167534D01*
X197376Y167694D01*
X197317Y167962D01*
X200298Y170943D01*
X200530Y171290D01*
X200611Y171700D01*
X200611Y171700D01*
Y183609D01*
X201111Y183779D01*
X201799Y183252D01*
X202735Y182864D01*
X203740Y182731D01*
X204745Y182864D01*
X205682Y183252D01*
X206486Y183869D01*
X207103Y184673D01*
X207129Y184737D01*
X207629Y184638D01*
D02*
G37*
G36*
X162167Y190129D02*
X161799Y189977D01*
X160995Y189360D01*
X160378Y188556D01*
X159990Y187619D01*
X159857Y186614D01*
X159990Y185609D01*
X160378Y184673D01*
X160995Y183869D01*
X161799Y183252D01*
X162735Y182864D01*
X163740Y182731D01*
X164745Y182864D01*
X165548Y183196D01*
X165929Y182885D01*
Y168081D01*
X165456Y167921D01*
X165415Y167974D01*
X164734Y168496D01*
X163941Y168825D01*
X163091Y168937D01*
X162240Y168825D01*
X161447Y168496D01*
X160766Y167974D01*
X160244Y167293D01*
X159915Y166500D01*
X159803Y165650D01*
X159915Y164799D01*
X160244Y164006D01*
X160766Y163325D01*
X161447Y162803D01*
X162240Y162474D01*
X163091Y162362D01*
X163941Y162474D01*
X164734Y162803D01*
X165415Y163325D01*
X165456Y163379D01*
X165929Y163218D01*
Y159134D01*
X166011Y158724D01*
X166243Y158377D01*
X166563Y158056D01*
Y156574D01*
X164965D01*
Y155173D01*
X164800D01*
X164390Y155092D01*
X164043Y154859D01*
X164043Y154859D01*
X163508Y154324D01*
X163008Y154531D01*
Y155959D01*
X160661Y153611D01*
X160039Y154232D01*
X159418Y153611D01*
X157071Y155959D01*
Y151264D01*
X157371Y151192D01*
Y146249D01*
X158969D01*
Y143384D01*
X158541Y143098D01*
X158082Y142411D01*
X157921Y141600D01*
X158082Y140789D01*
X158541Y140102D01*
X159229Y139643D01*
X160039Y139481D01*
X160665Y139606D01*
X162217Y138221D01*
Y134755D01*
X160816D01*
Y129418D01*
X162217D01*
Y128314D01*
X160660Y126757D01*
X160428Y126410D01*
X160365Y126094D01*
X158571D01*
Y128700D01*
X158489Y129110D01*
X158257Y129457D01*
X150571Y137144D01*
Y155106D01*
X150998Y155392D01*
X151457Y156079D01*
X151619Y156890D01*
X151457Y157701D01*
X150998Y158388D01*
X150571Y158674D01*
Y183679D01*
X151071Y183810D01*
X151799Y183252D01*
X152735Y182864D01*
X153740Y182731D01*
X154745Y182864D01*
X155682Y183252D01*
X156486Y183869D01*
X157103Y184673D01*
X157491Y185609D01*
X157623Y186614D01*
X157491Y187619D01*
X157103Y188556D01*
X156486Y189360D01*
X155682Y189977D01*
X155313Y190129D01*
X155413Y190629D01*
X162068D01*
X162167Y190129D01*
D02*
G37*
G36*
X228329Y180511D02*
Y152838D01*
X227868Y152647D01*
X227275Y153239D01*
Y156901D01*
X221938D01*
Y156901D01*
X221471Y156980D01*
Y182522D01*
X221958Y182861D01*
X222657Y182571D01*
X223740Y182429D01*
X224823Y182571D01*
X225833Y182990D01*
X225843Y182997D01*
X228329Y180511D01*
D02*
G37*
G36*
X243141Y193363D02*
Y190555D01*
X243211Y190204D01*
X243410Y189906D01*
X243708Y189707D01*
X243969Y189655D01*
Y186461D01*
Y183561D01*
X241532Y181125D01*
X241071Y181316D01*
Y191500D01*
X240989Y191910D01*
X240786Y192214D01*
X240840Y192390D01*
X241033Y192688D01*
X241811Y192843D01*
X242498Y193302D01*
X242641Y193515D01*
X243141Y193363D01*
D02*
G37*
G36*
X202597Y200639D02*
X197384Y195426D01*
X197152Y195078D01*
X197070Y194669D01*
Y189376D01*
X196597Y189215D01*
X196486Y189360D01*
X195682Y189977D01*
X194745Y190365D01*
X193740Y190497D01*
X192735Y190365D01*
X191799Y189977D01*
X190995Y189360D01*
X190378Y188556D01*
X189990Y187619D01*
X189857Y186614D01*
X189990Y185609D01*
X190378Y184673D01*
X190995Y183869D01*
X191799Y183252D01*
X192735Y182864D01*
X193625Y182747D01*
X193875Y182289D01*
X181943Y170357D01*
X181711Y170010D01*
X181629Y169600D01*
Y168132D01*
X181363Y168042D01*
X181129Y168000D01*
X180482Y168496D01*
X179689Y168825D01*
X178839Y168937D01*
X177988Y168825D01*
X177195Y168496D01*
X176771Y168171D01*
X176271Y168417D01*
Y173257D01*
X179557Y176543D01*
X179789Y176890D01*
X179871Y177300D01*
Y184590D01*
X180371Y184690D01*
X180378Y184673D01*
X180995Y183869D01*
X181799Y183252D01*
X182735Y182864D01*
X183740Y182731D01*
X184745Y182864D01*
X185682Y183252D01*
X186486Y183869D01*
X187103Y184673D01*
X187491Y185609D01*
X187623Y186614D01*
X187491Y187619D01*
X187103Y188556D01*
X186486Y189360D01*
X185682Y189977D01*
X184745Y190365D01*
X183740Y190497D01*
X182735Y190365D01*
X181799Y189977D01*
X180995Y189360D01*
X180378Y188556D01*
X180371Y188539D01*
X179871Y188638D01*
Y193016D01*
X180298Y193302D01*
X180757Y193989D01*
X180919Y194800D01*
X180757Y195611D01*
X180298Y196298D01*
X179611Y196757D01*
X178800Y196919D01*
X177989Y196757D01*
X177302Y196298D01*
X176843Y195611D01*
X176681Y194800D01*
X176843Y193989D01*
X177302Y193302D01*
X177729Y193016D01*
Y188349D01*
X177229Y188250D01*
X177103Y188556D01*
X176486Y189360D01*
X175682Y189977D01*
X174745Y190365D01*
X173740Y190497D01*
X172735Y190365D01*
X171864Y190004D01*
X169411Y192457D01*
X169064Y192689D01*
X168654Y192771D01*
X152000D01*
X151590Y192689D01*
X151243Y192457D01*
X151243Y192457D01*
X148743Y189957D01*
X148511Y189610D01*
X148429Y189200D01*
Y158674D01*
X148002Y158388D01*
X147543Y157701D01*
X147381Y156890D01*
X147543Y156079D01*
X148002Y155392D01*
X148429Y155106D01*
Y136700D01*
X148511Y136290D01*
X148743Y135943D01*
X156429Y128256D01*
Y85600D01*
X156511Y85190D01*
X156743Y84843D01*
X157611Y83975D01*
X157958Y83743D01*
X158075Y83720D01*
Y82359D01*
X163216D01*
Y83662D01*
X166178D01*
Y82359D01*
X167815D01*
X167991Y82095D01*
X168515Y81571D01*
X168308Y81071D01*
X154307D01*
X153507Y81871D01*
X153714Y82371D01*
X154834D01*
Y87117D01*
X154834D01*
Y87489D01*
X154834D01*
Y92235D01*
X153334D01*
Y96021D01*
X153253Y96431D01*
X153021Y96778D01*
X153021Y96778D01*
X140774Y109025D01*
X140427Y109257D01*
X140017Y109338D01*
X138871D01*
Y110257D01*
X139396Y110782D01*
X139900Y110681D01*
X140711Y110843D01*
X141398Y111302D01*
X141857Y111989D01*
X142019Y112800D01*
X141857Y113611D01*
X141398Y114298D01*
X140711Y114757D01*
X139900Y114919D01*
X139220Y114784D01*
X138721Y115067D01*
Y116821D01*
X138657Y117139D01*
X136054Y114536D01*
X135206Y115385D01*
X137809Y117988D01*
X137490Y118051D01*
X120384D01*
X120075Y117990D01*
X119575Y118287D01*
Y131283D01*
X123577D01*
X118504Y136356D01*
X113431Y131283D01*
X117433D01*
Y116857D01*
Y102400D01*
X117515Y101990D01*
X117747Y101643D01*
X118572Y100818D01*
X118920Y100586D01*
X119153Y100539D01*
Y99715D01*
X119217Y99396D01*
X121820Y101999D01*
X122668Y101151D01*
X120065Y98548D01*
X120384Y98484D01*
X137490D01*
X137961Y98578D01*
X138360Y98845D01*
X138858Y98877D01*
X139229Y98533D01*
Y82141D01*
X139311Y81731D01*
X139543Y81384D01*
X143388Y77539D01*
X143088Y76815D01*
X142965Y75886D01*
X143088Y74957D01*
X143388Y74232D01*
X137374Y68218D01*
X136614Y68370D01*
X135686Y68185D01*
X135408Y67999D01*
X137039Y66369D01*
X138669Y64739D01*
X138854Y65017D01*
X139039Y65945D01*
X138888Y66704D01*
X144902Y72718D01*
X145626Y72418D01*
X146555Y72296D01*
X147484Y72418D01*
X148350Y72777D01*
X148629Y72992D01*
X149129Y72745D01*
Y69943D01*
X132983Y53797D01*
X132751Y53450D01*
X132670Y53040D01*
Y51440D01*
Y44014D01*
X132170Y43811D01*
X131671Y44145D01*
Y59487D01*
X135855Y63671D01*
X136614Y63520D01*
X137542Y63705D01*
X137820Y63891D01*
X136190Y65521D01*
X134560Y67151D01*
X134374Y66873D01*
X134190Y65945D01*
X134341Y65186D01*
X129843Y60688D01*
X129611Y60340D01*
X129529Y59931D01*
Y44145D01*
X129394Y44054D01*
X131024Y42424D01*
X130176Y41576D01*
X128546Y43206D01*
X128360Y42928D01*
X128175Y42000D01*
X128360Y41072D01*
X128440Y40953D01*
X128429Y40900D01*
Y23300D01*
X128511Y22890D01*
X128743Y22543D01*
X129090Y22311D01*
X129500Y22229D01*
X185700D01*
X186110Y22311D01*
X186457Y22543D01*
X187968Y24054D01*
X188429Y23862D01*
Y21337D01*
X188511Y20928D01*
X188743Y20580D01*
X195827Y13496D01*
X195636Y13035D01*
X112541D01*
X112241Y13498D01*
X112245Y13534D01*
X112557Y13743D01*
X127257Y28443D01*
X127489Y28790D01*
X127571Y29200D01*
Y85404D01*
X137490D01*
X137844Y85475D01*
X138144Y85675D01*
X138344Y85975D01*
X138415Y86329D01*
Y90049D01*
X138344Y90403D01*
X138144Y90703D01*
X137844Y90903D01*
X137490Y90974D01*
X120384D01*
X120030Y90903D01*
X119730Y90703D01*
X119530Y90403D01*
X119459Y90049D01*
Y86329D01*
X119530Y85975D01*
X119730Y85675D01*
X120030Y85475D01*
X120384Y85404D01*
X125429D01*
Y55818D01*
X117606D01*
Y92574D01*
X118843Y93811D01*
X119459D01*
Y93022D01*
X119530Y92668D01*
X119730Y92368D01*
X120030Y92168D01*
X120384Y92097D01*
X137490D01*
X137844Y92168D01*
X138144Y92368D01*
X138344Y92668D01*
X138415Y93022D01*
Y96742D01*
X138344Y97096D01*
X138144Y97396D01*
X137844Y97596D01*
X137490Y97667D01*
X120384D01*
X120030Y97596D01*
X119730Y97396D01*
X119530Y97096D01*
X119459Y96742D01*
Y95952D01*
X118843D01*
X114271Y100525D01*
Y107000D01*
X114271Y107000D01*
X114189Y107410D01*
X113957Y107757D01*
X113957Y107757D01*
X75874Y145840D01*
Y180698D01*
X79440D01*
Y183496D01*
X79902Y183688D01*
X116065Y147525D01*
X115874Y147063D01*
X113431D01*
X118504Y141990D01*
X123577Y147063D01*
X119457D01*
X119261Y147357D01*
X80871Y185748D01*
Y195200D01*
X80789Y195610D01*
X80557Y195957D01*
X79657Y196857D01*
X79310Y197089D01*
X78900Y197171D01*
X64600D01*
X64190Y197089D01*
X63843Y196857D01*
X59543Y192557D01*
X59311Y192210D01*
X59229Y191800D01*
Y155930D01*
X58767Y155739D01*
X47527Y166979D01*
Y180398D01*
X50545D01*
X46457Y184486D01*
X42368Y180398D01*
X45386D01*
Y166535D01*
X45468Y166126D01*
X45700Y165778D01*
X59543Y151935D01*
X61620Y149858D01*
X61489Y149698D01*
X60884Y148567D01*
X60512Y147339D01*
X60386Y146063D01*
X60512Y144787D01*
X60884Y143559D01*
X61489Y142428D01*
X61620Y142268D01*
X45243Y125891D01*
X45011Y125543D01*
X44929Y125134D01*
Y116551D01*
X44238D01*
X48554Y112235D01*
X48130Y111811D01*
X48554Y111387D01*
X44238Y107071D01*
X44929D01*
Y71276D01*
X44534D01*
X48849Y66960D01*
X48425Y66535D01*
X48849Y66111D01*
X44534Y61795D01*
X44929D01*
Y42395D01*
X36920D01*
Y40600D01*
X36314D01*
X34871Y42044D01*
Y64735D01*
X34789Y65145D01*
X34557Y65492D01*
X34557Y65492D01*
X32757Y67292D01*
X32410Y67524D01*
X32196Y67567D01*
Y70976D01*
X23905D01*
Y89000D01*
X23905Y89000D01*
X23824Y89410D01*
X23610Y89729D01*
Y107371D01*
X31901D01*
Y116251D01*
X23571D01*
Y170300D01*
X23489Y170710D01*
X23257Y171057D01*
X15571Y178744D01*
Y183712D01*
X16071Y183853D01*
X16664Y182884D01*
X17398Y182025D01*
X25166Y189794D01*
X32935Y197563D01*
X32076Y198297D01*
X31044Y198929D01*
X31185Y199429D01*
X85989D01*
X90662Y194756D01*
Y194106D01*
X87095D01*
Y180698D01*
X96369D01*
Y194106D01*
X92803D01*
Y195200D01*
X92721Y195610D01*
X92489Y195957D01*
X87770Y200677D01*
X87961Y201139D01*
X202390D01*
X202597Y200639D01*
D02*
G37*
G36*
X258446Y196879D02*
X258410Y196512D01*
X258211Y196214D01*
X258141Y195862D01*
Y190555D01*
X258211Y190204D01*
X258410Y189906D01*
X258708Y189707D01*
X259059Y189637D01*
X261020D01*
X261371Y189707D01*
X261669Y189906D01*
X261868Y190204D01*
X261938Y190555D01*
Y195862D01*
X261868Y196214D01*
X262263Y196523D01*
X263141Y195645D01*
Y190555D01*
X263211Y190204D01*
X263410Y189906D01*
X263708Y189707D01*
X264059Y189637D01*
X266020D01*
X266165Y189517D01*
X266182Y188996D01*
X257638Y180452D01*
X257095Y180616D01*
X256997Y181111D01*
X256538Y181798D01*
X256110Y182084D01*
Y189655D01*
X256371Y189707D01*
X256669Y189906D01*
X256868Y190204D01*
X256938Y190555D01*
Y195862D01*
X256868Y196214D01*
X256669Y196512D01*
X256371Y196711D01*
X256020Y196781D01*
X254059D01*
X253708Y196711D01*
X253410Y196512D01*
X253211Y196214D01*
X253141Y195862D01*
Y190555D01*
X253211Y190204D01*
X253410Y189906D01*
X253708Y189707D01*
X253969Y189655D01*
Y182084D01*
X253541Y181798D01*
X253082Y181111D01*
X253004Y180717D01*
X252461Y180553D01*
X246110Y186904D01*
Y189655D01*
X246371Y189707D01*
X246669Y189906D01*
X246868Y190204D01*
X246938Y190555D01*
Y195862D01*
X247158Y196129D01*
X247921D01*
X248141Y195862D01*
Y190555D01*
X248211Y190204D01*
X248410Y189906D01*
X248708Y189707D01*
X249059Y189637D01*
X251020D01*
X251371Y189707D01*
X251669Y189906D01*
X251868Y190204D01*
X251938Y190555D01*
Y195862D01*
X251868Y196214D01*
X251669Y196512D01*
X251371Y196711D01*
X251186Y196747D01*
X251107Y197233D01*
X251504Y197729D01*
X257596D01*
X258446Y196879D01*
D02*
G37*
G36*
X304221Y181386D02*
X301815D01*
X301405Y181304D01*
X301058Y181072D01*
X301058Y181072D01*
X296857Y176871D01*
X280000D01*
X279590Y176789D01*
X279243Y176557D01*
X278343Y175657D01*
X278111Y175310D01*
X278029Y174900D01*
Y167553D01*
X277529Y167402D01*
X277398Y167598D01*
X277117Y167786D01*
X276885Y168233D01*
X277151Y168630D01*
X277244Y169098D01*
Y174405D01*
X277182Y174719D01*
X275464Y173001D01*
X274615Y173849D01*
X276333Y175567D01*
X276110Y175612D01*
Y178756D01*
X280283Y182929D01*
X282961D01*
Y177647D01*
X296566D01*
Y182929D01*
X304221D01*
Y181386D01*
D02*
G37*
G36*
X251201Y178785D02*
Y175473D01*
X251020Y175324D01*
X249514D01*
X249247Y175824D01*
X249357Y175989D01*
X249519Y176800D01*
X249357Y177611D01*
X248898Y178298D01*
X248211Y178757D01*
X247400Y178919D01*
X246589Y178757D01*
X245902Y178298D01*
X245443Y177611D01*
X245281Y176800D01*
X245443Y175989D01*
X245593Y175765D01*
X245357Y175324D01*
X244059D01*
X243708Y175254D01*
X243410Y175055D01*
X243271Y174847D01*
X242836Y174904D01*
X242771Y174930D01*
Y179335D01*
X245796Y182361D01*
X245796Y182361D01*
X246028Y182708D01*
X246110Y183118D01*
Y183223D01*
X246572Y183414D01*
X251201Y178785D01*
D02*
G37*
G36*
X304221Y177647D02*
X317129D01*
Y173284D01*
X304770D01*
X307314Y170739D01*
X306465Y169891D01*
X303921Y172435D01*
Y167347D01*
X303474Y167218D01*
X296739D01*
X296566Y167647D01*
X296566D01*
Y172984D01*
X283642D01*
X283557Y173411D01*
X283098Y174098D01*
X282902Y174229D01*
X283053Y174729D01*
X297300D01*
X297710Y174811D01*
X298057Y175043D01*
X302258Y179244D01*
X304221D01*
Y177647D01*
D02*
G37*
G36*
X198470Y183203D02*
Y172143D01*
X195604Y169278D01*
X195100Y169378D01*
X194289Y169217D01*
X193602Y168757D01*
X193143Y168070D01*
X192981Y167259D01*
X193143Y166449D01*
X193602Y165761D01*
X194289Y165302D01*
X194869Y165187D01*
X195050Y164660D01*
X186804Y156414D01*
X186342Y156605D01*
Y156968D01*
X181005D01*
Y152025D01*
X180705Y151953D01*
Y148795D01*
X178705D01*
Y151559D01*
X178405Y151631D01*
Y156574D01*
X177057D01*
X176821Y157074D01*
X177157Y157577D01*
X177189Y157738D01*
X177680Y157835D01*
X177702Y157802D01*
X178389Y157343D01*
X179200Y157181D01*
X180011Y157343D01*
X180698Y157802D01*
X181157Y158489D01*
X181319Y159300D01*
X181218Y159804D01*
X183457Y162043D01*
X183689Y162390D01*
X183771Y162800D01*
X183771Y162800D01*
Y163309D01*
X184271Y163479D01*
X184388Y163325D01*
X185069Y162803D01*
X185862Y162474D01*
X186713Y162362D01*
X187563Y162474D01*
X188356Y162803D01*
X189037Y163325D01*
X189559Y164006D01*
X189888Y164799D01*
X190000Y165650D01*
X189888Y166500D01*
X189559Y167293D01*
X189037Y167974D01*
X188356Y168496D01*
X187563Y168825D01*
X186713Y168937D01*
X185862Y168825D01*
X185069Y168496D01*
X184388Y167974D01*
X184271Y167821D01*
X183771Y167990D01*
Y169157D01*
X198008Y183394D01*
X198470Y183203D01*
D02*
G37*
G36*
X170350Y188490D02*
X169990Y187619D01*
X169857Y186614D01*
X169990Y185609D01*
X170378Y184673D01*
X170995Y183869D01*
X171799Y183252D01*
X172735Y182864D01*
X173740Y182731D01*
X174745Y182864D01*
X175682Y183252D01*
X176486Y183869D01*
X177103Y184673D01*
X177229Y184978D01*
X177729Y184879D01*
Y177743D01*
X174443Y174457D01*
X174211Y174110D01*
X174129Y173700D01*
Y167700D01*
X173629Y167530D01*
X173289Y167974D01*
X172608Y168496D01*
X171815Y168825D01*
X170965Y168937D01*
X170114Y168825D01*
X169321Y168496D01*
X168640Y167974D01*
X168571Y167883D01*
X168071Y168053D01*
Y183354D01*
X167989Y183764D01*
X167757Y184111D01*
X167757Y184111D01*
X167130Y184738D01*
X167491Y185609D01*
X167623Y186614D01*
X167491Y187619D01*
X167103Y188556D01*
X166486Y189360D01*
X165682Y189977D01*
X165313Y190129D01*
X165413Y190629D01*
X168211D01*
X170350Y188490D01*
D02*
G37*
G36*
X174129Y163599D02*
Y160172D01*
X173702Y159886D01*
X173243Y159199D01*
X173081Y158388D01*
X173243Y157577D01*
X173579Y157074D01*
X173343Y156574D01*
X173068D01*
Y155173D01*
X170302D01*
Y156574D01*
X168704D01*
Y158500D01*
X168623Y158910D01*
X168391Y159257D01*
X168071Y159577D01*
Y163246D01*
X168571Y163416D01*
X168640Y163325D01*
X169321Y162803D01*
X170114Y162474D01*
X170965Y162362D01*
X171815Y162474D01*
X172608Y162803D01*
X173289Y163325D01*
X173629Y163769D01*
X174129Y163599D01*
D02*
G37*
G36*
X243410Y168449D02*
X243708Y168250D01*
X244059Y168180D01*
X246020D01*
X246329Y167926D01*
Y159853D01*
X245829Y159702D01*
X245698Y159898D01*
X245011Y160357D01*
X244200Y160519D01*
X243389Y160357D01*
X243212Y160239D01*
X242771Y160474D01*
Y168574D01*
X242836Y168600D01*
X243271Y168657D01*
X243410Y168449D01*
D02*
G37*
G36*
X268969Y189151D02*
Y175306D01*
X268708Y175254D01*
X268410Y175055D01*
X268211Y174757D01*
X268141Y174405D01*
Y169098D01*
X268211Y168747D01*
X268410Y168449D01*
X268708Y168250D01*
X268969Y168198D01*
Y164412D01*
X269050Y164003D01*
X269282Y163655D01*
X273429Y159508D01*
Y158938D01*
X272968Y158747D01*
X266110Y165604D01*
Y168198D01*
X266371Y168250D01*
X266669Y168449D01*
X266868Y168747D01*
X266938Y169098D01*
Y174405D01*
X266868Y174757D01*
X266669Y175055D01*
X266371Y175254D01*
X266020Y175324D01*
X264059D01*
X263708Y175254D01*
X263410Y175055D01*
X263211Y174757D01*
X263141Y174405D01*
Y169098D01*
X263211Y168747D01*
X263410Y168449D01*
X263708Y168250D01*
X263969Y168198D01*
Y165161D01*
X264050Y164751D01*
X264282Y164404D01*
X272029Y156657D01*
Y143889D01*
X271544Y143767D01*
X271466Y143914D01*
X270493Y145099D01*
X269307Y146072D01*
X267955Y146795D01*
X266487Y147241D01*
X264961Y147391D01*
X263434Y147241D01*
X261966Y146795D01*
X260614Y146072D01*
X259428Y145099D01*
X258455Y143914D01*
X258356Y143728D01*
X257871Y143849D01*
Y153252D01*
X260796Y156177D01*
X260796Y156177D01*
X261029Y156525D01*
X261110Y156934D01*
Y168198D01*
X261371Y168250D01*
X261669Y168449D01*
X261868Y168747D01*
X261938Y169098D01*
Y174405D01*
X261868Y174757D01*
X261669Y175055D01*
X261371Y175254D01*
X261020Y175324D01*
X259059D01*
X258871Y175286D01*
X258459Y175532D01*
X258371Y175630D01*
Y178156D01*
X268057Y187843D01*
X268057Y187843D01*
X268289Y188190D01*
X268371Y188600D01*
X268371Y188600D01*
Y188916D01*
X268871Y189206D01*
X268969Y189151D01*
D02*
G37*
G36*
X219329Y183004D02*
Y157336D01*
X219173Y156901D01*
X217575D01*
Y181957D01*
X218829Y183211D01*
X219329Y183004D01*
D02*
G37*
G36*
X78729Y194756D02*
Y194106D01*
X70166D01*
Y180698D01*
X73733D01*
Y147790D01*
X73233Y147716D01*
X72974Y148567D01*
X72370Y149698D01*
X71939Y150224D01*
X67778Y146063D01*
X71939Y141902D01*
X72370Y142428D01*
X72974Y143559D01*
X73347Y144787D01*
X73353Y144846D01*
X73566Y144911D01*
X73862Y144916D01*
X74046Y144640D01*
X102928Y115758D01*
X102736Y115296D01*
X70923D01*
X70565Y115225D01*
X83790Y101999D01*
X83366Y101575D01*
X83790Y101151D01*
X70565Y87925D01*
X70923Y87853D01*
X103880D01*
X104239Y87925D01*
X91013Y101151D01*
X91861Y101999D01*
X105087Y88773D01*
X105158Y89132D01*
Y112874D01*
X105620Y113066D01*
X112129Y106557D01*
Y100082D01*
X112211Y99672D01*
X112443Y99325D01*
X116886Y94882D01*
X115778Y93774D01*
X115546Y93427D01*
X115465Y93017D01*
Y55818D01*
X106977D01*
Y30796D01*
X125429D01*
Y29643D01*
X111356Y15571D01*
X31249D01*
X31108Y16071D01*
X32076Y16664D01*
X32935Y17398D01*
X25166Y25166D01*
X17398Y32935D01*
X16664Y32076D01*
X16071Y31108D01*
X15571Y31249D01*
Y34756D01*
X19273Y38459D01*
X36920D01*
Y36664D01*
X44929D01*
Y32458D01*
X37469D01*
X40210Y29717D01*
X39362Y28869D01*
X36621Y31610D01*
Y30364D01*
X35520D01*
X35422Y30600D01*
X34517Y32076D01*
X33784Y32935D01*
X26439Y25591D01*
X33784Y18246D01*
X34517Y19105D01*
X35422Y20581D01*
X36085Y22181D01*
X36489Y23865D01*
X36625Y25591D01*
X36622Y25628D01*
X37084Y26128D01*
X44465D01*
X41724Y28869D01*
X42572Y29717D01*
X45314Y26976D01*
Y28222D01*
X46113D01*
Y26976D01*
X48854Y29717D01*
X49703Y28869D01*
X46962Y26128D01*
X53958D01*
X51217Y28869D01*
X51641Y29293D01*
X51217Y29717D01*
X53958Y32458D01*
X47071D01*
Y36664D01*
X54506D01*
Y38459D01*
X55906D01*
Y36664D01*
X63999D01*
Y38459D01*
X65639D01*
Y30796D01*
X84755D01*
Y38459D01*
X89727D01*
X100123Y28063D01*
X100022Y27559D01*
X100184Y26748D01*
X100643Y26061D01*
X101330Y25602D01*
X102141Y25440D01*
X102952Y25602D01*
X103639Y26061D01*
X104098Y26748D01*
X104260Y27559D01*
X104098Y28370D01*
X103639Y29057D01*
X102952Y29516D01*
X102141Y29678D01*
X101637Y29577D01*
X90928Y40286D01*
X90580Y40518D01*
X90171Y40600D01*
X84755D01*
Y55818D01*
X65639D01*
Y41082D01*
X65157Y40600D01*
X63999D01*
Y42395D01*
X55906D01*
Y40600D01*
X54506D01*
Y42395D01*
X47071D01*
Y61795D01*
X62159D01*
X57843Y66111D01*
X58268Y66535D01*
X57843Y66960D01*
X62159Y71276D01*
X54356D01*
X54122Y89302D01*
Y102333D01*
X54584Y102523D01*
X56263Y100823D01*
X56266Y100821D01*
X56268Y100818D01*
X56440Y100703D01*
X56609Y100588D01*
X56613Y100588D01*
X56616Y100586D01*
X56817Y100546D01*
X57018Y100504D01*
X57022Y100505D01*
X57025Y100504D01*
X69645D01*
Y89132D01*
X69716Y88773D01*
X82518Y101575D01*
X69716Y114376D01*
X69645Y114018D01*
Y102645D01*
X57473D01*
X54122Y106039D01*
Y107071D01*
X61864D01*
X57548Y111387D01*
X57973Y111811D01*
X57548Y112235D01*
X61864Y116551D01*
X54471D01*
Y121805D01*
X67686Y135021D01*
X67918Y135368D01*
X68000Y135778D01*
X68000Y135778D01*
Y139625D01*
X68206Y139645D01*
X69433Y140018D01*
X70565Y140622D01*
X71090Y141054D01*
X66505Y145639D01*
X66929Y146063D01*
X66505Y146487D01*
X71090Y151072D01*
X70565Y151504D01*
X69433Y152108D01*
X68206Y152481D01*
X66929Y152606D01*
X65653Y152481D01*
X64425Y152108D01*
X63294Y151504D01*
X63134Y151372D01*
X61371Y153136D01*
Y158792D01*
X61871Y158971D01*
X62515Y158185D01*
X63461Y157408D01*
X64540Y156832D01*
X65711Y156476D01*
X66929Y156357D01*
X68147Y156476D01*
X69318Y156832D01*
X70397Y157408D01*
X71343Y158185D01*
X72119Y159131D01*
X72696Y160210D01*
X73051Y161381D01*
X73171Y162598D01*
X73051Y163816D01*
X72696Y164987D01*
X72119Y166066D01*
X71343Y167012D01*
X70397Y167788D01*
X69318Y168365D01*
X68147Y168720D01*
X66929Y168840D01*
X65711Y168720D01*
X64540Y168365D01*
X63461Y167788D01*
X62515Y167012D01*
X61871Y166226D01*
X61371Y166405D01*
Y191357D01*
X65043Y195029D01*
X78457D01*
X78729Y194756D01*
D02*
G37*
G36*
X258969Y167694D02*
Y157378D01*
X256932Y155341D01*
X256471Y155533D01*
Y164210D01*
X256657Y164489D01*
X256819Y165300D01*
X256657Y166111D01*
X256577Y166231D01*
X256813Y166672D01*
X257300D01*
X257710Y166753D01*
X258057Y166986D01*
X258289Y167333D01*
X258320Y167488D01*
X258799Y167749D01*
X258871Y167750D01*
X258969Y167694D01*
D02*
G37*
G36*
X237529Y182256D02*
Y154038D01*
X237068Y153847D01*
X235728Y155186D01*
X235381Y155418D01*
X235377Y155419D01*
Y156901D01*
X230471D01*
Y180954D01*
X230471Y180954D01*
X230389Y181364D01*
X230157Y181711D01*
X230157Y181711D01*
X227357Y184511D01*
X227365Y184521D01*
X227783Y185531D01*
X227926Y186614D01*
X227783Y187698D01*
X227365Y188707D01*
X226887Y189329D01*
X227134Y189829D01*
X229957D01*
X237529Y182256D01*
D02*
G37*
G36*
X210378Y184673D02*
X210995Y183869D01*
X211799Y183252D01*
X212670Y182891D01*
Y160944D01*
X212242Y160658D01*
X211783Y159971D01*
X211621Y159160D01*
X211783Y158349D01*
X212242Y157662D01*
X212929Y157202D01*
X213420Y157105D01*
X213760Y156938D01*
X213836Y156551D01*
Y152515D01*
X213335Y152308D01*
X211370Y154273D01*
Y156352D01*
X209023Y154005D01*
X208174Y154853D01*
X210522Y157201D01*
X205788D01*
Y158651D01*
X205707Y159061D01*
X205475Y159408D01*
X205128Y159640D01*
X204718Y159722D01*
X196000D01*
X195590Y159640D01*
X195243Y159408D01*
X194390Y158555D01*
X194158Y158207D01*
X194076Y157798D01*
Y157268D01*
X191339D01*
X191148Y157730D01*
X209457Y176039D01*
X209689Y176386D01*
X209771Y176796D01*
Y184832D01*
X210271Y184931D01*
X210378Y184673D01*
D02*
G37*
G36*
X249059Y168180D02*
X251020D01*
X251201Y168031D01*
Y160414D01*
X251229Y160273D01*
Y152238D01*
X250767Y152047D01*
X248471Y154343D01*
Y167852D01*
X248971Y168197D01*
X249059Y168180D01*
D02*
G37*
G36*
X246329Y156947D02*
Y153900D01*
X246411Y153490D01*
X246643Y153143D01*
X249629Y150157D01*
Y145884D01*
X249129Y145744D01*
X248511Y146157D01*
X247700Y146319D01*
X246889Y146157D01*
X246202Y145698D01*
X246031Y145442D01*
X245352Y145314D01*
X245271Y145370D01*
Y156616D01*
X245698Y156902D01*
X245829Y157098D01*
X246329Y156947D01*
D02*
G37*
G36*
X275900Y163981D02*
X276404Y164082D01*
X276743Y163743D01*
X277090Y163511D01*
X277500Y163429D01*
X301757D01*
X309629Y155557D01*
Y143886D01*
X309144Y143764D01*
X309065Y143914D01*
X308092Y145099D01*
X306906Y146072D01*
X305553Y146795D01*
X304085Y147241D01*
X302559Y147391D01*
X301033Y147241D01*
X299565Y146795D01*
X298212Y146072D01*
X297026Y145099D01*
X296053Y143914D01*
X295330Y142561D01*
X294885Y141093D01*
X294735Y139567D01*
X294885Y138040D01*
X295330Y136573D01*
X296053Y135220D01*
X297026Y134034D01*
X298212Y133061D01*
X299565Y132338D01*
X301033Y131893D01*
X302559Y131743D01*
X304085Y131893D01*
X305553Y132338D01*
X306906Y133061D01*
X308092Y134034D01*
X309065Y135220D01*
X309144Y135369D01*
X309629Y135248D01*
Y106288D01*
X309144Y106166D01*
X309065Y106315D01*
X308092Y107501D01*
X306906Y108474D01*
X305553Y109197D01*
X304085Y109642D01*
X302559Y109793D01*
X301033Y109642D01*
X299565Y109197D01*
X298212Y108474D01*
X297026Y107501D01*
X296053Y106315D01*
X295330Y104963D01*
X294885Y103495D01*
X294735Y101968D01*
X294885Y100442D01*
X295330Y98974D01*
X296053Y97622D01*
X297026Y96436D01*
X298212Y95463D01*
X299565Y94740D01*
X301033Y94294D01*
X302559Y94144D01*
X304085Y94294D01*
X305553Y94740D01*
X306906Y95463D01*
X308092Y96436D01*
X309065Y97622D01*
X309144Y97771D01*
X309629Y97649D01*
Y69407D01*
X306714Y66491D01*
X306214Y66585D01*
Y68613D01*
X299007D01*
Y66425D01*
X298400D01*
X297990Y66343D01*
X297643Y66111D01*
X296450Y64918D01*
X295946Y65019D01*
X295135Y64857D01*
X294448Y64398D01*
X293988Y63711D01*
X293827Y62900D01*
X293988Y62089D01*
X294448Y61402D01*
X295135Y60943D01*
X295946Y60781D01*
X296089Y60810D01*
X296335Y60349D01*
X295604Y59618D01*
X295100Y59719D01*
X294289Y59557D01*
X293602Y59098D01*
X293143Y58411D01*
X292981Y57600D01*
X293143Y56789D01*
X293549Y56181D01*
X293160Y55863D01*
X287980Y61043D01*
Y69577D01*
X289776D01*
Y68987D01*
X289349Y68701D01*
X288889Y68014D01*
X288728Y67203D01*
X288889Y66392D01*
X289349Y65705D01*
X290036Y65246D01*
X290847Y65084D01*
X291657Y65246D01*
X292345Y65705D01*
X292804Y66392D01*
X292965Y67203D01*
X292804Y68014D01*
X292345Y68701D01*
X291917Y68987D01*
Y69577D01*
X298042D01*
Y76784D01*
X289949D01*
Y148222D01*
X289867Y148632D01*
X289635Y148979D01*
X274906Y163708D01*
X274916Y163732D01*
X275201Y164120D01*
X275900Y163981D01*
D02*
G37*
G36*
X173068Y151631D02*
X172768Y151559D01*
Y146864D01*
X175115Y149212D01*
X175964Y148363D01*
X173616Y146016D01*
X174666D01*
Y134844D01*
X172979Y133157D01*
X171374D01*
Y134207D01*
X169254Y132087D01*
X171374Y129967D01*
Y131016D01*
X173423D01*
X173832Y131097D01*
X174180Y131330D01*
X176493Y133643D01*
X176725Y133990D01*
X176807Y134400D01*
Y141704D01*
X177307Y141971D01*
X177772Y141660D01*
X178700Y141475D01*
X179628Y141660D01*
X179906Y141846D01*
X178276Y143476D01*
X178700Y143900D01*
X178276Y144324D01*
X179906Y145954D01*
X179628Y146140D01*
X179556Y146154D01*
X179605Y146654D01*
X180705D01*
Y146409D01*
X185810D01*
X185943Y145740D01*
X186402Y145053D01*
X187089Y144594D01*
X187900Y144432D01*
X188711Y144594D01*
X189398Y145053D01*
X189684Y145481D01*
X190705D01*
Y144709D01*
X189066Y143070D01*
X188834Y142723D01*
X188752Y142313D01*
Y141166D01*
X188404Y140818D01*
X187900Y140919D01*
X187089Y140757D01*
X186402Y140298D01*
X185943Y139611D01*
X185781Y138800D01*
X185943Y137989D01*
X186258Y137517D01*
X185997Y137017D01*
X182843D01*
Y129613D01*
X183752D01*
Y122044D01*
X179979Y118271D01*
X176394D01*
Y125545D01*
X173259Y122410D01*
X172410Y123259D01*
X175545Y126394D01*
X172755D01*
X170492Y128656D01*
X170637Y129006D01*
X168178Y131465D01*
X168799Y132087D01*
X168178Y132708D01*
X170526Y135055D01*
X169668D01*
X169401Y135555D01*
X169557Y135789D01*
X169719Y136600D01*
X169557Y137411D01*
X169098Y138098D01*
X168704Y138361D01*
Y146316D01*
X170302D01*
Y151259D01*
X170302D01*
Y151631D01*
X170302D01*
Y153032D01*
X173068D01*
Y151631D01*
D02*
G37*
G36*
X213535Y149080D02*
Y147191D01*
X215883Y149539D01*
X216731Y148690D01*
X214384Y146343D01*
X215433D01*
Y142155D01*
X215515Y141745D01*
X215747Y141398D01*
X215957Y141188D01*
Y138502D01*
X215283D01*
X215225Y138589D01*
X214357Y139457D01*
X214010Y139689D01*
X213812Y139728D01*
X213498Y140198D01*
X212811Y140657D01*
X212000Y140819D01*
X211189Y140657D01*
X210502Y140198D01*
X210043Y139511D01*
X209971Y139149D01*
X209471Y139198D01*
Y146643D01*
X211070D01*
Y150892D01*
X211532Y151083D01*
X213535Y149080D01*
D02*
G37*
G36*
X205447Y148357D02*
X205733Y148166D01*
Y146643D01*
X207329D01*
Y137300D01*
X207411Y136890D01*
X207643Y136543D01*
X210443Y133743D01*
X210790Y133511D01*
X211200Y133429D01*
X211200Y133429D01*
X212883D01*
Y130995D01*
X212455Y130821D01*
X202102D01*
Y137317D01*
X202102D01*
X201971Y137563D01*
X202257Y137990D01*
X202418Y138801D01*
X202257Y139612D01*
X201797Y140299D01*
X201370Y140585D01*
Y146643D01*
X202968D01*
Y150183D01*
X203430Y150374D01*
X205447Y148357D01*
D02*
G37*
G36*
X164824Y149458D02*
X164965Y149360D01*
Y146316D01*
X166563D01*
Y138406D01*
X166102Y138098D01*
X165643Y137411D01*
X165481Y136600D01*
X165643Y135789D01*
X165806Y135545D01*
X165822Y135229D01*
X165462Y134755D01*
X164358D01*
Y138700D01*
X164352Y138730D01*
X164356Y138760D01*
X164311Y138934D01*
X164277Y139110D01*
X164259Y139135D01*
X164252Y139165D01*
X164144Y139308D01*
X164044Y139457D01*
X164019Y139474D01*
X164000Y139499D01*
X162081Y141212D01*
X162158Y141600D01*
X161997Y142411D01*
X161538Y143098D01*
X161110Y143384D01*
Y146249D01*
X162708D01*
Y147850D01*
X162878Y147964D01*
X164465Y149551D01*
X164824Y149458D01*
D02*
G37*
G36*
X272029Y135245D02*
Y98471D01*
X265771D01*
Y118100D01*
X265689Y118510D01*
X265457Y118857D01*
X264518Y119796D01*
X264619Y120300D01*
X264457Y121111D01*
X263998Y121798D01*
X263311Y122257D01*
X262500Y122419D01*
X261689Y122257D01*
X261071Y121844D01*
X260571Y121984D01*
Y132517D01*
X261071Y132817D01*
X261966Y132338D01*
X263434Y131893D01*
X264961Y131743D01*
X266487Y131893D01*
X267955Y132338D01*
X269307Y133061D01*
X270493Y134034D01*
X271466Y135220D01*
X271544Y135366D01*
X272029Y135245D01*
D02*
G37*
G36*
X253889Y163343D02*
X254329Y163255D01*
Y129003D01*
X253829Y128851D01*
X253798Y128898D01*
X253371Y129184D01*
Y160386D01*
X253371Y160386D01*
X253343Y160527D01*
Y163178D01*
X253783Y163413D01*
X253889Y163343D01*
D02*
G37*
G36*
X233329Y130439D02*
X221389Y118498D01*
X221157Y118151D01*
X221075Y117741D01*
Y115176D01*
X220576Y115123D01*
X220344Y115470D01*
X220344Y115470D01*
X219157Y116657D01*
X218810Y116889D01*
X218400Y116971D01*
X205543D01*
X198271Y124243D01*
Y129313D01*
X198852D01*
X199066Y128993D01*
X199413Y128761D01*
X199823Y128679D01*
X216000D01*
X216410Y128761D01*
X216757Y128993D01*
X217785Y130021D01*
X217785Y130021D01*
X218017Y130368D01*
X218082Y130695D01*
X218913D01*
Y130995D01*
X222377D01*
X222700Y130495D01*
X222581Y129900D01*
X222743Y129089D01*
X223202Y128402D01*
X223889Y127943D01*
X224700Y127781D01*
X225511Y127943D01*
X226198Y128402D01*
X226657Y129089D01*
X226819Y129900D01*
X226700Y130495D01*
X227023Y130995D01*
X233329D01*
Y130439D01*
D02*
G37*
G36*
X254329Y125797D02*
Y110000D01*
X254411Y109590D01*
X254643Y109243D01*
X255229Y108657D01*
Y104874D01*
X254788Y104639D01*
X254611Y104757D01*
X253800Y104919D01*
X253296Y104818D01*
X250943Y107171D01*
Y125277D01*
X251383Y125513D01*
X251489Y125443D01*
X252300Y125281D01*
X253111Y125443D01*
X253798Y125902D01*
X253829Y125949D01*
X254329Y125797D01*
D02*
G37*
G36*
X165759Y129418D02*
X165831Y129118D01*
X167532D01*
Y129032D01*
X167613Y128622D01*
X167845Y128275D01*
X169408Y126713D01*
X169275Y126394D01*
X169275D01*
Y118271D01*
X164676D01*
Y126094D01*
X163678D01*
X163487Y126556D01*
X164044Y127113D01*
X164277Y127461D01*
X164358Y127870D01*
Y129418D01*
X165759D01*
D02*
G37*
G36*
X63294Y140622D02*
X64425Y140018D01*
X65653Y139645D01*
X65859Y139625D01*
Y136222D01*
X52643Y123006D01*
X52411Y122659D01*
X52329Y122249D01*
Y116551D01*
X47071D01*
Y124690D01*
X63134Y140754D01*
X63294Y140622D01*
D02*
G37*
G36*
X13534Y177855D02*
X13743Y177543D01*
X21429Y169857D01*
Y116251D01*
X13178D01*
X13035Y116692D01*
Y177559D01*
X13498Y177859D01*
X13534Y177855D01*
D02*
G37*
G36*
X237529Y125362D02*
Y123344D01*
X233643Y119457D01*
X233411Y119110D01*
X233329Y118700D01*
Y115068D01*
X228334D01*
Y116820D01*
X237068Y125554D01*
X237529Y125362D01*
D02*
G37*
G36*
X193752Y129059D02*
Y122600D01*
X193834Y122190D01*
X194066Y121843D01*
X196129Y119779D01*
Y115663D01*
X192843D01*
Y113031D01*
X191802D01*
Y115663D01*
X190893D01*
Y123293D01*
X191321Y123579D01*
X191780Y124266D01*
X191941Y125077D01*
X191780Y125888D01*
X191321Y126575D01*
X190634Y127035D01*
X189823Y127196D01*
X189012Y127035D01*
X188325Y126575D01*
X187865Y125888D01*
X187704Y125077D01*
X187865Y124266D01*
X188325Y123579D01*
X188752Y123293D01*
Y115663D01*
X187843D01*
Y108259D01*
X191802D01*
Y110890D01*
X192843D01*
Y108259D01*
X196129D01*
Y105343D01*
X192298Y101512D01*
X192066Y101165D01*
X191984Y100755D01*
Y92224D01*
X190485D01*
Y90669D01*
X190393Y90607D01*
X189471Y89685D01*
X188971Y89865D01*
Y99116D01*
X189398Y99402D01*
X189857Y100089D01*
X190019Y100900D01*
X189857Y101711D01*
X189398Y102398D01*
X188711Y102857D01*
X187900Y103019D01*
X187089Y102857D01*
X186402Y102398D01*
X185943Y101711D01*
X185781Y100900D01*
X185943Y100089D01*
X186402Y99402D01*
X186829Y99116D01*
Y92224D01*
X182383D01*
X182196Y92646D01*
Y94603D01*
X182114Y95012D01*
X181882Y95360D01*
X180757Y96485D01*
X180410Y96717D01*
X180000Y96799D01*
X177078D01*
X176668Y96717D01*
X176321Y96485D01*
X171780Y91944D01*
X171318Y92136D01*
Y92224D01*
X166178D01*
Y90921D01*
X163216D01*
Y92224D01*
X162192D01*
X161847Y92585D01*
X162487Y106121D01*
X162483Y106146D01*
X162488Y106172D01*
Y116129D01*
X180030D01*
X180086Y116048D01*
X179958Y115369D01*
X179702Y115198D01*
X179243Y114511D01*
X179081Y113700D01*
X179243Y112889D01*
X179702Y112202D01*
X180389Y111743D01*
X181200Y111581D01*
X182011Y111743D01*
X182343Y111965D01*
X182843Y111697D01*
Y108259D01*
X186802D01*
Y115663D01*
X182843D01*
Y115663D01*
X182343Y115435D01*
X182011Y115657D01*
X181200Y115819D01*
X181122Y115803D01*
X180927Y116274D01*
X181180Y116443D01*
X185580Y120843D01*
X185812Y121190D01*
X185893Y121600D01*
Y128129D01*
X192200D01*
X192610Y128211D01*
X192957Y128443D01*
X193189Y128790D01*
X193252Y129108D01*
X193752Y129059D01*
D02*
G37*
G36*
X204343Y115143D02*
X204690Y114911D01*
X205100Y114829D01*
X205100Y114829D01*
X212883D01*
Y112971D01*
X210284D01*
X209998Y113398D01*
X209311Y113857D01*
X208500Y114019D01*
X207689Y113857D01*
X207002Y113398D01*
X206543Y112711D01*
X206381Y111900D01*
X206528Y111164D01*
X206361Y110901D01*
X206187Y110722D01*
X205700Y110819D01*
X205196Y110718D01*
X203196Y112718D01*
X202849Y112950D01*
X202439Y113031D01*
X201802D01*
Y115663D01*
X198271D01*
Y120223D01*
X198686Y120683D01*
X198786Y120700D01*
X204343Y115143D01*
D02*
G37*
G36*
X212883Y107861D02*
X215957D01*
Y107500D01*
X216038Y107090D01*
X216271Y106743D01*
X216618Y106511D01*
X217028Y106429D01*
X234400D01*
X234810Y106511D01*
X235157Y106743D01*
X235206Y106817D01*
X235823Y106906D01*
X237529Y105201D01*
Y96449D01*
X231841D01*
Y95021D01*
X211616D01*
X200893Y105744D01*
Y108259D01*
X201802D01*
Y110377D01*
X202302Y110584D01*
X203682Y109204D01*
X203581Y108700D01*
X203743Y107889D01*
X204202Y107202D01*
X204889Y106743D01*
X205700Y106581D01*
X206511Y106743D01*
X207198Y107202D01*
X207657Y107889D01*
X207819Y108700D01*
X207672Y109436D01*
X207839Y109699D01*
X208013Y109878D01*
X208500Y109781D01*
X209311Y109943D01*
X209998Y110402D01*
X210284Y110829D01*
X212883D01*
Y107861D01*
D02*
G37*
G36*
X151193Y95578D02*
Y94807D01*
X150693Y94656D01*
X150598Y94798D01*
X149911Y95257D01*
X149100Y95419D01*
X148289Y95257D01*
X147602Y94798D01*
X147143Y94111D01*
X146981Y93300D01*
X147094Y92735D01*
X146757Y92235D01*
X142213D01*
Y87489D01*
X142213D01*
Y87117D01*
X142213D01*
Y82449D01*
X141805Y82150D01*
X141371Y82584D01*
Y99200D01*
X141289Y99610D01*
X141057Y99957D01*
X141057Y99957D01*
X138721Y102294D01*
Y103435D01*
X138657Y103753D01*
X136054Y101151D01*
X135206Y101999D01*
X137809Y104602D01*
X137490Y104665D01*
X120384D01*
X120140Y104617D01*
X119720Y104922D01*
X119716Y105229D01*
X120138Y105532D01*
X120384Y105483D01*
X137490D01*
X137844Y105553D01*
X138144Y105754D01*
X138344Y106054D01*
X138415Y106408D01*
Y107197D01*
X139574D01*
X151193Y95578D01*
D02*
G37*
G36*
X261689Y118343D02*
X262500Y118181D01*
X263004Y118282D01*
X263629Y117657D01*
Y100012D01*
X263129Y99744D01*
X262811Y99957D01*
X262000Y100119D01*
X261189Y99957D01*
X261012Y99839D01*
X260571Y100074D01*
Y118616D01*
X261071Y118756D01*
X261689Y118343D01*
D02*
G37*
G36*
X160347Y106197D02*
X159686Y92224D01*
X158571D01*
Y117607D01*
X160347D01*
Y106197D01*
D02*
G37*
G36*
X198472Y104922D02*
X198910Y104777D01*
X199066Y104543D01*
X210416Y93193D01*
X210416Y93193D01*
X210763Y92961D01*
X211173Y92879D01*
X228962D01*
X229153Y92418D01*
X228496Y91761D01*
X228034Y91952D01*
Y92224D01*
X222894D01*
Y87477D01*
X222894D01*
Y87106D01*
X222894D01*
Y82359D01*
X228034D01*
Y82831D01*
X228496Y83022D01*
X231225Y80293D01*
X231573Y80061D01*
X231841Y80007D01*
Y78551D01*
X238040D01*
Y83549D01*
X236011D01*
Y87197D01*
X238468Y89653D01*
X238929Y89462D01*
Y61243D01*
X236043Y58357D01*
X235811Y58010D01*
X235729Y57600D01*
Y54674D01*
X235289Y54439D01*
X235111Y54557D01*
X234300Y54719D01*
X233489Y54557D01*
X232802Y54098D01*
X232343Y53411D01*
X232181Y52600D01*
X232343Y51789D01*
X232802Y51102D01*
X233229Y50816D01*
Y31543D01*
X228306Y26620D01*
X227833Y26854D01*
X227926Y27559D01*
X227783Y28642D01*
X227365Y29652D01*
X227068Y30038D01*
X224165Y27135D01*
X223316Y27983D01*
X226220Y30887D01*
X225833Y31184D01*
X224823Y31602D01*
X223740Y31744D01*
X222657Y31602D01*
X222254Y31435D01*
X221838Y31713D01*
Y53725D01*
X223281D01*
X220768Y56238D01*
X218254Y53725D01*
X219697D01*
Y30532D01*
X219778Y30122D01*
X220011Y29775D01*
X220123Y29662D01*
X220115Y29652D01*
X219697Y28642D01*
X219555Y27559D01*
X219697Y26476D01*
X220115Y25466D01*
X220123Y25456D01*
X214010Y19343D01*
X205715D01*
X200925Y24133D01*
X200946Y24221D01*
X201506Y24421D01*
X201799Y24196D01*
X202735Y23809D01*
X203740Y23676D01*
X204745Y23809D01*
X205682Y24196D01*
X206486Y24813D01*
X207103Y25618D01*
X207491Y26554D01*
X207623Y27559D01*
X207491Y28564D01*
X207103Y29500D01*
X206486Y30305D01*
X205682Y30922D01*
X204745Y31310D01*
X203740Y31442D01*
X202735Y31310D01*
X201799Y30922D01*
X201111Y30394D01*
X200611Y30564D01*
Y31056D01*
X201557Y32002D01*
X201789Y32350D01*
X201871Y32759D01*
Y44500D01*
X201789Y44910D01*
X201557Y45257D01*
X201557Y45257D01*
X199496Y47318D01*
Y53725D01*
X200939D01*
X198198Y56466D01*
X198622Y56890D01*
X198198Y57314D01*
X200939Y60055D01*
X196071D01*
Y62292D01*
X201129D01*
Y61900D01*
X201211Y61490D01*
X201443Y61143D01*
X201790Y60911D01*
X202200Y60829D01*
X207407D01*
X207981Y60255D01*
X207773Y59755D01*
X202745D01*
Y54025D01*
X204736D01*
Y36884D01*
X204309Y36598D01*
X203850Y35911D01*
X203688Y35100D01*
X203850Y34289D01*
X204309Y33602D01*
X204996Y33143D01*
X205807Y32981D01*
X206618Y33143D01*
X207305Y33602D01*
X207464Y33839D01*
X208140Y33951D01*
X208229Y33882D01*
Y23743D01*
X207802Y23458D01*
X207343Y22770D01*
X207181Y21959D01*
X207343Y21149D01*
X207802Y20461D01*
X208489Y20002D01*
X209300Y19841D01*
X210111Y20002D01*
X210798Y20461D01*
X211257Y21149D01*
X211419Y21959D01*
X211257Y22770D01*
X210798Y23458D01*
X210371Y23743D01*
Y24805D01*
X210871Y24975D01*
X210995Y24813D01*
X211799Y24196D01*
X212735Y23809D01*
X213740Y23676D01*
X214745Y23809D01*
X215682Y24196D01*
X216486Y24813D01*
X217103Y25618D01*
X217491Y26554D01*
X217623Y27559D01*
X217491Y28564D01*
X217103Y29500D01*
X216486Y30305D01*
X215682Y30922D01*
X214745Y31310D01*
X213740Y31442D01*
X212735Y31310D01*
X211799Y30922D01*
X210995Y30305D01*
X210871Y30143D01*
X210371Y30313D01*
Y53725D01*
X215801D01*
X213060Y56466D01*
X213484Y56890D01*
X213060Y57314D01*
X215801Y60055D01*
X214310D01*
X214277Y60222D01*
X214044Y60570D01*
X212784Y61831D01*
X212975Y62292D01*
X216350D01*
Y68023D01*
X214358D01*
Y73703D01*
X214858Y73873D01*
X215097Y73561D01*
X215778Y73039D01*
X216570Y72711D01*
X217421Y72599D01*
X218272Y72711D01*
X219065Y73039D01*
X219746Y73561D01*
X220268Y74242D01*
X220596Y75035D01*
X220708Y75886D01*
X220596Y76737D01*
X220268Y77529D01*
X219746Y78210D01*
X219065Y78733D01*
X218272Y79061D01*
X217421Y79173D01*
X216570Y79061D01*
X216420Y78999D01*
X216136Y79422D01*
X218119Y81405D01*
X218351Y81753D01*
X218433Y82162D01*
X218857Y82359D01*
X219932D01*
Y87106D01*
X219932Y87106D01*
Y87477D01*
X219932D01*
X219932Y87606D01*
Y92224D01*
X214792D01*
Y90921D01*
X214750D01*
X214341Y90839D01*
X213993Y90607D01*
X213993Y90607D01*
X213904Y90518D01*
X213400Y90619D01*
X212589Y90457D01*
X212330Y90284D01*
X211830Y90551D01*
Y92224D01*
X206690D01*
Y90921D01*
X203728D01*
Y92224D01*
X199764D01*
X199354Y92724D01*
X199419Y93050D01*
X199257Y93861D01*
X198798Y94548D01*
X198111Y95008D01*
X197300Y95169D01*
X196489Y95008D01*
X195802Y94548D01*
X195343Y93861D01*
X195181Y93050D01*
X195246Y92724D01*
X194836Y92224D01*
X194126D01*
Y100312D01*
X197957Y104143D01*
X197957Y104143D01*
X198189Y104490D01*
X198271Y104900D01*
X198315Y104936D01*
X198472Y104922D01*
D02*
G37*
G36*
X287807Y147778D02*
Y91793D01*
X287307Y91642D01*
X287298Y91655D01*
X286611Y92115D01*
X285800Y92276D01*
X284989Y92115D01*
X284302Y91655D01*
X283843Y90968D01*
X283681Y90157D01*
X283843Y89347D01*
X284302Y88659D01*
X284989Y88200D01*
X285800Y88039D01*
X285839Y88007D01*
Y80723D01*
X285339Y80516D01*
X280571Y85285D01*
Y94750D01*
X280706Y94840D01*
X279076Y96470D01*
X279500Y96894D01*
X279076Y97319D01*
X280706Y98949D01*
X280428Y99134D01*
X279500Y99319D01*
X278638Y99147D01*
X278391Y99231D01*
X278138Y99367D01*
Y144349D01*
X278565Y144635D01*
X279024Y145322D01*
X279186Y146133D01*
X279024Y146944D01*
X278565Y147631D01*
X277878Y148090D01*
X277067Y148252D01*
X276256Y148090D01*
X276011Y147927D01*
X275571Y148163D01*
Y159308D01*
X276071Y159515D01*
X287807Y147778D01*
D02*
G37*
G36*
X273429Y96059D02*
Y89043D01*
X269904Y85518D01*
X269400Y85619D01*
X268589Y85457D01*
X267902Y84998D01*
X267443Y84311D01*
X267281Y83500D01*
X267403Y82888D01*
X267256Y82548D01*
X267043Y82387D01*
X266389Y82257D01*
X266212Y82139D01*
X265771Y82374D01*
Y96329D01*
X273100D01*
X273429Y96059D01*
D02*
G37*
G36*
X231841Y91451D02*
Y91451D01*
X236583D01*
X236775Y90989D01*
X234184Y88398D01*
X233952Y88051D01*
X233870Y87641D01*
Y83549D01*
X231841D01*
Y83359D01*
X231379Y83167D01*
X229057Y85489D01*
X228710Y85721D01*
X228300Y85803D01*
X228034D01*
Y87106D01*
X228034D01*
Y87477D01*
X228034D01*
Y88780D01*
X228100D01*
X228510Y88861D01*
X228857Y89093D01*
X231398Y91634D01*
X231841Y91451D01*
D02*
G37*
G36*
X198287Y86352D02*
Y82908D01*
X200536Y85157D01*
X201157Y84536D01*
X201779Y85157D01*
X204028Y82908D01*
Y83662D01*
X206390D01*
Y82908D01*
X208639Y85157D01*
X209487Y84308D01*
X207238Y82059D01*
X208189D01*
Y80387D01*
X208271Y79978D01*
X208418Y79757D01*
X208310Y79225D01*
X207752Y78995D01*
X207489Y78793D01*
X209971Y76310D01*
X209123Y75462D01*
X206641Y77944D01*
X206438Y77681D01*
X206080Y76815D01*
X205957Y75886D01*
X206080Y74957D01*
X206189Y74692D01*
X205872Y74306D01*
X205807Y74319D01*
X205029Y74164D01*
X204901Y74251D01*
X204633Y74516D01*
X204848Y75035D01*
X204960Y75886D01*
X204848Y76737D01*
X204520Y77529D01*
X203998Y78210D01*
X203317Y78733D01*
X202524Y79061D01*
X201673Y79173D01*
X200822Y79061D01*
X200030Y78733D01*
X199349Y78210D01*
X199271Y78108D01*
X198771Y78278D01*
Y78600D01*
X198689Y79010D01*
X198457Y79357D01*
X197557Y80257D01*
X197210Y80489D01*
X196800Y80571D01*
X187882D01*
X187855Y80641D01*
X187799Y81071D01*
X188057Y81243D01*
X190023Y83209D01*
X190485Y83018D01*
Y82359D01*
X195625D01*
Y84343D01*
X197825Y86544D01*
X198287Y86352D01*
D02*
G37*
G36*
X260929Y80126D02*
Y63884D01*
X260502Y63598D01*
X260043Y62911D01*
X259881Y62100D01*
X260043Y61289D01*
X260502Y60602D01*
X261189Y60143D01*
X262000Y59981D01*
X262811Y60143D01*
X263129Y60356D01*
X263629Y60088D01*
Y51764D01*
X263168Y51573D01*
X256543Y58198D01*
Y64277D01*
X256983Y64513D01*
X257089Y64443D01*
X257900Y64281D01*
X258711Y64443D01*
X259398Y64902D01*
X259857Y65589D01*
X260019Y66400D01*
X259857Y67211D01*
X259398Y67898D01*
X258971Y68184D01*
Y79677D01*
X259471Y80087D01*
X259500Y80081D01*
X260311Y80243D01*
X260489Y80361D01*
X260929Y80126D01*
D02*
G37*
G36*
X275996Y88178D02*
Y76784D01*
X273808D01*
Y75859D01*
X273346Y75668D01*
X269218Y79796D01*
X269319Y80300D01*
X269197Y80912D01*
X269344Y81252D01*
X269557Y81413D01*
X270211Y81543D01*
X270898Y82002D01*
X271357Y82689D01*
X271519Y83500D01*
X271418Y84004D01*
X275257Y87843D01*
X275489Y88190D01*
X275496Y88227D01*
X275996Y88178D01*
D02*
G37*
G36*
X256779Y99211D02*
Y93411D01*
X254715Y91348D01*
X254483Y91000D01*
X254401Y90591D01*
Y57754D01*
X254483Y57345D01*
X254715Y56997D01*
X264831Y46881D01*
X265179Y46649D01*
X265588Y46567D01*
X265637D01*
Y44379D01*
X265415Y43971D01*
X264490D01*
X254357Y54103D01*
X254145Y54245D01*
Y55720D01*
X249005D01*
Y50973D01*
X249005D01*
Y50602D01*
X249005D01*
Y49299D01*
X248197D01*
X248197Y49299D01*
X247787Y49218D01*
X247755Y49196D01*
X247255Y49396D01*
Y50405D01*
X247255D01*
Y50776D01*
X247255D01*
Y55523D01*
X245756D01*
Y58536D01*
X246197Y58771D01*
X246389Y58643D01*
X247200Y58481D01*
X248011Y58643D01*
X248698Y59102D01*
X249157Y59789D01*
X249319Y60600D01*
X249218Y61104D01*
X249229Y61115D01*
X249461Y61462D01*
X249543Y61872D01*
Y73940D01*
X250043Y74207D01*
X250289Y74043D01*
X251100Y73881D01*
X251911Y74043D01*
X252598Y74502D01*
X253057Y75189D01*
X253219Y76000D01*
X253057Y76811D01*
X252598Y77498D01*
X252171Y77784D01*
Y95257D01*
X256317Y99403D01*
X256779Y99211D01*
D02*
G37*
G36*
X191259Y77929D02*
X190952Y77529D01*
X190624Y76737D01*
X190512Y75886D01*
X190624Y75035D01*
X190952Y74242D01*
X191475Y73561D01*
X192156Y73039D01*
X192948Y72711D01*
X193799Y72599D01*
X194650Y72711D01*
X195443Y73039D01*
X196124Y73561D01*
X196160Y73609D01*
X196661Y73441D01*
X196711Y73190D01*
X196943Y72843D01*
X201129Y68657D01*
Y68023D01*
X195363D01*
Y67211D01*
X194901Y67019D01*
X191880Y70040D01*
X191533Y70272D01*
X191123Y70354D01*
X177816D01*
X174871Y73299D01*
Y73856D01*
X175371Y74026D01*
X175727Y73561D01*
X176408Y73039D01*
X177200Y72711D01*
X178051Y72599D01*
X178902Y72711D01*
X179695Y73039D01*
X180376Y73561D01*
X180898Y74242D01*
X181135Y74815D01*
X181386D01*
X181796Y74897D01*
X182143Y75129D01*
X182269Y75255D01*
X182742Y75094D01*
X182750Y75035D01*
X183078Y74242D01*
X183601Y73561D01*
X184282Y73039D01*
X185074Y72711D01*
X185925Y72599D01*
X186776Y72711D01*
X187569Y73039D01*
X188250Y73561D01*
X188772Y74242D01*
X189100Y75035D01*
X189212Y75886D01*
X189100Y76737D01*
X188772Y77529D01*
X188465Y77929D01*
X188712Y78429D01*
X191013D01*
X191259Y77929D01*
D02*
G37*
G36*
X172729Y73106D02*
Y72856D01*
X172811Y72446D01*
X173043Y72099D01*
X176616Y68526D01*
X176963Y68294D01*
X177373Y68213D01*
X178162D01*
X178354Y67751D01*
X177343Y66740D01*
X177111Y66393D01*
X177029Y65983D01*
Y65484D01*
X176602Y65198D01*
X176143Y64511D01*
X175981Y63700D01*
X176143Y62889D01*
X176602Y62202D01*
X177289Y61743D01*
X178100Y61581D01*
X178911Y61743D01*
X179598Y62202D01*
X179685Y62331D01*
X180185Y62180D01*
Y61099D01*
X179212Y60126D01*
X177816D01*
X177712Y60195D01*
X177362Y60265D01*
X175394D01*
X175044Y60195D01*
X174747Y59997D01*
X174374Y59923D01*
X174281Y59985D01*
X173811Y60079D01*
X169133D01*
X168898Y60126D01*
X164025D01*
X162530Y58631D01*
X161682Y59479D01*
X162712Y60509D01*
X162401Y60571D01*
X160433D01*
X160123Y60509D01*
X161153Y59479D01*
X160304Y58631D01*
X159172Y59762D01*
X159006Y59693D01*
X158911Y59757D01*
X158100Y59919D01*
X157289Y59757D01*
X156602Y59298D01*
X156143Y58611D01*
X155981Y57800D01*
X156143Y56989D01*
X156602Y56302D01*
X157015Y56026D01*
X157104Y55408D01*
X154542Y52846D01*
X154080Y53038D01*
Y58275D01*
X168753Y72948D01*
X169326Y72711D01*
X170177Y72599D01*
X171028Y72711D01*
X171821Y73039D01*
X172229Y73353D01*
X172729Y73106D01*
D02*
G37*
G36*
X51981Y105600D02*
Y89295D01*
X51982Y89288D01*
X51981Y89281D01*
X52210Y71631D01*
X51858Y71276D01*
X47071D01*
Y107071D01*
X51981D01*
Y105600D01*
D02*
G37*
G36*
X21469Y89295D02*
X21550Y88885D01*
X21764Y88566D01*
Y70976D01*
X13473D01*
Y70976D01*
X13035Y71124D01*
Y106930D01*
X13178Y107371D01*
X21469D01*
Y89295D01*
D02*
G37*
G36*
X266389Y78343D02*
X267200Y78181D01*
X267704Y78282D01*
X272229Y73757D01*
Y68613D01*
X265771D01*
Y78226D01*
X266212Y78461D01*
X266389Y78343D01*
D02*
G37*
G36*
X153358Y67578D02*
Y66043D01*
X147571Y60256D01*
X147571Y60256D01*
X146543Y59228D01*
X146311Y58881D01*
X146229Y58471D01*
Y53384D01*
X145802Y53098D01*
X145343Y52411D01*
X145181Y51600D01*
X145343Y50789D01*
X145802Y50102D01*
X146489Y49643D01*
X147258Y49490D01*
Y32971D01*
X147339Y32561D01*
X147571Y32214D01*
X150350Y29435D01*
X149990Y28564D01*
X149857Y27559D01*
X149990Y26554D01*
X150378Y25618D01*
X150951Y24871D01*
X150838Y24371D01*
X146643D01*
X146530Y24871D01*
X147103Y25618D01*
X147491Y26554D01*
X147623Y27559D01*
X147491Y28564D01*
X147103Y29500D01*
X146486Y30305D01*
X145682Y30922D01*
X144745Y31310D01*
X143740Y31442D01*
X142735Y31310D01*
X141799Y30922D01*
X140995Y30305D01*
X140378Y29500D01*
X139990Y28564D01*
X139857Y27559D01*
X139990Y26554D01*
X140378Y25618D01*
X140951Y24871D01*
X140838Y24371D01*
X137590D01*
Y31409D01*
X134811D01*
Y50997D01*
X151496Y67682D01*
X152000Y67581D01*
X152811Y67743D01*
X152918Y67814D01*
X153358Y67578D01*
D02*
G37*
G36*
X160265Y78429D02*
X159979Y78210D01*
X159456Y77529D01*
X159128Y76737D01*
X159016Y75886D01*
X159128Y75035D01*
X159456Y74242D01*
X159979Y73561D01*
X160660Y73039D01*
X161233Y72802D01*
Y70751D01*
X155989Y65508D01*
X155806Y65542D01*
X155500Y65725D01*
Y72802D01*
X156073Y73039D01*
X156753Y73561D01*
X157276Y74242D01*
X157604Y75035D01*
X157716Y75886D01*
X157604Y76737D01*
X157276Y77529D01*
X156753Y78210D01*
X156468Y78429D01*
X156637Y78929D01*
X160095D01*
X160265Y78429D01*
D02*
G37*
G36*
X247401Y87064D02*
Y62884D01*
X247200Y62719D01*
X246389Y62557D01*
X246197Y62429D01*
X245756Y62664D01*
Y86125D01*
X246901Y87271D01*
X247401Y87064D01*
D02*
G37*
G36*
X192832Y66061D02*
X192640Y65599D01*
X189600D01*
X189190Y65517D01*
X188843Y65285D01*
X188043Y64485D01*
X187811Y64138D01*
X187729Y63728D01*
Y59774D01*
X187288Y59539D01*
X187111Y59657D01*
X186300Y59819D01*
X185489Y59657D01*
X184802Y59198D01*
X184343Y58511D01*
X184181Y57700D01*
X184282Y57196D01*
X183275Y56189D01*
X181601D01*
X181394Y56689D01*
X184440Y59735D01*
X184672Y60082D01*
X184754Y60492D01*
Y66600D01*
X184672Y67010D01*
X184440Y67357D01*
X184046Y67751D01*
X184238Y68213D01*
X190680D01*
X192832Y66061D01*
D02*
G37*
G36*
X277089Y57843D02*
X277900Y57681D01*
X278711Y57843D01*
X278817Y57913D01*
X279257Y57678D01*
Y54760D01*
X278830Y54475D01*
X278371Y53787D01*
X278209Y52977D01*
X278371Y52166D01*
X278830Y51478D01*
X279257Y51193D01*
Y50471D01*
X273344Y44558D01*
X272844Y44765D01*
Y48316D01*
Y52253D01*
Y56644D01*
X273285Y56879D01*
X273489Y56743D01*
X274300Y56581D01*
X275111Y56743D01*
X275798Y57202D01*
X276257Y57889D01*
X276797Y58038D01*
X277089Y57843D01*
D02*
G37*
G36*
X245459Y118445D02*
X245529Y118418D01*
Y88927D01*
X243928Y87326D01*
X243696Y86978D01*
X243614Y86569D01*
Y55523D01*
X242115D01*
Y55334D01*
X241745Y55136D01*
X241615Y55116D01*
X240850Y55268D01*
X240040Y55107D01*
X239975Y55064D01*
X239657Y55453D01*
X242457Y58253D01*
X242689Y58600D01*
X242771Y59010D01*
Y111172D01*
X242689Y111582D01*
X242457Y111929D01*
X241162Y113224D01*
X241327Y113766D01*
X241711Y113843D01*
X242398Y114302D01*
X242857Y114989D01*
X243019Y115800D01*
X242918Y116304D01*
X244857Y118243D01*
X244857Y118243D01*
X245029Y118501D01*
X245459Y118445D01*
D02*
G37*
G36*
X309529Y46766D02*
Y28458D01*
X309029Y28211D01*
X308490Y28625D01*
X307481Y29043D01*
X306398Y29186D01*
X305314Y29043D01*
X304305Y28625D01*
X303599Y28083D01*
X303099Y28296D01*
Y39672D01*
X303017Y40082D01*
X302785Y40429D01*
X299335Y43879D01*
X299542Y44379D01*
X306214D01*
Y46564D01*
X306655Y46799D01*
X306889Y46643D01*
X307700Y46481D01*
X308511Y46643D01*
X309029Y46989D01*
X309529Y46766D01*
D02*
G37*
G36*
X164025Y46174D02*
X166112D01*
X168143Y44143D01*
X168490Y43911D01*
X168900Y43829D01*
X178557D01*
X186929Y35456D01*
Y30460D01*
X186429Y30348D01*
X185682Y30922D01*
X184745Y31310D01*
X183740Y31442D01*
X182735Y31310D01*
X181864Y30949D01*
X177556Y35257D01*
X177209Y35489D01*
X176799Y35571D01*
X159563D01*
X158309Y36825D01*
X158473Y37367D01*
X158993Y37471D01*
X159680Y37930D01*
X160139Y38617D01*
X160301Y39428D01*
X160139Y40239D01*
X159680Y40926D01*
X158993Y41385D01*
X158182Y41547D01*
X157677Y41446D01*
X157235Y41888D01*
X157400Y42431D01*
X157649Y42480D01*
X158336Y42940D01*
X158795Y43627D01*
X158957Y44438D01*
X158795Y45249D01*
X158336Y45936D01*
X158328Y46014D01*
X158828Y46514D01*
X159081Y46446D01*
X160304Y47668D01*
X161153Y46820D01*
X160123Y45790D01*
X160433Y45729D01*
X162401D01*
X162712Y45790D01*
X161682Y46820D01*
X162530Y47668D01*
X164025Y46174D01*
D02*
G37*
G36*
X283350Y69278D02*
X285839D01*
Y60599D01*
X285921Y60190D01*
X286153Y59842D01*
X295243Y50752D01*
X295590Y50520D01*
X296000Y50438D01*
X296000Y50438D01*
X299007D01*
Y48316D01*
Y44914D01*
X298507Y44707D01*
X297557Y45657D01*
X297210Y45889D01*
X296800Y45971D01*
X290578D01*
X290168Y45889D01*
X289821Y45657D01*
X288121Y43957D01*
X287889Y43610D01*
X287850Y43415D01*
X281565D01*
X281363Y43792D01*
X281348Y43914D01*
X281524Y44800D01*
X281340Y45728D01*
X281154Y46006D01*
X279524Y44376D01*
X278676Y45224D01*
X280306Y46854D01*
X280028Y47040D01*
X279639Y47117D01*
X279474Y47660D01*
X281085Y49271D01*
X281085Y49271D01*
X281317Y49618D01*
X281399Y50028D01*
Y51193D01*
X281826Y51478D01*
X282285Y52166D01*
X282447Y52977D01*
X282285Y53787D01*
X281826Y54475D01*
X281399Y54760D01*
Y61071D01*
Y62199D01*
X281317Y62609D01*
X281085Y62956D01*
X281114Y63119D01*
X281259Y63451D01*
X281602Y63964D01*
X281763Y64775D01*
X281602Y65586D01*
X281142Y66273D01*
X280455Y66732D01*
X280106Y66802D01*
Y69577D01*
X283350D01*
Y69278D01*
D02*
G37*
G36*
X193929Y62528D02*
Y43051D01*
X193467Y42859D01*
X186628Y49698D01*
X186611Y49801D01*
X186724Y50310D01*
X186895Y50424D01*
X192032Y55562D01*
X192264Y55909D01*
X192346Y56319D01*
Y60316D01*
X192773Y60602D01*
X193233Y61289D01*
X193394Y62100D01*
X193353Y62308D01*
X193802Y62611D01*
X193929Y62528D01*
D02*
G37*
G36*
X197355Y46875D02*
X197436Y46465D01*
X197668Y46118D01*
X199729Y44057D01*
Y39482D01*
X199659Y39455D01*
X199229Y39399D01*
X199057Y39657D01*
X199057Y39657D01*
X196071Y42643D01*
Y53725D01*
X197355D01*
Y46875D01*
D02*
G37*
G36*
X263289Y42143D02*
X263637Y41911D01*
X264046Y41829D01*
X273200D01*
X273308Y41851D01*
X273808Y41488D01*
Y36871D01*
X261018D01*
X252645Y45243D01*
Y45855D01*
X254145D01*
Y50581D01*
X254513Y50919D01*
X263289Y42143D01*
D02*
G37*
G36*
X32729Y63852D02*
Y41600D01*
X32811Y41190D01*
X32871Y41100D01*
X32604Y40600D01*
X18829D01*
X18419Y40518D01*
X18072Y40286D01*
X18072Y40286D01*
X13743Y35957D01*
X13534Y35645D01*
X13498Y35640D01*
X13035Y35941D01*
Y61947D01*
X13473Y62095D01*
Y62095D01*
X32196D01*
Y63607D01*
X32696Y63874D01*
X32729Y63852D01*
D02*
G37*
G36*
X194729Y38569D02*
Y32500D01*
X194811Y32090D01*
X195043Y31743D01*
X195070Y31716D01*
X194787Y31292D01*
X194745Y31310D01*
X193740Y31442D01*
X192735Y31310D01*
X191799Y30922D01*
X191071Y30363D01*
X190571Y30494D01*
Y38344D01*
X190489Y38754D01*
X190257Y39101D01*
X181716Y47642D01*
X181923Y48142D01*
X185157D01*
X194729Y38569D01*
D02*
G37*
G36*
X289682Y35850D02*
X289630Y33625D01*
X289632Y33613D01*
X289629Y33600D01*
Y27890D01*
X289313Y27782D01*
X289129Y27756D01*
X288339Y28363D01*
X287403Y28751D01*
X286398Y28883D01*
X285393Y28751D01*
X284522Y28390D01*
X277374Y35538D01*
X277712Y35908D01*
X280626D01*
Y36208D01*
X289333D01*
X289682Y35850D01*
D02*
G37*
G36*
X180350Y29435D02*
X179990Y28564D01*
X179857Y27559D01*
X179990Y26554D01*
X180378Y25618D01*
X180951Y24871D01*
X180838Y24371D01*
X176643D01*
X176530Y24871D01*
X177103Y25618D01*
X177491Y26554D01*
X177623Y27559D01*
X177491Y28564D01*
X177103Y29500D01*
X176486Y30305D01*
X175682Y30922D01*
X174745Y31310D01*
X173740Y31442D01*
X172735Y31310D01*
X171799Y30922D01*
X170995Y30305D01*
X170378Y29500D01*
X169990Y28564D01*
X169857Y27559D01*
X169990Y26554D01*
X170378Y25618D01*
X170951Y24871D01*
X170838Y24371D01*
X166643D01*
X166530Y24871D01*
X167103Y25618D01*
X167491Y26554D01*
X167623Y27559D01*
X167491Y28564D01*
X167103Y29500D01*
X166486Y30305D01*
X165682Y30922D01*
X164745Y31310D01*
X163740Y31442D01*
X162735Y31310D01*
X161864Y30949D01*
X159846Y32967D01*
X160037Y33429D01*
X176356D01*
X180350Y29435D01*
D02*
G37*
G36*
X160350Y29435D02*
X159990Y28564D01*
X159857Y27559D01*
X159990Y26554D01*
X160378Y25618D01*
X160951Y24871D01*
X160838Y24371D01*
X156643D01*
X156530Y24871D01*
X157103Y25618D01*
X157491Y26554D01*
X157623Y27559D01*
X157491Y28564D01*
X157103Y29500D01*
X156486Y30305D01*
X155682Y30922D01*
X154745Y31310D01*
X153740Y31442D01*
X152735Y31310D01*
X151864Y30949D01*
X149399Y33414D01*
Y39733D01*
X149861Y39924D01*
X160350Y29435D01*
D02*
G37*
G36*
X239243Y47275D02*
X239243Y47275D01*
X239590Y47043D01*
X240000Y46961D01*
X240000Y46961D01*
X242115D01*
Y45658D01*
X247255D01*
Y46961D01*
X248000D01*
X248410Y47043D01*
X248504Y47106D01*
X249005Y46958D01*
Y45855D01*
X250504D01*
Y44800D01*
X250586Y44390D01*
X250818Y44043D01*
X259818Y35043D01*
X260165Y34811D01*
X260575Y34729D01*
X275154D01*
X283008Y26876D01*
X282647Y26005D01*
X282515Y25000D01*
X282647Y23995D01*
X283035Y23059D01*
X283652Y22255D01*
X283837Y22112D01*
X283670Y21610D01*
X279056Y21557D01*
X278883Y22055D01*
X279143Y22255D01*
X279760Y23059D01*
X280148Y23995D01*
X280280Y25000D01*
X280148Y26005D01*
X279760Y26942D01*
X279143Y27746D01*
X278339Y28363D01*
X277403Y28751D01*
X276398Y28883D01*
X275393Y28751D01*
X274522Y28390D01*
X270455Y32457D01*
X270108Y32689D01*
X269698Y32771D01*
X260684D01*
X260398Y33198D01*
X259711Y33657D01*
X258900Y33819D01*
X258089Y33657D01*
X257402Y33198D01*
X256943Y32511D01*
X256781Y31700D01*
X256943Y30889D01*
X257402Y30202D01*
X258089Y29743D01*
X258900Y29581D01*
X259711Y29743D01*
X260398Y30202D01*
X260684Y30629D01*
X269254D01*
X273008Y26876D01*
X272647Y26005D01*
X272515Y25000D01*
X272647Y23995D01*
X273035Y23059D01*
X273652Y22255D01*
X273985Y21999D01*
X273818Y21497D01*
X268903Y21440D01*
X268731Y21938D01*
X269143Y22255D01*
X269760Y23059D01*
X270148Y23995D01*
X270280Y25000D01*
X270148Y26005D01*
X269760Y26942D01*
X269143Y27746D01*
X268339Y28363D01*
X267403Y28751D01*
X266398Y28883D01*
X265393Y28751D01*
X264456Y28363D01*
X263652Y27746D01*
X263035Y26942D01*
X262647Y26005D01*
X262515Y25000D01*
X262647Y23995D01*
X263035Y23059D01*
X263652Y22255D01*
X264133Y21885D01*
X263966Y21384D01*
X260603Y21345D01*
X260247Y21696D01*
Y28850D01*
X252548D01*
Y21252D01*
X238226Y21087D01*
X237871Y21439D01*
Y47994D01*
X238333Y48185D01*
X239243Y47275D01*
D02*
G37*
G36*
X299557Y21564D02*
Y20174D01*
X295754Y16371D01*
X291480D01*
X291329Y16871D01*
X291491Y16979D01*
X292955Y18443D01*
X293187Y18790D01*
X293269Y19200D01*
Y21541D01*
X293769Y21787D01*
X294305Y21375D01*
X295314Y20957D01*
X296398Y20815D01*
X297481Y20957D01*
X298490Y21375D01*
X299057Y21811D01*
X299557Y21564D01*
D02*
G37*
G36*
X235659Y30545D02*
X235729Y30518D01*
Y20443D01*
X233157Y17871D01*
X216219D01*
X216028Y18332D01*
X221637Y23942D01*
X221648Y23934D01*
X222657Y23516D01*
X222984Y23473D01*
X223227Y22937D01*
X222943Y22511D01*
X222781Y21700D01*
X222943Y20889D01*
X223402Y20202D01*
X224089Y19743D01*
X224900Y19581D01*
X225711Y19743D01*
X226398Y20202D01*
X226857Y20889D01*
X227019Y21700D01*
X226918Y22204D01*
X235057Y30343D01*
X235229Y30601D01*
X235659Y30545D01*
D02*
G37*
G36*
X280464Y18932D02*
X280207Y18547D01*
X280045Y17736D01*
X280207Y16925D01*
X280283Y16812D01*
X280047Y16371D01*
X235338D01*
X235146Y16833D01*
X237248Y18935D01*
X280195Y19429D01*
X280464Y18932D01*
D02*
G37*
%LPC*%
G36*
X331890Y200404D02*
X330164Y200268D01*
X328480Y199864D01*
X326881Y199201D01*
X325404Y198297D01*
X324545Y197563D01*
X331890Y190218D01*
X339234Y197563D01*
X338375Y198297D01*
X336899Y199201D01*
X335299Y199864D01*
X333616Y200268D01*
X331890Y200404D01*
D02*
G37*
G36*
X340083Y196715D02*
X332738Y189370D01*
X340083Y182025D01*
X340816Y182884D01*
X341721Y184361D01*
X342384Y185960D01*
X342788Y187644D01*
X342924Y189370D01*
X342788Y191096D01*
X342384Y192780D01*
X341721Y194379D01*
X340816Y195856D01*
X340083Y196715D01*
D02*
G37*
G36*
X323697Y196715D02*
X322963Y195856D01*
X322058Y194379D01*
X321396Y192780D01*
X320992Y191096D01*
X320856Y189370D01*
X320992Y187644D01*
X321396Y185960D01*
X322058Y184361D01*
X322963Y182884D01*
X323697Y182025D01*
X331041Y189370D01*
X323697Y196715D01*
D02*
G37*
G36*
X339802Y132890D02*
X337463Y130551D01*
X339802Y128212D01*
X340067Y128558D01*
X340465Y129519D01*
X340601Y130551D01*
X340465Y131583D01*
X340067Y132545D01*
X339802Y132890D01*
D02*
G37*
G36*
X340083Y32935D02*
X332738Y25591D01*
X340083Y18246D01*
X340816Y19105D01*
X341721Y20581D01*
X342384Y22181D01*
X342788Y23865D01*
X342924Y25591D01*
X342788Y27317D01*
X342384Y29000D01*
X341721Y30600D01*
X340816Y32076D01*
X340083Y32935D01*
D02*
G37*
G36*
X323697Y32935D02*
X322963Y32076D01*
X322058Y30600D01*
X321396Y29000D01*
X320992Y27317D01*
X320856Y25591D01*
X320992Y23865D01*
X321396Y22181D01*
X322058Y20581D01*
X322963Y19105D01*
X323697Y18246D01*
X331041Y25591D01*
X323697Y32935D01*
D02*
G37*
G36*
X331890Y24742D02*
X324545Y17398D01*
X325404Y16664D01*
X326881Y15759D01*
X328480Y15097D01*
X330164Y14692D01*
X331890Y14557D01*
X333616Y14692D01*
X335299Y15097D01*
X336899Y15759D01*
X338375Y16664D01*
X339234Y17398D01*
X331890Y24742D01*
D02*
G37*
G36*
X155216Y169239D02*
X154287Y169117D01*
X153421Y168758D01*
X153158Y168556D01*
X155216Y166498D01*
X157275Y168556D01*
X157011Y168758D01*
X156146Y169117D01*
X155216Y169239D01*
D02*
G37*
G36*
X152310Y167708D02*
X152108Y167445D01*
X151749Y166579D01*
X151627Y165650D01*
X151749Y164720D01*
X152108Y163855D01*
X152310Y163591D01*
X154368Y165650D01*
X152310Y167708D01*
D02*
G37*
G36*
X158123Y167708D02*
X155641Y165225D01*
X153158Y162743D01*
X153421Y162541D01*
X154287Y162182D01*
X155216Y162060D01*
X156146Y162182D01*
X156870Y162482D01*
X158969Y160383D01*
Y156807D01*
X157919D01*
X160039Y154687D01*
X162159Y156807D01*
X161110D01*
Y160827D01*
X161029Y161236D01*
X160796Y161584D01*
X158384Y163996D01*
X158684Y164720D01*
X158806Y165650D01*
X158684Y166579D01*
X158325Y167445D01*
X158123Y167708D01*
D02*
G37*
G36*
X50545Y194405D02*
X42368D01*
X46457Y190317D01*
X50545Y194405D01*
D02*
G37*
G36*
X124716Y194106D02*
X115442D01*
Y180698D01*
X124716D01*
Y185923D01*
X125888D01*
X126242Y185569D01*
X126722Y185248D01*
X127287Y185136D01*
X129891D01*
Y182765D01*
X137590D01*
Y190464D01*
X129891D01*
Y188093D01*
X127900D01*
X127545Y188447D01*
X127066Y188768D01*
X126500Y188880D01*
X124716D01*
Y194106D01*
D02*
G37*
G36*
X143740Y190497D02*
X142735Y190365D01*
X141799Y189977D01*
X140995Y189360D01*
X140378Y188556D01*
X139990Y187619D01*
X139857Y186614D01*
X139990Y185609D01*
X140378Y184673D01*
X140995Y183869D01*
X141799Y183252D01*
X142735Y182864D01*
X143740Y182731D01*
X144745Y182864D01*
X145682Y183252D01*
X146486Y183869D01*
X147103Y184673D01*
X147491Y185609D01*
X147623Y186614D01*
X147491Y187619D01*
X147103Y188556D01*
X146486Y189360D01*
X145682Y189977D01*
X144745Y190365D01*
X143740Y190497D01*
D02*
G37*
G36*
X33784Y196715D02*
X26439Y189370D01*
X33784Y182025D01*
X34517Y182884D01*
X35422Y184361D01*
X36085Y185960D01*
X36489Y187644D01*
X36540Y188299D01*
X41520D01*
Y181246D01*
X46033Y185759D01*
X46457Y185335D01*
X46881Y185759D01*
X51394Y181246D01*
Y193557D01*
X46881Y189044D01*
X46457Y189469D01*
X46033Y189044D01*
X41520Y193557D01*
Y190441D01*
X36540D01*
X36489Y191096D01*
X36085Y192780D01*
X35422Y194379D01*
X34517Y195856D01*
X33784Y196715D01*
D02*
G37*
G36*
X25591Y188522D02*
X18246Y181177D01*
X19105Y180443D01*
X20581Y179539D01*
X22181Y178876D01*
X23865Y178472D01*
X25591Y178336D01*
X27317Y178472D01*
X29000Y178876D01*
X30600Y179539D01*
X32076Y180443D01*
X32935Y181177D01*
X25591Y188522D01*
D02*
G37*
G36*
X88583Y168840D02*
X87365Y168720D01*
X86194Y168365D01*
X85115Y167788D01*
X84169Y167012D01*
X83393Y166066D01*
X82816Y164987D01*
X82461Y163816D01*
X82341Y162598D01*
X82461Y161381D01*
X82816Y160210D01*
X83393Y159131D01*
X84169Y158185D01*
X85115Y157408D01*
X86194Y156832D01*
X87365Y156476D01*
X88583Y156357D01*
X89800Y156476D01*
X90971Y156832D01*
X92050Y157408D01*
X92996Y158185D01*
X93773Y159131D01*
X94349Y160210D01*
X94705Y161381D01*
X94824Y162598D01*
X94705Y163816D01*
X94349Y164987D01*
X93773Y166066D01*
X92996Y167012D01*
X92050Y167788D01*
X90971Y168365D01*
X89800Y168720D01*
X88583Y168840D01*
D02*
G37*
G36*
X127200Y147424D02*
X126272Y147240D01*
X125994Y147054D01*
X127200Y145849D01*
X128406Y147054D01*
X128128Y147240D01*
X127200Y147424D01*
D02*
G37*
G36*
X129254Y146206D02*
X128049Y145000D01*
X129254Y143794D01*
X129440Y144072D01*
X129624Y145000D01*
X129440Y145928D01*
X129254Y146206D01*
D02*
G37*
G36*
X124425Y146214D02*
X118928Y140717D01*
X118504Y141142D01*
X118080Y140717D01*
X112583Y146214D01*
Y132132D01*
X118080Y137629D01*
X118504Y137205D01*
X118928Y137629D01*
X124425Y132132D01*
Y140829D01*
X125100D01*
X125510Y140911D01*
X125857Y141143D01*
X127312Y142598D01*
X128128Y142760D01*
X128406Y142946D01*
X126776Y144576D01*
X125146Y146206D01*
X124960Y145928D01*
X124925Y145753D01*
X124425Y145802D01*
Y146214D01*
D02*
G37*
G36*
X88583Y152305D02*
X87365Y152185D01*
X86194Y151830D01*
X85115Y151253D01*
X84169Y150477D01*
X83393Y149531D01*
X82816Y148452D01*
X82461Y147281D01*
X82341Y146063D01*
X82461Y144845D01*
X82816Y143674D01*
X83393Y142595D01*
X84169Y141649D01*
X85115Y140873D01*
X86194Y140296D01*
X87365Y139941D01*
X88583Y139821D01*
X89800Y139941D01*
X90971Y140296D01*
X92050Y140873D01*
X92996Y141649D01*
X93773Y142595D01*
X94349Y143674D01*
X94705Y144845D01*
X94824Y146063D01*
X94705Y147281D01*
X94349Y148452D01*
X93773Y149531D01*
X92996Y150477D01*
X92050Y151253D01*
X90971Y151830D01*
X89800Y152185D01*
X88583Y152305D01*
D02*
G37*
G36*
X124125Y172354D02*
X112883D01*
Y157174D01*
X124125D01*
Y163729D01*
X134657D01*
X138829Y159557D01*
Y125012D01*
X138402Y124726D01*
X137943Y124039D01*
X137781Y123228D01*
X137943Y122418D01*
X138402Y121730D01*
X139089Y121271D01*
X139900Y121110D01*
X140711Y121271D01*
X141398Y121730D01*
X141857Y122418D01*
X142019Y123228D01*
X141857Y124039D01*
X141398Y124726D01*
X140971Y125012D01*
Y160000D01*
X140971Y160000D01*
X140889Y160410D01*
X140657Y160757D01*
X140657Y160757D01*
X135857Y165557D01*
X135510Y165789D01*
X135100Y165871D01*
X124125D01*
Y172354D01*
D02*
G37*
G36*
X43390Y115703D02*
Y107919D01*
X47281Y111811D01*
X43390Y115703D01*
D02*
G37*
G36*
X43685Y70427D02*
Y62644D01*
X47577Y66535D01*
X43685Y70427D01*
D02*
G37*
G36*
X62713Y115703D02*
X58821Y111811D01*
X62713Y107919D01*
Y115703D01*
D02*
G37*
G36*
X63008Y70427D02*
X59116Y66535D01*
X63008Y62644D01*
Y70427D01*
D02*
G37*
G36*
X54806Y31610D02*
X52489Y29293D01*
X54806Y26976D01*
Y28222D01*
X55606D01*
Y26976D01*
X57923Y29293D01*
X55606Y31610D01*
Y30364D01*
X54806D01*
Y31610D01*
D02*
G37*
G36*
X64299D02*
X61982Y29293D01*
X64299Y26976D01*
Y31610D01*
D02*
G37*
G36*
X25591Y36625D02*
X23865Y36489D01*
X22181Y36085D01*
X20581Y35422D01*
X19105Y34517D01*
X18246Y33784D01*
X25591Y26439D01*
X32935Y33784D01*
X32076Y34517D01*
X30600Y35422D01*
X29000Y36085D01*
X27317Y36489D01*
X25591Y36625D01*
D02*
G37*
G36*
X63451Y32458D02*
X56455D01*
X59196Y29717D01*
X58772Y29293D01*
X59196Y28869D01*
X56455Y26128D01*
X63451D01*
X60710Y28869D01*
X61134Y29293D01*
X60710Y29717D01*
X63451Y32458D01*
D02*
G37*
G36*
X180754Y145106D02*
X179549Y143900D01*
X180754Y142694D01*
X180940Y142972D01*
X181124Y143900D01*
X180940Y144828D01*
X180754Y145106D01*
D02*
G37*
G36*
X229000Y80719D02*
X228189Y80557D01*
X227502Y80098D01*
X227043Y79411D01*
X226881Y78600D01*
X226982Y78096D01*
X220011Y71125D01*
X219778Y70777D01*
X219697Y70368D01*
Y68023D01*
X217705D01*
Y62292D01*
X223830D01*
Y68023D01*
X221838D01*
Y69924D01*
X228496Y76582D01*
X229000Y76481D01*
X229811Y76643D01*
X230498Y77102D01*
X230957Y77789D01*
X231119Y78600D01*
X230957Y79411D01*
X230498Y80098D01*
X229811Y80557D01*
X229000Y80719D01*
D02*
G37*
G36*
X223281Y60055D02*
X218254D01*
X220768Y57542D01*
X223281Y60055D01*
D02*
G37*
G36*
X220768Y57087D02*
X220571Y56890D01*
X220768Y56693D01*
X220964Y56890D01*
X220768Y57087D01*
D02*
G37*
G36*
X216650Y59207D02*
X214333Y56890D01*
X216650Y54573D01*
Y55819D01*
X217405D01*
Y54573D01*
X219722Y56890D01*
X217405Y59207D01*
Y57961D01*
X216650D01*
Y59207D01*
D02*
G37*
G36*
X224130D02*
X221813Y56890D01*
X224130Y54573D01*
Y59207D01*
D02*
G37*
G36*
X201787D02*
X199471Y56890D01*
X201787Y54573D01*
Y59207D01*
D02*
G37*
G36*
X281554Y98100D02*
X280348Y96894D01*
X281554Y95689D01*
X281740Y95967D01*
X281925Y96894D01*
X281740Y97822D01*
X281554Y98100D01*
D02*
G37*
G36*
X201157Y84081D02*
X199136Y82059D01*
X203179D01*
X201157Y84081D01*
D02*
G37*
%LPD*%
D21*
X275099Y73181D02*
D03*
X277067D02*
D03*
X279036D02*
D03*
X281004D02*
D03*
X282973D02*
D03*
X284941D02*
D03*
X286910D02*
D03*
X288878D02*
D03*
X290847D02*
D03*
X292815D02*
D03*
X294784D02*
D03*
X296752D02*
D03*
Y39811D02*
D03*
X294784D02*
D03*
X292815D02*
D03*
X290847D02*
D03*
X288878D02*
D03*
X286910D02*
D03*
X284941D02*
D03*
X282973D02*
D03*
X281004D02*
D03*
X279036D02*
D03*
X277067D02*
D03*
X275099D02*
D03*
D22*
X302610Y67323D02*
D03*
Y65354D02*
D03*
Y63386D02*
D03*
Y61417D02*
D03*
Y59449D02*
D03*
Y57480D02*
D03*
Y55512D02*
D03*
Y53543D02*
D03*
Y51575D02*
D03*
Y49606D02*
D03*
Y47638D02*
D03*
Y45669D02*
D03*
X269240D02*
D03*
Y47638D02*
D03*
Y49606D02*
D03*
Y51575D02*
D03*
Y53543D02*
D03*
Y55512D02*
D03*
Y57480D02*
D03*
Y59449D02*
D03*
Y61417D02*
D03*
Y63386D02*
D03*
Y65354D02*
D03*
Y67323D02*
D03*
D23*
X168602Y132087D02*
D03*
X163287D02*
D03*
D24*
X161417Y121850D02*
D03*
X172835D02*
D03*
D25*
X251575Y53346D02*
D03*
Y48228D02*
D03*
X244685Y53150D02*
D03*
Y48032D02*
D03*
X152264Y89862D02*
D03*
Y84744D02*
D03*
X144783Y89862D02*
D03*
Y84744D02*
D03*
X176850Y89850D02*
D03*
Y84732D02*
D03*
X168748Y89850D02*
D03*
Y84732D02*
D03*
X160646Y89850D02*
D03*
Y84732D02*
D03*
X184953Y89850D02*
D03*
Y84732D02*
D03*
X193055Y89850D02*
D03*
Y84732D02*
D03*
X201157Y89850D02*
D03*
Y84732D02*
D03*
X225464Y89850D02*
D03*
Y84732D02*
D03*
X217362Y89850D02*
D03*
Y84732D02*
D03*
X209260Y89850D02*
D03*
Y84732D02*
D03*
D26*
X87402Y101575D02*
D03*
D27*
X128937Y114961D02*
D03*
Y108268D02*
D03*
Y101575D02*
D03*
Y94882D02*
D03*
Y88189D02*
D03*
D28*
X176378Y47244D02*
D03*
Y49213D02*
D03*
Y51181D02*
D03*
Y53150D02*
D03*
Y55118D02*
D03*
Y57087D02*
D03*
Y59055D02*
D03*
X161417Y47244D02*
D03*
Y49213D02*
D03*
Y51181D02*
D03*
Y53150D02*
D03*
Y55118D02*
D03*
Y57087D02*
D03*
Y59055D02*
D03*
D29*
X198425Y65158D02*
D03*
Y56890D02*
D03*
X205807D02*
D03*
Y65158D02*
D03*
X220768D02*
D03*
Y56890D02*
D03*
X213287Y65158D02*
D03*
Y56890D02*
D03*
D30*
X91732Y187402D02*
D03*
X120079D02*
D03*
X74803D02*
D03*
X46457D02*
D03*
D31*
X116535Y43307D02*
D03*
X75197D02*
D03*
D32*
X118504Y139173D02*
D03*
Y164764D02*
D03*
D33*
X22835Y66535D02*
D03*
X53346D02*
D03*
X22539Y111811D02*
D03*
X53051D02*
D03*
D34*
X59953Y29293D02*
D03*
Y39529D02*
D03*
X50460Y29293D02*
D03*
Y39529D02*
D03*
X40967Y29293D02*
D03*
Y39529D02*
D03*
D35*
X289764Y190315D02*
D03*
X311023D02*
D03*
X289764Y180315D02*
D03*
Y170315D02*
D03*
X311023Y180315D02*
D03*
Y170315D02*
D03*
D36*
X245039Y171752D02*
D03*
X250039D02*
D03*
X255039D02*
D03*
X260039D02*
D03*
X265039D02*
D03*
X270039D02*
D03*
X275039D02*
D03*
X245039Y193209D02*
D03*
X250039D02*
D03*
X255039D02*
D03*
X260039D02*
D03*
X265039D02*
D03*
X270039D02*
D03*
X275039D02*
D03*
D37*
X175736Y148787D02*
D03*
Y154102D02*
D03*
X167634Y148787D02*
D03*
Y154102D02*
D03*
X160039Y154036D02*
D03*
Y148721D02*
D03*
X191776Y154496D02*
D03*
Y149181D02*
D03*
X183673D02*
D03*
Y154496D02*
D03*
X208402Y149114D02*
D03*
Y154429D02*
D03*
X200299Y149114D02*
D03*
Y154429D02*
D03*
X216504Y149114D02*
D03*
Y154429D02*
D03*
X232709Y149114D02*
D03*
Y154429D02*
D03*
X224606Y149114D02*
D03*
Y154429D02*
D03*
D38*
X184823Y133315D02*
D03*
X189823D02*
D03*
X194823D02*
D03*
X199823D02*
D03*
Y111961D02*
D03*
X194823D02*
D03*
X189823D02*
D03*
X184823D02*
D03*
D39*
X234941Y81050D02*
D03*
Y93950D02*
D03*
D40*
X214468Y111465D02*
D03*
X217028D02*
D03*
X219587D02*
D03*
X222146D02*
D03*
X224705D02*
D03*
X227264D02*
D03*
X229823D02*
D03*
X232382D02*
D03*
Y134598D02*
D03*
X229823D02*
D03*
X227264D02*
D03*
X224705D02*
D03*
X222146D02*
D03*
X219587D02*
D03*
X217028D02*
D03*
X214468D02*
D03*
D71*
X168898Y53150D02*
D03*
D72*
X252272Y160414D02*
Y168828D01*
X245039Y183118D02*
Y186461D01*
X208400Y137300D02*
Y149114D01*
X211200Y134500D02*
X214468D01*
X306600Y51575D02*
X310300D01*
X275598Y35800D02*
X276067D01*
X260575D02*
X275598D01*
X206204Y149114D02*
X208400D01*
X184823Y129200D02*
Y133315D01*
Y121600D02*
Y129200D01*
X161417Y106172D02*
Y118183D01*
X137800Y108268D02*
Y110700D01*
Y108268D02*
X140017D01*
X128937D02*
X137800D01*
X118504Y164800D02*
X135100D01*
X65600Y39529D02*
X90171D01*
X149500Y156890D02*
Y189200D01*
Y136700D02*
Y156890D01*
X191776Y146551D02*
Y149181D01*
Y144266D02*
Y146551D01*
X331890Y135276D02*
Y175805D01*
X317315Y170315D02*
X326400D01*
X311023D02*
X317315D01*
X284941Y76559D02*
Y79400D01*
Y73181D02*
Y76559D01*
X175736Y147725D02*
X183673D01*
X175736D02*
Y148787D01*
Y134400D02*
Y146864D01*
Y147725D01*
X118504Y141900D02*
Y146600D01*
Y139173D02*
Y141900D01*
X25591Y189370D02*
X46457D01*
Y166535D02*
X60300Y152692D01*
X118504Y141900D02*
X125100D01*
X161417Y59055D02*
X168898D01*
X166556Y47244D02*
X168898D01*
X118504Y116857D02*
Y139173D01*
Y102400D02*
Y116857D01*
X53051Y105600D02*
Y111811D01*
Y89295D02*
Y105600D01*
X46000Y30400D02*
Y125134D01*
X25591Y29293D02*
X40967D01*
X297316Y13500D02*
X312100D01*
X148328Y59499D02*
X154429Y65600D01*
X147300Y58471D02*
X148328Y59499D01*
Y32971D02*
Y59499D01*
X126500Y29200D02*
Y88189D01*
X22500Y111811D02*
Y170300D01*
X35871Y39529D02*
X40967D01*
X18829D02*
X35871D01*
X213200Y194700D02*
X217300Y198800D01*
X208700Y190200D02*
X213200Y194700D01*
X208500Y111900D02*
X214468D01*
X224606Y152600D02*
X226400D01*
X275039Y193300D02*
X281800D01*
X232200Y93950D02*
X234941D01*
X211173D02*
X232200D01*
X181200Y113700D02*
X184823D01*
X255039Y171752D02*
Y180300D01*
Y182400D02*
Y193209D01*
Y180300D02*
Y182400D01*
X280328Y61071D02*
Y62199D01*
Y52977D02*
Y61071D01*
Y50028D02*
Y52977D01*
X278728Y62228D02*
X278757Y62199D01*
X277067Y63889D02*
X278728Y62228D01*
X264700Y97400D02*
Y118100D01*
X277500Y164500D02*
X280000D01*
X283600Y169000D02*
Y170315D01*
X227264Y137400D02*
X227800D01*
X241700Y179778D02*
X245039Y183118D01*
X241700Y121463D02*
Y179778D01*
X238472Y118235D02*
X241700Y121463D01*
X238472Y114400D02*
Y118235D01*
Y114400D02*
X241700Y111172D01*
Y59010D02*
Y111172D01*
X238209Y55519D02*
X241700Y59010D01*
X238209Y49823D02*
Y55519D01*
Y49823D02*
X240000Y48032D01*
X244685D01*
X160646Y89850D02*
X161417Y106172D01*
X160039Y141600D02*
X163287Y138700D01*
Y132087D02*
Y138700D01*
X167634Y154102D02*
Y158500D01*
X167000Y159134D02*
X167634Y158500D01*
X167000Y159134D02*
Y183354D01*
X163740Y186614D02*
X167000Y183354D01*
X286910Y60599D02*
Y73181D01*
Y60599D02*
X296000Y51509D01*
X300294D01*
X302610Y51575D01*
X156838Y44438D02*
Y46038D01*
X160013Y49213D01*
X161417D01*
X205807Y35100D02*
Y56890D01*
X133740Y51440D02*
Y53040D01*
X150200Y69500D01*
Y81100D01*
X149300Y82000D02*
X150200Y81100D01*
X149300Y82000D02*
Y88800D01*
X150362Y89862D01*
X152264D01*
X133740Y27559D02*
Y51440D01*
X152000Y69700D01*
X140017Y108268D02*
X152264Y96021D01*
Y89862D02*
Y96021D01*
X197300Y91450D02*
X199618Y89850D01*
X197300Y91450D02*
Y93050D01*
X187900Y138800D02*
X189823Y140723D01*
Y142313D01*
X191776Y144266D01*
X187900Y146551D02*
X191776D01*
X189823Y133315D02*
Y140723D01*
X302610Y53543D02*
X310757D01*
X313100Y51200D01*
Y19300D02*
Y51200D01*
X312000Y18200D02*
X313100Y19300D01*
X308800Y18200D02*
X312000D01*
X306398Y20602D02*
X308800Y18200D01*
X306398Y20602D02*
Y25000D01*
X220768Y30532D02*
Y56890D01*
Y30532D02*
X223740Y27559D01*
X130600Y42000D02*
Y59931D01*
X136614Y65945D01*
X160039Y154036D02*
Y160827D01*
X155216Y165650D02*
X160039Y160827D01*
X173423Y132087D02*
X175736Y134400D01*
X168602Y132087D02*
X173423D01*
X47107Y29293D02*
X50460D01*
X46000Y30400D02*
X47107Y29293D01*
X46000Y125134D02*
X66929Y146063D01*
X53051Y89295D02*
X53346Y66535D01*
X66929Y135778D02*
Y146063D01*
X53400Y122249D02*
X66929Y135778D01*
X53400Y112160D02*
Y122249D01*
X53051Y111811D02*
X53400Y112160D01*
X53051Y105600D02*
X57025Y101575D01*
X87402D01*
X247400Y153900D02*
Y176800D01*
Y153900D02*
X250700Y150600D01*
Y130628D02*
Y150600D01*
X249872Y129800D02*
X250700Y130628D01*
X249872Y106728D02*
Y129800D01*
Y106728D02*
X253800Y102800D01*
X288878Y39811D02*
Y43200D01*
X290578Y44900D01*
X296800D01*
X302028Y39672D01*
Y18212D02*
Y39672D01*
X297316Y13500D02*
X302028Y18212D01*
X197337Y13500D02*
X297316D01*
X213740Y159160D02*
Y186614D01*
X316100Y17500D02*
Y155800D01*
X312100Y13500D02*
X316100Y17500D01*
X189500Y21337D02*
X197337Y13500D01*
X189500Y21337D02*
Y38344D01*
X180600Y47244D02*
X189500Y38344D01*
X176378Y47244D02*
X180600D01*
X195800Y32500D02*
Y39013D01*
X198141Y20459D02*
X201800Y16800D01*
X233600D01*
X236800Y20000D02*
X288900Y20600D01*
X290700Y22400D01*
Y33600D01*
X290847Y39811D01*
X176378Y49213D02*
X185600D01*
X195800Y39013D01*
Y32500D02*
X198141Y30159D01*
Y20459D02*
Y30159D01*
X233600Y16800D02*
X236800Y20000D01*
Y57600D01*
X240000Y60800D01*
Y109100D01*
X238600Y110500D02*
X240000Y109100D01*
X195700Y18343D02*
Y22300D01*
Y18343D02*
X198743Y15300D01*
X296197D01*
X300628Y19731D01*
Y32728D01*
X296752Y36604D02*
X300628Y32728D01*
X296752Y36604D02*
Y39811D01*
X176799Y34500D02*
X183740Y27559D01*
X159120Y34500D02*
X176799D01*
X153010Y40610D02*
X159120Y34500D01*
X153010Y40610D02*
Y58718D01*
X170177Y75886D01*
X178051D02*
X181386D01*
X182300Y76800D01*
Y77800D01*
X184000Y79500D01*
X196800D01*
X197700Y78600D01*
Y73600D02*
Y78600D01*
Y73600D02*
X202200Y69100D01*
Y61900D02*
Y69100D01*
Y61900D02*
X207850D01*
X209300Y60450D01*
Y21959D02*
Y60450D01*
X294784Y33716D02*
Y39811D01*
Y33716D02*
X298200Y30300D01*
X148328Y32971D02*
X153740Y27559D01*
X269240Y61417D02*
X276283D01*
X277900Y59800D01*
X147300Y51600D02*
Y58471D01*
X154429Y65600D02*
Y75886D01*
X224900Y21700D02*
X234300Y31100D01*
Y52600D01*
X273551Y59449D02*
X274300Y58700D01*
X269240Y59449D02*
X273551D01*
X149728Y41571D02*
X163740Y27559D01*
X149728Y41571D02*
Y57733D01*
X162303Y70308D01*
Y75886D01*
X292815Y29817D02*
Y39811D01*
X292198Y29200D02*
X292815Y29817D01*
X292198Y19200D02*
Y29200D01*
X290734Y17736D02*
X292198Y19200D01*
X282164Y17736D02*
X290734D01*
X262000Y62100D02*
Y98000D01*
X191275Y56319D02*
Y62100D01*
X186138Y51181D02*
X191275Y56319D01*
X176378Y51181D02*
X186138D01*
X14500Y35200D02*
X18829Y39529D01*
X14500Y19200D02*
Y35200D01*
Y19200D02*
X19200Y14500D01*
X111800D01*
X126500Y29200D01*
Y88189D02*
X128937D01*
X290847Y67203D02*
Y73181D01*
X214468Y111465D02*
Y111900D01*
X200299Y138801D02*
Y149114D01*
X217028Y107500D02*
Y111465D01*
Y107500D02*
X234400D01*
Y118700D01*
X238600Y122900D01*
Y182700D01*
X230400Y190900D02*
X238600Y182700D01*
X220800Y190900D02*
X230400D01*
X219200Y189300D02*
X220800Y190900D01*
X219200Y185096D02*
Y189300D01*
X216504Y182400D02*
X219200Y185096D01*
X216504Y154429D02*
Y182400D01*
X74803Y145397D02*
Y187402D01*
Y145397D02*
X113200Y107000D01*
Y100082D02*
Y107000D01*
Y100082D02*
X118400Y94882D01*
X199823Y111961D02*
X202439D01*
X205700Y108700D01*
X195100Y167259D02*
X199541Y171700D01*
Y192241D01*
X205100Y197800D01*
X282900Y194400D02*
Y194600D01*
X281800Y193300D02*
X282900Y194400D01*
X275039Y193209D02*
Y193300D01*
X250039Y193209D02*
Y197200D01*
X243400D02*
X250039D01*
X241000Y194800D02*
X243400Y197200D01*
X178800Y177300D02*
Y194800D01*
X175200Y173700D02*
X178800Y177300D01*
X175200Y158388D02*
Y173700D01*
X184823Y111961D02*
Y113700D01*
X265039Y193209D02*
Y195261D01*
X260072Y200228D02*
X265039Y195261D01*
X203700Y200228D02*
X260072D01*
X198141Y194669D02*
X203700Y200228D01*
X198141Y185041D02*
Y194669D01*
X182700Y169600D02*
X198141Y185041D01*
X182700Y162800D02*
Y169600D01*
X179200Y159300D02*
X182700Y162800D01*
X189823Y111961D02*
Y125077D01*
X205807Y65158D02*
Y72200D01*
X148900Y93100D02*
X149100Y93300D01*
X148900Y91562D02*
Y93100D01*
X147200Y89862D02*
X148900Y91562D01*
X144783Y89862D02*
X147200D01*
X174768Y84732D02*
X176850D01*
X173300Y86200D02*
X174768Y84732D01*
X220768Y70368D02*
X229000Y78600D01*
X220768Y65158D02*
Y70368D01*
X176378Y59055D02*
X179655D01*
X181255Y60655D01*
Y65455D01*
X257900Y66400D02*
Y80600D01*
X259500Y82200D01*
X176378Y57087D02*
X180278D01*
X183683Y60492D01*
Y66600D01*
X182400Y67883D02*
X183683Y66600D01*
X180000Y67883D02*
X182400D01*
X178100Y65983D02*
X180000Y67883D01*
X178100Y63700D02*
Y65983D01*
X254700Y165300D02*
X255400Y164600D01*
Y110000D02*
Y164600D01*
Y110000D02*
X256300Y109100D01*
Y100900D02*
Y109100D01*
X251100Y95700D02*
X256300Y100900D01*
X251100Y76000D02*
Y95700D01*
X176850Y91950D02*
X178200Y93300D01*
X176850Y89850D02*
Y91950D01*
X270039Y164412D02*
Y171752D01*
Y164412D02*
X274500Y159952D01*
Y88600D02*
Y159952D01*
X269400Y83500D02*
X274500Y88600D01*
X213400Y88500D02*
X214750Y89850D01*
X217362D01*
X158328Y55118D02*
X161417D01*
X154410Y51200D02*
X158328Y55118D01*
X154410Y43200D02*
Y51200D01*
Y43200D02*
X158182Y39428D01*
X279200Y62199D02*
X280328Y61071D01*
X278757Y62199D02*
X279200D01*
X277067Y63889D02*
Y73181D01*
X279036Y65384D02*
X279644Y64775D01*
X279036Y65384D02*
Y73181D01*
X184953Y84732D02*
X187032D01*
X187900Y85600D01*
Y100900D01*
X262500Y120300D02*
X264700Y118100D01*
X264746Y50460D02*
X265600Y49606D01*
X265039Y165161D02*
Y171752D01*
Y165161D02*
X273100Y157100D01*
Y97400D02*
Y157100D01*
X264700Y97400D02*
X273100D01*
X264700Y50506D02*
Y97400D01*
Y50506D02*
X264746D01*
Y50460D02*
Y50506D01*
X265600Y49606D02*
X269240D01*
X275900Y166100D02*
X277500Y164500D01*
X302200D02*
X310700Y156000D01*
Y68963D02*
Y156000D01*
X307091Y65354D02*
X310700Y68963D01*
X302610Y65354D02*
X307091D01*
X269698Y31700D02*
X276398Y25000D01*
X258900Y31700D02*
X269698D01*
X295946Y62900D02*
X298400Y65354D01*
X302610D01*
X295100Y57600D02*
X298600Y61100D01*
Y62400D01*
X299586Y63386D01*
X302610D01*
X283600Y170315D02*
X289764D01*
X281600Y171915D02*
X283600Y170315D01*
X281600Y171915D02*
Y172600D01*
X176378Y55118D02*
X183718D01*
X186300Y57700D01*
X247200Y60600D02*
X248472Y61872D01*
Y130400D01*
X249300Y131228D01*
Y142600D01*
X247700Y144200D02*
X249300Y142600D01*
X244685Y53150D02*
Y86569D01*
X246600Y88484D01*
Y134900D01*
X198300Y34000D02*
Y38900D01*
X195000Y42200D02*
X198300Y38900D01*
X195000Y42200D02*
Y63228D01*
X193700Y64528D02*
X195000Y63228D01*
X189600Y64528D02*
X193700D01*
X188800Y63728D02*
X189600Y64528D01*
X188800Y56072D02*
Y63728D01*
X185878Y53150D02*
X188800Y56072D01*
X176378Y53150D02*
X185878D01*
X234941Y81050D02*
Y87641D01*
X238600Y91300D01*
Y105644D01*
X236172Y108072D02*
X238600Y105644D01*
X236172Y108072D02*
Y118400D01*
X240000Y122228D01*
Y191500D01*
X236800Y194700D02*
X240000Y191500D01*
X213200Y194700D02*
X236800D01*
X158813Y57087D02*
X161417D01*
X158100Y57800D02*
X158813Y57087D01*
X160050Y53150D02*
X161417D01*
X157600Y50700D02*
X160050Y53150D01*
X240850Y53150D02*
X244685D01*
X278728Y62228D02*
X280299D01*
X280328Y62199D01*
X273200Y42900D02*
X280328Y50028D01*
X264046Y42900D02*
X273200D01*
X253600Y53346D02*
X264046Y42900D01*
X251575Y53346D02*
X253600D01*
X224705Y129905D02*
Y134598D01*
X224700Y129900D02*
X224705Y129905D01*
X214468Y134598D02*
Y137832D01*
X213600Y138700D02*
X214468Y137832D01*
X212000Y138700D02*
X213600D01*
X298157Y53543D02*
X302610D01*
X297700Y54000D02*
X298157Y53543D01*
X129500Y40900D02*
X130600Y42000D01*
X129500Y23300D02*
Y40900D01*
Y23300D02*
X185700D01*
X188000Y25600D01*
Y35900D01*
X179000Y44900D02*
X188000Y35900D01*
X168900Y44900D02*
X179000D01*
X166556Y47244D02*
X168900Y44900D01*
X161417Y47244D02*
X166556D01*
X251575Y44800D02*
Y48228D01*
X275598Y35800D02*
X286398Y25000D01*
X251575Y44800D02*
X260575Y35800D01*
X276067D02*
X277067Y36800D01*
Y39811D01*
X198425Y46875D02*
Y56890D01*
Y46875D02*
X200800Y44500D01*
Y32759D02*
Y44500D01*
X199541Y31500D02*
X200800Y32759D01*
X199541Y24003D02*
Y31500D01*
Y24003D02*
X205272Y18272D01*
X214453D01*
X223740Y27559D01*
X90171Y39529D02*
X102141Y27559D01*
X306600Y49700D02*
X307700Y48600D01*
X306600Y49700D02*
Y51575D01*
X302610D02*
X306600D01*
X183673Y154496D02*
X186400D01*
X208700Y176796D01*
Y190200D01*
X217300Y198800D02*
X258039D01*
X260039Y196800D01*
Y193209D02*
Y196800D01*
X305500Y190315D02*
X311023D01*
X298615Y197200D02*
X305500Y190315D01*
X268500Y197200D02*
X298615D01*
X267300Y196000D02*
X268500Y197200D01*
X267300Y188600D02*
Y196000D01*
X257300Y178600D02*
X267300Y188600D01*
X257300Y167743D02*
Y178600D01*
X253357Y167743D02*
X257300D01*
X252272Y168828D02*
X253357Y167743D01*
X252272Y168828D02*
Y179228D01*
X245039Y186461D02*
X252272Y179228D01*
X219587Y111465D02*
Y114713D01*
X218400Y115900D02*
X219587Y114713D01*
X205100Y115900D02*
X218400D01*
X197200Y123800D02*
X205100Y115900D01*
X197200Y123800D02*
Y151800D01*
X197400Y152000D01*
X200299D01*
Y154429D01*
X60300Y152692D02*
X66929Y146063D01*
X60300Y152692D02*
Y191800D01*
X64600Y196100D01*
X78900D01*
X79800Y195200D01*
Y185304D02*
Y195200D01*
Y185304D02*
X118504Y146600D01*
X22500Y111811D02*
X22539D01*
X14500Y178300D02*
X22500Y170300D01*
X14500Y178300D02*
Y195800D01*
X19200Y200500D01*
X86432D01*
X91732Y195200D01*
Y187402D02*
Y195200D01*
X127200Y144000D02*
Y145000D01*
X125100Y141900D02*
X127200Y144000D01*
X175736Y146864D02*
X178700Y143900D01*
X227264Y134598D02*
Y137400D01*
X227800D02*
Y141600D01*
X226800Y142600D02*
X227800Y141600D01*
X222100Y142600D02*
X226800D01*
X281600Y167000D02*
X283600Y169000D01*
X244200Y139800D02*
Y158400D01*
X244100Y139700D02*
X244200Y139800D01*
X244100Y119000D02*
Y139700D01*
X240900Y115800D02*
X244100Y119000D01*
X301815Y180315D02*
X311023D01*
X297300Y175800D02*
X301815Y180315D01*
X280000Y175800D02*
X297300D01*
X279100Y174900D02*
X280000Y175800D01*
X279100Y165400D02*
Y174900D01*
Y165400D02*
X280000Y164500D01*
X302200D01*
X252300Y127400D02*
Y160386D01*
X252272Y160414D02*
X252300Y160386D01*
X245039Y186461D02*
Y193209D01*
X139900Y123228D02*
Y160000D01*
X135100Y164800D02*
X139900Y160000D01*
X118504Y164764D02*
Y164800D01*
X213287Y65158D02*
Y78087D01*
X217362Y82162D01*
Y84732D01*
X265588Y47638D02*
X269240D01*
X255472Y57754D02*
X265588Y47638D01*
X255472Y57754D02*
Y90591D01*
X257849Y92968D01*
Y110311D01*
X256800Y111361D02*
X257849Y110311D01*
X256800Y111361D02*
Y153695D01*
X260039Y156934D01*
Y171752D01*
X269240Y63386D02*
X273300D01*
Y74200D01*
X267200Y80300D02*
X273300Y74200D01*
X144783Y81917D02*
X145400Y81300D01*
X144783Y81917D02*
Y84744D01*
X289764Y168000D02*
Y170315D01*
Y168000D02*
X291616Y166147D01*
X307850D01*
X312100Y161897D01*
Y67986D02*
Y161897D01*
X307500Y63386D02*
X312100Y67986D01*
X302610Y63386D02*
X307500D01*
X277067Y73181D02*
Y146133D01*
X191150Y89850D02*
X193055D01*
X190100Y88800D02*
X191150Y89850D01*
X190100Y84800D02*
Y88800D01*
X187300Y82000D02*
X190100Y84800D01*
X169600Y82000D02*
X187300D01*
X168748Y82852D02*
X169600Y82000D01*
X168748Y82852D02*
Y84732D01*
X182350Y89850D02*
X184953D01*
X181125Y91075D02*
X182350Y89850D01*
X181125Y91075D02*
Y94603D01*
X180000Y95728D02*
X181125Y94603D01*
X177078Y95728D02*
X180000D01*
X171200Y89850D02*
X177078Y95728D01*
X168748Y89850D02*
X171200D01*
X231982Y81050D02*
X234941D01*
X228300Y84732D02*
X231982Y81050D01*
X225464Y84732D02*
X228300D01*
X213287Y56890D02*
Y59813D01*
X211200Y61900D02*
X213287Y59813D01*
X210400Y61900D02*
X211200D01*
X209547Y62753D02*
X210400Y61900D01*
X209547Y62753D02*
Y75886D01*
X279036Y44736D02*
X279100Y44800D01*
X279036Y39811D02*
Y44736D01*
X136614Y65945D02*
X146555Y75886D01*
X310600Y20700D02*
Y51275D01*
X310300Y51575D02*
X310600Y51275D01*
X281100Y78300D02*
X283200D01*
X284941Y76559D01*
X286910Y73181D02*
Y89048D01*
X285800Y90157D02*
X286910Y89048D01*
X279500Y84841D02*
Y96894D01*
Y84841D02*
X284941Y79400D01*
X167634Y136634D02*
Y148787D01*
X167600Y136600D02*
X167634Y136634D01*
X160039Y141600D02*
Y148721D01*
X152000Y191700D02*
X168654D01*
X173740Y186614D01*
X137800Y110700D02*
X139900Y112800D01*
X288878Y73181D02*
Y148222D01*
X272300Y164800D02*
X288878Y148222D01*
X272300Y164800D02*
Y182400D01*
X280215Y190315D01*
X289764D01*
X164800Y154102D02*
X167634D01*
X163800Y153102D02*
X164800Y154102D01*
X163800Y150400D02*
Y153102D01*
X162121Y148721D02*
X163800Y150400D01*
X160039Y148721D02*
X162121D01*
X183673Y147725D02*
Y149181D01*
X184823Y129200D02*
X192200D01*
Y140100D01*
X194907Y142807D01*
Y152593D01*
X196700Y154386D01*
Y156651D01*
X197300Y157251D01*
X203318D01*
Y152000D02*
Y157251D01*
Y152000D02*
X206204Y149114D01*
X168898Y53150D02*
Y59055D01*
X194823Y122600D02*
Y133315D01*
Y122600D02*
X197200Y120223D01*
Y104900D02*
Y120223D01*
X193055Y100755D02*
X197200Y104900D01*
X193055Y89850D02*
Y100755D01*
X222146Y134598D02*
Y138246D01*
X224000Y140100D01*
X225346D01*
X219587Y134598D02*
Y144966D01*
X219466Y145087D02*
X219587Y144966D01*
X152264Y81600D02*
Y84744D01*
Y81600D02*
X153864Y80000D01*
X172200D01*
X173800Y78400D01*
Y72856D02*
Y78400D01*
Y72856D02*
X177373Y69283D01*
X191123D01*
X195249Y65158D01*
X198425D01*
X222146Y111465D02*
Y117741D01*
X234400Y129995D01*
Y138600D01*
X228758Y144242D02*
X234400Y138600D01*
X227564Y144242D02*
X228758D01*
X224606Y147200D02*
X227564Y144242D01*
X224606Y147200D02*
Y149114D01*
X224705Y111465D02*
Y117500D01*
X235800Y128595D01*
Y140100D01*
X227800Y148100D02*
X235800Y140100D01*
X227800Y148100D02*
Y151200D01*
X226400Y152600D02*
X227800Y151200D01*
X224606Y152600D02*
Y154429D01*
X317315Y170315D02*
X318200Y171200D01*
Y183200D01*
X317400Y184000D02*
X318200Y183200D01*
X279839Y184000D02*
X317400D01*
X275039Y179200D02*
X279839Y184000D01*
X275039Y171752D02*
Y179200D01*
X199823Y105300D02*
X211173Y93950D01*
X199823Y105300D02*
Y111961D01*
X259500Y82200D02*
Y134106D01*
X264961Y139567D01*
X227264Y111465D02*
Y117264D01*
X237200Y127200D01*
Y152200D01*
X234971Y154429D02*
X237200Y152200D01*
X232709Y154429D02*
X234971D01*
X199823Y129750D02*
Y133315D01*
Y129750D02*
X216000D01*
X217028Y130778D01*
Y134598D01*
X191776Y154496D02*
X194396D01*
X195147Y155247D01*
Y157798D01*
X196000Y158651D01*
X204718D01*
Y155611D02*
Y158651D01*
Y155611D02*
X205900Y154429D01*
X208402D01*
X331890Y25591D02*
Y125827D01*
X336614Y130551D01*
X149500Y189200D02*
X152000Y191700D01*
X149500Y136700D02*
X157500Y128700D01*
Y85600D02*
Y128700D01*
Y85600D02*
X158368Y84732D01*
X160646D01*
X223740Y186614D02*
X229400Y180954D01*
Y150114D02*
Y180954D01*
Y150114D02*
X230400Y149114D01*
X232709D01*
X50460Y39529D02*
X59953D01*
X216504Y142155D02*
Y149114D01*
Y142155D02*
X217028Y141631D01*
Y134598D02*
Y141631D01*
X168898Y47244D02*
Y53150D01*
X119329Y101575D02*
X128937D01*
X118504Y102400D02*
X119329Y101575D01*
X161417Y118183D02*
Y121850D01*
Y118183D02*
X162400Y117200D01*
X180423D01*
X184823Y121600D01*
X331890Y175805D02*
Y189370D01*
X326400Y170315D02*
X331890Y175805D01*
X140300Y82141D02*
X146555Y75886D01*
X140300Y82141D02*
Y99200D01*
X137925Y101575D02*
X140300Y99200D01*
X128937Y101575D02*
X137925D01*
X33800Y41600D02*
X35871Y39529D01*
X33800Y41600D02*
Y64735D01*
X32000Y66535D02*
X33800Y64735D01*
X22835Y66535D02*
X32000D01*
X46457Y166535D02*
Y187402D01*
X118504Y116857D02*
X120400Y114961D01*
X128937D01*
X208400Y149114D02*
X208402D01*
X208400Y137300D02*
X211200Y134500D01*
X214468D02*
Y134598D01*
X25591Y25591D02*
Y29293D01*
X118400Y94882D02*
X128937D01*
X116535Y93017D02*
X118400Y94882D01*
X116535Y43307D02*
Y93017D01*
X220400Y183274D02*
X223740Y186614D01*
X220400Y152800D02*
Y183274D01*
X219200Y151600D02*
X220400Y152800D01*
X216504Y151600D02*
X219200D01*
X216504Y149114D02*
Y151600D01*
X46457Y187402D02*
Y189370D01*
X331890Y135276D02*
X336614Y130551D01*
X160646Y89850D02*
X168748D01*
X163287Y127870D02*
Y132087D01*
X161417Y126000D02*
X163287Y127870D01*
X161417Y121850D02*
Y126000D01*
X167634Y154102D02*
X175736D01*
X248197Y48228D02*
X251575D01*
X248000Y48032D02*
X248197Y48228D01*
X244685Y48032D02*
X248000D01*
X69378Y43307D02*
X75197D01*
X65600Y39529D02*
X69378Y43307D01*
X59953Y39529D02*
X65600D01*
X160646Y84732D02*
X168748D01*
X199618Y89850D02*
X201157D01*
X194500Y84732D02*
X199618Y89850D01*
X193055Y84732D02*
X194500D01*
X201157Y89850D02*
X209260D01*
X213287Y56890D02*
X220768D01*
X209260Y80387D02*
Y84732D01*
Y80387D02*
X209547Y80100D01*
Y75886D02*
Y80100D01*
X201157Y84732D02*
X209260D01*
X168602Y129032D02*
Y132087D01*
Y129032D02*
X172835Y124800D01*
Y121850D02*
Y124800D01*
X190315Y154496D02*
X191776D01*
X185000Y149181D02*
X190315Y154496D01*
X183673Y149181D02*
X185000D01*
X215015Y149114D02*
X216504D01*
X209700Y154429D02*
X215015Y149114D01*
X208402Y154429D02*
X209700D01*
X50460Y29293D02*
X59953D01*
X40967D02*
X47107D01*
X22539Y89295D02*
Y111811D01*
Y89295D02*
X22835Y89000D01*
Y66535D02*
Y89000D01*
X228100Y89850D02*
X232200Y93950D01*
X225464Y89850D02*
X228100D01*
X189823Y111961D02*
X194823D01*
X270039Y171752D02*
Y193209D01*
D73*
X127287Y186614D02*
X133740D01*
X126500Y187402D02*
X127287Y186614D01*
X120079Y187402D02*
X126500D01*
D74*
X186713Y165650D02*
D03*
X178839D02*
D03*
X170965D02*
D03*
X163091D02*
D03*
X155216D02*
D03*
X146555Y75886D02*
D03*
X154429D02*
D03*
X162303D02*
D03*
X170177D02*
D03*
X178051D02*
D03*
X185925D02*
D03*
X193799D02*
D03*
X201673D02*
D03*
X209547D02*
D03*
X217421D02*
D03*
D75*
X203740Y27559D02*
D03*
X193740D02*
D03*
X173740D02*
D03*
X153740D02*
D03*
X143740D02*
D03*
X163740D02*
D03*
X183740D02*
D03*
X213740D02*
D03*
X223740D02*
D03*
X286398Y25000D02*
D03*
X266398D02*
D03*
X276398D02*
D03*
X296398D02*
D03*
X306398D02*
D03*
X223740Y186614D02*
D03*
X213740D02*
D03*
X183740D02*
D03*
X163740D02*
D03*
X143740D02*
D03*
X153740D02*
D03*
X173740D02*
D03*
X193740D02*
D03*
X203740D02*
D03*
D76*
X133740Y27559D02*
D03*
X256398Y25000D02*
D03*
X133740Y186614D02*
D03*
D77*
X302559Y101968D02*
D03*
Y139567D02*
D03*
X264961D02*
D03*
D78*
X331890Y189370D02*
D03*
Y25591D02*
D03*
X25591Y189370D02*
D03*
Y25591D02*
D03*
D79*
X88583Y162598D02*
D03*
Y146063D02*
D03*
X66929Y162598D02*
D03*
Y146063D02*
D03*
D80*
X336614Y150551D02*
D03*
D81*
Y140551D02*
D03*
Y130551D02*
D03*
D82*
X156838Y44438D02*
D03*
X205807Y35100D02*
D03*
X152000Y69700D02*
D03*
X197300Y93050D02*
D03*
X187900Y138800D02*
D03*
Y146551D02*
D03*
X130600Y42000D02*
D03*
X136614Y65945D02*
D03*
X247400Y176800D02*
D03*
X253800Y102800D02*
D03*
X213740Y159160D02*
D03*
X316100Y155800D02*
D03*
X238600Y110500D02*
D03*
X195700Y22300D02*
D03*
X209300Y21959D02*
D03*
X298200Y30300D02*
D03*
X277900Y59800D02*
D03*
X147300Y51600D02*
D03*
X224900Y21700D02*
D03*
X234300Y52600D02*
D03*
X274300Y58700D02*
D03*
X282164Y17736D02*
D03*
X262000Y98000D02*
D03*
Y62100D02*
D03*
X191275D02*
D03*
X290847Y67203D02*
D03*
X208500Y111900D02*
D03*
X200299Y138801D02*
D03*
X205700Y108700D02*
D03*
X195100Y167259D02*
D03*
X205100Y197800D02*
D03*
X282900Y194600D02*
D03*
X241000Y194800D02*
D03*
X178800D02*
D03*
X175200Y158388D02*
D03*
X181200Y113700D02*
D03*
X179200Y159300D02*
D03*
X189823Y125077D02*
D03*
X205807Y72200D02*
D03*
X149100Y93300D02*
D03*
X173300Y86200D02*
D03*
X229000Y78600D02*
D03*
X181255Y65455D02*
D03*
X257900Y66400D02*
D03*
X178100Y63700D02*
D03*
X255039Y180300D02*
D03*
X254700Y165300D02*
D03*
X251100Y76000D02*
D03*
X178200Y93300D02*
D03*
X269400Y83500D02*
D03*
X213400Y88500D02*
D03*
X158182Y39428D02*
D03*
X280328Y52977D02*
D03*
X157600Y50700D02*
D03*
X279644Y64775D02*
D03*
X187900Y100900D02*
D03*
X262500Y120300D02*
D03*
X275900Y166100D02*
D03*
X258900Y31700D02*
D03*
X295946Y62900D02*
D03*
X295100Y57600D02*
D03*
X281600Y172600D02*
D03*
X186300Y57700D02*
D03*
X247200Y60600D02*
D03*
X247700Y144200D02*
D03*
X246600Y134900D02*
D03*
X198300Y34000D02*
D03*
X158100Y57800D02*
D03*
X240850Y53150D02*
D03*
X224700Y129900D02*
D03*
X212000Y138700D02*
D03*
X297700Y54000D02*
D03*
X102141Y27559D02*
D03*
X307700Y48600D02*
D03*
X127200Y145000D02*
D03*
X178700Y143900D02*
D03*
X222100Y142600D02*
D03*
X281600Y167000D02*
D03*
X244200Y158400D02*
D03*
X240900Y115800D02*
D03*
X252300Y127400D02*
D03*
X139900Y123228D02*
D03*
X267200Y80300D02*
D03*
X145400Y81300D02*
D03*
X277067Y146133D02*
D03*
X279100Y44800D02*
D03*
X310600Y20700D02*
D03*
X281100Y78300D02*
D03*
X285800Y90157D02*
D03*
X279500Y96894D02*
D03*
X167600Y136600D02*
D03*
X160039Y141600D02*
D03*
X149500Y156890D02*
D03*
X139900Y112800D02*
D03*
X225346Y140100D02*
D03*
X219466Y145087D02*
D03*
X259500Y82200D02*
D03*
M02*
