G04*
G04 #@! TF.GenerationSoftware,Altium Limited,Altium Designer,20.0.13 (296)*
G04*
G04 Layer_Color=8388736*
%FSLAX25Y25*%
%MOIN*%
G70*
G01*
G75*
%ADD41R,0.01681X0.06307*%
%ADD42R,0.06307X0.01681*%
%ADD43R,0.04043X0.04437*%
%ADD44R,0.05618X0.07587*%
%ADD45R,0.04240X0.03847*%
G04:AMPARAMS|DCode=46|XSize=258.94mil|YSize=339.65mil|CornerRadius=5.04mil|HoleSize=0mil|Usage=FLASHONLY|Rotation=270.000|XOffset=0mil|YOffset=0mil|HoleType=Round|Shape=RoundedRectangle|*
%AMROUNDEDRECTD46*
21,1,0.25894,0.32957,0,0,270.0*
21,1,0.24886,0.33965,0,0,270.0*
1,1,0.01008,-0.16478,-0.12443*
1,1,0.01008,-0.16478,0.12443*
1,1,0.01008,0.16478,0.12443*
1,1,0.01008,0.16478,-0.12443*
%
%ADD46ROUNDEDRECTD46*%
G04:AMPARAMS|DCode=47|XSize=46.34mil|YSize=180.2mil|CornerRadius=4.57mil|HoleSize=0mil|Usage=FLASHONLY|Rotation=270.000|XOffset=0mil|YOffset=0mil|HoleType=Round|Shape=RoundedRectangle|*
%AMROUNDEDRECTD47*
21,1,0.04634,0.17106,0,0,270.0*
21,1,0.03720,0.18020,0,0,270.0*
1,1,0.00913,-0.08553,-0.01860*
1,1,0.00913,-0.08553,0.01860*
1,1,0.00913,0.08553,0.01860*
1,1,0.00913,0.08553,-0.01860*
%
%ADD47ROUNDEDRECTD47*%
G04:AMPARAMS|DCode=48|XSize=123.11mil|YSize=107.36mil|CornerRadius=4.55mil|HoleSize=0mil|Usage=FLASHONLY|Rotation=90.000|XOffset=0mil|YOffset=0mil|HoleType=Round|Shape=RoundedRectangle|*
%AMROUNDEDRECTD48*
21,1,0.12311,0.09827,0,0,90.0*
21,1,0.11402,0.10736,0,0,90.0*
1,1,0.00909,0.04913,0.05701*
1,1,0.00909,0.04913,-0.05701*
1,1,0.00909,-0.04913,-0.05701*
1,1,0.00909,-0.04913,0.05701*
%
%ADD48ROUNDEDRECTD48*%
G04:AMPARAMS|DCode=49|XSize=14.84mil|YSize=28.62mil|CornerRadius=4.47mil|HoleSize=0mil|Usage=FLASHONLY|Rotation=90.000|XOffset=0mil|YOffset=0mil|HoleType=Round|Shape=RoundedRectangle|*
%AMROUNDEDRECTD49*
21,1,0.01484,0.01968,0,0,90.0*
21,1,0.00591,0.02862,0,0,90.0*
1,1,0.00894,0.00984,0.00295*
1,1,0.00894,0.00984,-0.00295*
1,1,0.00894,-0.00984,-0.00295*
1,1,0.00894,-0.00984,0.00295*
%
%ADD49ROUNDEDRECTD49*%
%ADD50R,0.05224X0.04831*%
%ADD51R,0.08374X0.12508*%
%ADD52R,0.18217X0.24122*%
%ADD53R,0.10343X0.14279*%
%ADD54R,0.17823X0.07980*%
%ADD55R,0.07193X0.04831*%
%ADD56R,0.12705X0.04437*%
G04:AMPARAMS|DCode=57|XSize=28.62mil|YSize=62.09mil|CornerRadius=4.51mil|HoleSize=0mil|Usage=FLASHONLY|Rotation=180.000|XOffset=0mil|YOffset=0mil|HoleType=Round|Shape=RoundedRectangle|*
%AMROUNDEDRECTD57*
21,1,0.02862,0.05307,0,0,180.0*
21,1,0.01961,0.06209,0,0,180.0*
1,1,0.00902,-0.00980,0.02653*
1,1,0.00902,0.00980,0.02653*
1,1,0.00902,0.00980,-0.02653*
1,1,0.00902,-0.00980,-0.02653*
%
%ADD57ROUNDEDRECTD57*%
%ADD58R,0.04437X0.04043*%
%ADD59R,0.03059X0.06504*%
%ADD60R,0.05299X0.04098*%
%ADD61R,0.02272X0.06307*%
%ADD62C,0.05618*%
%ADD63C,0.06799*%
%ADD64R,0.06799X0.06799*%
%ADD65C,0.14673*%
%ADD66C,0.20500*%
%ADD67C,0.11524*%
%ADD68R,0.06406X0.06406*%
%ADD69C,0.06406*%
%ADD70C,0.03256*%
D41*
X275099Y73181D02*
D03*
X277067D02*
D03*
X279036D02*
D03*
X281004D02*
D03*
X282973D02*
D03*
X284941D02*
D03*
X286910D02*
D03*
X288878D02*
D03*
X290847D02*
D03*
X292815D02*
D03*
X294784D02*
D03*
X296752D02*
D03*
Y39811D02*
D03*
X294784D02*
D03*
X292815D02*
D03*
X290847D02*
D03*
X288878D02*
D03*
X286910D02*
D03*
X284941D02*
D03*
X282973D02*
D03*
X281004D02*
D03*
X279036D02*
D03*
X277067D02*
D03*
X275099D02*
D03*
D42*
X302610Y67323D02*
D03*
Y65354D02*
D03*
Y63386D02*
D03*
Y61417D02*
D03*
Y59449D02*
D03*
Y57480D02*
D03*
Y55512D02*
D03*
Y53543D02*
D03*
Y51575D02*
D03*
Y49606D02*
D03*
Y47638D02*
D03*
Y45669D02*
D03*
X269240D02*
D03*
Y47638D02*
D03*
Y49606D02*
D03*
Y51575D02*
D03*
Y53543D02*
D03*
Y55512D02*
D03*
Y57480D02*
D03*
Y59449D02*
D03*
Y61417D02*
D03*
Y63386D02*
D03*
Y65354D02*
D03*
Y67323D02*
D03*
D43*
X168602Y132087D02*
D03*
X163287D02*
D03*
D44*
X161417Y121850D02*
D03*
X172835D02*
D03*
D45*
X251575Y53346D02*
D03*
Y48228D02*
D03*
X244685Y53150D02*
D03*
Y48032D02*
D03*
X152264Y89862D02*
D03*
Y84744D02*
D03*
X144783Y89862D02*
D03*
Y84744D02*
D03*
X176850Y89850D02*
D03*
Y84732D02*
D03*
X168748Y89850D02*
D03*
Y84732D02*
D03*
X160646Y89850D02*
D03*
Y84732D02*
D03*
X184953Y89850D02*
D03*
Y84732D02*
D03*
X193055Y89850D02*
D03*
Y84732D02*
D03*
X201157Y89850D02*
D03*
Y84732D02*
D03*
X225464Y89850D02*
D03*
Y84732D02*
D03*
X217362Y89850D02*
D03*
Y84732D02*
D03*
X209260Y89850D02*
D03*
Y84732D02*
D03*
D46*
X87402Y101575D02*
D03*
D47*
X128937Y114961D02*
D03*
Y108268D02*
D03*
Y101575D02*
D03*
Y94882D02*
D03*
Y88189D02*
D03*
D48*
X168898Y53150D02*
D03*
D49*
X176378Y47244D02*
D03*
Y49213D02*
D03*
Y51181D02*
D03*
Y53150D02*
D03*
Y55118D02*
D03*
Y57087D02*
D03*
Y59055D02*
D03*
X161417Y47244D02*
D03*
Y49213D02*
D03*
Y51181D02*
D03*
Y53150D02*
D03*
Y55118D02*
D03*
Y57087D02*
D03*
Y59055D02*
D03*
D50*
X198425Y65158D02*
D03*
Y56890D02*
D03*
X205807D02*
D03*
Y65158D02*
D03*
X220768D02*
D03*
Y56890D02*
D03*
X213287Y65158D02*
D03*
Y56890D02*
D03*
D51*
X91732Y187402D02*
D03*
X120079D02*
D03*
X74803D02*
D03*
X46457D02*
D03*
D52*
X116535Y43307D02*
D03*
X75197D02*
D03*
D53*
X118504Y139173D02*
D03*
Y164764D02*
D03*
D54*
X22835Y66535D02*
D03*
X53346D02*
D03*
X22539Y111811D02*
D03*
X53051D02*
D03*
D55*
X59953Y29293D02*
D03*
Y39529D02*
D03*
X50460Y29293D02*
D03*
Y39529D02*
D03*
X40967Y29293D02*
D03*
Y39529D02*
D03*
D56*
X289764Y190315D02*
D03*
X311023D02*
D03*
X289764Y180315D02*
D03*
Y170315D02*
D03*
X311023Y180315D02*
D03*
Y170315D02*
D03*
D57*
X245039Y171752D02*
D03*
X250039D02*
D03*
X255039D02*
D03*
X260039D02*
D03*
X265039D02*
D03*
X270039D02*
D03*
X275039D02*
D03*
X245039Y193209D02*
D03*
X250039D02*
D03*
X255039D02*
D03*
X260039D02*
D03*
X265039D02*
D03*
X270039D02*
D03*
X275039D02*
D03*
D58*
X175736Y148787D02*
D03*
Y154102D02*
D03*
X167634Y148787D02*
D03*
Y154102D02*
D03*
X160039Y154036D02*
D03*
Y148721D02*
D03*
X191776Y154496D02*
D03*
Y149181D02*
D03*
X183673D02*
D03*
Y154496D02*
D03*
X208402Y149114D02*
D03*
Y154429D02*
D03*
X200299Y149114D02*
D03*
Y154429D02*
D03*
X216504Y149114D02*
D03*
Y154429D02*
D03*
X232709Y149114D02*
D03*
Y154429D02*
D03*
X224606Y149114D02*
D03*
Y154429D02*
D03*
D59*
X184823Y133315D02*
D03*
X189823D02*
D03*
X194823D02*
D03*
X199823D02*
D03*
Y111961D02*
D03*
X194823D02*
D03*
X189823D02*
D03*
X184823D02*
D03*
D60*
X234941Y81050D02*
D03*
Y93950D02*
D03*
D61*
X214468Y111465D02*
D03*
X217028D02*
D03*
X219587D02*
D03*
X222146D02*
D03*
X224705D02*
D03*
X227264D02*
D03*
X229823D02*
D03*
X232382D02*
D03*
Y134598D02*
D03*
X229823D02*
D03*
X227264D02*
D03*
X224705D02*
D03*
X222146D02*
D03*
X219587D02*
D03*
X217028D02*
D03*
X214468D02*
D03*
D62*
X186713Y165650D02*
D03*
X178839D02*
D03*
X170965D02*
D03*
X163091D02*
D03*
X155216D02*
D03*
X146555Y75886D02*
D03*
X154429D02*
D03*
X162303D02*
D03*
X170177D02*
D03*
X178051D02*
D03*
X185925D02*
D03*
X193799D02*
D03*
X201673D02*
D03*
X209547D02*
D03*
X217421D02*
D03*
D63*
X203740Y27559D02*
D03*
X193740D02*
D03*
X173740D02*
D03*
X153740D02*
D03*
X143740D02*
D03*
X163740D02*
D03*
X183740D02*
D03*
X213740D02*
D03*
X223740D02*
D03*
X286398Y25000D02*
D03*
X266398D02*
D03*
X276398D02*
D03*
X296398D02*
D03*
X306398D02*
D03*
X223740Y186614D02*
D03*
X213740D02*
D03*
X183740D02*
D03*
X163740D02*
D03*
X143740D02*
D03*
X153740D02*
D03*
X173740D02*
D03*
X193740D02*
D03*
X203740D02*
D03*
D64*
X133740Y27559D02*
D03*
X256398Y25000D02*
D03*
X133740Y186614D02*
D03*
D65*
X302559Y101968D02*
D03*
Y139567D02*
D03*
X264961D02*
D03*
D66*
X331890Y189370D02*
D03*
Y25591D02*
D03*
X25591Y189370D02*
D03*
Y25591D02*
D03*
D67*
X88583Y162598D02*
D03*
Y146063D02*
D03*
X66929Y162598D02*
D03*
Y146063D02*
D03*
D68*
X336614Y150551D02*
D03*
D69*
Y140551D02*
D03*
Y130551D02*
D03*
D70*
X156838Y44438D02*
D03*
X205807Y35100D02*
D03*
X152000Y69700D02*
D03*
X197300Y93050D02*
D03*
X187900Y138800D02*
D03*
Y146551D02*
D03*
X130600Y42000D02*
D03*
X136614Y65945D02*
D03*
X247400Y176800D02*
D03*
X253800Y102800D02*
D03*
X213740Y159160D02*
D03*
X316100Y155800D02*
D03*
X238600Y110500D02*
D03*
X195700Y22300D02*
D03*
X209300Y21959D02*
D03*
X298200Y30300D02*
D03*
X277900Y59800D02*
D03*
X147300Y51600D02*
D03*
X224900Y21700D02*
D03*
X234300Y52600D02*
D03*
X274300Y58700D02*
D03*
X282164Y17736D02*
D03*
X262000Y98000D02*
D03*
Y62100D02*
D03*
X191275D02*
D03*
X290847Y67203D02*
D03*
X208500Y111900D02*
D03*
X200299Y138801D02*
D03*
X205700Y108700D02*
D03*
X195100Y167259D02*
D03*
X205100Y197800D02*
D03*
X282900Y194600D02*
D03*
X241000Y194800D02*
D03*
X178800D02*
D03*
X175200Y158388D02*
D03*
X181200Y113700D02*
D03*
X179200Y159300D02*
D03*
X189823Y125077D02*
D03*
X205807Y72200D02*
D03*
X149100Y93300D02*
D03*
X173300Y86200D02*
D03*
X229000Y78600D02*
D03*
X181255Y65455D02*
D03*
X257900Y66400D02*
D03*
X178100Y63700D02*
D03*
X255039Y180300D02*
D03*
X254700Y165300D02*
D03*
X251100Y76000D02*
D03*
X178200Y93300D02*
D03*
X269400Y83500D02*
D03*
X213400Y88500D02*
D03*
X158182Y39428D02*
D03*
X280328Y52977D02*
D03*
X157600Y50700D02*
D03*
X279644Y64775D02*
D03*
X187900Y100900D02*
D03*
X262500Y120300D02*
D03*
X275900Y166100D02*
D03*
X258900Y31700D02*
D03*
X295946Y62900D02*
D03*
X295100Y57600D02*
D03*
X281600Y172600D02*
D03*
X186300Y57700D02*
D03*
X247200Y60600D02*
D03*
X247700Y144200D02*
D03*
X246600Y134900D02*
D03*
X198300Y34000D02*
D03*
X158100Y57800D02*
D03*
X240850Y53150D02*
D03*
X224700Y129900D02*
D03*
X212000Y138700D02*
D03*
X297700Y54000D02*
D03*
X102141Y27559D02*
D03*
X307700Y48600D02*
D03*
X127200Y145000D02*
D03*
X178700Y143900D02*
D03*
X222100Y142600D02*
D03*
X281600Y167000D02*
D03*
X244200Y158400D02*
D03*
X240900Y115800D02*
D03*
X252300Y127400D02*
D03*
X139900Y123228D02*
D03*
X267200Y80300D02*
D03*
X145400Y81300D02*
D03*
X277067Y146133D02*
D03*
X279100Y44800D02*
D03*
X310600Y20700D02*
D03*
X281100Y78300D02*
D03*
X285800Y90157D02*
D03*
X279500Y96894D02*
D03*
X167600Y136600D02*
D03*
X160039Y141600D02*
D03*
X149500Y156890D02*
D03*
X139900Y112800D02*
D03*
X225346Y140100D02*
D03*
X219466Y145087D02*
D03*
X259500Y82200D02*
D03*
M02*
