M48
;Layer_Color=9474304
;FILE_FORMAT=2:5
INCH,TZ
;TYPE=PLATED
T1F00S00C0.01181
T2F00S00C0.03346
T3F00S00C0.03543
T4F00S00C0.04331
T5F00S00C0.07283
T6F00S00C0.10000
T7F00S00C0.10630
%
T01
X102141Y27559
X130600Y42000
X147300Y51600
X152000Y69700
X145400Y81300
X149100Y93300
X139900Y112800
Y123228
X127200Y145000
X136614Y65945
X158100Y57800
X157600Y50700
X156838Y44438
X158182Y39428
X178100Y63700
X181255Y65455
X186300Y57700
X191275Y62100
X205807Y72200
X213400Y88500
X197300Y93050
X187900Y100900
X178200Y93300
X173300Y86200
X181200Y113700
X189823Y125077
X187900Y138800
Y146551
X178700Y143900
X167600Y136600
X160039Y141600
X200299Y138801
X212000Y138700
X219466Y145087
X222100Y142600
X225346Y140100
X224700Y129900
X246600Y134900
X247700Y144200
X252300Y127400
X262500Y120300
X262000Y98000
X253800Y102800
X238600Y110500
X240900Y115800
X208500Y111900
X205700Y108700
X229000Y78600
X251100Y76000
X259500Y82200
X267200Y80300
X269400Y83500
X281100Y78300
X279644Y64775
X277900Y59800
X274300Y58700
X280328Y52977
X279100Y44800
X297700Y54000
X295100Y57600
X295946Y62900
X290847Y67203
X285800Y90157
X279500Y96894
X277067Y146133
X257900Y66400
X262000Y62100
X247200Y60600
X240850Y53150
X234300Y52600
X224900Y21700
X209300Y21959
X195700Y22300
X198300Y34000
X205807Y35100
X258900Y31700
X282164Y17736
X298200Y30300
X310600Y20700
X307700Y48600
X316100Y155800
X281600Y167000
Y172600
X275900Y166100
X254700Y165300
X255039Y180300
X247400Y176800
X244200Y158400
X213740Y159160
X195100Y167259
X179200Y159300
X175200Y158388
X178800Y194800
X205100Y197800
X241000Y194800
X282900Y194600
X149500Y156890
T02
X146555Y75886
X154429
X162303
X170177
X178051
X185925
X193799
X201673
X209547
X217421
X186713Y165650
X178839
X170965
X163091
X155216
T03
X336614Y130551
Y140551
Y150551
T04
X133740Y27559
X143740
X153740
X163740
X173740
X183740
X193740
X203740
X213740
X223740
X256398Y25000
X266398
X276398
X286398
X296398
X306398
X223740Y186614
X213740
X203740
X193740
X183740
X173740
X163740
X153740
X143740
X133740
T05
X66929Y146063
X88583
Y162598
X66929
T06
X25591Y25591
X331890
Y189370
X25591
T07
X302559Y101968
Y139567
X264961
M30
