G04*
G04 #@! TF.GenerationSoftware,Altium Limited,Altium Designer,20.0.13 (296)*
G04*
G04 Layer_Color=32896*
%FSLAX25Y25*%
%MOIN*%
G70*
G01*
G75*
%ADD10C,0.00984*%
%ADD12C,0.00787*%
%ADD15C,0.00591*%
%ADD17C,0.00630*%
%ADD99R,0.02000X0.07087*%
D10*
X130807Y145472D02*
G03*
X130807Y145472I-492J0D01*
G01*
X131201Y73228D02*
G03*
X131201Y73228I-492J0D01*
G01*
X144311Y164370D02*
G03*
X144311Y164370I-492J0D01*
G01*
D12*
X123819Y119094D02*
Y145472D01*
X113583Y119094D02*
Y145472D01*
X123819D01*
X113583Y119094D02*
X123819D01*
X125394Y60039D02*
Y71851D01*
X126575Y60039D02*
Y71851D01*
X125394Y60039D02*
X126575D01*
X125394Y71851D02*
X126575D01*
X138169Y160000D02*
Y161260D01*
X133051Y163740D02*
Y166378D01*
X137008D01*
X133051Y154882D02*
X137008D01*
X133051D02*
Y157520D01*
X98495Y55807D02*
Y62894D01*
X91853D02*
X98495D01*
X91853Y55807D02*
X98495D01*
D15*
X246850Y87228D02*
Y92740D01*
X241850Y87228D02*
Y87984D01*
Y87228D02*
X251850D01*
Y87984D01*
Y91984D02*
Y92740D01*
X241850D02*
X251850D01*
X241850Y91984D02*
Y92740D01*
X246850Y95331D02*
Y100843D01*
X241850Y95331D02*
Y96087D01*
Y95331D02*
X251850D01*
Y96087D01*
Y100087D02*
Y100843D01*
X241850D02*
X251850D01*
X241850Y100087D02*
Y100843D01*
X246850Y103433D02*
Y108945D01*
X241850Y103433D02*
Y104189D01*
Y103433D02*
X251850D01*
Y104189D01*
Y108189D02*
Y108945D01*
X241850D02*
X251850D01*
X241850Y108189D02*
Y108945D01*
X246850Y111536D02*
Y117047D01*
X241850Y111536D02*
Y112291D01*
Y111536D02*
X251850D01*
Y112291D01*
Y116291D02*
Y117047D01*
X241850D02*
X251850D01*
X241850Y116291D02*
Y117047D01*
X246850Y119638D02*
Y125150D01*
X241850Y119638D02*
Y120394D01*
Y119638D02*
X251850D01*
Y120394D01*
Y124394D02*
Y125150D01*
X241850D02*
X251850D01*
X241850Y124394D02*
Y125150D01*
X246850Y127740D02*
Y133252D01*
X241850Y127740D02*
Y128496D01*
Y127740D02*
X251850D01*
Y128496D01*
Y132496D02*
Y133252D01*
X241850D02*
X251850D01*
X241850Y132496D02*
Y133252D01*
X96260Y47539D02*
Y53051D01*
X101772Y51870D02*
Y53051D01*
X90748D02*
X101772D01*
X90748Y51870D02*
Y53051D01*
Y47539D02*
Y48720D01*
Y47539D02*
X101772D01*
Y48720D01*
D17*
X93115Y146933D02*
X96395D01*
X97051Y146277D01*
Y144966D01*
X96395Y144310D01*
X93115D01*
Y142998D02*
Y140374D01*
X93771D01*
X96395Y142998D01*
X97051D01*
X128130Y175721D02*
X131410D01*
X132066Y175065D01*
Y173753D01*
X131410Y173097D01*
X128130D01*
Y169161D02*
X128787Y170473D01*
X130098Y171785D01*
X131410D01*
X132066Y171129D01*
Y169817D01*
X131410Y169161D01*
X130754D01*
X130098Y169817D01*
Y171785D01*
X135891Y79330D02*
Y76050D01*
X135236Y75394D01*
X133924D01*
X133268Y76050D01*
Y79330D01*
X131956Y75394D02*
X130644D01*
X131300D01*
Y79330D01*
X131956Y78674D01*
X253807Y107826D02*
Y103891D01*
X255775D01*
X256431Y104546D01*
Y105858D01*
X255775Y106514D01*
X253807D01*
X255119D02*
X256431Y107826D01*
X260366Y103891D02*
X259054Y104546D01*
X257743Y105858D01*
Y107170D01*
X258399Y107826D01*
X259710D01*
X260366Y107170D01*
Y106514D01*
X259710Y105858D01*
X257743D01*
X253807Y100283D02*
Y96347D01*
X255775D01*
X256431Y97003D01*
Y98315D01*
X255775Y98971D01*
X253807D01*
X255119D02*
X256431Y100283D01*
X260366Y96347D02*
X257743D01*
Y98315D01*
X259054Y97659D01*
X259710D01*
X260366Y98315D01*
Y99627D01*
X259710Y100283D01*
X258399D01*
X257743Y99627D01*
X253807Y91952D02*
Y88016D01*
X255775D01*
X256431Y88672D01*
Y89984D01*
X255775Y90640D01*
X253807D01*
X255119D02*
X256431Y91952D01*
X259710D02*
Y88016D01*
X257743Y89984D01*
X260366D01*
X254201Y132425D02*
Y128489D01*
X256168D01*
X256824Y129145D01*
Y130457D01*
X256168Y131113D01*
X254201D01*
X255512D02*
X256824Y132425D01*
X258136Y129145D02*
X258792Y128489D01*
X260104D01*
X260760Y129145D01*
Y129801D01*
X260104Y130457D01*
X259448D01*
X260104D01*
X260760Y131113D01*
Y131769D01*
X260104Y132425D01*
X258792D01*
X258136Y131769D01*
X254201Y124487D02*
Y120552D01*
X256168D01*
X256824Y121208D01*
Y122520D01*
X256168Y123176D01*
X254201D01*
X255512D02*
X256824Y124487D01*
X260760D02*
X258136D01*
X260760Y121864D01*
Y121208D01*
X260104Y120552D01*
X258792D01*
X258136Y121208D01*
X254069Y116551D02*
Y112615D01*
X256037D01*
X256693Y113271D01*
Y114583D01*
X256037Y115239D01*
X254069D01*
X255381D02*
X256693Y116551D01*
X258005D02*
X259317D01*
X258661D01*
Y112615D01*
X258005Y113271D01*
X112329Y61318D02*
Y57383D01*
X110361D01*
X109705Y58039D01*
Y60662D01*
X110361Y61318D01*
X112329D01*
X108393Y60662D02*
X107737Y61318D01*
X106425D01*
X105769Y60662D01*
Y60006D01*
X106425Y59350D01*
X107081D01*
X106425D01*
X105769Y58694D01*
Y58039D01*
X106425Y57383D01*
X107737D01*
X108393Y58039D01*
X111843Y51214D02*
X112499Y51869D01*
X113811D01*
X114467Y51214D01*
Y48590D01*
X113811Y47934D01*
X112499D01*
X111843Y48590D01*
X110531Y47934D02*
X109219D01*
X109875D01*
Y51869D01*
X110531Y51214D01*
X107251D02*
X106596Y51869D01*
X105283D01*
X104628Y51214D01*
Y50558D01*
X105283Y49902D01*
X104628Y49246D01*
Y48590D01*
X105283Y47934D01*
X106596D01*
X107251Y48590D01*
Y49246D01*
X106596Y49902D01*
X107251Y50558D01*
Y51214D01*
X106596Y49902D02*
X105283D01*
X292317Y34525D02*
X292973Y35181D01*
X294285D01*
X294941Y34525D01*
Y31901D01*
X294285Y31245D01*
X292973D01*
X292317Y31901D01*
X291005Y31245D02*
X289693D01*
X290349D01*
Y35181D01*
X291005Y34525D01*
X287725Y35181D02*
X285102D01*
Y34525D01*
X287725Y31901D01*
Y31245D01*
X272446Y79693D02*
X271791Y79037D01*
X270479D01*
X269823Y79693D01*
Y82317D01*
X270479Y82973D01*
X271791D01*
X272446Y82317D01*
X273758Y82973D02*
X275070D01*
X274414D01*
Y79037D01*
X273758Y79693D01*
X279662Y79037D02*
X278350Y79693D01*
X277038Y81005D01*
Y82317D01*
X277694Y82973D01*
X279006D01*
X279662Y82317D01*
Y81661D01*
X279006Y81005D01*
X277038D01*
X317192Y52689D02*
X316536Y53346D01*
Y54657D01*
X317192Y55313D01*
X319816D01*
X320472Y54657D01*
Y53346D01*
X319816Y52689D01*
X320472Y51378D02*
Y50066D01*
Y50722D01*
X316536D01*
X317192Y51378D01*
X316536Y45474D02*
Y48098D01*
X318504D01*
X317848Y46786D01*
Y46130D01*
X318504Y45474D01*
X319816D01*
X320472Y46130D01*
Y47442D01*
X319816Y48098D01*
X278872Y102187D02*
X278216Y101531D01*
X276904D01*
X276248Y102187D01*
Y104811D01*
X276904Y105467D01*
X278216D01*
X278872Y104811D01*
X280184Y102187D02*
X280839Y101531D01*
X282151D01*
X282807Y102187D01*
Y102843D01*
X282151Y103499D01*
X282807Y104155D01*
Y104811D01*
X282151Y105467D01*
X280839D01*
X280184Y104811D01*
Y104155D01*
X280839Y103499D01*
X280184Y102843D01*
Y102187D01*
X280839Y103499D02*
X282151D01*
X278872Y95406D02*
X278216Y94750D01*
X276904D01*
X276248Y95406D01*
Y98030D01*
X276904Y98686D01*
X278216D01*
X278872Y98030D01*
X280184Y94750D02*
X282807D01*
Y95406D01*
X280184Y98030D01*
Y98686D01*
X278872Y88625D02*
X278216Y87969D01*
X276904D01*
X276248Y88625D01*
Y91249D01*
X276904Y91905D01*
X278216D01*
X278872Y91249D01*
X282807Y87969D02*
X281495Y88625D01*
X280184Y89937D01*
Y91249D01*
X280839Y91905D01*
X282151D01*
X282807Y91249D01*
Y90593D01*
X282151Y89937D01*
X280184D01*
X135701Y54764D02*
X136357Y54108D01*
Y52796D01*
X135701Y52140D01*
X133078D01*
X132422Y52796D01*
Y54108D01*
X133078Y54764D01*
X136357Y58699D02*
Y56076D01*
X134389D01*
X135045Y57388D01*
Y58043D01*
X134389Y58699D01*
X133078D01*
X132422Y58043D01*
Y56731D01*
X133078Y56076D01*
X278970Y122531D02*
X278314Y121875D01*
X277002D01*
X276346Y122531D01*
Y125155D01*
X277002Y125811D01*
X278314D01*
X278970Y125155D01*
X282250Y125811D02*
Y121875D01*
X280282Y123843D01*
X282906D01*
X278970Y115838D02*
X278314Y115182D01*
X277002D01*
X276346Y115838D01*
Y118462D01*
X277002Y119118D01*
X278314D01*
X278970Y118462D01*
X280282Y115838D02*
X280938Y115182D01*
X282250D01*
X282906Y115838D01*
Y116494D01*
X282250Y117150D01*
X281594D01*
X282250D01*
X282906Y117806D01*
Y118462D01*
X282250Y119118D01*
X280938D01*
X280282Y118462D01*
X278872Y109199D02*
X278216Y108543D01*
X276904D01*
X276248Y109199D01*
Y111823D01*
X276904Y112479D01*
X278216D01*
X278872Y111823D01*
X282807Y112479D02*
X280184D01*
X282807Y109855D01*
Y109199D01*
X282151Y108543D01*
X280839D01*
X280184Y109199D01*
X143132Y54724D02*
X143788Y54068D01*
Y52757D01*
X143132Y52101D01*
X140509D01*
X139853Y52757D01*
Y54068D01*
X140509Y54724D01*
X139853Y56036D02*
Y57348D01*
Y56692D01*
X143788D01*
X143132Y56036D01*
D99*
X97495Y59351D02*
D03*
M02*
