G04*
G04 #@! TF.GenerationSoftware,Altium Limited,Altium Designer,20.0.13 (296)*
G04*
G04 Layer_Physical_Order=2*
G04 Layer_Color=16711680*
%FSLAX25Y25*%
%MOIN*%
G70*
G01*
G75*
%ADD23R,0.03543X0.03937*%
%ADD72C,0.00700*%
%ADD73C,0.01500*%
%ADD74C,0.05118*%
%ADD75C,0.06299*%
%ADD76R,0.06299X0.06299*%
%ADD77C,0.14173*%
%ADD78C,0.20000*%
%ADD79C,0.11024*%
%ADD80R,0.05906X0.05906*%
%ADD81C,0.05906*%
%ADD82C,0.02756*%
%ADD83R,0.10630X0.03937*%
%ADD84R,0.10630X0.12992*%
%ADD85R,0.05118X0.02756*%
%ADD86R,0.03071X0.03071*%
%ADD87R,0.03347X0.03740*%
%ADD88R,0.03740X0.03937*%
%ADD89R,0.03937X0.03740*%
%ADD90R,0.03598X0.04799*%
G36*
X201909Y195476D02*
X201718Y195015D01*
X180876D01*
X180757Y195611D01*
X180639Y195789D01*
X180874Y196229D01*
X201156D01*
X201909Y195476D01*
D02*
G37*
G36*
X176961Y195789D02*
X176843Y195611D01*
X176681Y194800D01*
X176843Y193989D01*
X176961Y193812D01*
X176726Y193371D01*
X149426D01*
X149426Y193371D01*
X149016Y193289D01*
X148669Y193057D01*
X148669Y193057D01*
X145616Y190004D01*
X144745Y190365D01*
X143740Y190497D01*
X142735Y190365D01*
X141799Y189977D01*
X141071Y189418D01*
X140571Y189549D01*
Y192357D01*
X144444Y196229D01*
X176726D01*
X176961Y195789D01*
D02*
G37*
G36*
X344446Y33358D02*
X344201Y33278D01*
X343946Y33275D01*
X343757Y33557D01*
X339857Y37457D01*
X339510Y37689D01*
X339100Y37771D01*
X304600D01*
X304600Y37771D01*
X304190Y37689D01*
X303843Y37457D01*
X298704Y32318D01*
X298200Y32419D01*
X297389Y32257D01*
X296702Y31798D01*
X296243Y31111D01*
X296081Y30300D01*
X296208Y29665D01*
X295973Y29207D01*
X295889Y29119D01*
X295314Y29043D01*
X294305Y28625D01*
X294295Y28617D01*
X289084Y33828D01*
X288737Y34060D01*
X288327Y34141D01*
X282988D01*
Y35191D01*
X280542Y32745D01*
X279694Y33593D01*
X282139Y36039D01*
X281188D01*
Y43645D01*
X281340Y43872D01*
X281451Y44428D01*
X281993Y44593D01*
X285143Y41443D01*
X285490Y41211D01*
X285900Y41129D01*
X313600D01*
X314010Y41211D01*
X314357Y41443D01*
X317857Y44943D01*
X318089Y45290D01*
X318171Y45700D01*
X318171Y45700D01*
Y114044D01*
X318171Y114044D01*
X318089Y114453D01*
X317857Y114801D01*
X314357Y118301D01*
X314010Y118533D01*
X313600Y118614D01*
X309782D01*
X309590Y119076D01*
X324743Y134229D01*
X334093D01*
X334252Y133762D01*
X336614Y131400D01*
X338953Y133739D01*
X338859Y133811D01*
X338844Y133967D01*
X338927Y134389D01*
X339157Y134543D01*
X341457Y136843D01*
X341689Y137190D01*
X341771Y137600D01*
Y154600D01*
X341689Y155010D01*
X341457Y155357D01*
X341110Y155589D01*
X340700Y155671D01*
X333143D01*
X329657Y159157D01*
X329310Y159389D01*
X328900Y159471D01*
X245984D01*
X245698Y159898D01*
X245693Y159901D01*
X245845Y160401D01*
X278072D01*
X278482Y160483D01*
X278829Y160715D01*
X282357Y164243D01*
X282357Y164243D01*
X282589Y164590D01*
X282671Y165000D01*
X282671Y165000D01*
Y165216D01*
X283098Y165502D01*
X283557Y166189D01*
X283719Y167000D01*
X283557Y167811D01*
X283098Y168498D01*
X283051Y168529D01*
X283203Y169029D01*
X312620D01*
X313030Y169111D01*
X313377Y169343D01*
X324904Y180870D01*
X325404Y180443D01*
X326881Y179539D01*
X328480Y178876D01*
X330164Y178472D01*
X331890Y178336D01*
X333616Y178472D01*
X335299Y178876D01*
X336899Y179539D01*
X338375Y180443D01*
X339234Y181177D01*
X331466Y188946D01*
X323697Y196715D01*
X322963Y195856D01*
X322058Y194379D01*
X321396Y192780D01*
X320992Y191096D01*
X320856Y189370D01*
X320992Y187644D01*
X321396Y185960D01*
X322058Y184361D01*
X322963Y182884D01*
X323390Y182384D01*
X312176Y171171D01*
X283674D01*
X283439Y171611D01*
X283557Y171789D01*
X283719Y172600D01*
X283557Y173411D01*
X283098Y174098D01*
X282411Y174557D01*
X281600Y174719D01*
X281096Y174618D01*
X258447Y197267D01*
X258638Y197729D01*
X278257D01*
X280882Y195104D01*
X280781Y194600D01*
X280943Y193789D01*
X281402Y193102D01*
X282089Y192643D01*
X282900Y192481D01*
X283711Y192643D01*
X284398Y193102D01*
X284857Y193789D01*
X285019Y194600D01*
X284857Y195411D01*
X284398Y196098D01*
X283711Y196557D01*
X282900Y196719D01*
X282396Y196618D01*
X279457Y199557D01*
X279110Y199789D01*
X278700Y199871D01*
X206100D01*
X205721Y199795D01*
X205100Y199919D01*
X204289Y199757D01*
X203602Y199298D01*
X203143Y198611D01*
X203038Y198083D01*
X202495Y197919D01*
X202357Y198057D01*
X202010Y198289D01*
X201600Y198371D01*
X144000D01*
X143590Y198289D01*
X143243Y198057D01*
X138743Y193557D01*
X138511Y193210D01*
X138429Y192800D01*
Y184000D01*
X138511Y183590D01*
X138743Y183243D01*
X140343Y181643D01*
X140690Y181411D01*
X141100Y181329D01*
X149526D01*
X149936Y181411D01*
X150283Y181643D01*
X151864Y183224D01*
X152735Y182864D01*
X153740Y182731D01*
X154745Y182864D01*
X155682Y183252D01*
X156429Y183825D01*
X156929Y183713D01*
Y182843D01*
X151557Y177471D01*
X88800D01*
X88390Y177389D01*
X88043Y177157D01*
X81243Y170357D01*
X81011Y170010D01*
X80929Y169600D01*
Y36700D01*
X81011Y36290D01*
X81243Y35943D01*
X97843Y19343D01*
X97843Y19343D01*
X98190Y19111D01*
X98600Y19029D01*
X98600Y19029D01*
X136281D01*
X136691Y19111D01*
X137038Y19343D01*
X141864Y24169D01*
X142735Y23809D01*
X143740Y23676D01*
X144745Y23809D01*
X145616Y24169D01*
X156251Y13534D01*
X156091Y13063D01*
X156069Y13035D01*
X13035D01*
Y201139D01*
X344446D01*
Y33358D01*
D02*
G37*
G36*
X158353Y190768D02*
X157243Y189657D01*
X157078Y189410D01*
X156684Y189325D01*
X156506Y189334D01*
X156486Y189360D01*
X155682Y189977D01*
X154745Y190365D01*
X153740Y190497D01*
X152735Y190365D01*
X151799Y189977D01*
X150995Y189360D01*
X150378Y188556D01*
X149990Y187619D01*
X149857Y186614D01*
X149990Y185609D01*
X150350Y184738D01*
X149083Y183471D01*
X146720D01*
X146564Y183971D01*
X147103Y184673D01*
X147491Y185609D01*
X147623Y186614D01*
X147491Y187619D01*
X147130Y188490D01*
X149869Y191229D01*
X158162D01*
X158353Y190768D01*
D02*
G37*
G36*
X219679Y187558D02*
X219555Y186614D01*
X219697Y185531D01*
X220115Y184521D01*
X220412Y184135D01*
X223316Y187039D01*
X224165Y186190D01*
X221261Y183286D01*
X221648Y182990D01*
X222657Y182571D01*
X223740Y182429D01*
X224823Y182571D01*
X225833Y182990D01*
X225843Y182997D01*
X245836Y163005D01*
X245644Y162543D01*
X215971D01*
X215057Y163457D01*
X214710Y163689D01*
X214300Y163771D01*
X211200D01*
X210790Y163689D01*
X210443Y163457D01*
X210443Y163457D01*
X210332Y163347D01*
X209871Y163538D01*
Y184590D01*
X210371Y184690D01*
X210378Y184673D01*
X210995Y183869D01*
X211799Y183252D01*
X212735Y182864D01*
X213740Y182731D01*
X214745Y182864D01*
X215682Y183252D01*
X216486Y183869D01*
X217103Y184673D01*
X217491Y185609D01*
X217492Y185622D01*
X217510Y185625D01*
X217857Y185857D01*
X218089Y186205D01*
X218171Y186614D01*
Y186757D01*
X219236Y187822D01*
X219679Y187558D01*
D02*
G37*
G36*
X200936Y189533D02*
X200971Y189329D01*
X200378Y188556D01*
X199990Y187619D01*
X199857Y186614D01*
X199990Y185609D01*
X200378Y184673D01*
X200995Y183869D01*
X201799Y183252D01*
X202670Y182891D01*
Y166940D01*
X202170Y166788D01*
X202057Y166957D01*
X190571Y178444D01*
Y183679D01*
X191071Y183810D01*
X191799Y183252D01*
X192735Y182864D01*
X193740Y182731D01*
X194745Y182864D01*
X195682Y183252D01*
X196486Y183869D01*
X197103Y184673D01*
X197491Y185609D01*
X197623Y186614D01*
X197491Y187619D01*
X197130Y188490D01*
X198469Y189829D01*
X200835D01*
X200936Y189533D01*
D02*
G37*
G36*
X186929Y183713D02*
Y170931D01*
X185956Y169957D01*
X185723Y169610D01*
X185642Y169200D01*
Y168734D01*
X185069Y168496D01*
X184388Y167974D01*
X183866Y167293D01*
X183537Y166500D01*
X183425Y165650D01*
X183537Y164799D01*
X183866Y164006D01*
X184388Y163325D01*
X185069Y162803D01*
X185862Y162474D01*
X186713Y162362D01*
X187563Y162474D01*
X188356Y162803D01*
X189037Y163325D01*
X189559Y164006D01*
X189888Y164799D01*
X190000Y165650D01*
X189888Y166500D01*
X189559Y167293D01*
X189037Y167974D01*
X188356Y168496D01*
X188267Y168533D01*
X188150Y169123D01*
X188757Y169730D01*
X188989Y170078D01*
X189071Y170487D01*
Y176262D01*
X189532Y176453D01*
X196686Y169300D01*
X196367Y168912D01*
X195911Y169217D01*
X195100Y169378D01*
X194289Y169217D01*
X193602Y168757D01*
X193143Y168070D01*
X192981Y167259D01*
X193143Y166449D01*
X193602Y165761D01*
X194029Y165476D01*
Y139300D01*
X194111Y138890D01*
X194343Y138543D01*
X204629Y128257D01*
Y110484D01*
X204202Y110198D01*
X203743Y109511D01*
X203581Y108700D01*
X203743Y107889D01*
X204202Y107202D01*
X204889Y106743D01*
X205700Y106581D01*
X206511Y106743D01*
X207198Y107202D01*
X207657Y107889D01*
X207819Y108700D01*
X207672Y109436D01*
X207839Y109699D01*
X208013Y109878D01*
X208500Y109781D01*
X209311Y109943D01*
X209998Y110402D01*
X210457Y111089D01*
X210619Y111900D01*
X210457Y112711D01*
X209998Y113398D01*
X209571Y113684D01*
Y130600D01*
X209489Y131010D01*
X209257Y131357D01*
X202679Y137935D01*
X202692Y137986D01*
X203246Y138140D01*
X212243Y129143D01*
X212590Y128911D01*
X213000Y128829D01*
X222916D01*
X223202Y128402D01*
X223889Y127943D01*
X224700Y127781D01*
X225511Y127943D01*
X226198Y128402D01*
X226657Y129089D01*
X226819Y129900D01*
X226657Y130711D01*
X226198Y131398D01*
X225511Y131857D01*
X225426Y131874D01*
X225475Y132374D01*
X225974D01*
X236712Y121637D01*
X237059Y121405D01*
X237469Y121323D01*
X237469Y121323D01*
X241918D01*
Y119824D01*
X242718D01*
X242739Y119804D01*
X242739Y119782D01*
X242306Y119305D01*
X226035D01*
X225625Y119224D01*
X225278Y118992D01*
X199780Y93494D01*
X199302Y93639D01*
X199257Y93861D01*
X198798Y94548D01*
X198371Y94834D01*
Y129400D01*
X198371Y129400D01*
X198289Y129810D01*
X198057Y130157D01*
X189918Y138296D01*
X190019Y138800D01*
X189857Y139611D01*
X189398Y140298D01*
X188711Y140757D01*
X187900Y140919D01*
X187089Y140757D01*
X186402Y140298D01*
X185943Y139611D01*
X185781Y138800D01*
X185943Y137989D01*
X186402Y137302D01*
X187089Y136843D01*
X187900Y136681D01*
X188404Y136782D01*
X196229Y128956D01*
Y94834D01*
X195802Y94548D01*
X195343Y93861D01*
X195181Y93050D01*
X195242Y92747D01*
X194853Y92176D01*
X194756Y92158D01*
X193671Y93243D01*
Y99800D01*
X193589Y100210D01*
X193357Y100557D01*
X189557Y104357D01*
X189210Y104589D01*
X188800Y104671D01*
X134800D01*
X134800Y104671D01*
X134390Y104589D01*
X134043Y104357D01*
X134043Y104357D01*
X126243Y96557D01*
X126011Y96210D01*
X125929Y95800D01*
Y72329D01*
X124981Y71380D01*
X124519Y71571D01*
Y71763D01*
X118671D01*
Y125856D01*
X123800Y130986D01*
X124300Y130779D01*
Y129615D01*
X136330D01*
Y131213D01*
X150723D01*
X151133Y131294D01*
X151480Y131526D01*
X159535Y139582D01*
X160039Y139481D01*
X160850Y139643D01*
X161538Y140102D01*
X161997Y140789D01*
X162158Y141600D01*
X161997Y142411D01*
X161538Y143098D01*
X160850Y143557D01*
X160039Y143719D01*
X159229Y143557D01*
X158541Y143098D01*
X158082Y142411D01*
X157921Y141600D01*
X158021Y141096D01*
X150279Y133354D01*
X136330D01*
Y134952D01*
X124300D01*
Y133354D01*
X123583D01*
X123583Y133354D01*
X123583Y133354D01*
X113102D01*
Y139479D01*
X101072D01*
Y125087D01*
X113102D01*
Y131213D01*
X120345D01*
X120537Y130751D01*
X116843Y127057D01*
X116611Y126710D01*
X116529Y126300D01*
Y63275D01*
X104724D01*
X104315Y63194D01*
X103967Y62962D01*
X103967Y62962D01*
X103456Y62450D01*
X102961D01*
X102889Y62810D01*
X102657Y63157D01*
X102157Y63657D01*
X101810Y63889D01*
X101400Y63971D01*
X86100D01*
X85690Y63889D01*
X85343Y63657D01*
X85111Y63310D01*
X85029Y62900D01*
Y48400D01*
X85111Y47990D01*
X85343Y47643D01*
X88843Y44143D01*
X89190Y43911D01*
X89600Y43829D01*
X89600Y43829D01*
X122400D01*
X122810Y43911D01*
X123157Y44143D01*
X128543Y49529D01*
X131583D01*
Y48708D01*
X131010D01*
X131010Y48708D01*
X131010Y48708D01*
X130938D01*
X130938Y48708D01*
X130528Y48627D01*
X130181Y48395D01*
X130181Y48395D01*
X127343Y45557D01*
X127111Y45210D01*
X127029Y44800D01*
Y36600D01*
X127111Y36190D01*
X127343Y35843D01*
X130543Y32643D01*
X130543Y32643D01*
X130890Y32411D01*
X131300Y32329D01*
X186343D01*
X186535Y31868D01*
X185616Y30949D01*
X184745Y31310D01*
X183740Y31442D01*
X182735Y31310D01*
X181799Y30922D01*
X180995Y30305D01*
X180378Y29500D01*
X179990Y28564D01*
X179857Y27559D01*
X179990Y26554D01*
X180378Y25618D01*
X180995Y24813D01*
X181799Y24196D01*
X182735Y23809D01*
X183740Y23676D01*
X184745Y23809D01*
X185682Y24196D01*
X186486Y24813D01*
X187103Y25618D01*
X187491Y26554D01*
X187623Y27559D01*
X187491Y28564D01*
X187130Y29435D01*
X188383Y30688D01*
X190735D01*
X190905Y30188D01*
X190378Y29500D01*
X189990Y28564D01*
X189857Y27559D01*
X189990Y26554D01*
X190378Y25618D01*
X190995Y24813D01*
X191799Y24196D01*
X192735Y23809D01*
X193537Y23703D01*
X193814Y23218D01*
X193743Y23111D01*
X193581Y22300D01*
X193743Y21489D01*
X193861Y21312D01*
X193626Y20871D01*
X181943D01*
X177130Y25683D01*
X177491Y26554D01*
X177623Y27559D01*
X177491Y28564D01*
X177103Y29500D01*
X176486Y30305D01*
X175682Y30922D01*
X174745Y31310D01*
X173740Y31442D01*
X172735Y31310D01*
X171799Y30922D01*
X170995Y30305D01*
X170378Y29500D01*
X169990Y28564D01*
X169857Y27559D01*
X169990Y26554D01*
X170378Y25618D01*
X170995Y24813D01*
X171799Y24196D01*
X172735Y23809D01*
X173740Y23676D01*
X174745Y23809D01*
X175616Y24169D01*
X179981Y19805D01*
X179789Y19343D01*
X173471D01*
X167130Y25683D01*
X167491Y26554D01*
X167623Y27559D01*
X167491Y28564D01*
X167103Y29500D01*
X166486Y30305D01*
X165682Y30922D01*
X164745Y31310D01*
X163740Y31442D01*
X162735Y31310D01*
X161799Y30922D01*
X160995Y30305D01*
X160378Y29500D01*
X159990Y28564D01*
X159857Y27559D01*
X159990Y26554D01*
X160378Y25618D01*
X160995Y24813D01*
X161799Y24196D01*
X162735Y23809D01*
X163740Y23676D01*
X164745Y23809D01*
X165616Y24169D01*
X172270Y17515D01*
X172617Y17283D01*
X173027Y17201D01*
X221472D01*
X221882Y17283D01*
X222229Y17515D01*
X224396Y19682D01*
X224900Y19581D01*
X225711Y19743D01*
X226398Y20202D01*
X226857Y20889D01*
X227019Y21700D01*
X226857Y22511D01*
X226398Y23198D01*
X226002Y23463D01*
X225966Y23563D01*
X226002Y24064D01*
X226220Y24231D01*
X223316Y27135D01*
X224165Y27983D01*
X227068Y25080D01*
X227365Y25466D01*
X227783Y26476D01*
X227926Y27559D01*
X227851Y28128D01*
X228324Y28362D01*
X240943Y15743D01*
X240736Y15243D01*
X157571D01*
X147130Y25683D01*
X147491Y26554D01*
X147623Y27559D01*
X147491Y28564D01*
X147103Y29500D01*
X146486Y30305D01*
X145682Y30922D01*
X144745Y31310D01*
X143740Y31442D01*
X142735Y31310D01*
X141799Y30922D01*
X140995Y30305D01*
X140378Y29500D01*
X139990Y28564D01*
X139857Y27559D01*
X139990Y26554D01*
X140350Y25683D01*
X135838Y21171D01*
X99043D01*
X83071Y37143D01*
Y142200D01*
X83571Y142378D01*
X84169Y141649D01*
X85115Y140873D01*
X86194Y140296D01*
X87365Y139941D01*
X88583Y139821D01*
X89800Y139941D01*
X90971Y140296D01*
X92050Y140873D01*
X92996Y141649D01*
X93773Y142595D01*
X94349Y143674D01*
X94705Y144845D01*
X94719Y144992D01*
X108894D01*
X117843Y136043D01*
X118190Y135811D01*
X118600Y135729D01*
X136118D01*
X136528Y135811D01*
X136875Y136043D01*
X140875Y140043D01*
X140875Y140043D01*
X141107Y140390D01*
X141189Y140800D01*
Y154655D01*
X142353D01*
Y155819D01*
X147716D01*
X148002Y155392D01*
X148689Y154933D01*
X149500Y154771D01*
X150311Y154933D01*
X150998Y155392D01*
X151284Y155819D01*
X164267D01*
X166529Y153557D01*
Y138384D01*
X166102Y138098D01*
X165643Y137411D01*
X165481Y136600D01*
X165643Y135789D01*
X166102Y135102D01*
X166789Y134643D01*
X167600Y134481D01*
X168411Y134643D01*
X169098Y135102D01*
X169557Y135789D01*
X169719Y136600D01*
X169557Y137411D01*
X169098Y138098D01*
X168671Y138384D01*
Y154000D01*
X168671Y154000D01*
X168589Y154410D01*
X168357Y154757D01*
X166047Y157068D01*
X166238Y157529D01*
X166756D01*
X177629Y146657D01*
Y146045D01*
X177494Y145954D01*
X179124Y144324D01*
X178700Y143900D01*
X179124Y143476D01*
X177494Y141846D01*
X177772Y141660D01*
X178700Y141475D01*
X179628Y141660D01*
X179689Y141700D01*
X180129Y141465D01*
Y115484D01*
X179702Y115198D01*
X179243Y114511D01*
X179081Y113700D01*
X179243Y112889D01*
X179702Y112202D01*
X180389Y111743D01*
X181200Y111581D01*
X182011Y111743D01*
X182698Y112202D01*
X183157Y112889D01*
X183319Y113700D01*
X183157Y114511D01*
X182698Y115198D01*
X182271Y115484D01*
Y152388D01*
X182189Y152798D01*
X181957Y153145D01*
X178191Y156911D01*
X178249Y157037D01*
X178486Y157323D01*
X179200Y157181D01*
X180011Y157343D01*
X180450Y157636D01*
X182787Y155299D01*
Y131042D01*
X182869Y130633D01*
X183101Y130285D01*
X187804Y125582D01*
X187704Y125077D01*
X187865Y124266D01*
X188325Y123579D01*
X189012Y123120D01*
X189823Y122959D01*
X190634Y123120D01*
X191321Y123579D01*
X191780Y124266D01*
X191941Y125077D01*
X191780Y125888D01*
X191321Y126575D01*
X190634Y127035D01*
X189823Y127196D01*
X189319Y127096D01*
X184928Y131486D01*
Y155742D01*
X184928Y155742D01*
X184847Y156152D01*
X184685Y156394D01*
X185074Y156712D01*
X186829Y154957D01*
Y148335D01*
X186402Y148049D01*
X185943Y147362D01*
X185781Y146551D01*
X185943Y145740D01*
X186402Y145053D01*
X187089Y144594D01*
X187900Y144432D01*
X188711Y144594D01*
X189398Y145053D01*
X189857Y145740D01*
X190019Y146551D01*
X189857Y147362D01*
X189398Y148049D01*
X188971Y148335D01*
Y155400D01*
X188889Y155810D01*
X188657Y156157D01*
X188657Y156157D01*
X182329Y162485D01*
X181982Y162717D01*
X181572Y162799D01*
X181298D01*
X181128Y163299D01*
X181163Y163325D01*
X181685Y164006D01*
X182014Y164799D01*
X182126Y165650D01*
X182014Y166500D01*
X181685Y167293D01*
X181163Y167974D01*
X180482Y168496D01*
X179689Y168825D01*
X178839Y168937D01*
X177988Y168825D01*
X177195Y168496D01*
X176771Y168171D01*
X176271Y168417D01*
Y177630D01*
X181864Y183224D01*
X182735Y182864D01*
X183740Y182731D01*
X184745Y182864D01*
X185682Y183252D01*
X186429Y183825D01*
X186929Y183713D01*
D02*
G37*
G36*
X180936Y189533D02*
X180971Y189329D01*
X180378Y188556D01*
X179990Y187619D01*
X179857Y186614D01*
X179990Y185609D01*
X180350Y184738D01*
X174443Y178831D01*
X174443Y178831D01*
X171483Y175871D01*
X153638D01*
X153446Y176332D01*
X158757Y181643D01*
X158989Y181990D01*
X159071Y182400D01*
Y188456D01*
X160367Y189753D01*
X160705Y189709D01*
X160876Y189205D01*
X160378Y188556D01*
X159990Y187619D01*
X159857Y186614D01*
X159990Y185609D01*
X160378Y184673D01*
X160995Y183869D01*
X161799Y183252D01*
X162735Y182864D01*
X163740Y182731D01*
X164745Y182864D01*
X165682Y183252D01*
X166486Y183869D01*
X167103Y184673D01*
X167491Y185609D01*
X167623Y186614D01*
X167491Y187619D01*
X167103Y188556D01*
X166509Y189329D01*
X166544Y189533D01*
X166645Y189829D01*
X170835D01*
X170936Y189533D01*
X170971Y189329D01*
X170378Y188556D01*
X169990Y187619D01*
X169857Y186614D01*
X169990Y185609D01*
X170378Y184673D01*
X170995Y183869D01*
X171799Y183252D01*
X172735Y182864D01*
X173740Y182731D01*
X174745Y182864D01*
X175682Y183252D01*
X176486Y183869D01*
X177103Y184673D01*
X177491Y185609D01*
X177623Y186614D01*
X177491Y187619D01*
X177103Y188556D01*
X176509Y189329D01*
X176544Y189533D01*
X176645Y189829D01*
X180835D01*
X180936Y189533D01*
D02*
G37*
G36*
X273882Y166604D02*
X273781Y166100D01*
X273943Y165289D01*
X274402Y164602D01*
X274640Y164443D01*
X274489Y163943D01*
X256822D01*
X256587Y164383D01*
X256657Y164489D01*
X256819Y165300D01*
X256657Y166111D01*
X256198Y166798D01*
X255771Y167084D01*
Y178327D01*
X255850Y178343D01*
X256538Y178802D01*
X256997Y179489D01*
X257158Y180300D01*
X256997Y181111D01*
X256538Y181798D01*
X255850Y182257D01*
X255039Y182419D01*
X254229Y182257D01*
X253541Y181798D01*
X253082Y181111D01*
X252921Y180300D01*
X253082Y179489D01*
X253541Y178802D01*
X253629Y178743D01*
Y167084D01*
X253202Y166798D01*
X252743Y166111D01*
X252581Y165300D01*
X252743Y164489D01*
X252813Y164383D01*
X252577Y163943D01*
X247926D01*
X227357Y184511D01*
X227365Y184521D01*
X227783Y185531D01*
X227926Y186614D01*
X227783Y187698D01*
X227365Y188707D01*
X226887Y189329D01*
X227134Y189829D01*
X232857D01*
X245382Y177304D01*
X245281Y176800D01*
X245443Y175989D01*
X245902Y175302D01*
X246589Y174843D01*
X247400Y174681D01*
X248211Y174843D01*
X248898Y175302D01*
X249357Y175989D01*
X249519Y176800D01*
X249357Y177611D01*
X248898Y178298D01*
X248211Y178757D01*
X247400Y178919D01*
X246896Y178818D01*
X234946Y190768D01*
X235138Y191229D01*
X249257D01*
X273882Y166604D01*
D02*
G37*
G36*
X279582Y173104D02*
X279481Y172600D01*
X279643Y171789D01*
X279749Y171630D01*
X279606Y171143D01*
X279534Y171052D01*
X279243Y170857D01*
X277643Y169257D01*
X277411Y168910D01*
X277329Y168500D01*
Y168174D01*
X276888Y167939D01*
X276711Y168057D01*
X275900Y168219D01*
X275396Y168118D01*
X250457Y193057D01*
X250110Y193289D01*
X249700Y193371D01*
X243074D01*
X242839Y193812D01*
X242957Y193989D01*
X243119Y194800D01*
X242957Y195611D01*
X242839Y195789D01*
X243074Y196229D01*
X256457D01*
X279582Y173104D01*
D02*
G37*
G36*
X174129Y174836D02*
Y167700D01*
X173629Y167530D01*
X173289Y167974D01*
X172608Y168496D01*
X171815Y168825D01*
X170965Y168937D01*
X170114Y168825D01*
X169321Y168496D01*
X168640Y167974D01*
X168118Y167293D01*
X167789Y166500D01*
X167677Y165650D01*
X167789Y164799D01*
X168118Y164006D01*
X168640Y163325D01*
X169321Y162803D01*
X170114Y162474D01*
X170965Y162362D01*
X171815Y162474D01*
X172608Y162803D01*
X173289Y163325D01*
X173674Y163827D01*
X174208Y163703D01*
X174211Y163690D01*
X174443Y163343D01*
X176815Y160971D01*
X176815Y160971D01*
X177092Y160786D01*
X177186Y160647D01*
X177247Y160414D01*
X177107Y160169D01*
X177046Y160127D01*
X176502Y160017D01*
X176011Y160345D01*
X175200Y160507D01*
X174389Y160345D01*
X173702Y159886D01*
X173243Y159199D01*
X173081Y158388D01*
X173243Y157577D01*
X173702Y156890D01*
X174389Y156431D01*
X175200Y156269D01*
X175704Y156370D01*
X180129Y151945D01*
Y147682D01*
X180059Y147655D01*
X179629Y147599D01*
X179457Y147857D01*
X179457Y147857D01*
X167957Y159357D01*
X167610Y159589D01*
X167200Y159671D01*
X162709D01*
X158384Y163996D01*
X158684Y164720D01*
X158806Y165650D01*
X158684Y166579D01*
X158325Y167445D01*
X158123Y167708D01*
X155641Y165225D01*
X155216Y165650D01*
X154792Y165225D01*
X152310Y167708D01*
X152108Y167445D01*
X151749Y166579D01*
X151627Y165650D01*
X151749Y164720D01*
X152049Y163996D01*
X149753Y161701D01*
X142512D01*
X142353Y162135D01*
X142353D01*
Y165092D01*
X150991Y173729D01*
X171926D01*
X172336Y173811D01*
X172683Y174043D01*
X173668Y175028D01*
X174129Y174836D01*
D02*
G37*
G36*
X149101Y174867D02*
X140839Y166606D01*
X137883D01*
Y165441D01*
X111070D01*
X110661Y165359D01*
X110313Y165127D01*
X110313Y165127D01*
X108855Y163669D01*
X94719D01*
X94705Y163816D01*
X94349Y164987D01*
X93773Y166066D01*
X92996Y167012D01*
X92050Y167788D01*
X90971Y168365D01*
X89800Y168720D01*
X88583Y168840D01*
X87365Y168720D01*
X86194Y168365D01*
X85115Y167788D01*
X84169Y167012D01*
X83571Y166283D01*
X83071Y166462D01*
Y169157D01*
X89243Y175329D01*
X148910D01*
X149101Y174867D01*
D02*
G37*
G36*
X154287Y162182D02*
X155216Y162060D01*
X156146Y162182D01*
X156870Y162482D01*
X160930Y158423D01*
X160738Y157961D01*
X151284D01*
X150998Y158388D01*
X150311Y158847D01*
X149500Y159009D01*
X148689Y158847D01*
X148002Y158388D01*
X147716Y157961D01*
X142353D01*
Y159125D01*
X142353D01*
X142513Y159559D01*
X150197D01*
X150607Y159641D01*
X150954Y159873D01*
X153563Y162482D01*
X154287Y162182D01*
D02*
G37*
G36*
X242707Y159901D02*
X242702Y159898D01*
X242243Y159211D01*
X242081Y158400D01*
X242243Y157589D01*
X242389Y157371D01*
X242122Y156871D01*
X217543D01*
X215759Y158656D01*
X215859Y159160D01*
X215711Y159901D01*
X215780Y160084D01*
X216011Y160401D01*
X242555D01*
X242707Y159901D01*
D02*
G37*
G36*
X331225Y154560D02*
X331034Y154099D01*
X318064D01*
X317796Y154599D01*
X318057Y154989D01*
X318219Y155800D01*
X318057Y156611D01*
X317911Y156829D01*
X318179Y157329D01*
X328457D01*
X331225Y154560D01*
D02*
G37*
G36*
X211783Y158349D02*
X212242Y157662D01*
X212929Y157202D01*
X213740Y157041D01*
X214245Y157141D01*
X216343Y155043D01*
X216343Y155043D01*
X216690Y154811D01*
X217100Y154729D01*
X313907D01*
X313985Y154599D01*
X313702Y154099D01*
X272500D01*
X272090Y154017D01*
X271743Y153785D01*
X271743Y153785D01*
X271529Y153571D01*
X227796D01*
X227386Y153489D01*
X227039Y153257D01*
X220606Y146824D01*
X220277Y147044D01*
X219466Y147205D01*
X218655Y147044D01*
X217968Y146585D01*
X217509Y145897D01*
X217347Y145087D01*
X217351Y145071D01*
X216890Y144824D01*
X211271Y150443D01*
Y158361D01*
X211771Y158411D01*
X211783Y158349D01*
D02*
G37*
G36*
X332962Y146898D02*
X339629D01*
Y143370D01*
X339129Y143225D01*
X338456Y143742D01*
X337568Y144110D01*
X336614Y144236D01*
X335661Y144110D01*
X334889Y143790D01*
X327222Y151457D01*
X327429Y151957D01*
X332962D01*
Y146898D01*
D02*
G37*
G36*
X234699Y150968D02*
X225850Y142118D01*
X225346Y142219D01*
X224624Y142075D01*
X224338Y142263D01*
X224184Y142424D01*
X224219Y142600D01*
X224057Y143411D01*
X223598Y144098D01*
X222911Y144557D01*
X222213Y144696D01*
X222048Y145020D01*
X222016Y145206D01*
X228239Y151429D01*
X234508D01*
X234699Y150968D01*
D02*
G37*
G36*
X128567Y163165D02*
Y158943D01*
X130678Y161054D01*
X131102Y160630D01*
X131527Y161054D01*
X133638Y158943D01*
Y159559D01*
X137723D01*
X137883Y159125D01*
X137883D01*
Y154655D01*
X139047D01*
Y141243D01*
X137092Y139288D01*
X136630Y139479D01*
Y143459D01*
X134086Y140914D01*
X133237Y141763D01*
X135781Y144307D01*
X131386D01*
Y150057D01*
X131859Y150530D01*
X132091Y150878D01*
X132173Y151287D01*
Y158095D01*
X132789D01*
X131102Y159782D01*
X129416Y158095D01*
X130032D01*
Y151731D01*
X129558Y151257D01*
X129326Y150910D01*
X129244Y150500D01*
Y147052D01*
X128744Y146828D01*
X128128Y147240D01*
X127200Y147424D01*
X126272Y147240D01*
X125994Y147054D01*
X127624Y145424D01*
X126776Y144576D01*
X125146Y146206D01*
X124960Y145928D01*
X124776Y145000D01*
X124836Y144694D01*
X124668Y144488D01*
X127393Y141763D01*
X126544Y140914D01*
X124000Y143459D01*
Y138370D01*
X124000D01*
X123999Y137871D01*
X119044D01*
X110094Y146820D01*
X109747Y147052D01*
X109337Y147134D01*
X94719D01*
X94705Y147281D01*
X94349Y148452D01*
X93773Y149531D01*
X92996Y150477D01*
X92050Y151253D01*
X90971Y151830D01*
X89800Y152185D01*
X88583Y152305D01*
X87365Y152185D01*
X86194Y151830D01*
X85115Y151253D01*
X84169Y150477D01*
X83571Y149748D01*
X83071Y149926D01*
Y158735D01*
X83571Y158914D01*
X84169Y158185D01*
X85115Y157408D01*
X86194Y156832D01*
X87365Y156476D01*
X88583Y156357D01*
X89800Y156476D01*
X90971Y156832D01*
X92050Y157408D01*
X92996Y158185D01*
X93773Y159131D01*
X94349Y160210D01*
X94705Y161381D01*
X94719Y161528D01*
X109298D01*
X109708Y161609D01*
X110055Y161841D01*
X111514Y163300D01*
X128123D01*
X128567Y163165D01*
D02*
G37*
G36*
X200229Y165756D02*
Y141600D01*
X200272Y141385D01*
X200285Y141166D01*
X199938Y140848D01*
X199488Y140758D01*
X198801Y140299D01*
X198342Y139612D01*
X198180Y138801D01*
X198270Y138351D01*
X197809Y138105D01*
X196171Y139743D01*
Y165476D01*
X196598Y165761D01*
X197057Y166449D01*
X197219Y167259D01*
X197057Y168070D01*
X196753Y168526D01*
X197141Y168845D01*
X200229Y165756D01*
D02*
G37*
G36*
X207729Y184879D02*
Y148772D01*
X207811Y148362D01*
X208043Y148015D01*
X218253Y137804D01*
X218062Y137343D01*
X214872D01*
X214018Y138196D01*
X214119Y138700D01*
X213957Y139511D01*
X213498Y140198D01*
X212811Y140657D01*
X212000Y140819D01*
X211189Y140657D01*
X210502Y140198D01*
X210043Y139511D01*
X209881Y138700D01*
X210003Y138091D01*
X209542Y137844D01*
X204811Y142575D01*
Y182891D01*
X205682Y183252D01*
X206486Y183869D01*
X207103Y184673D01*
X207229Y184978D01*
X207729Y184879D01*
D02*
G37*
G36*
X333375Y142276D02*
X333055Y141505D01*
X332930Y140551D01*
X333055Y139598D01*
X333423Y138709D01*
X334009Y137946D01*
X334772Y137361D01*
X335661Y136993D01*
X336614Y136867D01*
X337568Y136993D01*
X338086Y137207D01*
X338369Y136783D01*
X337957Y136371D01*
X324300D01*
X323890Y136289D01*
X323543Y136057D01*
X306100Y118614D01*
X274224D01*
Y120212D01*
X272724D01*
Y121568D01*
X274224D01*
Y126905D01*
X269406D01*
Y127205D01*
X264514D01*
X266960Y124759D01*
X266111Y123911D01*
X263666Y126356D01*
Y122576D01*
X263165Y122286D01*
X262500Y122419D01*
X261689Y122257D01*
X261002Y121798D01*
X260543Y121111D01*
X260381Y120300D01*
X260482Y119796D01*
X252657Y111971D01*
X251783D01*
Y116861D01*
X250468D01*
X250399Y117210D01*
X250167Y117557D01*
X250167Y117557D01*
X249829Y117895D01*
X250020Y118357D01*
X252200D01*
X252610Y118438D01*
X252957Y118671D01*
X253189Y119018D01*
X253271Y119428D01*
Y122757D01*
X257357Y126843D01*
X257589Y127190D01*
X257671Y127600D01*
Y135627D01*
X258171Y135752D01*
X258455Y135220D01*
X259428Y134034D01*
X260614Y133061D01*
X261966Y132338D01*
X263434Y131893D01*
X264961Y131743D01*
X266487Y131893D01*
X267955Y132338D01*
X269307Y133061D01*
X270493Y134034D01*
X271466Y135220D01*
X272189Y136573D01*
X272635Y138040D01*
X272785Y139567D01*
X272635Y141093D01*
X272189Y142561D01*
X271466Y143914D01*
X270493Y145099D01*
X269307Y146072D01*
X268986Y146244D01*
X269107Y146729D01*
X274557D01*
X274969Y146234D01*
X274948Y146133D01*
X275110Y145322D01*
X275569Y144635D01*
X276256Y144176D01*
X277067Y144014D01*
X277878Y144176D01*
X278565Y144635D01*
X279024Y145322D01*
X279186Y146133D01*
X279024Y146944D01*
X278565Y147631D01*
X278268Y147829D01*
X278420Y148329D01*
X292282D01*
X296344Y144268D01*
X296053Y143914D01*
X295330Y142561D01*
X294885Y141093D01*
X294735Y139567D01*
X294885Y138040D01*
X295330Y136573D01*
X296053Y135220D01*
X297026Y134034D01*
X298212Y133061D01*
X299565Y132338D01*
X301033Y131893D01*
X302559Y131743D01*
X304085Y131893D01*
X305553Y132338D01*
X306906Y133061D01*
X308092Y134034D01*
X309065Y135220D01*
X309788Y136573D01*
X310233Y138040D01*
X310383Y139567D01*
X310233Y141093D01*
X309788Y142561D01*
X309065Y143914D01*
X308092Y145099D01*
X306906Y146072D01*
X305553Y146795D01*
X304085Y147241D01*
X302559Y147391D01*
X301033Y147241D01*
X299565Y146795D01*
X298212Y146072D01*
X297858Y145782D01*
X294172Y149468D01*
X294364Y149929D01*
X325722D01*
X333375Y142276D01*
D02*
G37*
G36*
X251453Y149468D02*
X248204Y146218D01*
X247700Y146319D01*
X246889Y146157D01*
X246202Y145698D01*
X245743Y145011D01*
X245581Y144200D01*
X245743Y143389D01*
X246202Y142702D01*
X246889Y142243D01*
X247700Y142081D01*
X248511Y142243D01*
X249198Y142702D01*
X249657Y143389D01*
X249819Y144200D01*
X249718Y144704D01*
X253343Y148329D01*
X255269D01*
X255575Y147829D01*
X255529Y147600D01*
Y128043D01*
X254891Y127405D01*
X254379Y127600D01*
X254257Y128211D01*
X253798Y128898D01*
X253111Y129357D01*
X252300Y129519D01*
X252283Y129515D01*
X251783Y129926D01*
Y133066D01*
X248427D01*
X248208Y133566D01*
X248557Y134089D01*
X248719Y134900D01*
X248557Y135711D01*
X248098Y136398D01*
X247411Y136857D01*
X246600Y137019D01*
X245789Y136857D01*
X245102Y136398D01*
X244867Y136046D01*
X244225Y135980D01*
X241776Y138429D01*
X241429Y138661D01*
X241019Y138743D01*
X227468D01*
X227232Y139183D01*
X227303Y139289D01*
X227464Y140100D01*
X227364Y140604D01*
X236689Y149929D01*
X251262D01*
X251453Y149468D01*
D02*
G37*
G36*
X243221Y133957D02*
Y133066D01*
X241918D01*
Y127926D01*
X246536D01*
X246665Y127926D01*
Y127926D01*
X247036D01*
Y127926D01*
X248339D01*
Y126995D01*
X248310Y126971D01*
X239043D01*
X229874Y136140D01*
X230066Y136601D01*
X240576D01*
X243221Y133957D01*
D02*
G37*
G36*
X212000Y136581D02*
X212504Y136682D01*
X213671Y135515D01*
X214018Y135283D01*
X214428Y135201D01*
X227784D01*
X237843Y125143D01*
X238190Y124911D01*
X238600Y124829D01*
X241918D01*
Y123464D01*
X237912D01*
X227174Y134202D01*
X226827Y134434D01*
X226417Y134515D01*
X212871D01*
X211144Y136242D01*
X211391Y136703D01*
X212000Y136581D01*
D02*
G37*
G36*
X263666Y118024D02*
Y115424D01*
X266111Y117869D01*
X266960Y117021D01*
X264514Y114575D01*
X265465D01*
Y113524D01*
X264514D01*
X266960Y111078D01*
X266437Y110555D01*
X266960Y110032D01*
X264514Y107587D01*
X265465D01*
Y107500D01*
X265546Y107090D01*
X265741Y106800D01*
X265675Y106550D01*
X265542Y106300D01*
X263966D01*
Y104702D01*
X262612D01*
X257057Y110257D01*
X256710Y110489D01*
X256300Y110571D01*
X254938D01*
X254747Y111032D01*
X261996Y118282D01*
X262500Y118181D01*
X263165Y118314D01*
X263666Y118024D01*
D02*
G37*
G36*
X239018Y116723D02*
X238943Y116611D01*
X238781Y115800D01*
X238943Y114989D01*
X239244Y114538D01*
X238977Y114038D01*
X224060D01*
X223908Y114258D01*
X223836Y114522D01*
X226478Y117164D01*
X238782D01*
X239018Y116723D01*
D02*
G37*
G36*
X261418Y100452D02*
X261273Y99974D01*
X261189Y99957D01*
X260502Y99498D01*
X260043Y98811D01*
X259881Y98000D01*
X260043Y97189D01*
X260161Y97012D01*
X259926Y96571D01*
X258043D01*
X254871Y99743D01*
Y101016D01*
X255298Y101302D01*
X255757Y101989D01*
X255919Y102800D01*
X255757Y103611D01*
X255298Y104298D01*
X254611Y104757D01*
X253800Y104919D01*
X252989Y104757D01*
X252302Y104298D01*
X252283Y104270D01*
X251783Y104421D01*
Y105670D01*
X252140Y105757D01*
X256113D01*
X261418Y100452D01*
D02*
G37*
G36*
X299167Y108985D02*
X298212Y108474D01*
X297026Y107501D01*
X296053Y106315D01*
X295330Y104963D01*
X294885Y103495D01*
X294735Y101968D01*
X294885Y100442D01*
X295330Y98974D01*
X296053Y97622D01*
X296344Y97267D01*
X288350Y89274D01*
X288251Y89291D01*
X287859Y89860D01*
X287919Y90157D01*
X287757Y90968D01*
X287298Y91655D01*
X286611Y92115D01*
X285800Y92276D01*
X284989Y92115D01*
X284302Y91655D01*
X284016Y91228D01*
X274224D01*
Y92826D01*
X270450D01*
X270239Y93279D01*
X270781Y93926D01*
X273675D01*
X271229Y96372D01*
X272078Y97220D01*
X274524Y94774D01*
Y95824D01*
X277355D01*
X277446Y95689D01*
X278651Y96894D01*
X277446Y98100D01*
X277355Y97965D01*
X276623D01*
X276438Y98465D01*
X276589Y98690D01*
X276671Y99100D01*
Y105600D01*
X276671Y105600D01*
X276589Y106010D01*
X276357Y106357D01*
X276357Y106357D01*
X274457Y108257D01*
X274224Y108413D01*
Y109485D01*
X299042D01*
X299167Y108985D01*
D02*
G37*
G36*
X309629Y97649D02*
Y88143D01*
X306757Y85271D01*
X288029D01*
X287837Y85733D01*
X297858Y95753D01*
X298212Y95463D01*
X299565Y94740D01*
X301033Y94294D01*
X302559Y94144D01*
X304085Y94294D01*
X305553Y94740D01*
X306906Y95463D01*
X308092Y96436D01*
X309065Y97622D01*
X309144Y97771D01*
X309629Y97649D01*
D02*
G37*
G36*
X236740Y111456D02*
X236643Y111311D01*
X236481Y110500D01*
X236643Y109689D01*
X237102Y109002D01*
X237789Y108543D01*
X238600Y108381D01*
X239221Y108505D01*
X239600Y108429D01*
X241918D01*
Y103619D01*
X246665D01*
Y103619D01*
X247036D01*
Y103619D01*
X251334D01*
X251745Y103119D01*
X251681Y102800D01*
X251843Y101989D01*
X252302Y101302D01*
X252729Y101016D01*
Y99300D01*
X252811Y98890D01*
X253043Y98543D01*
X256843Y94743D01*
X257190Y94511D01*
X257307Y94488D01*
X257256Y93988D01*
X246847Y94067D01*
X246159Y94755D01*
X246351Y95217D01*
X246965D01*
X247036Y95517D01*
X251783D01*
Y100657D01*
X248790D01*
Y100800D01*
X248709Y101210D01*
X248477Y101557D01*
X247408Y102626D01*
X247060Y102858D01*
X246651Y102939D01*
X222269D01*
X221859Y102858D01*
X221512Y102626D01*
X207557Y88671D01*
X201838D01*
X201646Y89132D01*
X224411Y111897D01*
X236504D01*
X236740Y111456D01*
D02*
G37*
G36*
X186155Y102029D02*
X185943Y101711D01*
X185781Y100900D01*
X185943Y100089D01*
X186402Y99402D01*
X186829Y99116D01*
Y91938D01*
X186367Y91746D01*
X181557Y96557D01*
X181210Y96789D01*
X180800Y96871D01*
X147200D01*
X147200Y96871D01*
X146790Y96789D01*
X146443Y96557D01*
X140743Y90857D01*
X140511Y90510D01*
X140429Y90100D01*
Y71200D01*
X140111Y70771D01*
X139950Y70756D01*
X133968D01*
Y71763D01*
X128171D01*
X128071Y71885D01*
Y95357D01*
X135243Y102529D01*
X185888D01*
X186155Y102029D01*
D02*
G37*
G36*
X188243Y86843D02*
X188590Y86611D01*
X189000Y86529D01*
X208000D01*
X208410Y86611D01*
X208757Y86843D01*
X210860Y88946D01*
X211321Y88700D01*
X211281Y88500D01*
X211443Y87689D01*
X211902Y87002D01*
X212589Y86543D01*
X213400Y86381D01*
X214211Y86543D01*
X214898Y87002D01*
X215184Y87429D01*
X227396D01*
X235810Y79015D01*
X235810Y79015D01*
X236157Y78783D01*
X236567Y78701D01*
X236567Y78701D01*
X262000D01*
X262410Y78783D01*
X262757Y79015D01*
X264703Y80961D01*
X265164Y80715D01*
X265081Y80300D01*
X265182Y79796D01*
X259954Y74568D01*
X253172D01*
X252937Y75009D01*
X253057Y75189D01*
X253219Y76000D01*
X253057Y76811D01*
X252598Y77498D01*
X251911Y77957D01*
X251100Y78119D01*
X250289Y77957D01*
X249602Y77498D01*
X249316Y77071D01*
X231079D01*
X230811Y77571D01*
X230957Y77789D01*
X231119Y78600D01*
X230957Y79411D01*
X230498Y80098D01*
X229811Y80557D01*
X229000Y80719D01*
X228496Y80618D01*
X223757Y85357D01*
X223410Y85589D01*
X223000Y85671D01*
X175823D01*
X175413Y86171D01*
X175419Y86200D01*
X175257Y87011D01*
X174798Y87698D01*
X174111Y88157D01*
X173333Y88312D01*
X173248Y88444D01*
X173103Y88789D01*
X176189Y91874D01*
X176686Y91825D01*
X176702Y91802D01*
X177389Y91343D01*
X178200Y91181D01*
X179011Y91343D01*
X179698Y91802D01*
X180157Y92489D01*
X180319Y93300D01*
X180211Y93840D01*
X180503Y94353D01*
X180567Y94398D01*
X180673Y94414D01*
X188243Y86843D01*
D02*
G37*
G36*
X175545Y94659D02*
X175601Y94229D01*
X175343Y94057D01*
X170043Y88757D01*
X169811Y88410D01*
X169729Y88000D01*
Y84700D01*
X169811Y84290D01*
X170043Y83943D01*
X171153Y82832D01*
X170962Y82371D01*
X147184D01*
X146898Y82798D01*
X146211Y83257D01*
X145400Y83419D01*
X144589Y83257D01*
X144412Y83139D01*
X143971Y83374D01*
Y86657D01*
X148596Y91282D01*
X149100Y91181D01*
X149911Y91343D01*
X150598Y91802D01*
X151057Y92489D01*
X151219Y93300D01*
X151057Y94111D01*
X150939Y94288D01*
X151174Y94729D01*
X175518D01*
X175545Y94659D01*
D02*
G37*
G36*
X191529Y99357D02*
Y92800D01*
X191611Y92390D01*
X191843Y92043D01*
X193353Y90532D01*
X193162Y90071D01*
X190543D01*
X188971Y91643D01*
Y99116D01*
X189398Y99402D01*
X189857Y100089D01*
X189910Y100353D01*
X190388Y100498D01*
X191529Y99357D01*
D02*
G37*
G36*
X257799Y85171D02*
X257799Y85171D01*
X258147Y84939D01*
X258556Y84857D01*
X258556Y84857D01*
X264970D01*
X265121Y84357D01*
X264971Y84257D01*
X261885Y81171D01*
X261655Y81288D01*
X261473Y81466D01*
X261619Y82200D01*
X261457Y83011D01*
X260998Y83698D01*
X260311Y84157D01*
X259500Y84319D01*
X258689Y84157D01*
X258002Y83698D01*
X257716Y83271D01*
X248935D01*
X245362Y86843D01*
Y87414D01*
X246665D01*
X246665Y87414D01*
X247036D01*
Y87414D01*
X247165Y87414D01*
X251783D01*
Y88914D01*
X254057D01*
X257799Y85171D01*
D02*
G37*
G36*
X263666Y91798D02*
Y87189D01*
X263244Y86999D01*
X259000D01*
X255257Y90741D01*
X254910Y90974D01*
X254500Y91055D01*
X251833D01*
X251806Y91524D01*
X252158Y91886D01*
X263666Y91798D01*
D02*
G37*
G36*
X241618Y96065D02*
X243867Y98314D01*
X244716Y97466D01*
X242467Y95217D01*
X243221D01*
Y95109D01*
X243302Y94699D01*
X243534Y94352D01*
X244870Y93016D01*
X244678Y92554D01*
X241918D01*
Y87414D01*
X243221D01*
Y86400D01*
X243302Y85990D01*
X243534Y85643D01*
X247734Y81443D01*
X247885Y81343D01*
X247733Y80843D01*
X237011D01*
X228596Y89257D01*
X228249Y89489D01*
X227839Y89571D01*
X215184D01*
X214898Y89998D01*
X214211Y90457D01*
X213400Y90619D01*
X213200Y90579D01*
X212954Y91040D01*
X222712Y100798D01*
X241618D01*
Y96065D01*
D02*
G37*
G36*
X281775Y80984D02*
X281389Y80667D01*
X281100Y80725D01*
X280172Y80540D01*
X279894Y80354D01*
X281524Y78724D01*
X283336Y76912D01*
X283518Y76868D01*
X283580Y76831D01*
X283657Y76445D01*
X283889Y76097D01*
X286943Y73043D01*
X286943Y73043D01*
X287290Y72811D01*
X287700Y72729D01*
X308755D01*
X311528Y69957D01*
Y55626D01*
X310478D01*
X312924Y53180D01*
X312076Y52332D01*
X309630Y54777D01*
Y53827D01*
X300267D01*
X300125Y54000D01*
X299940Y54928D01*
X299754Y55206D01*
X298124Y53576D01*
X296494Y51946D01*
X296772Y51760D01*
X297700Y51575D01*
X298598Y51754D01*
X298944Y51685D01*
X309630D01*
Y50352D01*
X309408Y50221D01*
X309130Y50144D01*
X308511Y50557D01*
X307700Y50719D01*
X306889Y50557D01*
X306202Y50098D01*
X305743Y49411D01*
X305581Y48600D01*
X305743Y47789D01*
X306202Y47102D01*
X306889Y46643D01*
X307700Y46481D01*
X308397Y46620D01*
X308662Y46567D01*
X309930D01*
Y45068D01*
X314301D01*
X314492Y44606D01*
X313157Y43271D01*
X286343D01*
X282447Y47168D01*
X282638Y47629D01*
X286200D01*
X286610Y47711D01*
X286957Y47943D01*
X294596Y55582D01*
X295100Y55481D01*
X295248Y55511D01*
X295549Y55061D01*
X295460Y54928D01*
X295275Y54000D01*
X295460Y53072D01*
X295646Y52794D01*
X297276Y54424D01*
X298906Y56054D01*
X298628Y56240D01*
X297700Y56424D01*
X297371Y56359D01*
X297057Y56789D01*
X297219Y57600D01*
X297057Y58411D01*
X296598Y59098D01*
X295911Y59557D01*
X295100Y59719D01*
X294289Y59557D01*
X293602Y59098D01*
X293143Y58411D01*
X292981Y57600D01*
X293082Y57096D01*
X285757Y49771D01*
X277223D01*
X277032Y50232D01*
X278330Y51531D01*
X278828Y51482D01*
X278830Y51478D01*
X279517Y51019D01*
X280328Y50858D01*
X281139Y51019D01*
X281826Y51478D01*
X282285Y52166D01*
X282447Y52977D01*
X282285Y53787D01*
X281826Y54475D01*
X281139Y54934D01*
X280328Y55095D01*
X279517Y54934D01*
X279330Y54809D01*
X279011Y55197D01*
X285643Y61829D01*
X294162D01*
X294448Y61402D01*
X295135Y60943D01*
X295946Y60781D01*
X296757Y60943D01*
X297444Y61402D01*
X297903Y62089D01*
X298064Y62900D01*
X297903Y63711D01*
X297444Y64398D01*
X296757Y64857D01*
X295946Y65019D01*
X295135Y64857D01*
X294448Y64398D01*
X294162Y63971D01*
X285200D01*
X284790Y63889D01*
X284443Y63657D01*
X280466Y59680D01*
X279995Y59917D01*
X279857Y60611D01*
X279398Y61298D01*
X278711Y61757D01*
X277900Y61919D01*
X277089Y61757D01*
X276402Y61298D01*
X275943Y60611D01*
X275403Y60462D01*
X275111Y60657D01*
X274620Y60755D01*
X274455Y61298D01*
X276862Y63704D01*
X277861D01*
X278146Y63277D01*
X278834Y62818D01*
X279644Y62656D01*
X280455Y62818D01*
X281142Y63277D01*
X281602Y63964D01*
X281763Y64775D01*
X281602Y65586D01*
X281531Y65692D01*
X281767Y66132D01*
X289063D01*
X289349Y65705D01*
X290036Y65246D01*
X290847Y65084D01*
X291657Y65246D01*
X292345Y65705D01*
X292804Y66392D01*
X292965Y67203D01*
X292804Y68014D01*
X292345Y68701D01*
X291657Y69160D01*
X290847Y69322D01*
X290036Y69160D01*
X289349Y68701D01*
X289063Y68274D01*
X271803D01*
X271393Y68192D01*
X271046Y67960D01*
X264490Y61404D01*
X264029Y61650D01*
X264119Y62100D01*
X263957Y62911D01*
X263498Y63598D01*
X262811Y64057D01*
X262117Y64196D01*
X261880Y64666D01*
X280343Y83129D01*
X281775D01*
Y80984D01*
D02*
G37*
G36*
X316029Y113600D02*
Y77038D01*
X315567Y76846D01*
X310555Y81859D01*
X310207Y82091D01*
X309798Y82173D01*
X292334D01*
Y83129D01*
X307200D01*
X307610Y83211D01*
X307957Y83443D01*
X311457Y86943D01*
X311689Y87290D01*
X311771Y87700D01*
X311771Y87700D01*
Y107055D01*
X311771Y107055D01*
X311689Y107465D01*
X311457Y107812D01*
X307957Y111312D01*
X307610Y111544D01*
X307200Y111626D01*
X274224D01*
Y113224D01*
X269406D01*
Y113524D01*
X267606D01*
Y114575D01*
X269406D01*
Y114875D01*
X274224D01*
Y116473D01*
X313157D01*
X316029Y113600D01*
D02*
G37*
G36*
X226118Y72740D02*
X226118Y72740D01*
X226465Y72508D01*
X226875Y72427D01*
X226875Y72427D01*
X247559D01*
X247751Y71965D01*
X244740Y68954D01*
X212656D01*
X212465Y69416D01*
X215997Y72948D01*
X216570Y72711D01*
X217421Y72599D01*
X218272Y72711D01*
X219065Y73039D01*
X219746Y73561D01*
X220268Y74242D01*
X220596Y75035D01*
X220708Y75886D01*
X220596Y76737D01*
X220268Y77529D01*
X219746Y78210D01*
X219065Y78733D01*
X218272Y79061D01*
X217421Y79173D01*
X216570Y79061D01*
X215778Y78733D01*
X215097Y78210D01*
X214574Y77529D01*
X214246Y76737D01*
X214134Y75886D01*
X214246Y75035D01*
X214483Y74462D01*
X210792Y70771D01*
X207881D01*
X207646Y71211D01*
X207764Y71389D01*
X207919Y72167D01*
X207964Y72267D01*
X208306Y72548D01*
X208618Y72418D01*
X209547Y72296D01*
X210476Y72418D01*
X211342Y72777D01*
X211605Y72979D01*
X209123Y75462D01*
X209547Y75886D01*
X209123Y76310D01*
X211605Y78793D01*
X211342Y78995D01*
X210476Y79353D01*
X209547Y79476D01*
X208618Y79353D01*
X207894Y79053D01*
X207179Y79768D01*
X207371Y80229D01*
X218629D01*
X226118Y72740D01*
D02*
G37*
G36*
X264713Y70527D02*
X260466Y66280D01*
X259996Y66517D01*
X259857Y67211D01*
X259398Y67898D01*
X258711Y68357D01*
X257900Y68519D01*
X257089Y68357D01*
X256402Y67898D01*
X256116Y67471D01*
X246938D01*
X246746Y67932D01*
X249841Y71027D01*
X264506D01*
X264713Y70527D01*
D02*
G37*
G36*
X151839Y56432D02*
X151647Y55971D01*
X104753D01*
X104369Y56251D01*
Y60336D01*
X105168Y61134D01*
X118000D01*
Y60127D01*
X124519D01*
Y61134D01*
X127450D01*
Y60127D01*
X133968D01*
Y63567D01*
X134268D01*
Y64277D01*
X134768Y64428D01*
X134900Y64231D01*
X135686Y63705D01*
X136614Y63520D01*
X137542Y63705D01*
X137820Y63891D01*
X136190Y65521D01*
X136614Y65945D01*
X136190Y66369D01*
X137820Y67999D01*
X137647Y68115D01*
X137750Y68615D01*
X139656D01*
X151839Y56432D01*
D02*
G37*
G36*
X127450Y70167D02*
Y68323D01*
X127149D01*
Y63567D01*
X126770Y63275D01*
X124519D01*
Y64283D01*
X118671D01*
Y67607D01*
X124519D01*
Y68615D01*
X124800D01*
X125210Y68696D01*
X125557Y68928D01*
X126988Y70359D01*
X127450Y70167D01*
D02*
G37*
G36*
X245358Y61584D02*
X245243Y61411D01*
X245081Y60600D01*
X244811Y60271D01*
X193109D01*
X192886Y60771D01*
X193233Y61289D01*
X193379Y62025D01*
X245123D01*
X245358Y61584D01*
D02*
G37*
G36*
X260502Y60602D02*
X261189Y60143D01*
X262000Y59981D01*
X262450Y60071D01*
X262696Y59610D01*
X260616Y57530D01*
X230664D01*
X230254Y57449D01*
X229907Y57217D01*
X227733Y55043D01*
X161410D01*
X161219Y55505D01*
X165543Y59829D01*
X184847D01*
X184998Y59329D01*
X184802Y59198D01*
X184343Y58511D01*
X184181Y57700D01*
X184343Y56889D01*
X184802Y56202D01*
X185489Y55743D01*
X186300Y55581D01*
X187111Y55743D01*
X187798Y56202D01*
X188257Y56889D01*
X188419Y57700D01*
X188410Y57743D01*
X188727Y58129D01*
X245800D01*
X246210Y58211D01*
X246557Y58443D01*
X246696Y58582D01*
X247200Y58481D01*
X248011Y58643D01*
X248698Y59102D01*
X249157Y59789D01*
X249312Y60565D01*
X249345Y60653D01*
X249743Y61029D01*
X260216D01*
X260502Y60602D01*
D02*
G37*
G36*
X143343Y71443D02*
X143343Y71443D01*
X143690Y71211D01*
X144100Y71129D01*
X144100Y71129D01*
X149926D01*
X150161Y70688D01*
X150043Y70511D01*
X149881Y69700D01*
X150043Y68889D01*
X150502Y68202D01*
X151189Y67743D01*
X152000Y67581D01*
X152811Y67743D01*
X153498Y68202D01*
X153784Y68629D01*
X178579D01*
X178770Y68168D01*
X177343Y66740D01*
X177111Y66393D01*
X177029Y65983D01*
Y65484D01*
X176602Y65198D01*
X176143Y64511D01*
X175981Y63700D01*
X176143Y62889D01*
X176422Y62471D01*
X176155Y61971D01*
X165100D01*
X164690Y61889D01*
X164343Y61657D01*
X160688Y58002D01*
X160146Y58167D01*
X160057Y58611D01*
X159598Y59298D01*
X158911Y59757D01*
X158100Y59919D01*
X157289Y59757D01*
X156860Y59471D01*
X154343D01*
X142714Y71100D01*
X142746Y71333D01*
X143275Y71511D01*
X143343Y71443D01*
D02*
G37*
G36*
X275812Y65632D02*
X275662Y65532D01*
X266260Y56130D01*
X262898D01*
X262706Y56592D01*
X272247Y66132D01*
X275661D01*
X275812Y65632D01*
D02*
G37*
G36*
X99371Y56251D02*
X98987Y55971D01*
X91853D01*
X91469Y56251D01*
Y61829D01*
X99371D01*
Y56251D01*
D02*
G37*
G36*
X314629Y74757D02*
Y55626D01*
X313669D01*
Y70400D01*
X313669Y70400D01*
X313587Y70810D01*
X313355Y71157D01*
X313355Y71157D01*
X309955Y74557D01*
X309608Y74789D01*
X309198Y74871D01*
X288143D01*
X285716Y77298D01*
Y78134D01*
X287516D01*
Y78434D01*
X292334D01*
Y80032D01*
X309354D01*
X314629Y74757D01*
D02*
G37*
G36*
X265692Y53527D02*
X263908Y51742D01*
X242940D01*
X242704Y52183D01*
X242808Y52339D01*
X242969Y53150D01*
X242901Y53489D01*
X243312Y53989D01*
X265501D01*
X265692Y53527D01*
D02*
G37*
G36*
X146148Y53329D02*
X145802Y53098D01*
X145343Y52411D01*
X145181Y51600D01*
X145203Y51490D01*
X144742Y51244D01*
X143229Y52757D01*
X142882Y52989D01*
X142472Y53071D01*
X123300D01*
X122890Y52989D01*
X122543Y52757D01*
X121152Y51366D01*
X101389D01*
Y52964D01*
X96446D01*
Y52964D01*
X96074D01*
Y52964D01*
X94556D01*
X94473Y53086D01*
X94359Y53257D01*
X94356Y53259D01*
X94354Y53262D01*
X94248Y53367D01*
X94438Y53829D01*
X145996D01*
X146148Y53329D01*
D02*
G37*
G36*
X232297Y53183D02*
X232181Y52600D01*
X232343Y51789D01*
X232802Y51102D01*
X233489Y50643D01*
X234300Y50481D01*
X234804Y50582D01*
X235471Y49915D01*
X235471Y49915D01*
X235579Y49843D01*
X235428Y49343D01*
X159722D01*
X159487Y49784D01*
X159557Y49889D01*
X159719Y50700D01*
X159713Y50729D01*
X160123Y51229D01*
X229193D01*
X229603Y51311D01*
X229950Y51543D01*
X231837Y53429D01*
X232297Y53183D01*
D02*
G37*
G36*
X90413Y54143D02*
X90416Y54141D01*
X90418Y54138D01*
X91268Y53299D01*
X91131Y52964D01*
X91131D01*
Y47627D01*
X96074D01*
Y47627D01*
X96446D01*
Y47627D01*
X101389D01*
Y49225D01*
X121595D01*
X122005Y49306D01*
X122352Y49538D01*
X123743Y50929D01*
X126262D01*
X126453Y50467D01*
X121957Y45971D01*
X90043D01*
X87171Y48844D01*
Y56251D01*
X88305D01*
X90413Y54143D01*
D02*
G37*
G36*
X279524Y44376D02*
X277894Y42746D01*
X278172Y42560D01*
X279047Y42386D01*
Y36039D01*
X277248D01*
Y35739D01*
X272834D01*
Y41120D01*
X276223Y44509D01*
X276766Y44345D01*
X276860Y43872D01*
X277046Y43594D01*
X278676Y45224D01*
X279524Y44376D01*
D02*
G37*
G36*
X157091Y34933D02*
X156900Y34471D01*
X134844D01*
X130161Y39153D01*
X130407Y39614D01*
X130600Y39575D01*
X131223Y39699D01*
X131283Y39650D01*
Y39650D01*
X136372D01*
X133926Y42096D01*
X134775Y42944D01*
X137221Y40498D01*
Y41449D01*
X138370D01*
Y40498D01*
X140816Y42944D01*
X141339Y42421D01*
X141861Y42944D01*
X144307Y40498D01*
Y45390D01*
X144007D01*
Y46567D01*
X145457D01*
X157091Y34933D01*
D02*
G37*
G36*
X273991Y50219D02*
X260643Y36872D01*
X260471Y36614D01*
X260041Y36669D01*
X259971Y36697D01*
Y38423D01*
X272267Y50719D01*
X273784D01*
X273991Y50219D01*
D02*
G37*
G36*
X194226Y37896D02*
X192500Y36171D01*
X158881D01*
X158221Y36830D01*
X158405Y37354D01*
X158993Y37471D01*
X159680Y37930D01*
X159966Y38357D01*
X194034D01*
X194226Y37896D01*
D02*
G37*
G36*
X265221Y46701D02*
X258143Y39623D01*
X257911Y39276D01*
X257829Y38866D01*
Y33484D01*
X257402Y33198D01*
X256943Y32511D01*
X256781Y31700D01*
X256943Y30889D01*
X257402Y30202D01*
X258089Y29743D01*
X258900Y29581D01*
X259711Y29743D01*
X259889Y29861D01*
X260329Y29626D01*
Y29316D01*
X260247Y28850D01*
X254062D01*
X236172Y46740D01*
X236364Y47201D01*
X265014D01*
X265221Y46701D01*
D02*
G37*
G36*
X265327Y37874D02*
Y28723D01*
X264456Y28363D01*
X263652Y27746D01*
X263035Y26942D01*
X262971Y26786D01*
X262471Y26886D01*
Y35671D01*
X264865Y38066D01*
X265327Y37874D01*
D02*
G37*
G36*
X270693Y40826D02*
Y25697D01*
X270193Y25664D01*
X270148Y26005D01*
X269760Y26942D01*
X269143Y27746D01*
X268339Y28363D01*
X267468Y28723D01*
Y38254D01*
X270231Y41017D01*
X270693Y40826D01*
D02*
G37*
G36*
X152649Y43681D02*
X152649Y43681D01*
X152997Y43449D01*
X153406Y43367D01*
X155054D01*
X155340Y42940D01*
X156027Y42480D01*
X156838Y42319D01*
X157649Y42480D01*
X158336Y42940D01*
X158795Y43627D01*
X158957Y44438D01*
X158795Y45249D01*
X158720Y45360D01*
X158956Y45801D01*
X234082D01*
X252548Y27336D01*
Y22179D01*
X252048Y21998D01*
X233861Y40185D01*
X233514Y40417D01*
X233104Y40499D01*
X159966D01*
X159680Y40926D01*
X158993Y41385D01*
X158182Y41547D01*
X157371Y41385D01*
X156684Y40926D01*
X156224Y40239D01*
X156108Y39651D01*
X155584Y39467D01*
X148946Y46105D01*
X149138Y46567D01*
X149763D01*
X152649Y43681D01*
D02*
G37*
G36*
X292781Y27103D02*
X292773Y27093D01*
X292355Y26083D01*
X292212Y25000D01*
X292355Y23917D01*
X292773Y22907D01*
X293262Y22271D01*
X293015Y21771D01*
X291141D01*
X289787Y23124D01*
X290148Y23995D01*
X290280Y25000D01*
X290148Y26005D01*
X289760Y26942D01*
X289143Y27746D01*
X288339Y28363D01*
X287403Y28751D01*
X286398Y28883D01*
X285393Y28751D01*
X284522Y28390D01*
X283214Y29697D01*
X282988Y30102D01*
X282988D01*
X282988Y30102D01*
Y32000D01*
X287884D01*
X292781Y27103D01*
D02*
G37*
G36*
X201140Y31046D02*
X201143Y31043D01*
X201159Y30431D01*
X200995Y30305D01*
X200378Y29500D01*
X199990Y28564D01*
X199857Y27559D01*
X199990Y26554D01*
X200378Y25618D01*
X200995Y24813D01*
X201799Y24196D01*
X202735Y23809D01*
X203740Y23676D01*
X204745Y23809D01*
X205682Y24196D01*
X206486Y24813D01*
X207103Y25618D01*
X207491Y26554D01*
X207623Y27559D01*
X207491Y28564D01*
X207103Y29500D01*
X206543Y30229D01*
X206674Y30729D01*
X210807D01*
X210937Y30229D01*
X210378Y29500D01*
X209990Y28564D01*
X209857Y27559D01*
X209990Y26554D01*
X210378Y25618D01*
X210995Y24813D01*
X211799Y24196D01*
X212735Y23809D01*
X213740Y23676D01*
X214745Y23809D01*
X215682Y24196D01*
X216486Y24813D01*
X217103Y25618D01*
X217491Y26554D01*
X217623Y27559D01*
X217491Y28564D01*
X217103Y29500D01*
X216543Y30229D01*
X216674Y30729D01*
X216782D01*
X217192Y30811D01*
X217539Y31043D01*
X218500Y32004D01*
X218789Y31969D01*
X218975Y31448D01*
X218784Y31256D01*
X218551Y30909D01*
X218470Y30499D01*
Y25384D01*
X213957Y20871D01*
X211627D01*
X211301Y21371D01*
X211419Y21959D01*
X211257Y22770D01*
X210798Y23458D01*
X210111Y23917D01*
X209300Y24078D01*
X208489Y23917D01*
X207802Y23458D01*
X207516Y23030D01*
X200297D01*
X199887Y22949D01*
X199540Y22716D01*
X199308Y22369D01*
X199226Y21959D01*
Y20871D01*
X197774D01*
X197539Y21312D01*
X197657Y21489D01*
X197819Y22300D01*
X197718Y22804D01*
X198757Y23843D01*
X198989Y24190D01*
X199071Y24600D01*
Y30559D01*
X199071Y30559D01*
X198989Y30968D01*
X198757Y31316D01*
X198757Y31316D01*
X198635Y31438D01*
X198799Y31981D01*
X199111Y32043D01*
X199540Y32329D01*
X199856D01*
X201140Y31046D01*
D02*
G37*
G36*
X250086Y20933D02*
X249894Y20471D01*
X243243D01*
X229798Y33916D01*
X229451Y34148D01*
X229041Y34229D01*
X218141D01*
X217731Y34148D01*
X217384Y33916D01*
X216338Y32871D01*
X207111D01*
X206959Y33371D01*
X207305Y33602D01*
X207764Y34289D01*
X207926Y35100D01*
X207764Y35911D01*
X207305Y36598D01*
X206618Y37057D01*
X205807Y37219D01*
X205303Y37118D01*
X204525Y37896D01*
X204717Y38357D01*
X232661D01*
X250086Y20933D01*
D02*
G37*
G36*
X326403Y35129D02*
X325404Y34517D01*
X324545Y33784D01*
X332314Y26015D01*
X331890Y25591D01*
X332314Y25166D01*
X324545Y17398D01*
X325404Y16664D01*
X326372Y16071D01*
X326231Y15571D01*
X290743D01*
X285595Y20719D01*
X285829Y21192D01*
X286398Y21117D01*
X287403Y21250D01*
X288273Y21610D01*
X289941Y19943D01*
X290288Y19711D01*
X290698Y19629D01*
X308816D01*
X309102Y19202D01*
X309789Y18743D01*
X310600Y18581D01*
X311411Y18743D01*
X312098Y19202D01*
X312557Y19889D01*
X312719Y20700D01*
X312557Y21511D01*
X312098Y22198D01*
X311411Y22657D01*
X310600Y22819D01*
X310520Y22803D01*
X310160Y23241D01*
X310440Y23917D01*
X310442Y23930D01*
X320987D01*
X320992Y23865D01*
X321396Y22181D01*
X322058Y20581D01*
X322963Y19105D01*
X323697Y18246D01*
X331041Y25591D01*
X323697Y32935D01*
X322963Y32076D01*
X322058Y30600D01*
X321396Y29000D01*
X320992Y27317D01*
X320894Y26071D01*
X310442D01*
X310440Y26083D01*
X310022Y27093D01*
X309725Y27480D01*
X306822Y24576D01*
X306398Y25000D01*
X305973Y24576D01*
X303070Y27480D01*
X302773Y27093D01*
X302355Y26083D01*
X302353Y26071D01*
X300442D01*
X300440Y26083D01*
X300022Y27093D01*
X299357Y27960D01*
X299348Y27967D01*
X299368Y28582D01*
X299698Y28802D01*
X300157Y29489D01*
X300319Y30300D01*
X300218Y30804D01*
X305043Y35629D01*
X326262D01*
X326403Y35129D01*
D02*
G37*
G36*
X242043Y18643D02*
X242390Y18411D01*
X242800Y18329D01*
X268400D01*
X268810Y18411D01*
X269157Y18643D01*
X272521Y22007D01*
X272753Y22354D01*
X272792Y22554D01*
X273320Y22687D01*
X273652Y22255D01*
X274456Y21638D01*
X275393Y21250D01*
X276398Y21117D01*
X276972Y21193D01*
X277205Y20719D01*
X273757Y17271D01*
X242443D01*
X228330Y31384D01*
X228508Y31913D01*
X228741Y31945D01*
X242043Y18643D01*
D02*
G37*
G36*
X289543Y13743D02*
X289855Y13534D01*
X289860Y13498D01*
X289559Y13035D01*
X279658D01*
X279636Y13063D01*
X279476Y13534D01*
X281660Y15718D01*
X282164Y15617D01*
X282975Y15779D01*
X283662Y16238D01*
X284121Y16925D01*
X284283Y17736D01*
X284144Y18435D01*
X284532Y18720D01*
X284556Y18730D01*
X289543Y13743D01*
D02*
G37*
%LPC*%
G36*
X331890Y200404D02*
X330164Y200268D01*
X328480Y199864D01*
X326881Y199201D01*
X325404Y198297D01*
X324545Y197563D01*
X331890Y190218D01*
X339234Y197563D01*
X338375Y198297D01*
X336899Y199201D01*
X335299Y199864D01*
X333616Y200268D01*
X331890Y200404D01*
D02*
G37*
G36*
X25591D02*
X23865Y200268D01*
X22181Y199864D01*
X20581Y199201D01*
X19105Y198297D01*
X18246Y197563D01*
X25591Y190218D01*
X32935Y197563D01*
X32076Y198297D01*
X30600Y199201D01*
X29000Y199864D01*
X27317Y200268D01*
X25591Y200404D01*
D02*
G37*
G36*
X137590Y190464D02*
X129891D01*
Y188093D01*
X90945D01*
X90379Y187980D01*
X89900Y187660D01*
X70157Y167917D01*
X69318Y168365D01*
X68147Y168720D01*
X66929Y168840D01*
X65711Y168720D01*
X64540Y168365D01*
X63461Y167788D01*
X62515Y167012D01*
X61739Y166066D01*
X61163Y164987D01*
X60807Y163816D01*
X60687Y162598D01*
X60807Y161381D01*
X61163Y160210D01*
X61739Y159131D01*
X62515Y158185D01*
X63461Y157408D01*
X64540Y156832D01*
X65711Y156476D01*
X66929Y156357D01*
X68147Y156476D01*
X69318Y156832D01*
X70397Y157408D01*
X71343Y158185D01*
X72119Y159131D01*
X72696Y160210D01*
X73051Y161381D01*
X73171Y162598D01*
X73051Y163816D01*
X72696Y164987D01*
X72247Y165826D01*
X91557Y185136D01*
X129891D01*
Y182765D01*
X137590D01*
Y190464D01*
D02*
G37*
G36*
X340083Y196715D02*
X332738Y189370D01*
X340083Y182025D01*
X340816Y182884D01*
X341721Y184361D01*
X342384Y185960D01*
X342788Y187644D01*
X342924Y189370D01*
X342788Y191096D01*
X342384Y192780D01*
X341721Y194379D01*
X340816Y195856D01*
X340083Y196715D01*
D02*
G37*
G36*
X33784D02*
X26439Y189370D01*
X33784Y182025D01*
X34517Y182884D01*
X35422Y184361D01*
X36085Y185960D01*
X36489Y187644D01*
X36625Y189370D01*
X36489Y191096D01*
X36085Y192780D01*
X35422Y194379D01*
X34517Y195856D01*
X33784Y196715D01*
D02*
G37*
G36*
X17398Y196715D02*
X16664Y195856D01*
X15759Y194379D01*
X15097Y192780D01*
X14692Y191096D01*
X14557Y189370D01*
X14692Y187644D01*
X15097Y185960D01*
X15759Y184361D01*
X16664Y182884D01*
X17398Y182025D01*
X24742Y189370D01*
X17398Y196715D01*
D02*
G37*
G36*
X25591Y188522D02*
X18246Y181177D01*
X19105Y180443D01*
X20581Y179539D01*
X22181Y178876D01*
X23865Y178472D01*
X25591Y178336D01*
X27317Y178472D01*
X29000Y178876D01*
X30600Y179539D01*
X32076Y180443D01*
X32935Y181177D01*
X25591Y188522D01*
D02*
G37*
G36*
X66929Y152606D02*
X65653Y152481D01*
X64425Y152108D01*
X63294Y151504D01*
X62768Y151072D01*
X66929Y146912D01*
X71090Y151072D01*
X70565Y151504D01*
X69433Y152108D01*
X68206Y152481D01*
X66929Y152606D01*
D02*
G37*
G36*
X71939Y150224D02*
X67778Y146063D01*
X71939Y141902D01*
X72370Y142428D01*
X72974Y143559D01*
X73347Y144787D01*
X73472Y146063D01*
X73347Y147339D01*
X72974Y148567D01*
X72370Y149698D01*
X71939Y150224D01*
D02*
G37*
G36*
X61920D02*
X61489Y149698D01*
X60884Y148567D01*
X60512Y147339D01*
X60386Y146063D01*
X60512Y144787D01*
X60884Y143559D01*
X61489Y142428D01*
X61920Y141902D01*
X66081Y146063D01*
X61920Y150224D01*
D02*
G37*
G36*
X66929Y145214D02*
X62768Y141054D01*
X63294Y140622D01*
X64425Y140018D01*
X65653Y139645D01*
X66929Y139520D01*
X68206Y139645D01*
X69433Y140018D01*
X70565Y140622D01*
X71090Y141054D01*
X66929Y145214D01*
D02*
G37*
G36*
X339802Y132890D02*
X337463Y130551D01*
X339802Y128212D01*
X340067Y128558D01*
X340465Y129519D01*
X340601Y130551D01*
X340465Y131583D01*
X340067Y132545D01*
X339802Y132890D01*
D02*
G37*
G36*
X333427D02*
X333161Y132545D01*
X332763Y131583D01*
X332627Y130551D01*
X332763Y129519D01*
X333161Y128558D01*
X333427Y128212D01*
X335766Y130551D01*
X333427Y132890D01*
D02*
G37*
G36*
X336614Y129703D02*
X334275Y127364D01*
X334621Y127099D01*
X335582Y126700D01*
X336614Y126564D01*
X337646Y126700D01*
X338608Y127099D01*
X338953Y127364D01*
X336614Y129703D01*
D02*
G37*
G36*
X25591Y36625D02*
X23865Y36489D01*
X22181Y36085D01*
X20581Y35422D01*
X19105Y34517D01*
X18246Y33784D01*
X25591Y26439D01*
X32935Y33784D01*
X32076Y34517D01*
X30600Y35422D01*
X29000Y36085D01*
X27317Y36489D01*
X25591Y36625D01*
D02*
G37*
G36*
X33784Y32935D02*
X26439Y25591D01*
X33784Y18246D01*
X34517Y19105D01*
X35422Y20581D01*
X36085Y22181D01*
X36489Y23865D01*
X36625Y25591D01*
X36489Y27317D01*
X36085Y29000D01*
X35422Y30600D01*
X34517Y32076D01*
X33784Y32935D01*
D02*
G37*
G36*
X17398Y32935D02*
X16664Y32076D01*
X15759Y30600D01*
X15097Y29000D01*
X14692Y27317D01*
X14557Y25591D01*
X14692Y23865D01*
X15097Y22181D01*
X15759Y20581D01*
X16664Y19105D01*
X17398Y18246D01*
X24742Y25591D01*
X17398Y32935D01*
D02*
G37*
G36*
X25591Y24742D02*
X18246Y17398D01*
X19105Y16664D01*
X20581Y15759D01*
X22181Y15097D01*
X23865Y14692D01*
X25591Y14557D01*
X27317Y14692D01*
X29000Y15097D01*
X30600Y15759D01*
X32076Y16664D01*
X32935Y17398D01*
X25591Y24742D01*
D02*
G37*
G36*
X176646Y145106D02*
X176460Y144828D01*
X176276Y143900D01*
X176460Y142972D01*
X176646Y142694D01*
X177851Y143900D01*
X176646Y145106D01*
D02*
G37*
G36*
X136330Y125897D02*
X124300D01*
Y120560D01*
X135129D01*
Y116500D01*
X135211Y116090D01*
X135443Y115743D01*
X137882Y113304D01*
X137781Y112800D01*
X137943Y111989D01*
X138402Y111302D01*
X139089Y110843D01*
X139900Y110681D01*
X140711Y110843D01*
X141398Y111302D01*
X141857Y111989D01*
X142019Y112800D01*
X141857Y113611D01*
X141398Y114298D01*
X140711Y114757D01*
X139900Y114919D01*
X139396Y114818D01*
X137271Y116944D01*
Y122158D01*
X138116D01*
X138402Y121730D01*
X139089Y121271D01*
X139900Y121110D01*
X140711Y121271D01*
X141398Y121730D01*
X141857Y122418D01*
X142019Y123228D01*
X141857Y124039D01*
X141398Y124726D01*
X140711Y125186D01*
X139900Y125347D01*
X139089Y125186D01*
X138402Y124726D01*
X138116Y124299D01*
X136330D01*
Y125897D01*
D02*
G37*
G36*
X137590Y31409D02*
X129891D01*
Y28630D01*
X103925D01*
X103639Y29057D01*
X102952Y29516D01*
X102141Y29678D01*
X101330Y29516D01*
X100643Y29057D01*
X100184Y28370D01*
X100022Y27559D01*
X100184Y26748D01*
X100643Y26061D01*
X101330Y25602D01*
X102141Y25440D01*
X102952Y25602D01*
X103639Y26061D01*
X103925Y26488D01*
X129891D01*
Y23709D01*
X137590D01*
Y31409D01*
D02*
G37*
G36*
X153740Y31442D02*
X152735Y31310D01*
X151799Y30922D01*
X150995Y30305D01*
X150378Y29500D01*
X149990Y28564D01*
X149857Y27559D01*
X149990Y26554D01*
X150378Y25618D01*
X150995Y24813D01*
X151799Y24196D01*
X152735Y23809D01*
X153740Y23676D01*
X154745Y23809D01*
X155682Y24196D01*
X156486Y24813D01*
X157103Y25618D01*
X157491Y26554D01*
X157623Y27559D01*
X157491Y28564D01*
X157103Y29500D01*
X156486Y30305D01*
X155682Y30922D01*
X154745Y31310D01*
X153740Y31442D01*
D02*
G37*
G36*
X155216Y169239D02*
X154287Y169117D01*
X153421Y168758D01*
X153158Y168556D01*
X155216Y166498D01*
X157275Y168556D01*
X157011Y168758D01*
X156146Y169117D01*
X155216Y169239D01*
D02*
G37*
G36*
X163091Y168937D02*
X162240Y168825D01*
X161447Y168496D01*
X160766Y167974D01*
X160244Y167293D01*
X159915Y166500D01*
X159803Y165650D01*
X159915Y164799D01*
X160244Y164006D01*
X160766Y163325D01*
X161447Y162803D01*
X162240Y162474D01*
X163091Y162362D01*
X163941Y162474D01*
X164734Y162803D01*
X165415Y163325D01*
X165937Y164006D01*
X166266Y164799D01*
X166378Y165650D01*
X166266Y166500D01*
X165937Y167293D01*
X165415Y167974D01*
X164734Y168496D01*
X163941Y168825D01*
X163091Y168937D01*
D02*
G37*
G36*
X263666Y112675D02*
Y108435D01*
X265786Y110555D01*
X263666Y112675D01*
D02*
G37*
G36*
X279500Y99319D02*
X278572Y99134D01*
X278294Y98949D01*
X279500Y97743D01*
X280706Y98949D01*
X280428Y99134D01*
X279500Y99319D01*
D02*
G37*
G36*
X281554Y98100D02*
X280348Y96894D01*
X281554Y95689D01*
X281740Y95967D01*
X281925Y96894D01*
X281740Y97822D01*
X281554Y98100D01*
D02*
G37*
G36*
X279500Y96046D02*
X278294Y94840D01*
X278572Y94654D01*
X279500Y94470D01*
X280428Y94654D01*
X280706Y94840D01*
X279500Y96046D01*
D02*
G37*
G36*
X279046Y79506D02*
X278860Y79228D01*
X278676Y78300D01*
X278860Y77372D01*
X279046Y77094D01*
X280252Y78300D01*
X279046Y79506D01*
D02*
G37*
G36*
X281100Y77451D02*
X279894Y76246D01*
X280172Y76060D01*
X281100Y75876D01*
X282028Y76060D01*
X282306Y76246D01*
X281100Y77451D01*
D02*
G37*
G36*
X212454Y77944D02*
X210396Y75886D01*
X212454Y73828D01*
X212656Y74091D01*
X213015Y74957D01*
X213137Y75886D01*
X213015Y76815D01*
X212656Y77681D01*
X212454Y77944D01*
D02*
G37*
G36*
X138669Y67151D02*
X137463Y65945D01*
X138669Y64739D01*
X138854Y65017D01*
X139039Y65945D01*
X138854Y66873D01*
X138669Y67151D01*
D02*
G37*
G36*
X141339Y41770D02*
X139219Y39650D01*
X143459D01*
X141339Y41770D01*
D02*
G37*
G36*
X306398Y29186D02*
X305314Y29043D01*
X304305Y28625D01*
X303918Y28328D01*
X306398Y25849D01*
X308877Y28328D01*
X308490Y28625D01*
X307481Y29043D01*
X306398Y29186D01*
D02*
G37*
%LPD*%
D23*
X93602Y50295D02*
D03*
X98917D02*
D03*
D72*
X249410Y122394D02*
Y124800D01*
Y130290D01*
X118400Y62205D02*
X121260D01*
X104724D02*
X118400D01*
X101900Y59380D02*
Y62400D01*
Y59350D02*
Y59380D01*
X104724Y62205D01*
X101870Y59350D02*
X101900Y59380D01*
X145900Y47638D02*
X150206D01*
X136200Y123228D02*
X139900D01*
X130315D02*
X136200D01*
X149500Y156890D02*
X164710D01*
X140118D02*
X149500D01*
X171926Y174800D02*
X175200Y178074D01*
X273394Y96894D02*
X279500D01*
X271654D02*
X273394D01*
X270200Y94900D02*
Y96894D01*
X284646Y78300D02*
Y81102D01*
Y76854D02*
Y78300D01*
X323000Y25000D02*
Y25591D01*
X266536Y92847D02*
Y93000D01*
Y90157D02*
Y92847D01*
X128600Y141339D02*
Y143600D01*
X257600Y95500D02*
X266536D01*
X217100Y186614D02*
Y187200D01*
X244291Y109500D02*
X256300D01*
X239600D02*
X244291D01*
X200297Y19800D02*
X214400D01*
X181499D02*
X200297D01*
X264600Y100600D02*
X270654D01*
X262785D02*
X264600D01*
X270700Y85928D02*
X286519D01*
X258556D02*
X270700D01*
X244291Y132591D02*
Y134400D01*
Y130496D02*
Y132591D01*
X238940Y55060D02*
X266704D01*
X188500Y192300D02*
X249700D01*
X306544Y117544D02*
X313600D01*
X271654D02*
X306544D01*
X240900Y115800D02*
X244291D01*
X131010Y47638D02*
X134252D01*
X130938D02*
X131010D01*
X197700Y33400D02*
X200300D01*
X131300D02*
X134400D01*
X247720Y98087D02*
Y100800D01*
X150206Y47638D02*
X153406Y44438D01*
X156838D01*
X141339Y47638D02*
X145900D01*
X158438Y35100D01*
X192944D01*
X195872Y38028D01*
X202879D01*
X205807Y35100D01*
X152000Y69700D02*
X211235D01*
X217421Y75886D01*
X88583Y162598D02*
X109298D01*
X111070Y164370D01*
X140118D01*
X150548Y174800D02*
X171926D01*
X140118Y164370D02*
X150548Y174800D01*
X197300Y93050D02*
Y129400D01*
X187900Y138800D02*
X197300Y129400D01*
X175200Y178074D02*
X183740Y186614D01*
X175200Y164100D02*
Y178074D01*
Y164100D02*
X177572Y161728D01*
X181572D01*
X187900Y155400D01*
Y146551D02*
Y155400D01*
X268300Y93000D02*
X268468Y92832D01*
X270200Y96894D02*
X271654D01*
X268468Y92832D02*
X270200Y94900D01*
X266536Y93000D02*
X268300D01*
X246400D02*
X266536Y92847D01*
X244291Y95109D02*
X246400Y93000D01*
X244291Y95109D02*
Y98087D01*
X131120Y42520D02*
X134252D01*
X130600Y42000D02*
X131120Y42520D01*
X213740Y186614D02*
X217100D01*
Y187200D02*
X220800Y190900D01*
X233300D01*
X247400Y176800D01*
X253800Y99300D02*
Y102800D01*
Y99300D02*
X257600Y95500D01*
X266536D02*
Y96894D01*
X213740Y159160D02*
X217100Y155800D01*
X316100D01*
X244291Y106189D02*
Y109500D01*
X238600Y110500D02*
X239600Y109500D01*
X256300D02*
X262169Y103631D01*
X266536D01*
X183740Y27559D02*
X187940Y31759D01*
X196800D01*
X198000Y30559D01*
Y24600D02*
Y30559D01*
X195700Y22300D02*
X198000Y24600D01*
X200297Y21959D02*
X209300D01*
X200297Y19800D02*
Y21959D01*
X173740Y27559D02*
X181499Y19800D01*
X298200Y30300D02*
X304600Y36700D01*
X339100D01*
X343000Y32800D01*
Y15900D02*
Y32800D01*
X341600Y14500D02*
X343000Y15900D01*
X290300Y14500D02*
X341600D01*
X283900Y20900D02*
X290300Y14500D01*
X278900Y20900D02*
X283900D01*
X274200Y16200D02*
X278900Y20900D01*
X242000Y16200D02*
X274200D01*
X226441Y31759D02*
X242000Y16200D01*
X220800Y31759D02*
X226441D01*
X219541Y30499D02*
X220800Y31759D01*
X219541Y24941D02*
Y30499D01*
X214400Y19800D02*
X219541Y24941D01*
X277900Y58200D02*
Y59800D01*
X273130Y53430D02*
X277900Y58200D01*
X270627Y53430D02*
X273130D01*
X265470Y48272D02*
X270627Y53430D01*
X156000Y48272D02*
X265470D01*
X152672Y51600D02*
X156000Y48272D01*
X147300Y51600D02*
X152672D01*
X163740Y27559D02*
X173027Y18272D01*
X221472D01*
X224900Y21700D01*
X234300Y52600D02*
X236228Y50672D01*
X264351D01*
X272379Y58700D01*
X274300D01*
X136281Y20100D02*
X143740Y27559D01*
X98600Y20100D02*
X136281D01*
X82000Y36700D02*
X98600Y20100D01*
X82000Y36700D02*
Y169600D01*
X88800Y176400D01*
X152000D01*
X158000Y182400D01*
Y188900D01*
X160000Y190900D01*
X185900D01*
X188000Y188800D01*
Y170487D02*
Y188800D01*
X186713Y169200D02*
X188000Y170487D01*
X186713Y165650D02*
Y169200D01*
X278600Y14172D02*
X282164Y17736D01*
X157127Y14172D02*
X278600D01*
X143740Y27559D02*
X157127Y14172D01*
X271654Y101600D02*
Y103631D01*
X270654Y100600D02*
X271654Y101600D01*
X262000Y98000D02*
X264600Y100600D01*
X249541Y62100D02*
X262000D01*
X248546Y63095D02*
X249541Y62100D01*
X192271Y63095D02*
X248546D01*
X191275Y62100D02*
X192271Y63095D01*
X256557Y106828D02*
X262785Y100600D01*
X252011Y106828D02*
X256557D01*
X249410Y106189D02*
X252011Y106828D01*
X271803Y67203D02*
X290847D01*
X261060Y56460D02*
X271803Y67203D01*
X230664Y56460D02*
X261060D01*
X228176Y53972D02*
X230664Y56460D01*
X153237Y53972D02*
X228176D01*
X152309Y54900D02*
X153237Y53972D01*
X91170Y54900D02*
X152309D01*
X88970Y57100D02*
Y59350D01*
Y57100D02*
X91170Y54900D01*
X93602Y52500D01*
Y50295D02*
Y52500D01*
X208500Y111900D02*
Y130600D01*
X200299Y138801D02*
X208500Y130600D01*
X205700Y108700D02*
Y128700D01*
X195100Y139300D02*
X205700Y128700D01*
X195100Y139300D02*
Y167259D01*
X205100Y197800D02*
X206100Y198800D01*
X278700D01*
X282900Y194600D01*
X209773Y194800D02*
X241000D01*
X208917Y193944D02*
X209773Y194800D01*
X179656Y193944D02*
X208917D01*
X178800Y194800D02*
X179656Y193944D01*
X175200Y158388D02*
X181200Y152388D01*
Y113700D02*
Y152388D01*
X179200Y159300D02*
X180300D01*
X183858Y155742D01*
Y131042D02*
Y155742D01*
Y131042D02*
X189823Y125077D01*
X144100Y72200D02*
X205807D01*
X142900Y73400D02*
X144100Y72200D01*
X142900Y73400D02*
Y87100D01*
X149100Y93300D01*
X173300Y86200D02*
X174900Y84600D01*
X223000D01*
X229000Y78600D01*
X181255Y65455D02*
X182200Y66400D01*
X257900D01*
X178100Y63700D02*
Y65983D01*
X180000Y67883D01*
X245183D01*
X249397Y72097D01*
X264799D01*
X271828Y79126D01*
Y84800D01*
X270700Y85928D02*
X271828Y84800D01*
X254700Y179961D02*
X255039Y180300D01*
X254700Y165300D02*
Y179961D01*
X226500Y76000D02*
X251100D01*
X219800Y82700D02*
X226500Y76000D01*
X172800Y82700D02*
X219800D01*
X170800Y84700D02*
X172800Y82700D01*
X170800Y84700D02*
Y88000D01*
X176100Y93300D01*
X178200D01*
X265728Y83500D02*
X269400D01*
X262000Y79772D02*
X265728Y83500D01*
X236567Y79772D02*
X262000D01*
X227839Y88500D02*
X236567Y79772D01*
X213400Y88500D02*
X227839D01*
X158182Y39428D02*
X233104D01*
X251732Y20800D01*
X260600D01*
X261400Y21600D01*
Y36115D01*
X278262Y52977D01*
X280328D01*
X159200Y52300D02*
X229193D01*
X231953Y55060D01*
X266704D02*
X276419Y64775D01*
X279644D01*
X187900Y91200D02*
Y100900D01*
Y91200D02*
X190100Y89000D01*
X200000D01*
X223968Y112968D01*
X240057D01*
X242125Y110900D01*
X253100D01*
X262500Y120300D01*
X98917Y50295D02*
X121595D01*
X123300Y52000D01*
X142472D01*
X145300Y49172D01*
X151472D01*
X153772Y46872D01*
X234526D01*
X256398Y25000D01*
X143740Y186614D02*
X149426Y192300D01*
X249700D02*
X275900Y166100D01*
X258900Y31700D02*
Y38866D01*
X271824Y51790D01*
X274090D01*
X285200Y62900D01*
X295946D01*
X266398Y25000D02*
Y38698D01*
X276400Y48700D01*
X286200D01*
X295100Y57600D01*
X256900Y197300D02*
X281600Y172600D01*
X208800Y197300D02*
X256900D01*
X206844Y195344D02*
X208800Y197300D01*
X203556Y195344D02*
X206844D01*
X201600Y197300D02*
X203556Y195344D01*
X144000Y197300D02*
X201600D01*
X139500Y192800D02*
X144000Y197300D01*
X139500Y184000D02*
Y192800D01*
Y184000D02*
X141100Y182400D01*
X149526D01*
X153740Y186614D01*
X186300Y57700D02*
X187800Y59200D01*
X245800D01*
X247200Y60600D01*
X247700Y144200D02*
X252900Y149400D01*
X292726D01*
X302559Y139567D01*
X244291Y132591D02*
X246600Y134900D01*
X128100Y44800D02*
X130938Y47638D01*
X128100Y36600D02*
Y44800D01*
Y36600D02*
X131300Y33400D01*
X200300D02*
X201900Y31800D01*
X216782D01*
X218141Y33159D01*
X229041D01*
X242800Y19400D01*
X268400D01*
X271764Y22764D01*
Y41564D01*
X277500Y47300D01*
X280800D01*
X285900Y42200D01*
X313600D01*
X317100Y45700D01*
Y114044D01*
X313600Y117544D02*
X317100Y114044D01*
X128172Y44800D02*
X131010Y47638D01*
X128172Y39628D02*
Y44800D01*
Y39628D02*
X134400Y33400D01*
X197700D01*
X198300Y34000D01*
X157500Y58400D02*
X158100Y57800D01*
X153900Y58400D02*
X157500D01*
X141500Y70800D02*
X153900Y58400D01*
X141500Y70800D02*
Y90100D01*
X147200Y95800D01*
X180800D01*
X189000Y87600D01*
X208000D01*
X222269Y101869D01*
X246651D01*
X247720Y100800D01*
Y98087D02*
X249410D01*
X271654Y110555D02*
X307200D01*
X310700Y107055D01*
Y87700D02*
Y107055D01*
X307200Y84200D02*
X310700Y87700D01*
X279900Y84200D02*
X307200D01*
X259600Y63900D02*
X279900Y84200D01*
X251300Y63900D02*
X259600D01*
X250600Y64600D02*
X251300Y63900D01*
X190100Y64600D02*
X250600D01*
X186400Y60900D02*
X190100Y64600D01*
X165100Y60900D02*
X186400D01*
X159572Y55372D02*
X165100Y60900D01*
X154413Y55372D02*
X159572D01*
X140100Y69685D02*
X154413Y55372D01*
X130709Y69685D02*
X140100D01*
X157600Y50700D02*
X159200Y52300D01*
X231953Y55060D02*
X238940D01*
X240850Y53150D01*
X193740Y186614D02*
X198026Y190900D01*
X206700D01*
X208800Y188800D01*
Y148772D02*
Y188800D01*
Y148772D02*
X219900Y137672D01*
X241019D01*
X244291Y134400D01*
X203740Y142132D02*
Y186614D01*
Y142132D02*
X212427Y133445D01*
X226417D01*
X237469Y122394D01*
X244291D01*
X213000Y129900D02*
X224700D01*
X201300Y141600D02*
X213000Y129900D01*
X201300Y141600D02*
Y166200D01*
X189500Y178000D02*
X201300Y166200D01*
X189500Y178000D02*
Y191300D01*
X188500Y192300D02*
X189500Y191300D01*
X149426Y192300D02*
X188500D01*
X212000Y138700D02*
X214428Y136272D01*
X228228D01*
X238600Y125900D01*
X248310D01*
X249410Y124800D01*
X297700Y54000D02*
X298944Y52756D01*
X312598D01*
X102141Y27559D02*
X133740D01*
X308662Y47638D02*
X312598D01*
X307700Y48600D02*
X308662Y47638D01*
X128600Y141339D02*
X130315D01*
X127200Y145000D02*
X128600Y143600D01*
X155216Y165650D02*
X162266Y158600D01*
X167200D01*
X178700Y147100D01*
Y143900D02*
Y147100D01*
X121260Y69685D02*
X124800D01*
X127000Y71885D01*
Y95800D01*
X134800Y103600D01*
X188800D01*
X192600Y99800D01*
Y92800D02*
Y99800D01*
Y92800D02*
X195000Y90400D01*
X198200D01*
X226035Y118235D01*
X243133D01*
X243368Y118000D01*
X248210D01*
X249410Y116800D01*
Y114291D02*
Y116800D01*
X217600Y142600D02*
X222100D01*
X210200Y150000D02*
X217600Y142600D01*
X210200Y150000D02*
Y161700D01*
X211200Y162700D01*
X214300D01*
X215528Y161472D01*
X278072D01*
X281600Y165000D01*
Y167000D01*
X312620Y170100D02*
X331890Y189370D01*
X280000Y170100D02*
X312620D01*
X278400Y168500D02*
X280000Y170100D01*
X278400Y164400D02*
Y168500D01*
X276872Y162872D02*
X278400Y164400D01*
X247482Y162872D02*
X276872D01*
X223740Y186614D02*
X247482Y162872D01*
X306544Y117544D02*
X324300Y135300D01*
X338400D01*
X340700Y137600D01*
Y154600D01*
X332700D02*
X340700D01*
X328900Y158400D02*
X332700Y154600D01*
X244200Y158400D02*
X328900D01*
X244291Y114291D02*
Y115800D01*
X249410Y130290D02*
Y130496D01*
Y130290D02*
X252300Y127400D01*
X284646Y76854D02*
X287700Y73800D01*
X309198D01*
X312598Y70400D01*
Y52756D02*
Y70400D01*
X260397Y73497D02*
X267200Y80300D01*
X226875Y73497D02*
X260397D01*
X219072Y81300D02*
X226875Y73497D01*
X145400Y81300D02*
X219072D01*
X244291Y119428D02*
Y122394D01*
Y119428D02*
X252200D01*
Y123200D01*
X256600Y127600D01*
Y147600D01*
X256800Y147800D01*
X275400D01*
X277067Y146133D01*
X280118Y33071D02*
Y43782D01*
X279100Y44800D02*
X280118Y43782D01*
X130709Y65945D02*
X136614D01*
X286398Y25000D02*
X290698Y20700D01*
X310600D01*
X281100Y78300D02*
X284646D01*
X271654Y90157D02*
X285800D01*
X167600Y136600D02*
Y154000D01*
X164710Y156890D02*
X167600Y154000D01*
X130315Y132283D02*
X150723D01*
X160039Y141600D01*
X136200Y116500D02*
Y123228D01*
Y116500D02*
X139900Y112800D01*
X289764Y81102D02*
X309798D01*
X315700Y75200D01*
Y47638D02*
Y75200D01*
X312598Y47638D02*
X315700D01*
X101870Y59350D02*
X101900D01*
X101400Y62900D02*
X101900Y62400D01*
X86100Y62900D02*
X101400D01*
X86100Y48400D02*
Y62900D01*
Y48400D02*
X89600Y44900D01*
X122400D01*
X128100Y50600D01*
X140339D01*
X141339Y49600D01*
Y47638D02*
Y49600D01*
X286519Y85928D02*
X302559Y101968D01*
X254500Y89984D02*
X258556Y85928D01*
X249410Y89984D02*
X254500D01*
X273394Y96894D02*
X275600Y99100D01*
Y105600D01*
X273700Y107500D02*
X275600Y105600D01*
X266536Y107500D02*
X273700D01*
X266536D02*
Y110555D01*
X117600Y63005D02*
X118400Y62205D01*
X117600Y63005D02*
Y126300D01*
X123583Y132283D01*
X130315D01*
X225346Y140100D02*
X236246Y151000D01*
X326165D01*
X336614Y140551D01*
X219466Y145087D02*
X220382D01*
X227796Y152500D01*
X271972D01*
X272500Y153028D01*
X334137D01*
X336614Y150551D01*
X244291Y86400D02*
Y89984D01*
Y86400D02*
X248491Y82200D01*
X259500D01*
X205933Y79500D02*
X209547Y75886D01*
X150169Y79500D02*
X205933D01*
X146555Y75886D02*
X150169Y79500D01*
X281798Y29600D02*
X286398Y25000D01*
X275800Y29600D02*
X281798D01*
X275000Y30400D02*
X275800Y29600D01*
X275000Y30400D02*
Y33071D01*
X131102Y160630D02*
X150197D01*
X155216Y165650D01*
X280118Y33071D02*
X288327D01*
X296398Y25000D01*
X88583Y146063D02*
X109337D01*
X118600Y136800D01*
X136118D01*
X140118Y140800D01*
Y156890D01*
X323000Y25591D02*
X331890D01*
X306398Y25000D02*
X323000D01*
X107087Y132283D02*
X123583D01*
X121260Y62205D02*
X130709D01*
X266536Y110555D02*
Y117544D01*
Y124236D01*
X296398Y25000D02*
X306398D01*
X134252Y42520D02*
X141339D01*
X131102Y151287D02*
Y160630D01*
X130315Y150500D02*
X131102Y151287D01*
X130315Y141339D02*
Y150500D01*
X271654Y117544D02*
Y124236D01*
D73*
X66929Y162598D02*
X90945Y186614D01*
X133740D01*
D74*
X186713Y165650D02*
D03*
X178839D02*
D03*
X170965D02*
D03*
X163091D02*
D03*
X155216D02*
D03*
X146555Y75886D02*
D03*
X154429D02*
D03*
X162303D02*
D03*
X170177D02*
D03*
X178051D02*
D03*
X185925D02*
D03*
X193799D02*
D03*
X201673D02*
D03*
X209547D02*
D03*
X217421D02*
D03*
D75*
X203740Y27559D02*
D03*
X193740D02*
D03*
X173740D02*
D03*
X153740D02*
D03*
X143740D02*
D03*
X163740D02*
D03*
X183740D02*
D03*
X213740D02*
D03*
X223740D02*
D03*
X286398Y25000D02*
D03*
X266398D02*
D03*
X276398D02*
D03*
X296398D02*
D03*
X306398D02*
D03*
X223740Y186614D02*
D03*
X213740D02*
D03*
X183740D02*
D03*
X163740D02*
D03*
X143740D02*
D03*
X153740D02*
D03*
X173740D02*
D03*
X193740D02*
D03*
X203740D02*
D03*
D76*
X133740Y27559D02*
D03*
X256398Y25000D02*
D03*
X133740Y186614D02*
D03*
D77*
X302559Y101968D02*
D03*
Y139567D02*
D03*
X264961D02*
D03*
D78*
X331890Y189370D02*
D03*
Y25591D02*
D03*
X25591Y189370D02*
D03*
Y25591D02*
D03*
D79*
X88583Y162598D02*
D03*
Y146063D02*
D03*
X66929Y162598D02*
D03*
Y146063D02*
D03*
D80*
X336614Y150551D02*
D03*
D81*
Y140551D02*
D03*
Y130551D02*
D03*
D82*
X156838Y44438D02*
D03*
X205807Y35100D02*
D03*
X152000Y69700D02*
D03*
X197300Y93050D02*
D03*
X187900Y138800D02*
D03*
Y146551D02*
D03*
X130600Y42000D02*
D03*
X136614Y65945D02*
D03*
X247400Y176800D02*
D03*
X253800Y102800D02*
D03*
X213740Y159160D02*
D03*
X316100Y155800D02*
D03*
X238600Y110500D02*
D03*
X195700Y22300D02*
D03*
X209300Y21959D02*
D03*
X298200Y30300D02*
D03*
X277900Y59800D02*
D03*
X147300Y51600D02*
D03*
X224900Y21700D02*
D03*
X234300Y52600D02*
D03*
X274300Y58700D02*
D03*
X282164Y17736D02*
D03*
X262000Y98000D02*
D03*
Y62100D02*
D03*
X191275D02*
D03*
X290847Y67203D02*
D03*
X208500Y111900D02*
D03*
X200299Y138801D02*
D03*
X205700Y108700D02*
D03*
X195100Y167259D02*
D03*
X205100Y197800D02*
D03*
X282900Y194600D02*
D03*
X241000Y194800D02*
D03*
X178800D02*
D03*
X175200Y158388D02*
D03*
X181200Y113700D02*
D03*
X179200Y159300D02*
D03*
X189823Y125077D02*
D03*
X205807Y72200D02*
D03*
X149100Y93300D02*
D03*
X173300Y86200D02*
D03*
X229000Y78600D02*
D03*
X181255Y65455D02*
D03*
X257900Y66400D02*
D03*
X178100Y63700D02*
D03*
X255039Y180300D02*
D03*
X254700Y165300D02*
D03*
X251100Y76000D02*
D03*
X178200Y93300D02*
D03*
X269400Y83500D02*
D03*
X213400Y88500D02*
D03*
X158182Y39428D02*
D03*
X280328Y52977D02*
D03*
X157600Y50700D02*
D03*
X279644Y64775D02*
D03*
X187900Y100900D02*
D03*
X262500Y120300D02*
D03*
X275900Y166100D02*
D03*
X258900Y31700D02*
D03*
X295946Y62900D02*
D03*
X295100Y57600D02*
D03*
X281600Y172600D02*
D03*
X186300Y57700D02*
D03*
X247200Y60600D02*
D03*
X247700Y144200D02*
D03*
X246600Y134900D02*
D03*
X198300Y34000D02*
D03*
X158100Y57800D02*
D03*
X240850Y53150D02*
D03*
X224700Y129900D02*
D03*
X212000Y138700D02*
D03*
X297700Y54000D02*
D03*
X102141Y27559D02*
D03*
X307700Y48600D02*
D03*
X127200Y145000D02*
D03*
X178700Y143900D02*
D03*
X222100Y142600D02*
D03*
X281600Y167000D02*
D03*
X244200Y158400D02*
D03*
X240900Y115800D02*
D03*
X252300Y127400D02*
D03*
X139900Y123228D02*
D03*
X267200Y80300D02*
D03*
X145400Y81300D02*
D03*
X277067Y146133D02*
D03*
X279100Y44800D02*
D03*
X310600Y20700D02*
D03*
X281100Y78300D02*
D03*
X285800Y90157D02*
D03*
X279500Y96894D02*
D03*
X167600Y136600D02*
D03*
X160039Y141600D02*
D03*
X149500Y156890D02*
D03*
X139900Y112800D02*
D03*
X225346Y140100D02*
D03*
X219466Y145087D02*
D03*
X259500Y82200D02*
D03*
D83*
X130315Y141339D02*
D03*
Y132283D02*
D03*
Y123228D02*
D03*
D84*
X107087Y132283D02*
D03*
D85*
X121260Y69685D02*
D03*
Y62205D02*
D03*
X130709D02*
D03*
Y65945D02*
D03*
Y69685D02*
D03*
D86*
X131102Y160630D02*
D03*
X140118Y156890D02*
D03*
Y164370D02*
D03*
D87*
X244291Y89984D02*
D03*
X249410D02*
D03*
X244291Y98087D02*
D03*
X249410D02*
D03*
X244291Y106189D02*
D03*
X249410D02*
D03*
X244291Y114291D02*
D03*
X249410D02*
D03*
X244291Y122394D02*
D03*
X249410D02*
D03*
X244291Y130496D02*
D03*
X249410D02*
D03*
D88*
X266536Y90157D02*
D03*
X271654D02*
D03*
X266536Y96894D02*
D03*
X271654D02*
D03*
X266536Y103631D02*
D03*
X271654D02*
D03*
X266536Y110555D02*
D03*
X271654D02*
D03*
X271654Y117544D02*
D03*
X266536D02*
D03*
Y124236D02*
D03*
X271654D02*
D03*
X280118Y33071D02*
D03*
X275000D02*
D03*
X284646Y81102D02*
D03*
X289764D02*
D03*
D89*
X141339Y42520D02*
D03*
Y47638D02*
D03*
X134252Y42520D02*
D03*
Y47638D02*
D03*
X312598Y52756D02*
D03*
Y47638D02*
D03*
D90*
X101870Y59350D02*
D03*
X88970D02*
D03*
M02*
