G04*
G04 #@! TF.GenerationSoftware,Altium Limited,Altium Designer,20.0.13 (296)*
G04*
G04 Layer_Color=65535*
%FSLAX25Y25*%
%MOIN*%
G70*
G01*
G75*
%ADD10C,0.00984*%
%ADD11C,0.00394*%
%ADD12C,0.00787*%
%ADD13C,0.01000*%
%ADD14C,0.02362*%
%ADD15C,0.00591*%
%ADD16C,0.00600*%
%ADD17C,0.00630*%
%ADD18R,0.07087X0.02000*%
G36*
X337667Y70580D02*
X337615D01*
Y70529D01*
X337564D01*
Y70477D01*
X337513D01*
Y70426D01*
X337411D01*
Y70375D01*
X337360D01*
Y70324D01*
X337309D01*
Y70273D01*
X337258D01*
Y70222D01*
X337156D01*
Y70171D01*
X337105D01*
Y70120D01*
X337054D01*
Y70069D01*
X336951D01*
Y70018D01*
X336900D01*
Y69967D01*
X336849D01*
Y69916D01*
X336798D01*
Y69865D01*
X336696D01*
Y69814D01*
X336645D01*
Y69660D01*
X336696D01*
Y69609D01*
X336798D01*
Y69558D01*
X336849D01*
Y69507D01*
X336951D01*
Y69456D01*
X337003D01*
Y69405D01*
X337105D01*
Y69354D01*
X337156D01*
Y69303D01*
X337207D01*
Y69252D01*
X337309D01*
Y69201D01*
X337360D01*
Y69150D01*
X337462D01*
Y69099D01*
X337513D01*
Y69047D01*
X337564D01*
Y68996D01*
X337667D01*
Y68179D01*
X337615D01*
Y68230D01*
X337564D01*
Y68281D01*
X337462D01*
Y68332D01*
X337411D01*
Y68384D01*
X337360D01*
Y68435D01*
X337258D01*
Y68486D01*
X337207D01*
Y68537D01*
X337156D01*
Y68588D01*
X337054D01*
Y68639D01*
X337003D01*
Y68690D01*
X336951D01*
Y68741D01*
X336849D01*
Y68792D01*
X336798D01*
Y68843D01*
X336747D01*
Y68894D01*
X336645D01*
Y68945D01*
X336594D01*
Y68996D01*
X336543D01*
Y69047D01*
X336441D01*
Y69099D01*
X336390D01*
Y69150D01*
X336339D01*
Y69201D01*
X336237D01*
Y69252D01*
X336185D01*
Y69303D01*
X336134D01*
Y69354D01*
X335981D01*
Y69303D01*
X335879D01*
Y69252D01*
X335828D01*
Y69201D01*
X335726D01*
Y69099D01*
X335624D01*
Y69047D01*
X335573D01*
Y68996D01*
X335470D01*
Y68945D01*
X335419D01*
Y68894D01*
X335368D01*
Y68843D01*
X335266D01*
Y68792D01*
X335215D01*
Y68741D01*
X335113D01*
Y68690D01*
X335062D01*
Y68639D01*
X334960D01*
Y68588D01*
X334909D01*
Y68537D01*
X334858D01*
Y68486D01*
X334755D01*
Y68435D01*
X334704D01*
Y68384D01*
X334653D01*
Y68332D01*
X334551D01*
Y68281D01*
X334500D01*
Y69047D01*
X334551D01*
Y69099D01*
X334653D01*
Y69150D01*
X334704D01*
Y69201D01*
X334755D01*
Y69252D01*
X334858D01*
Y69303D01*
X334909D01*
Y69354D01*
X334960D01*
Y69405D01*
X335062D01*
Y69456D01*
X335164D01*
Y69507D01*
X335215D01*
Y69558D01*
X335317D01*
Y69609D01*
X335368D01*
Y69660D01*
X335470D01*
Y69814D01*
X335419D01*
Y69865D01*
X335317D01*
Y69916D01*
X335266D01*
Y69967D01*
X335215D01*
Y70018D01*
X335113D01*
Y70069D01*
X335062D01*
Y70120D01*
X335011D01*
Y70171D01*
X334909D01*
Y70222D01*
X334858D01*
Y70273D01*
X334806D01*
Y70324D01*
X334704D01*
Y70375D01*
X334653D01*
Y70426D01*
X334602D01*
Y70477D01*
X334551D01*
Y70529D01*
X334500D01*
Y71295D01*
X334551D01*
Y71244D01*
X334602D01*
Y71192D01*
X334653D01*
Y71141D01*
X334704D01*
Y71090D01*
X334806D01*
Y71039D01*
X334858D01*
Y70988D01*
X334909D01*
Y70937D01*
X335011D01*
Y70886D01*
X335062D01*
Y70835D01*
X335113D01*
Y70784D01*
X335164D01*
Y70733D01*
X335266D01*
Y70682D01*
X335317D01*
Y70631D01*
X335368D01*
Y70580D01*
X335419D01*
Y70529D01*
X335522D01*
Y70477D01*
X335573D01*
Y70426D01*
X335624D01*
Y70375D01*
X335726D01*
Y70324D01*
X335777D01*
Y70273D01*
X335828D01*
Y70222D01*
X335879D01*
Y70171D01*
X335981D01*
Y70069D01*
X336083D01*
Y70120D01*
X336134D01*
Y70171D01*
X336185D01*
Y70222D01*
X336237D01*
Y70273D01*
X336339D01*
Y70324D01*
X336390D01*
Y70375D01*
X336441D01*
Y70426D01*
X336492D01*
Y70477D01*
X336543D01*
Y70529D01*
X336645D01*
Y70580D01*
X336696D01*
Y70631D01*
X336747D01*
Y70682D01*
X336798D01*
Y70733D01*
X336900D01*
Y70784D01*
X336951D01*
Y70835D01*
X337003D01*
Y70886D01*
X337054D01*
Y70937D01*
X337105D01*
Y70988D01*
X337207D01*
Y71039D01*
X337258D01*
Y71090D01*
X337309D01*
Y71141D01*
X337360D01*
Y71192D01*
X337462D01*
Y71244D01*
X337513D01*
Y71295D01*
X337564D01*
Y71346D01*
X337615D01*
Y71397D01*
X337667D01*
Y70580D01*
D02*
G37*
G36*
X325256Y67005D02*
X325767D01*
Y66954D01*
X326073D01*
Y66903D01*
X326329D01*
Y66851D01*
X326584D01*
Y66800D01*
X326788D01*
Y66749D01*
X326942D01*
Y66698D01*
X327095D01*
Y66647D01*
X327248D01*
Y66596D01*
X327401D01*
Y66545D01*
X327503D01*
Y66494D01*
X327657D01*
Y66443D01*
X327810D01*
Y66392D01*
X327912D01*
Y66341D01*
X328014D01*
Y66290D01*
X328116D01*
Y66239D01*
X328218D01*
Y66188D01*
X328321D01*
Y66136D01*
X328372D01*
Y66085D01*
X328525D01*
Y66034D01*
X328576D01*
Y65983D01*
X328627D01*
Y65932D01*
X328729D01*
Y65881D01*
X328831D01*
Y65830D01*
X328882D01*
Y65779D01*
X328984D01*
Y65728D01*
X329035D01*
Y65677D01*
X329138D01*
Y65626D01*
X329189D01*
Y65575D01*
X329240D01*
Y65524D01*
X329342D01*
Y65473D01*
X329393D01*
Y65421D01*
X329444D01*
Y65370D01*
X329495D01*
Y65319D01*
X329546D01*
Y65268D01*
X329648D01*
Y65217D01*
X329699D01*
Y65166D01*
X329750D01*
Y65115D01*
X329802D01*
Y65064D01*
X329853D01*
Y65013D01*
X329904D01*
Y64962D01*
X329955D01*
Y64911D01*
X330006D01*
Y64860D01*
X330057D01*
Y64809D01*
X330108D01*
Y64758D01*
X330159D01*
Y64706D01*
X330210D01*
Y64655D01*
X330261D01*
Y64604D01*
X330312D01*
Y64553D01*
X330363D01*
Y64451D01*
X330414D01*
Y64400D01*
X330466D01*
Y64349D01*
X330517D01*
Y64298D01*
X330568D01*
Y64196D01*
X330619D01*
Y64145D01*
X330670D01*
Y64094D01*
X330721D01*
Y63991D01*
X330772D01*
Y63940D01*
X330823D01*
Y63838D01*
X330874D01*
Y63787D01*
X330925D01*
Y63685D01*
X330976D01*
Y63634D01*
X331027D01*
Y63532D01*
X331078D01*
Y63481D01*
X331129D01*
Y63379D01*
X331181D01*
Y63276D01*
X331232D01*
Y63174D01*
X331283D01*
Y63072D01*
X331334D01*
Y62970D01*
X331385D01*
Y62868D01*
X331436D01*
Y62766D01*
X331487D01*
Y62664D01*
X331538D01*
Y62510D01*
X331589D01*
Y62408D01*
X331640D01*
Y62255D01*
X331691D01*
Y62102D01*
X331742D01*
Y61949D01*
X331793D01*
Y61795D01*
X331844D01*
Y61591D01*
X331895D01*
Y61336D01*
X331947D01*
Y61080D01*
X331998D01*
Y60774D01*
X332049D01*
Y60263D01*
X332100D01*
Y59395D01*
X332049D01*
Y58884D01*
X331998D01*
Y58578D01*
X331947D01*
Y58323D01*
X331895D01*
Y58067D01*
X331844D01*
Y57863D01*
X331793D01*
Y57710D01*
X331742D01*
Y57557D01*
X331691D01*
Y57403D01*
X331640D01*
Y57250D01*
X331589D01*
Y57148D01*
X331538D01*
Y56995D01*
X331487D01*
Y56893D01*
X331436D01*
Y56791D01*
X331385D01*
Y56688D01*
X331334D01*
Y56586D01*
X331283D01*
Y56484D01*
X331232D01*
Y56382D01*
X331181D01*
Y56280D01*
X331129D01*
Y56178D01*
X331078D01*
Y56127D01*
X331027D01*
Y56024D01*
X330976D01*
Y55922D01*
X330925D01*
Y55871D01*
X330874D01*
Y55820D01*
X330823D01*
Y55718D01*
X330772D01*
Y55667D01*
X330721D01*
Y55565D01*
X330670D01*
Y55514D01*
X330619D01*
Y55463D01*
X330568D01*
Y55361D01*
X330517D01*
Y55309D01*
X330466D01*
Y55258D01*
X330414D01*
Y55207D01*
X330363D01*
Y55105D01*
X330312D01*
Y55054D01*
X330261D01*
Y55003D01*
X330210D01*
Y54952D01*
X330159D01*
Y54901D01*
X330108D01*
Y54850D01*
X330057D01*
Y54799D01*
X330006D01*
Y54748D01*
X329955D01*
Y54697D01*
X329904D01*
Y54646D01*
X329853D01*
Y54594D01*
X329802D01*
Y54543D01*
X329750D01*
Y54492D01*
X329699D01*
Y54441D01*
X329648D01*
Y54390D01*
X329546D01*
Y54339D01*
X329495D01*
Y54288D01*
X329444D01*
Y54237D01*
X329393D01*
Y54186D01*
X329342D01*
Y54135D01*
X329240D01*
Y54084D01*
X329189D01*
Y54033D01*
X329138D01*
Y53982D01*
X329035D01*
Y53930D01*
X328984D01*
Y53879D01*
X328882D01*
Y53828D01*
X328831D01*
Y53777D01*
X328729D01*
Y53726D01*
X328627D01*
Y53675D01*
X328576D01*
Y53624D01*
X328525D01*
Y53573D01*
X328423D01*
Y53522D01*
X328321D01*
Y53471D01*
X328218D01*
Y53420D01*
X328116D01*
Y53369D01*
X328014D01*
Y53318D01*
X327912D01*
Y53267D01*
X327810D01*
Y53215D01*
X327657D01*
Y53164D01*
X327503D01*
Y53113D01*
X327401D01*
Y53062D01*
X327248D01*
Y53011D01*
X327095D01*
Y52960D01*
X326942D01*
Y52909D01*
X326788D01*
Y52858D01*
X326584D01*
Y52807D01*
X326329D01*
Y52756D01*
X326073D01*
Y52705D01*
X325767D01*
Y52654D01*
X325256D01*
Y52603D01*
X324490D01*
Y52654D01*
X323979D01*
Y52705D01*
X323622D01*
Y52756D01*
X323418D01*
Y52807D01*
X323162D01*
Y52858D01*
X322958D01*
Y52909D01*
X322805D01*
Y52960D01*
X322652D01*
Y53011D01*
X322498D01*
Y53062D01*
X322345D01*
Y53113D01*
X322243D01*
Y53164D01*
X322090D01*
Y53215D01*
X321937D01*
Y53267D01*
X321835D01*
Y53318D01*
X321732D01*
Y53369D01*
X321630D01*
Y53420D01*
X321528D01*
Y53471D01*
X321426D01*
Y53522D01*
X321324D01*
Y53573D01*
X321222D01*
Y53624D01*
X321171D01*
Y53675D01*
X321069D01*
Y53726D01*
X321017D01*
Y53777D01*
X320915D01*
Y53828D01*
X320864D01*
Y53879D01*
X320762D01*
Y53930D01*
X320711D01*
Y53982D01*
X320609D01*
Y54033D01*
X320558D01*
Y54084D01*
X320456D01*
Y54135D01*
X320405D01*
Y54186D01*
X320354D01*
Y54237D01*
X320302D01*
Y54288D01*
X320251D01*
Y54339D01*
X320200D01*
Y54390D01*
X320098D01*
Y54441D01*
X320047D01*
Y54492D01*
X319996D01*
Y54543D01*
X319945D01*
Y54594D01*
X319894D01*
Y54646D01*
X319843D01*
Y54697D01*
X319792D01*
Y54748D01*
X319741D01*
Y54799D01*
X319690D01*
Y54850D01*
X319638D01*
Y54901D01*
X319587D01*
Y54952D01*
X319536D01*
Y55003D01*
X319485D01*
Y55054D01*
X319434D01*
Y55105D01*
X319383D01*
Y55207D01*
X319332D01*
Y55258D01*
X319281D01*
Y55309D01*
X319230D01*
Y55361D01*
X319179D01*
Y55463D01*
X319128D01*
Y55514D01*
X319077D01*
Y55565D01*
X319026D01*
Y55616D01*
X318975D01*
Y55718D01*
X318923D01*
Y55769D01*
X318872D01*
Y55871D01*
X318821D01*
Y55922D01*
X318770D01*
Y56024D01*
X318719D01*
Y56076D01*
X318668D01*
Y56178D01*
X318617D01*
Y56280D01*
X318566D01*
Y56382D01*
X318515D01*
Y56484D01*
X318464D01*
Y56586D01*
X318413D01*
Y56688D01*
X318362D01*
Y56791D01*
X318311D01*
Y56893D01*
X318260D01*
Y56995D01*
X318209D01*
Y57148D01*
X318158D01*
Y57250D01*
X318106D01*
Y57403D01*
X318055D01*
Y57506D01*
X318004D01*
Y57659D01*
X317953D01*
Y57863D01*
X317902D01*
Y58067D01*
X317851D01*
Y58323D01*
X317800D01*
Y58578D01*
X317749D01*
Y58884D01*
X317698D01*
Y59395D01*
X317647D01*
Y60263D01*
X317698D01*
Y60774D01*
X317749D01*
Y61080D01*
X317800D01*
Y61336D01*
X317851D01*
Y61591D01*
X317902D01*
Y61795D01*
X317953D01*
Y62000D01*
X318004D01*
Y62102D01*
X318055D01*
Y62255D01*
X318106D01*
Y62408D01*
X318158D01*
Y62510D01*
X318209D01*
Y62664D01*
X318260D01*
Y62766D01*
X318311D01*
Y62868D01*
X318362D01*
Y62970D01*
X318413D01*
Y63072D01*
X318464D01*
Y63174D01*
X318515D01*
Y63276D01*
X318566D01*
Y63379D01*
X318617D01*
Y63481D01*
X318668D01*
Y63532D01*
X318719D01*
Y63634D01*
X318770D01*
Y63736D01*
X318821D01*
Y63787D01*
X318872D01*
Y63838D01*
X318923D01*
Y63940D01*
X318975D01*
Y63991D01*
X319026D01*
Y64094D01*
X319077D01*
Y64145D01*
X319128D01*
Y64196D01*
X319179D01*
Y64298D01*
X319230D01*
Y64349D01*
X319281D01*
Y64400D01*
X319332D01*
Y64451D01*
X319383D01*
Y64553D01*
X319434D01*
Y64604D01*
X319485D01*
Y64655D01*
X319536D01*
Y64706D01*
X319587D01*
Y64758D01*
X319638D01*
Y64809D01*
X319690D01*
Y64860D01*
X319741D01*
Y64911D01*
X319792D01*
Y64962D01*
X319843D01*
Y65013D01*
X319894D01*
Y65064D01*
X319945D01*
Y65115D01*
X319996D01*
Y65166D01*
X320047D01*
Y65217D01*
X320098D01*
Y65268D01*
X320200D01*
Y65319D01*
X320251D01*
Y65370D01*
X320302D01*
Y65421D01*
X320354D01*
Y65473D01*
X320405D01*
Y65524D01*
X320507D01*
Y65575D01*
X320558D01*
Y65626D01*
X320609D01*
Y65677D01*
X320711D01*
Y65728D01*
X320762D01*
Y65779D01*
X320864D01*
Y65830D01*
X320915D01*
Y65881D01*
X321017D01*
Y65932D01*
X321120D01*
Y65983D01*
X321171D01*
Y66034D01*
X321222D01*
Y66085D01*
X321324D01*
Y66136D01*
X321426D01*
Y66188D01*
X321528D01*
Y66239D01*
X321630D01*
Y66290D01*
X321732D01*
Y66341D01*
X321835D01*
Y66392D01*
X321937D01*
Y66443D01*
X322090D01*
Y66494D01*
X322243D01*
Y66545D01*
X322345D01*
Y66596D01*
X322498D01*
Y66647D01*
X322652D01*
Y66698D01*
X322805D01*
Y66749D01*
X322958D01*
Y66800D01*
X323162D01*
Y66851D01*
X323418D01*
Y66903D01*
X323622D01*
Y66954D01*
X323979D01*
Y67005D01*
X324490D01*
Y67056D01*
X324541D01*
Y67005D01*
X325205D01*
Y67056D01*
X325256D01*
Y67005D01*
D02*
G37*
G36*
X333683Y66749D02*
X333836D01*
Y66698D01*
X333938D01*
Y66647D01*
X333989D01*
Y66545D01*
X334040D01*
Y66188D01*
X333989D01*
Y66136D01*
X333938D01*
Y66085D01*
X333887D01*
Y66034D01*
X333836D01*
Y65983D01*
X333479D01*
Y66034D01*
X333377D01*
Y66085D01*
X333326D01*
Y66188D01*
X333274D01*
Y66545D01*
X333326D01*
Y66647D01*
X333377D01*
Y66698D01*
X333479D01*
Y66749D01*
X333632D01*
Y66800D01*
X333683D01*
Y66749D01*
D02*
G37*
G36*
X337667Y66034D02*
X335062D01*
Y65626D01*
X334500D01*
Y66698D01*
X337667D01*
Y66034D01*
D02*
G37*
G36*
X337615Y64247D02*
X337667D01*
Y63991D01*
X337718D01*
Y63379D01*
X337667D01*
Y63174D01*
X337615D01*
Y63072D01*
X337564D01*
Y62970D01*
X337513D01*
Y62919D01*
X337462D01*
Y62868D01*
X337411D01*
Y62817D01*
X337360D01*
Y62766D01*
X337207D01*
Y62715D01*
X337156D01*
Y62664D01*
X336849D01*
Y62613D01*
X335062D01*
Y62255D01*
X334500D01*
Y62613D01*
X333836D01*
Y62664D01*
X333785D01*
Y62817D01*
X333734D01*
Y62970D01*
X333683D01*
Y63123D01*
X333632D01*
Y63276D01*
X333581D01*
Y63327D01*
X333683D01*
Y63276D01*
X334449D01*
Y63327D01*
X334500D01*
Y64196D01*
X335062D01*
Y63276D01*
X336645D01*
Y63327D01*
X336849D01*
Y63379D01*
X336951D01*
Y63430D01*
X337054D01*
Y63532D01*
X337105D01*
Y63634D01*
X337156D01*
Y64043D01*
X337105D01*
Y64196D01*
X337054D01*
Y64298D01*
X337615D01*
Y64247D01*
D02*
G37*
G36*
X336339Y60876D02*
X336645D01*
Y60825D01*
X336798D01*
Y60774D01*
X336951D01*
Y60723D01*
X337003D01*
Y60672D01*
X337105D01*
Y60621D01*
X337207D01*
Y60570D01*
X337258D01*
Y60519D01*
X337309D01*
Y60468D01*
X337360D01*
Y60417D01*
X337411D01*
Y60314D01*
X337462D01*
Y60263D01*
X337513D01*
Y60161D01*
X337564D01*
Y60059D01*
X337615D01*
Y59906D01*
X337667D01*
Y59650D01*
X337718D01*
Y59089D01*
X337667D01*
Y58884D01*
X337615D01*
Y58731D01*
X337564D01*
Y58680D01*
X338943D01*
Y57965D01*
X334500D01*
Y58680D01*
X334653D01*
Y58629D01*
X334704D01*
Y58782D01*
X334653D01*
Y58833D01*
X334602D01*
Y58884D01*
X334551D01*
Y58987D01*
X334500D01*
Y59140D01*
X334449D01*
Y59804D01*
X334500D01*
Y60008D01*
X334551D01*
Y60110D01*
X334602D01*
Y60212D01*
X334653D01*
Y60314D01*
X334704D01*
Y60365D01*
X334755D01*
Y60468D01*
X334806D01*
Y60519D01*
X334858D01*
Y60570D01*
X334960D01*
Y60621D01*
X335011D01*
Y60672D01*
X335113D01*
Y60723D01*
X335215D01*
Y60774D01*
X335368D01*
Y60825D01*
X335522D01*
Y60876D01*
X335828D01*
Y60927D01*
X336339D01*
Y60876D01*
D02*
G37*
G36*
X337564Y56484D02*
X337615D01*
Y56433D01*
X337667D01*
Y56280D01*
X337718D01*
Y55973D01*
X337667D01*
Y55922D01*
X337615D01*
Y55820D01*
X337564D01*
Y55769D01*
X337462D01*
Y55718D01*
X337360D01*
Y55616D01*
X337411D01*
Y55565D01*
X337462D01*
Y55514D01*
X337513D01*
Y55412D01*
X337564D01*
Y55361D01*
X337615D01*
Y55207D01*
X337667D01*
Y55003D01*
X337718D01*
Y54492D01*
X337667D01*
Y54288D01*
X337615D01*
Y54186D01*
X337564D01*
Y54084D01*
X337513D01*
Y53982D01*
X337462D01*
Y53930D01*
X337411D01*
Y53879D01*
X337360D01*
Y53828D01*
X337258D01*
Y53777D01*
X337105D01*
Y53726D01*
X336900D01*
Y53675D01*
X336594D01*
Y53726D01*
X336390D01*
Y53777D01*
X336237D01*
Y53828D01*
X336134D01*
Y53879D01*
X336083D01*
Y53930D01*
X336032D01*
Y53982D01*
X335981D01*
Y54033D01*
X335930D01*
Y54084D01*
X335879D01*
Y54186D01*
X335828D01*
Y54237D01*
X335777D01*
Y54390D01*
X335726D01*
Y54543D01*
X335675D01*
Y54748D01*
X335624D01*
Y55616D01*
X335419D01*
Y55565D01*
X335317D01*
Y55514D01*
X335215D01*
Y55463D01*
X335164D01*
Y55412D01*
X335113D01*
Y55309D01*
X335062D01*
Y55156D01*
X335011D01*
Y54492D01*
X335062D01*
Y54288D01*
X335113D01*
Y54135D01*
X334909D01*
Y54084D01*
X334755D01*
Y54033D01*
X334602D01*
Y54135D01*
X334551D01*
Y54288D01*
X334500D01*
Y54492D01*
X334449D01*
Y55361D01*
X334500D01*
Y55514D01*
X334551D01*
Y55667D01*
X334602D01*
Y55769D01*
X334653D01*
Y55871D01*
X334704D01*
Y55922D01*
X334755D01*
Y55973D01*
X334806D01*
Y56024D01*
X334858D01*
Y56076D01*
X334960D01*
Y56127D01*
X335062D01*
Y56178D01*
X335215D01*
Y56229D01*
X335470D01*
Y56280D01*
X336849D01*
Y56331D01*
X337207D01*
Y56382D01*
X337360D01*
Y56433D01*
X337411D01*
Y56484D01*
X337513D01*
Y56535D01*
X337564D01*
Y56484D01*
D02*
G37*
G36*
X337667Y51479D02*
X335470D01*
Y51428D01*
X335317D01*
Y51377D01*
X335215D01*
Y51326D01*
X335164D01*
Y51275D01*
X335113D01*
Y51224D01*
X335062D01*
Y51122D01*
X335011D01*
Y50662D01*
X335062D01*
Y50560D01*
X335113D01*
Y50458D01*
X335164D01*
Y50407D01*
X335215D01*
Y50356D01*
X335266D01*
Y50305D01*
X337667D01*
Y49589D01*
X335368D01*
Y49538D01*
X335266D01*
Y49487D01*
X335164D01*
Y49436D01*
X335113D01*
Y49334D01*
X335062D01*
Y49232D01*
X335011D01*
Y48823D01*
X335062D01*
Y48721D01*
X335113D01*
Y48619D01*
X335164D01*
Y48568D01*
X335215D01*
Y48517D01*
X335266D01*
Y48466D01*
X335317D01*
Y48415D01*
X337667D01*
Y47751D01*
X334500D01*
Y48211D01*
X334602D01*
Y48262D01*
X334704D01*
Y48313D01*
X334755D01*
Y48415D01*
X334704D01*
Y48466D01*
X334653D01*
Y48568D01*
X334602D01*
Y48619D01*
X334551D01*
Y48721D01*
X334500D01*
Y48875D01*
X334449D01*
Y49538D01*
X334500D01*
Y49692D01*
X334551D01*
Y49845D01*
X334602D01*
Y49947D01*
X334653D01*
Y49998D01*
X334704D01*
Y50049D01*
X334755D01*
Y50202D01*
X334704D01*
Y50305D01*
X334653D01*
Y50356D01*
X334602D01*
Y50458D01*
X334551D01*
Y50611D01*
X334500D01*
Y50764D01*
X334449D01*
Y51326D01*
X334500D01*
Y51530D01*
X334551D01*
Y51632D01*
X334602D01*
Y51735D01*
X334653D01*
Y51786D01*
X334704D01*
Y51837D01*
X334755D01*
Y51888D01*
X334806D01*
Y51939D01*
X334858D01*
Y51990D01*
X335011D01*
Y52041D01*
X335062D01*
Y52092D01*
X335266D01*
Y52143D01*
X337667D01*
Y51479D01*
D02*
G37*
%LPC*%
G36*
X325358Y66290D02*
X324388D01*
Y66239D01*
X324031D01*
Y66188D01*
X323826D01*
Y66136D01*
X323622D01*
Y66085D01*
X323418D01*
Y66034D01*
X323316D01*
Y65983D01*
X323162D01*
Y65932D01*
X323060D01*
Y65881D01*
X322958D01*
Y65830D01*
X322856D01*
Y65779D01*
X322754D01*
Y65728D01*
X322601D01*
Y65677D01*
X322550D01*
Y65626D01*
X322447D01*
Y65575D01*
X322345D01*
Y65524D01*
X322294D01*
Y65473D01*
X322192D01*
Y65370D01*
X322090D01*
Y65319D01*
X321988D01*
Y65217D01*
X321937D01*
Y65166D01*
X321835D01*
Y65115D01*
X321783D01*
Y65064D01*
X321732D01*
Y65013D01*
X321681D01*
Y64962D01*
X321630D01*
Y64911D01*
X321579D01*
Y64860D01*
X321528D01*
Y64809D01*
X321477D01*
Y64758D01*
X321426D01*
Y64706D01*
X321375D01*
Y64604D01*
X321324D01*
Y64553D01*
X321273D01*
Y64502D01*
X321222D01*
Y64451D01*
X321171D01*
Y64349D01*
X321120D01*
Y64298D01*
X321069D01*
Y64196D01*
X321017D01*
Y64145D01*
X320966D01*
Y64094D01*
X320915D01*
Y63991D01*
X320864D01*
Y63889D01*
X320813D01*
Y63787D01*
X320762D01*
Y63685D01*
X320711D01*
Y63583D01*
X320660D01*
Y63481D01*
X320609D01*
Y63327D01*
X320558D01*
Y63225D01*
X320507D01*
Y63072D01*
X320456D01*
Y62868D01*
X320405D01*
Y62664D01*
X320354D01*
Y62306D01*
X320302D01*
Y60978D01*
X320354D01*
Y60621D01*
X320405D01*
Y60417D01*
X320456D01*
Y60263D01*
X320507D01*
Y60110D01*
X320558D01*
Y59957D01*
X320609D01*
Y59855D01*
X320660D01*
Y59702D01*
X320711D01*
Y59599D01*
X320762D01*
Y59497D01*
X320813D01*
Y59395D01*
X320864D01*
Y59344D01*
X320915D01*
Y59242D01*
X320966D01*
Y59191D01*
X321017D01*
Y59089D01*
X321069D01*
Y59038D01*
X321120D01*
Y58935D01*
X321171D01*
Y58884D01*
X321222D01*
Y58833D01*
X321273D01*
Y58731D01*
X321324D01*
Y58680D01*
X321375D01*
Y58629D01*
X321426D01*
Y58578D01*
X321477D01*
Y58527D01*
X321528D01*
Y58476D01*
X321579D01*
Y58425D01*
X321630D01*
Y58374D01*
X321681D01*
Y58323D01*
X321732D01*
Y58272D01*
X321783D01*
Y58220D01*
X321835D01*
Y58169D01*
X321886D01*
Y58118D01*
X321937D01*
Y58067D01*
X321988D01*
Y58016D01*
X322090D01*
Y57914D01*
X322192D01*
Y57863D01*
X322243D01*
Y57812D01*
X322345D01*
Y57761D01*
X322396D01*
Y57710D01*
X322498D01*
Y57659D01*
X322601D01*
Y57608D01*
X322652D01*
Y57557D01*
X322754D01*
Y57506D01*
X322907D01*
Y57454D01*
X323009D01*
Y57403D01*
X323111D01*
Y57352D01*
X323214D01*
Y57301D01*
X323367D01*
Y57250D01*
X323520D01*
Y57199D01*
X323724D01*
Y57148D01*
X323928D01*
Y57097D01*
X324235D01*
Y57046D01*
X325512D01*
Y57097D01*
X325818D01*
Y57148D01*
X326022D01*
Y57199D01*
X326227D01*
Y57250D01*
X326380D01*
Y57301D01*
X326482D01*
Y57352D01*
X326635D01*
Y57403D01*
X326737D01*
Y57454D01*
X326839D01*
Y57506D01*
X326942D01*
Y57557D01*
X327095D01*
Y57608D01*
X327146D01*
Y57659D01*
X327248D01*
Y57710D01*
X327350D01*
Y57761D01*
X327401D01*
Y57812D01*
X327503D01*
Y57863D01*
X327554D01*
Y57914D01*
X327657D01*
Y58016D01*
X327759D01*
Y58067D01*
X327810D01*
Y58118D01*
X327861D01*
Y58169D01*
X327912D01*
Y58220D01*
X327963D01*
Y58272D01*
X328014D01*
Y58323D01*
X328065D01*
Y58374D01*
X328116D01*
Y58425D01*
X328167D01*
Y58476D01*
X328218D01*
Y58527D01*
X328270D01*
Y58578D01*
X328321D01*
Y58629D01*
X328372D01*
Y58680D01*
X328423D01*
Y58731D01*
X328474D01*
Y58833D01*
X328525D01*
Y58884D01*
X328576D01*
Y58935D01*
X328627D01*
Y59038D01*
X328678D01*
Y59089D01*
X328729D01*
Y59191D01*
X328780D01*
Y59242D01*
X328831D01*
Y59344D01*
X328882D01*
Y59395D01*
X328933D01*
Y59497D01*
X328984D01*
Y59599D01*
X329035D01*
Y59702D01*
X329087D01*
Y59855D01*
X329138D01*
Y59957D01*
X329189D01*
Y60110D01*
X329240D01*
Y60263D01*
X329291D01*
Y60468D01*
X329342D01*
Y60672D01*
X329393D01*
Y60978D01*
X329444D01*
Y62306D01*
X329393D01*
Y62613D01*
X329342D01*
Y62868D01*
X329291D01*
Y63072D01*
X329240D01*
Y63225D01*
X329189D01*
Y63327D01*
X329138D01*
Y63481D01*
X329087D01*
Y63583D01*
X329035D01*
Y63685D01*
X328984D01*
Y63787D01*
X328933D01*
Y63889D01*
X328882D01*
Y63991D01*
X328831D01*
Y64043D01*
X328780D01*
Y64145D01*
X328729D01*
Y64196D01*
X328678D01*
Y64298D01*
X328627D01*
Y64349D01*
X328576D01*
Y64451D01*
X328525D01*
Y64502D01*
X328474D01*
Y64553D01*
X328423D01*
Y64604D01*
X328372D01*
Y64706D01*
X328321D01*
Y64758D01*
X328270D01*
Y64809D01*
X328218D01*
Y64860D01*
X328167D01*
Y64911D01*
X328116D01*
Y64962D01*
X328065D01*
Y65013D01*
X328014D01*
Y65064D01*
X327963D01*
Y65115D01*
X327912D01*
Y65166D01*
X327810D01*
Y65217D01*
X327759D01*
Y65319D01*
X327657D01*
Y65370D01*
X327554D01*
Y65473D01*
X327452D01*
Y65524D01*
X327401D01*
Y65575D01*
X327299D01*
Y65626D01*
X327197D01*
Y65677D01*
X327095D01*
Y65728D01*
X326993D01*
Y65779D01*
X326891D01*
Y65830D01*
X326788D01*
Y65881D01*
X326686D01*
Y65932D01*
X326584D01*
Y65983D01*
X326431D01*
Y66034D01*
X326329D01*
Y66085D01*
X326125D01*
Y66136D01*
X325920D01*
Y66188D01*
X325716D01*
Y66239D01*
X325358D01*
Y66290D01*
D02*
G37*
%LPD*%
G36*
Y65166D02*
X325614D01*
Y65115D01*
X325818D01*
Y65064D01*
X325971D01*
Y65013D01*
X326125D01*
Y64962D01*
X326227D01*
Y64911D01*
X326380D01*
Y64860D01*
X326482D01*
Y64809D01*
X326584D01*
Y64758D01*
X326686D01*
Y64706D01*
X326737D01*
Y64655D01*
X326839D01*
Y64604D01*
X326891D01*
Y64553D01*
X326993D01*
Y64502D01*
X327044D01*
Y64451D01*
X327095D01*
Y64400D01*
X327197D01*
Y64349D01*
X327248D01*
Y64298D01*
X327299D01*
Y64247D01*
X327350D01*
Y64196D01*
X327401D01*
Y64145D01*
X327452D01*
Y64094D01*
X327503D01*
Y64043D01*
X327554D01*
Y63940D01*
X327606D01*
Y63889D01*
X327657D01*
Y63838D01*
X327708D01*
Y63787D01*
X327759D01*
Y63685D01*
X327810D01*
Y63634D01*
X327861D01*
Y63532D01*
X327912D01*
Y63430D01*
X327963D01*
Y63379D01*
X328014D01*
Y63276D01*
X328065D01*
Y63174D01*
X328116D01*
Y63021D01*
X328167D01*
Y62919D01*
X328218D01*
Y62766D01*
X328270D01*
Y62562D01*
X328321D01*
Y62306D01*
X328372D01*
Y61949D01*
X328423D01*
Y61387D01*
X328372D01*
Y60978D01*
X328321D01*
Y60774D01*
X328270D01*
Y60570D01*
X328218D01*
Y60417D01*
X328167D01*
Y60263D01*
X328116D01*
Y60161D01*
X328065D01*
Y60059D01*
X328014D01*
Y59957D01*
X327963D01*
Y59855D01*
X327912D01*
Y59804D01*
X327861D01*
Y59702D01*
X327810D01*
Y59599D01*
X327759D01*
Y59548D01*
X327708D01*
Y59497D01*
X327657D01*
Y59395D01*
X327606D01*
Y59344D01*
X327554D01*
Y59293D01*
X327503D01*
Y59242D01*
X327452D01*
Y59191D01*
X327401D01*
Y59140D01*
X327350D01*
Y59089D01*
X327299D01*
Y59038D01*
X327248D01*
Y58987D01*
X327197D01*
Y58935D01*
X327146D01*
Y58884D01*
X327095D01*
Y58833D01*
X326993D01*
Y58782D01*
X326942D01*
Y58731D01*
X326891D01*
Y58680D01*
X326788D01*
Y58629D01*
X326737D01*
Y58578D01*
X326635D01*
Y58527D01*
X326533D01*
Y58476D01*
X326431D01*
Y58425D01*
X326278D01*
Y58374D01*
X326227D01*
Y58323D01*
X326022D01*
Y58272D01*
X325869D01*
Y58220D01*
X325716D01*
Y58169D01*
X325461D01*
Y58118D01*
X325103D01*
Y58067D01*
X324643D01*
Y58118D01*
X324286D01*
Y58169D01*
X324031D01*
Y58220D01*
X323877D01*
Y58272D01*
X323724D01*
Y58323D01*
X323520D01*
Y58374D01*
X323469D01*
Y58425D01*
X323316D01*
Y58476D01*
X323214D01*
Y58527D01*
X323111D01*
Y58578D01*
X323009D01*
Y58629D01*
X322958D01*
Y58680D01*
X322856D01*
Y58731D01*
X322805D01*
Y58782D01*
X322754D01*
Y58833D01*
X322652D01*
Y58884D01*
X322601D01*
Y58935D01*
X322550D01*
Y58987D01*
X322498D01*
Y59038D01*
X322447D01*
Y59089D01*
X322396D01*
Y59140D01*
X322345D01*
Y59191D01*
X322294D01*
Y59242D01*
X322243D01*
Y59293D01*
X322192D01*
Y59344D01*
X322141D01*
Y59395D01*
X322090D01*
Y59497D01*
X322039D01*
Y59548D01*
X321988D01*
Y59599D01*
X321937D01*
Y59702D01*
X321886D01*
Y59804D01*
X321835D01*
Y59855D01*
X321783D01*
Y59957D01*
X321732D01*
Y60059D01*
X321681D01*
Y60161D01*
X321630D01*
Y60263D01*
X321579D01*
Y60417D01*
X321528D01*
Y60570D01*
X321477D01*
Y60723D01*
X321426D01*
Y60978D01*
X321375D01*
Y61387D01*
X321324D01*
Y61949D01*
X321375D01*
Y62357D01*
X321426D01*
Y62562D01*
X321477D01*
Y62766D01*
X321528D01*
Y62919D01*
X321579D01*
Y63021D01*
X321630D01*
Y63174D01*
X321681D01*
Y63276D01*
X321732D01*
Y63379D01*
X321783D01*
Y63430D01*
X321835D01*
Y63532D01*
X321886D01*
Y63634D01*
X321937D01*
Y63685D01*
X321988D01*
Y63787D01*
X322039D01*
Y63838D01*
X322090D01*
Y63889D01*
X322141D01*
Y63991D01*
X322192D01*
Y64043D01*
X322243D01*
Y64094D01*
X322294D01*
Y64145D01*
X322345D01*
Y64196D01*
X322396D01*
Y64247D01*
X322447D01*
Y64298D01*
X322498D01*
Y64349D01*
X322550D01*
Y64400D01*
X322652D01*
Y64451D01*
X322703D01*
Y64502D01*
X322754D01*
Y64553D01*
X322856D01*
Y64604D01*
X322907D01*
Y64655D01*
X323009D01*
Y64706D01*
X323060D01*
Y64758D01*
X323162D01*
Y64809D01*
X323265D01*
Y64860D01*
X323367D01*
Y64911D01*
X323520D01*
Y64962D01*
X323622D01*
Y65013D01*
X323775D01*
Y65064D01*
X323928D01*
Y65115D01*
X324133D01*
Y65166D01*
X324388D01*
Y65217D01*
X325358D01*
Y65166D01*
D02*
G37*
%LPC*%
G36*
Y64911D02*
X324388D01*
Y64860D01*
X324133D01*
Y64809D01*
X323979D01*
Y64758D01*
X323826D01*
Y64706D01*
X323724D01*
Y64655D01*
X323622D01*
Y64604D01*
X323520D01*
Y64553D01*
X323418D01*
Y64502D01*
X323316D01*
Y64451D01*
X323265D01*
Y64400D01*
X323214D01*
Y64349D01*
X323111D01*
Y64298D01*
X323060D01*
Y64247D01*
X323009D01*
Y64196D01*
X322958D01*
Y64145D01*
X322907D01*
Y64094D01*
X322856D01*
Y64043D01*
X322805D01*
Y63991D01*
X322754D01*
Y63940D01*
X322703D01*
Y63889D01*
X322652D01*
Y63838D01*
X322601D01*
Y63736D01*
X322550D01*
Y63685D01*
X322498D01*
Y63583D01*
X322447D01*
Y63532D01*
X322396D01*
Y63430D01*
X322345D01*
Y63327D01*
X322294D01*
Y63225D01*
X322243D01*
Y63123D01*
X322192D01*
Y62970D01*
X322141D01*
Y62817D01*
X322090D01*
Y62613D01*
X322039D01*
Y62102D01*
X321988D01*
Y62051D01*
X322039D01*
Y61540D01*
X322090D01*
Y61336D01*
X322141D01*
Y61132D01*
X322192D01*
Y61029D01*
X322243D01*
Y60876D01*
X322294D01*
Y60774D01*
X322345D01*
Y60672D01*
X322396D01*
Y60621D01*
X322447D01*
Y60519D01*
X322498D01*
Y60468D01*
X322550D01*
Y60365D01*
X322601D01*
Y60314D01*
X322652D01*
Y60263D01*
X322703D01*
Y60212D01*
X322754D01*
Y60161D01*
X322805D01*
Y60110D01*
X322856D01*
Y60059D01*
X322907D01*
Y60008D01*
X322958D01*
Y59957D01*
X323009D01*
Y59906D01*
X323060D01*
Y59855D01*
X323111D01*
Y59804D01*
X323162D01*
Y59753D01*
X323265D01*
Y59702D01*
X323316D01*
Y59650D01*
X323418D01*
Y59599D01*
X323520D01*
Y59548D01*
X323571D01*
Y59497D01*
X323724D01*
Y59446D01*
X323826D01*
Y59395D01*
X323928D01*
Y59344D01*
X324133D01*
Y59293D01*
X324337D01*
Y59242D01*
X325410D01*
Y59293D01*
X325614D01*
Y59344D01*
X325767D01*
Y59395D01*
X325920D01*
Y59446D01*
X326022D01*
Y59497D01*
X326176D01*
Y59548D01*
X326227D01*
Y59599D01*
X326329D01*
Y59650D01*
X326431D01*
Y59702D01*
X326482D01*
Y59753D01*
X326584D01*
Y59804D01*
X326635D01*
Y59855D01*
X326686D01*
Y59906D01*
X326737D01*
Y59957D01*
X326788D01*
Y60008D01*
X326839D01*
Y60059D01*
X326891D01*
Y60110D01*
X326942D01*
Y60161D01*
X326993D01*
Y60212D01*
X327044D01*
Y60263D01*
X327095D01*
Y60314D01*
X327146D01*
Y60365D01*
X327197D01*
Y60468D01*
X327248D01*
Y60519D01*
X327299D01*
Y60621D01*
X327350D01*
Y60723D01*
X327401D01*
Y60774D01*
X327452D01*
Y60876D01*
X327503D01*
Y61029D01*
X327554D01*
Y61132D01*
X327606D01*
Y61336D01*
X327657D01*
Y61540D01*
X327708D01*
Y62051D01*
X327759D01*
Y62102D01*
X327708D01*
Y62613D01*
X327657D01*
Y62817D01*
X327606D01*
Y62970D01*
X327554D01*
Y63123D01*
X327503D01*
Y63225D01*
X327452D01*
Y63327D01*
X327401D01*
Y63430D01*
X327350D01*
Y63532D01*
X327299D01*
Y63583D01*
X327248D01*
Y63685D01*
X327197D01*
Y63736D01*
X327146D01*
Y63838D01*
X327095D01*
Y63889D01*
X327044D01*
Y63940D01*
X326993D01*
Y63991D01*
X326942D01*
Y64043D01*
X326891D01*
Y64094D01*
X326839D01*
Y64145D01*
X326788D01*
Y64196D01*
X326737D01*
Y64247D01*
X326686D01*
Y64298D01*
X326635D01*
Y64349D01*
X326533D01*
Y64400D01*
X326482D01*
Y64451D01*
X326380D01*
Y64502D01*
X326329D01*
Y64553D01*
X326227D01*
Y64604D01*
X326125D01*
Y64655D01*
X326022D01*
Y64706D01*
X325920D01*
Y64758D01*
X325767D01*
Y64809D01*
X325614D01*
Y64860D01*
X325358D01*
Y64911D01*
D02*
G37*
%LPD*%
G36*
X325154Y63940D02*
X325358D01*
Y63889D01*
X325512D01*
Y63838D01*
X325665D01*
Y63787D01*
X325767D01*
Y63736D01*
X325869D01*
Y63685D01*
X325920D01*
Y63634D01*
X326022D01*
Y63583D01*
X326073D01*
Y63532D01*
X326125D01*
Y63481D01*
X326176D01*
Y63430D01*
X326227D01*
Y63379D01*
X326278D01*
Y63327D01*
X326380D01*
Y63225D01*
X326431D01*
Y63174D01*
X326482D01*
Y63072D01*
X326533D01*
Y63021D01*
X326584D01*
Y62919D01*
X326635D01*
Y62766D01*
X326686D01*
Y62613D01*
X326737D01*
Y62459D01*
X326788D01*
Y61693D01*
X326737D01*
Y61489D01*
X326686D01*
Y61387D01*
X326635D01*
Y61234D01*
X326584D01*
Y61132D01*
X326533D01*
Y61080D01*
X326482D01*
Y60978D01*
X326431D01*
Y60927D01*
X326380D01*
Y60825D01*
X326329D01*
Y60774D01*
X326278D01*
Y60723D01*
X326227D01*
Y60672D01*
X326176D01*
Y60621D01*
X326125D01*
Y60570D01*
X326022D01*
Y60519D01*
X325971D01*
Y60468D01*
X325869D01*
Y60417D01*
X325767D01*
Y60365D01*
X325665D01*
Y60314D01*
X325563D01*
Y60263D01*
X325410D01*
Y60212D01*
X325205D01*
Y60161D01*
X324541D01*
Y60212D01*
X324337D01*
Y60263D01*
X324184D01*
Y60314D01*
X324082D01*
Y60365D01*
X323979D01*
Y60417D01*
X323877D01*
Y60468D01*
X323775D01*
Y60519D01*
X323724D01*
Y60570D01*
X323622D01*
Y60621D01*
X323571D01*
Y60672D01*
X323520D01*
Y60723D01*
X323469D01*
Y60774D01*
X323418D01*
Y60825D01*
X323367D01*
Y60927D01*
X323316D01*
Y60978D01*
X323265D01*
Y61080D01*
X323214D01*
Y61132D01*
X323162D01*
Y61234D01*
X323111D01*
Y61387D01*
X323060D01*
Y61489D01*
X323009D01*
Y61693D01*
X322958D01*
Y62459D01*
X323009D01*
Y62613D01*
X323060D01*
Y62766D01*
X323111D01*
Y62919D01*
X323162D01*
Y63021D01*
X323214D01*
Y63072D01*
X323265D01*
Y63174D01*
X323316D01*
Y63225D01*
X323367D01*
Y63327D01*
X323418D01*
Y63379D01*
X323469D01*
Y63430D01*
X323520D01*
Y63481D01*
X323571D01*
Y63532D01*
X323673D01*
Y63583D01*
X323724D01*
Y63634D01*
X323826D01*
Y63685D01*
X323877D01*
Y63736D01*
X323979D01*
Y63787D01*
X324082D01*
Y63838D01*
X324235D01*
Y63889D01*
X324337D01*
Y63940D01*
X324592D01*
Y63991D01*
X325154D01*
Y63940D01*
D02*
G37*
%LPC*%
G36*
X336185Y60212D02*
X335879D01*
Y60161D01*
X335573D01*
Y60110D01*
X335470D01*
Y60059D01*
X335368D01*
Y60008D01*
X335266D01*
Y59957D01*
X335215D01*
Y59855D01*
X335164D01*
Y59804D01*
X335113D01*
Y59702D01*
X335062D01*
Y59497D01*
X335011D01*
Y58987D01*
X335062D01*
Y58884D01*
X335113D01*
Y58782D01*
X335164D01*
Y58731D01*
X335215D01*
Y58680D01*
X337003D01*
Y58782D01*
X337054D01*
Y58833D01*
X337105D01*
Y58987D01*
X337156D01*
Y59497D01*
X337105D01*
Y59650D01*
X337054D01*
Y59753D01*
X337003D01*
Y59855D01*
X336951D01*
Y59906D01*
X336900D01*
Y59957D01*
X336849D01*
Y60008D01*
X336798D01*
Y60059D01*
X336696D01*
Y60110D01*
X336543D01*
Y60161D01*
X336185D01*
Y60212D01*
D02*
G37*
G36*
X336696Y55616D02*
X336134D01*
Y55463D01*
X336083D01*
Y55054D01*
X336134D01*
Y54799D01*
X336185D01*
Y54697D01*
X336237D01*
Y54594D01*
X336288D01*
Y54543D01*
X336339D01*
Y54492D01*
X336390D01*
Y54441D01*
X336492D01*
Y54390D01*
X336951D01*
Y54441D01*
X337054D01*
Y54543D01*
X337105D01*
Y54594D01*
X337156D01*
Y54748D01*
X337207D01*
Y55105D01*
X337156D01*
Y55258D01*
X337105D01*
Y55361D01*
X337054D01*
Y55412D01*
X337003D01*
Y55463D01*
X336951D01*
Y55514D01*
X336849D01*
Y55565D01*
X336696D01*
Y55616D01*
D02*
G37*
%LPD*%
D10*
X267815Y70276D02*
G03*
X267815Y70276I-492J0D01*
G01*
X129429Y83957D02*
G03*
X129429Y83957I-492J0D01*
G01*
X242185Y171752D02*
G03*
X242185Y171752I-492J0D01*
G01*
D11*
X159449Y61221D02*
G03*
X159449Y61221I-197J0D01*
G01*
X283760Y160138D02*
G03*
X283760Y81398I0J-39370D01*
G01*
D02*
G03*
X283760Y160138I0J39370D01*
G01*
D12*
X246850Y139961D02*
G03*
X246850Y139173I0J-394D01*
G01*
D02*
G03*
X246850Y139961I0J394D01*
G01*
X273524Y44094D02*
Y68898D01*
Y44094D02*
X298327D01*
Y68898D01*
X273524D02*
X298327D01*
X105709Y122638D02*
X116339D01*
Y80512D02*
Y122638D01*
X105709Y80512D02*
X116339D01*
X229331Y22264D02*
Y32854D01*
X128150D02*
X229331D01*
X128150Y22264D02*
Y32854D01*
Y22264D02*
X229331D01*
X160827Y45079D02*
X176968D01*
X160827Y61221D02*
X176968D01*
Y45079D02*
Y45177D01*
Y61122D02*
Y61221D01*
X160827Y45079D02*
Y45177D01*
Y61122D02*
Y61221D01*
X196457Y60433D02*
X200394D01*
Y61614D01*
X196457Y60433D02*
Y61614D01*
X203839D02*
X207776D01*
X203839Y60433D02*
Y61614D01*
X207776Y60433D02*
Y61614D01*
X87795Y198906D02*
X121535D01*
X90276Y175898D02*
X121535D01*
X67913Y17126D02*
X123819D01*
X67913Y69488D02*
X123819D01*
Y17126D02*
Y31890D01*
X67913Y17126D02*
Y31890D01*
X123819Y54724D02*
Y69488D01*
X67913Y54724D02*
Y69488D01*
X45000Y175898D02*
X78740D01*
X45000Y198906D02*
X76260D01*
X130315Y168701D02*
X135236Y163780D01*
X101772D02*
X106693Y168701D01*
X125000D02*
X130315D01*
X135236Y135236D02*
Y163780D01*
X106693Y168701D02*
X112008D01*
X101772Y135236D02*
Y163780D01*
X125000Y135236D02*
X135236D01*
X101772D02*
X112008D01*
X17421Y71457D02*
Y78740D01*
X25886Y87205D01*
X17421Y54331D02*
X25886Y45866D01*
X17421Y54331D02*
Y61614D01*
X25886Y87205D02*
X58760D01*
Y71457D02*
Y87205D01*
Y45866D02*
Y61614D01*
X25886Y45866D02*
X58760D01*
X17126Y116732D02*
Y124016D01*
X25591Y132480D01*
X17126Y99606D02*
X25591Y91142D01*
X17126Y99606D02*
Y106890D01*
X25591Y132480D02*
X58465D01*
Y116732D02*
Y132480D01*
Y91142D02*
Y106890D01*
X25591Y91142D02*
X58465D01*
X57000Y33033D02*
Y35789D01*
X62905Y33033D02*
Y35789D01*
X47507Y33033D02*
Y35789D01*
X53413Y33033D02*
Y35789D01*
X38014Y33033D02*
Y35789D01*
X43920Y33033D02*
Y35789D01*
X62598Y135433D02*
Y141181D01*
Y167480D02*
Y173228D01*
Y150787D02*
Y157874D01*
X12205Y135433D02*
X62598D01*
X12205D02*
Y173228D01*
X62598D01*
X310492Y165020D02*
Y167185D01*
X290295Y165020D02*
Y167185D01*
Y165020D02*
X310492D01*
X290295Y193445D02*
Y195610D01*
X310492Y193445D02*
Y195610D01*
X290295D02*
X310492D01*
X250807Y19705D02*
X311988D01*
X250807D02*
Y30295D01*
X311988D01*
Y19705D02*
Y30295D01*
X242815Y176181D02*
X277264D01*
X242815Y188779D02*
X277264D01*
X242815Y176181D02*
Y188779D01*
X277264Y176181D02*
Y188779D01*
X218799Y60433D02*
X222736D01*
Y61614D01*
X218799Y60433D02*
Y61614D01*
X182165Y108957D02*
Y114961D01*
X182677Y116339D02*
X201968D01*
Y128937D01*
X182677D02*
X201968D01*
X182677Y116339D02*
Y128937D01*
X231398Y83933D02*
Y90575D01*
X238484Y83933D02*
Y90575D01*
X231398D02*
X238484D01*
X211319Y60433D02*
X215256D01*
Y61614D01*
X211319Y60433D02*
Y61614D01*
X128150Y181319D02*
X229331D01*
X128150D02*
Y191909D01*
X229331D01*
Y181319D02*
Y191909D01*
X213583Y115748D02*
Y130315D01*
X233268D01*
Y115748D02*
Y130315D01*
X213583Y115748D02*
X233268D01*
X212205Y108563D02*
Y114370D01*
X331614Y125551D02*
Y155551D01*
Y125551D02*
X341614D01*
Y155551D01*
X331614D02*
X341614D01*
D13*
X71350Y136520D02*
G03*
X71350Y136520I-350J0D01*
G01*
X141437Y170768D02*
X229626D01*
X141437Y70768D02*
Y170768D01*
Y70768D02*
X229626D01*
Y170768D01*
D14*
X247835Y180118D02*
G03*
X247835Y180118I-1181J0D01*
G01*
D15*
X171457Y133661D02*
Y134843D01*
X160433D02*
X171457D01*
X160433Y133661D02*
Y134843D01*
Y129331D02*
Y130512D01*
Y129331D02*
X171457D01*
Y130512D01*
X165945Y129331D02*
Y134843D01*
X167126Y117421D02*
Y126280D01*
X176476Y117421D02*
Y118406D01*
X157776Y117421D02*
X176476D01*
X157776D02*
Y118406D01*
Y125295D02*
Y126280D01*
X176476D01*
Y125295D02*
Y126280D01*
X253575Y45787D02*
X254331D01*
Y55787D01*
X253575D02*
X254331D01*
X248819D02*
X249575D01*
X248819Y45787D02*
Y55787D01*
Y45787D02*
X249575D01*
X248819Y50787D02*
X254331D01*
X246685Y45591D02*
X247441D01*
Y55591D01*
X246685D02*
X247441D01*
X241929D02*
X242685D01*
X241929Y45591D02*
Y55591D01*
Y45591D02*
X242685D01*
X241929Y50591D02*
X247441D01*
X154264Y82303D02*
X155020D01*
Y92303D01*
X154264D02*
X155020D01*
X149508D02*
X150264D01*
X149508Y82303D02*
Y92303D01*
Y82303D02*
X150264D01*
X149508Y87303D02*
X155020D01*
X146783Y82303D02*
X147539D01*
Y92303D01*
X146783D02*
X147539D01*
X142027D02*
X142783D01*
X142027Y82303D02*
Y92303D01*
Y82303D02*
X142783D01*
X142027Y87303D02*
X147539D01*
X178850Y82291D02*
X179606D01*
Y92291D01*
X178850D02*
X179606D01*
X174094D02*
X174850D01*
X174094Y82291D02*
Y92291D01*
Y82291D02*
X174850D01*
X174094Y87291D02*
X179606D01*
X177311Y145933D02*
X178492D01*
Y156957D01*
X177311D02*
X178492D01*
X172980D02*
X174161D01*
X172980Y145933D02*
Y156957D01*
Y145933D02*
X174161D01*
X172980Y151445D02*
X178492D01*
X170748Y82291D02*
X171504D01*
Y92291D01*
X170748D02*
X171504D01*
X165992D02*
X166748D01*
X165992Y82291D02*
Y92291D01*
Y82291D02*
X166748D01*
X165992Y87291D02*
X171504D01*
X169209Y145933D02*
X170390D01*
Y156957D01*
X169209D02*
X170390D01*
X164878D02*
X166059D01*
X164878Y145933D02*
Y156957D01*
Y145933D02*
X166059D01*
X164878Y151445D02*
X170390D01*
X162646Y82291D02*
X163402D01*
Y92291D01*
X162646D02*
X163402D01*
X157890D02*
X158646D01*
X157890Y82291D02*
Y92291D01*
Y82291D02*
X158646D01*
X157890Y87291D02*
X163402D01*
X186953Y82291D02*
X187709D01*
Y92291D01*
X186953D02*
X187709D01*
X182197D02*
X182953D01*
X182197Y82291D02*
Y92291D01*
Y82291D02*
X182953D01*
X182197Y87291D02*
X187709D01*
X157283Y156890D02*
X158465D01*
X157283Y145866D02*
Y156890D01*
Y145866D02*
X158465D01*
X161614D02*
X162795D01*
Y156890D01*
X161614D02*
X162795D01*
X157283Y151378D02*
X162795D01*
X195055Y82291D02*
X195811D01*
Y92291D01*
X195055D02*
X195811D01*
X190299D02*
X191055D01*
X190299Y82291D02*
Y92291D01*
Y82291D02*
X191055D01*
X190299Y87291D02*
X195811D01*
X189020Y157350D02*
X190201D01*
X189020Y146327D02*
Y157350D01*
Y146327D02*
X190201D01*
X193350D02*
X194531D01*
Y157350D01*
X193350D02*
X194531D01*
X189020Y151839D02*
X194531D01*
X203157Y82291D02*
X203913D01*
Y92291D01*
X203157D02*
X203913D01*
X198401D02*
X199157D01*
X198401Y82291D02*
Y92291D01*
Y82291D02*
X199157D01*
X198401Y87291D02*
X203913D01*
X227464Y82291D02*
X228220D01*
Y92291D01*
X227464D02*
X228220D01*
X222709D02*
X223464D01*
X222709Y82291D02*
Y92291D01*
Y82291D02*
X223464D01*
X222709Y87291D02*
X228220D01*
X219362Y82291D02*
X220118D01*
Y92291D01*
X219362D02*
X220118D01*
X214606D02*
X215362D01*
X214606Y82291D02*
Y92291D01*
Y82291D02*
X215362D01*
X214606Y87291D02*
X220118D01*
X211260Y82291D02*
X212016D01*
Y92291D01*
X211260D02*
X212016D01*
X206504D02*
X207260D01*
X206504Y82291D02*
Y92291D01*
Y82291D02*
X207260D01*
X206504Y87291D02*
X212016D01*
X185248Y146327D02*
X186429D01*
Y157350D01*
X185248D02*
X186429D01*
X180917D02*
X182098D01*
X180917Y146327D02*
Y157350D01*
Y146327D02*
X182098D01*
X180917Y151839D02*
X186429D01*
X209976Y146260D02*
X211157D01*
Y157284D01*
X209976D02*
X211157D01*
X205646D02*
X206827D01*
X205646Y146260D02*
Y157284D01*
Y146260D02*
X206827D01*
X205646Y151772D02*
X211157D01*
X201874Y146260D02*
X203055D01*
Y157284D01*
X201874D02*
X203055D01*
X197543D02*
X198724D01*
X197543Y146260D02*
Y157284D01*
Y146260D02*
X198724D01*
X197543Y151772D02*
X203055D01*
X218079Y146260D02*
X219260D01*
Y157284D01*
X218079D02*
X219260D01*
X213748D02*
X214929D01*
X213748Y146260D02*
Y157284D01*
Y146260D02*
X214929D01*
X213748Y151772D02*
X219260D01*
X234283Y146260D02*
X235465D01*
Y157284D01*
X234283D02*
X235465D01*
X229953D02*
X231134D01*
X229953Y146260D02*
Y157284D01*
Y146260D02*
X231134D01*
X229953Y151772D02*
X235465D01*
X226181Y146260D02*
X227362D01*
Y157284D01*
X226181D02*
X227362D01*
X221850D02*
X223031D01*
X221850Y146260D02*
Y157284D01*
Y146260D02*
X223031D01*
X221850Y151772D02*
X227362D01*
D16*
X132677Y14961D02*
X134010D01*
X133344D01*
Y18959D01*
X132677Y18293D01*
X220472Y16535D02*
X221805D01*
X221139D01*
Y20534D01*
X220472Y19868D01*
X223805D02*
X224471Y20534D01*
X225804D01*
X226470Y19868D01*
Y17202D01*
X225804Y16535D01*
X224471D01*
X223805Y17202D01*
Y19868D01*
X316203Y163988D02*
X315537Y165321D01*
X314204Y166654D01*
X312871D01*
X312205Y165987D01*
Y164654D01*
X312871Y163988D01*
X313538D01*
X314204Y164654D01*
Y166654D01*
X288644Y163988D02*
Y166654D01*
X286645D01*
X287312Y165321D01*
Y164654D01*
X286645Y163988D01*
X285312D01*
X284646Y164654D01*
Y165987D01*
X285312Y166654D01*
X312205Y193673D02*
Y196339D01*
X314871Y193673D01*
X315537D01*
X316203Y194339D01*
Y195672D01*
X315537Y196339D01*
X284646Y195158D02*
Y193825D01*
Y194491D01*
X288644D01*
X287978Y195158D01*
X255925Y31693D02*
X257258D01*
X256592D01*
Y35692D01*
X255925Y35025D01*
X307567Y35692D02*
X306235Y35025D01*
X304902Y33692D01*
Y32359D01*
X305568Y31693D01*
X306901D01*
X307567Y32359D01*
Y33026D01*
X306901Y33692D01*
X304902D01*
X221260Y193307D02*
X222593D01*
X221926D01*
Y197306D01*
X221260Y196639D01*
X224592D02*
X225259Y197306D01*
X226591D01*
X227258Y196639D01*
Y193974D01*
X226591Y193307D01*
X225259D01*
X224592Y193974D01*
Y196639D01*
X133268Y193307D02*
X134601D01*
X133934D01*
Y197306D01*
X133268Y196639D01*
D17*
X235564Y72047D02*
X236220Y72703D01*
Y74015D01*
X235564Y74670D01*
X234908D01*
X234252Y74015D01*
Y72703D01*
X233596Y72047D01*
X232940D01*
X232284Y72703D01*
Y74015D01*
X232940Y74670D01*
X235564Y70735D02*
X232940Y68111D01*
Y70735D02*
X235564Y68111D01*
X234252Y70735D02*
Y68111D01*
X232940Y69423D02*
X235564D01*
X232284Y66799D02*
Y65487D01*
Y66143D01*
X236220D01*
X235564Y66799D01*
X253346Y58761D02*
X249410D01*
Y60729D01*
X250066Y61385D01*
X251378D01*
X252034Y60729D01*
Y58761D01*
Y60073D02*
X253346Y61385D01*
Y62697D02*
Y64009D01*
Y63353D01*
X249410D01*
X250066Y62697D01*
X252690Y65977D02*
X253346Y66633D01*
Y67945D01*
X252690Y68601D01*
X250066D01*
X249410Y67945D01*
Y66633D01*
X250066Y65977D01*
X250722D01*
X251378Y66633D01*
Y68601D01*
X246850Y58761D02*
X242914D01*
Y60729D01*
X243570Y61385D01*
X244882D01*
X245538Y60729D01*
Y58761D01*
Y60073D02*
X246850Y61385D01*
Y62697D02*
Y64009D01*
Y63353D01*
X242914D01*
X243570Y62697D01*
Y65977D02*
X242914Y66633D01*
Y67945D01*
X243570Y68601D01*
X244226D01*
X244882Y67945D01*
X245538Y68601D01*
X246194D01*
X246850Y67945D01*
Y66633D01*
X246194Y65977D01*
X245538D01*
X244882Y66633D01*
X244226Y65977D01*
X243570D01*
X244882Y66633D02*
Y67945D01*
X151510Y133398D02*
X150854Y134055D01*
X149542D01*
X148886Y133398D01*
Y130775D01*
X149542Y130119D01*
X150854D01*
X151510Y130775D01*
X152822Y133398D02*
X153478Y134055D01*
X154790D01*
X155446Y133398D01*
Y132743D01*
X154790Y132087D01*
X154134D01*
X154790D01*
X155446Y131431D01*
Y130775D01*
X154790Y130119D01*
X153478D01*
X152822Y130775D01*
X156758Y133398D02*
X157414Y134055D01*
X158726D01*
X159381Y133398D01*
Y130775D01*
X158726Y130119D01*
X157414D01*
X156758Y130775D01*
Y133398D01*
X147179Y122769D02*
X146523Y123425D01*
X145212D01*
X144555Y122769D01*
Y120145D01*
X145212Y119489D01*
X146523D01*
X147179Y120145D01*
X151115Y119489D02*
X148491D01*
X151115Y122113D01*
Y122769D01*
X150459Y123425D01*
X149147D01*
X148491Y122769D01*
X152427Y120145D02*
X153083Y119489D01*
X154395D01*
X155051Y120145D01*
Y122769D01*
X154395Y123425D01*
X153083D01*
X152427Y122769D01*
Y122113D01*
X153083Y121457D01*
X155051D01*
X161681Y67716D02*
Y64436D01*
X162337Y63780D01*
X163649D01*
X164305Y64436D01*
Y67716D01*
X168240Y63780D02*
X165617D01*
X168240Y66404D01*
Y67060D01*
X167585Y67716D01*
X166273D01*
X165617Y67060D01*
X318306Y157414D02*
X315027D01*
X314371Y156758D01*
Y155446D01*
X315027Y154790D01*
X318306D01*
X317651Y153478D02*
X318306Y152822D01*
Y151510D01*
X317651Y150854D01*
X316995D01*
X316339Y151510D01*
Y152166D01*
Y151510D01*
X315683Y150854D01*
X315027D01*
X314371Y151510D01*
Y152822D01*
X315027Y153478D01*
X154232Y94391D02*
X150296D01*
Y96359D01*
X150952Y97015D01*
X152264D01*
X152920Y96359D01*
Y94391D01*
Y95703D02*
X154232Y97015D01*
Y98327D02*
Y99639D01*
Y98983D01*
X150296D01*
X150952Y98327D01*
X150296Y101607D02*
Y104231D01*
X150952D01*
X153576Y101607D01*
X154232D01*
X196457Y47901D02*
Y46589D01*
X197113Y45933D01*
X199737D01*
X200393Y46589D01*
Y47901D01*
X199737Y48557D01*
X197113D01*
X196457Y47901D01*
X200393Y49869D02*
X196457D01*
X200393Y52492D01*
X196457D01*
X234154Y168430D02*
X237433D01*
X238089Y169086D01*
Y170398D01*
X237433Y171054D01*
X234154D01*
Y174990D02*
Y172366D01*
X236122D01*
X235466Y173678D01*
Y174334D01*
X236122Y174990D01*
X237433D01*
X238089Y174334D01*
Y173022D01*
X237433Y172366D01*
X72311Y129527D02*
Y126247D01*
X72967Y125591D01*
X74279D01*
X74935Y126247D01*
Y129527D01*
X78214Y125591D02*
Y129527D01*
X76247Y127559D01*
X78870D01*
X211318Y93998D02*
X207382D01*
Y95965D01*
X208038Y96622D01*
X209350D01*
X210006Y95965D01*
Y93998D01*
Y95310D02*
X211318Y96622D01*
Y97933D02*
Y99245D01*
Y98589D01*
X207382D01*
X208038Y97933D01*
X207382Y103837D02*
X208038Y102525D01*
X209350Y101213D01*
X210662D01*
X211318Y101869D01*
Y103181D01*
X210662Y103837D01*
X210006D01*
X209350Y103181D01*
Y101213D01*
X203050Y93998D02*
X199115D01*
Y95965D01*
X199771Y96622D01*
X201083D01*
X201739Y95965D01*
Y93998D01*
Y95310D02*
X203050Y96622D01*
Y97933D02*
Y99245D01*
Y98589D01*
X199115D01*
X199771Y97933D01*
X199115Y103837D02*
Y101213D01*
X201083D01*
X200427Y102525D01*
Y103181D01*
X201083Y103837D01*
X202395D01*
X203050Y103181D01*
Y101869D01*
X202395Y101213D01*
X227460Y93998D02*
X223524D01*
Y95965D01*
X224180Y96622D01*
X225492D01*
X226148Y95965D01*
Y93998D01*
Y95310D02*
X227460Y96622D01*
Y97933D02*
Y99245D01*
Y98589D01*
X223524D01*
X224180Y97933D01*
X227460Y103181D02*
X223524D01*
X225492Y101213D01*
Y103837D01*
X219586Y93998D02*
X215650D01*
Y95965D01*
X216306Y96622D01*
X217618D01*
X218274Y95965D01*
Y93998D01*
Y95310D02*
X219586Y96622D01*
Y97933D02*
Y99245D01*
Y98589D01*
X215650D01*
X216306Y97933D01*
Y101213D02*
X215650Y101869D01*
Y103181D01*
X216306Y103837D01*
X216962D01*
X217618Y103181D01*
Y102525D01*
Y103181D01*
X218274Y103837D01*
X218930D01*
X219586Y103181D01*
Y101869D01*
X218930Y101213D01*
X195176Y93998D02*
X191241D01*
Y95965D01*
X191897Y96622D01*
X193209D01*
X193865Y95965D01*
Y93998D01*
Y95310D02*
X195176Y96622D01*
Y97933D02*
Y99245D01*
Y98589D01*
X191241D01*
X191897Y97933D01*
X195176Y103837D02*
Y101213D01*
X192553Y103837D01*
X191897D01*
X191241Y103181D01*
Y101869D01*
X191897Y101213D01*
X171161Y94260D02*
X167225D01*
Y96228D01*
X167881Y96884D01*
X169193D01*
X169849Y96228D01*
Y94260D01*
Y95572D02*
X171161Y96884D01*
Y98196D02*
Y99508D01*
Y98852D01*
X167225D01*
X167881Y98196D01*
X171161Y101475D02*
Y102787D01*
Y102131D01*
X167225D01*
X167881Y101475D01*
X162499Y93998D02*
X158564D01*
Y95965D01*
X159220Y96622D01*
X160531D01*
X161187Y95965D01*
Y93998D01*
Y95310D02*
X162499Y96622D01*
Y97933D02*
Y99245D01*
Y98589D01*
X158564D01*
X159220Y97933D01*
Y101213D02*
X158564Y101869D01*
Y103181D01*
X159220Y103837D01*
X161843D01*
X162499Y103181D01*
Y101869D01*
X161843Y101213D01*
X159220D01*
X186909Y94063D02*
X182973D01*
Y96031D01*
X183629Y96687D01*
X184941D01*
X185597Y96031D01*
Y94063D01*
Y95375D02*
X186909Y96687D01*
X186253Y97998D02*
X186909Y98654D01*
Y99966D01*
X186253Y100622D01*
X183629D01*
X182973Y99966D01*
Y98654D01*
X183629Y97998D01*
X184285D01*
X184941Y98654D01*
Y100622D01*
X179035Y94063D02*
X175099D01*
Y96031D01*
X175755Y96687D01*
X177067D01*
X177723Y96031D01*
Y94063D01*
Y95375D02*
X179035Y96687D01*
X175755Y97998D02*
X175099Y98654D01*
Y99966D01*
X175755Y100622D01*
X176411D01*
X177067Y99966D01*
X177723Y100622D01*
X178379D01*
X179035Y99966D01*
Y98654D01*
X178379Y97998D01*
X177723D01*
X177067Y98654D01*
X176411Y97998D01*
X175755D01*
X177067Y98654D02*
Y99966D01*
X146751Y94456D02*
X142816D01*
Y96424D01*
X143472Y97080D01*
X144783D01*
X145439Y96424D01*
Y94456D01*
Y95768D02*
X146751Y97080D01*
X142816Y98392D02*
Y101016D01*
X143472D01*
X146095Y98392D01*
X146751D01*
X137665Y15355D02*
Y19291D01*
X139633D01*
X140289Y18635D01*
Y17323D01*
X139633Y16667D01*
X137665D01*
X143569Y15355D02*
Y19291D01*
X141601Y17323D01*
X144225D01*
X205677Y193997D02*
Y197932D01*
X207645D01*
X208301Y197276D01*
Y195965D01*
X207645Y195309D01*
X205677D01*
X209613Y197276D02*
X210269Y197932D01*
X211580D01*
X212236Y197276D01*
Y196621D01*
X211580Y195965D01*
X210925D01*
X211580D01*
X212236Y195309D01*
Y194653D01*
X211580Y193997D01*
X210269D01*
X209613Y194653D01*
X248444Y22508D02*
X244509D01*
Y24475D01*
X245164Y25131D01*
X246476D01*
X247132Y24475D01*
Y22508D01*
X248444Y29067D02*
Y26443D01*
X245820Y29067D01*
X245164D01*
X244509Y28411D01*
Y27099D01*
X245164Y26443D01*
X285073Y197442D02*
Y201377D01*
X287041D01*
X287697Y200721D01*
Y199409D01*
X287041Y198753D01*
X285073D01*
X289009Y197442D02*
X290320D01*
X289665D01*
Y201377D01*
X289009Y200721D01*
X211418Y41996D02*
Y44620D01*
Y43308D01*
X215354D01*
X211418Y45932D02*
X215354Y48556D01*
X211418D02*
X215354Y45932D01*
X211418Y49868D02*
X215354D01*
Y51836D01*
X214698Y52492D01*
X212074D01*
X211418Y51836D01*
Y49868D01*
X223228Y41996D02*
X219292D01*
Y43964D01*
X219948Y44620D01*
X221260D01*
X221916Y43964D01*
Y41996D01*
Y43308D02*
X223228Y44620D01*
X219292Y45932D02*
X223228Y48556D01*
X219292D02*
X223228Y45932D01*
X219292Y49868D02*
X223228D01*
Y51836D01*
X222572Y52492D01*
X219948D01*
X219292Y51836D01*
Y49868D01*
X203544Y34124D02*
X207480D01*
Y36092D01*
X206824Y36748D01*
X204200D01*
X203544Y36092D01*
Y34124D01*
Y40683D02*
Y38059D01*
X207480D01*
Y40683D01*
X205512Y38059D02*
Y39371D01*
X203544Y41995D02*
X207480D01*
Y43963D01*
X206824Y44619D01*
X206168D01*
X205512Y43963D01*
Y41995D01*
Y43963D01*
X204856Y44619D01*
X204200D01*
X203544Y43963D01*
Y41995D01*
Y45931D02*
X206824D01*
X207480Y46587D01*
Y47899D01*
X206824Y48555D01*
X203544D01*
X204200Y52491D02*
X203544Y51834D01*
Y50523D01*
X204200Y49867D01*
X206824D01*
X207480Y50523D01*
Y51834D01*
X206824Y52491D01*
X205512D01*
Y51179D01*
X72179Y75984D02*
Y72048D01*
X74803D01*
X76115D02*
X77427D01*
X76771D01*
Y75984D01*
X76115Y75328D01*
X332152Y119292D02*
X333464D01*
X332808D01*
Y122572D01*
X333464Y123228D01*
X334120D01*
X334776Y122572D01*
X328216Y123228D02*
X330840D01*
X328216Y120604D01*
Y119948D01*
X328872Y119292D01*
X330184D01*
X330840Y119948D01*
X97243Y170079D02*
Y171391D01*
Y170735D01*
X93964D01*
X93308Y171391D01*
Y172047D01*
X93964Y172703D01*
X93308Y168767D02*
Y167455D01*
Y168111D01*
X97243D01*
X96588Y168767D01*
X206497Y107088D02*
Y108400D01*
Y107744D01*
X210432D01*
Y107088D01*
Y108400D01*
X207153Y112992D02*
X206497Y112336D01*
Y111024D01*
X207153Y110368D01*
X209776D01*
X210432Y111024D01*
Y112336D01*
X209776Y112992D01*
X207153Y114304D02*
X206497Y114960D01*
Y116272D01*
X207153Y116928D01*
X207809D01*
X208465Y116272D01*
Y115616D01*
Y116272D01*
X209120Y116928D01*
X209776D01*
X210432Y116272D01*
Y114960D01*
X209776Y114304D01*
X176182Y105120D02*
Y106432D01*
Y105776D01*
X180117D01*
Y105120D01*
Y106432D01*
X176838Y111023D02*
X176182Y110367D01*
Y109055D01*
X176838Y108399D01*
X179462D01*
X180117Y109055D01*
Y110367D01*
X179462Y111023D01*
X180117Y114959D02*
Y112335D01*
X177494Y114959D01*
X176838D01*
X176182Y114303D01*
Y112991D01*
X176838Y112335D01*
X259548Y39634D02*
Y40946D01*
Y40290D01*
X263484D01*
Y39634D01*
Y40946D01*
X260204Y45537D02*
X259548Y44882D01*
Y43570D01*
X260204Y42914D01*
X262828D01*
X263484Y43570D01*
Y44882D01*
X262828Y45537D01*
X263484Y46850D02*
Y48161D01*
Y47505D01*
X259548D01*
X260204Y46850D01*
X232579Y98000D02*
X236515D01*
Y99968D01*
X235859Y100624D01*
X233235D01*
X232579Y99968D01*
Y98000D01*
X236515Y103903D02*
X232579D01*
X234547Y101936D01*
Y104559D01*
X85039Y198949D02*
X81103D01*
Y196981D01*
X81759Y196325D01*
X84383D01*
X85039Y196981D01*
Y198949D01*
X81103Y192390D02*
Y195013D01*
X83727Y192390D01*
X84383D01*
X85039Y193045D01*
Y194357D01*
X84383Y195013D01*
X129921Y199474D02*
X125985D01*
Y197506D01*
X126641Y196850D01*
X129265D01*
X129921Y197506D01*
Y199474D01*
X125985Y195538D02*
Y194227D01*
Y194883D01*
X129921D01*
X129265Y195538D01*
X222901Y161746D02*
X222245Y161090D01*
Y159778D01*
X222901Y159122D01*
X225524D01*
X226181Y159778D01*
Y161090D01*
X225524Y161746D01*
X226181Y165682D02*
Y163058D01*
X223557Y165682D01*
X222901D01*
X222245Y165026D01*
Y163714D01*
X222901Y163058D01*
Y166994D02*
X222245Y167650D01*
Y168962D01*
X222901Y169618D01*
X223557D01*
X224213Y168962D01*
X224869Y169618D01*
X225524D01*
X226181Y168962D01*
Y167650D01*
X225524Y166994D01*
X224869D01*
X224213Y167650D01*
X223557Y166994D01*
X222901D01*
X224213Y167650D02*
Y168962D01*
X231168Y161746D02*
X230512Y161090D01*
Y159778D01*
X231168Y159122D01*
X233792D01*
X234448Y159778D01*
Y161090D01*
X233792Y161746D01*
X234448Y165682D02*
Y163058D01*
X231824Y165682D01*
X231168D01*
X230512Y165026D01*
Y163714D01*
X231168Y163058D01*
X230512Y166994D02*
Y169618D01*
X231168D01*
X233792Y166994D01*
X234448D01*
X215027Y161746D02*
X214371Y161090D01*
Y159778D01*
X215027Y159122D01*
X217651D01*
X218306Y159778D01*
Y161090D01*
X217651Y161746D01*
X218306Y165682D02*
Y163058D01*
X215683Y165682D01*
X215027D01*
X214371Y165026D01*
Y163714D01*
X215027Y163058D01*
X214371Y169618D02*
X215027Y168306D01*
X216339Y166994D01*
X217651D01*
X218306Y167650D01*
Y168962D01*
X217651Y169618D01*
X216995D01*
X216339Y168962D01*
Y166994D01*
X198952Y161844D02*
X198296Y161188D01*
Y159876D01*
X198952Y159220D01*
X201576D01*
X202232Y159876D01*
Y161188D01*
X201576Y161844D01*
X202232Y165780D02*
Y163156D01*
X199608Y165780D01*
X198952D01*
X198296Y165124D01*
Y163812D01*
X198952Y163156D01*
X198296Y169715D02*
Y167092D01*
X200264D01*
X199608Y168403D01*
Y169059D01*
X200264Y169715D01*
X201576D01*
X202232Y169059D01*
Y167747D01*
X201576Y167092D01*
X207153Y161746D02*
X206497Y161090D01*
Y159778D01*
X207153Y159122D01*
X209776D01*
X210433Y159778D01*
Y161090D01*
X209776Y161746D01*
X210433Y165682D02*
Y163058D01*
X207809Y165682D01*
X207153D01*
X206497Y165026D01*
Y163714D01*
X207153Y163058D01*
X210433Y168962D02*
X206497D01*
X208465Y166994D01*
Y169618D01*
X181956Y161746D02*
X181300Y161090D01*
Y159778D01*
X181956Y159122D01*
X184580D01*
X185236Y159778D01*
Y161090D01*
X184580Y161746D01*
X185236Y165682D02*
Y163058D01*
X182612Y165682D01*
X181956D01*
X181300Y165026D01*
Y163714D01*
X181956Y163058D01*
Y166994D02*
X181300Y167650D01*
Y168962D01*
X181956Y169618D01*
X182612D01*
X183268Y168962D01*
Y168306D01*
Y168962D01*
X183924Y169618D01*
X184580D01*
X185236Y168962D01*
Y167650D01*
X184580Y166994D01*
X190617Y161746D02*
X189961Y161090D01*
Y159778D01*
X190617Y159122D01*
X193241D01*
X193897Y159778D01*
Y161090D01*
X193241Y161746D01*
X193897Y165682D02*
Y163058D01*
X191273Y165682D01*
X190617D01*
X189961Y165026D01*
Y163714D01*
X190617Y163058D01*
X193897Y169618D02*
Y166994D01*
X191273Y169618D01*
X190617D01*
X189961Y168962D01*
Y167650D01*
X190617Y166994D01*
X158334Y161221D02*
X157678Y160565D01*
Y159253D01*
X158334Y158597D01*
X160958D01*
X161614Y159253D01*
Y160565D01*
X160958Y161221D01*
X161614Y165157D02*
Y162533D01*
X158990Y165157D01*
X158334D01*
X157678Y164501D01*
Y163189D01*
X158334Y162533D01*
X161614Y166469D02*
Y167781D01*
Y167125D01*
X157678D01*
X158334Y166469D01*
X165814Y161353D02*
X165158Y160697D01*
Y159385D01*
X165814Y158729D01*
X168438D01*
X169094Y159385D01*
Y160697D01*
X168438Y161353D01*
X169094Y165288D02*
Y162664D01*
X166470Y165288D01*
X165814D01*
X165158Y164632D01*
Y163320D01*
X165814Y162664D01*
Y166600D02*
X165158Y167256D01*
Y168568D01*
X165814Y169224D01*
X168438D01*
X169094Y168568D01*
Y167256D01*
X168438Y166600D01*
X165814D01*
X174476Y161287D02*
X173819Y160631D01*
Y159319D01*
X174476Y158663D01*
X177099D01*
X177755Y159319D01*
Y160631D01*
X177099Y161287D01*
X177755Y162599D02*
Y163911D01*
Y163255D01*
X173819D01*
X174476Y162599D01*
X177099Y165878D02*
X177755Y166534D01*
Y167846D01*
X177099Y168502D01*
X174476D01*
X173819Y167846D01*
Y166534D01*
X174476Y165878D01*
X175131D01*
X175787Y166534D01*
Y168502D01*
X58138Y18139D02*
X57482Y17483D01*
Y16171D01*
X58138Y15515D01*
X60762D01*
X61418Y16171D01*
Y17483D01*
X60762Y18139D01*
X61418Y19451D02*
Y20763D01*
Y20107D01*
X57482D01*
X58138Y19451D01*
X61418Y24698D02*
X57482D01*
X59450Y22730D01*
Y25354D01*
X49389Y18139D02*
X48733Y17483D01*
Y16171D01*
X49389Y15515D01*
X52013D01*
X52669Y16171D01*
Y17483D01*
X52013Y18139D01*
X52669Y19451D02*
Y20763D01*
Y20107D01*
X48733D01*
X49389Y19451D01*
Y22730D02*
X48733Y23386D01*
Y24698D01*
X49389Y25354D01*
X50045D01*
X50701Y24698D01*
Y24042D01*
Y24698D01*
X51357Y25354D01*
X52013D01*
X52669Y24698D01*
Y23386D01*
X52013Y22730D01*
X39852Y18139D02*
X39196Y17483D01*
Y16171D01*
X39852Y15515D01*
X42476D01*
X43132Y16171D01*
Y17483D01*
X42476Y18139D01*
X43132Y19451D02*
Y20763D01*
Y20107D01*
X39196D01*
X39852Y19451D01*
X43132Y25354D02*
Y22730D01*
X40508Y25354D01*
X39852D01*
X39196Y24698D01*
Y23386D01*
X39852Y22730D01*
X128281Y176902D02*
X127625Y177558D01*
X126313D01*
X125657Y176902D01*
Y174279D01*
X126313Y173623D01*
X127625D01*
X128281Y174279D01*
X129593Y173623D02*
X130905D01*
X130249D01*
Y177558D01*
X129593Y176902D01*
X132873Y173623D02*
X134185D01*
X133529D01*
Y177558D01*
X132873Y176902D01*
X67454Y85760D02*
X68110Y86416D01*
Y87728D01*
X67454Y88384D01*
X64830D01*
X64174Y87728D01*
Y86416D01*
X64830Y85760D01*
X64174Y84448D02*
Y83137D01*
Y83793D01*
X68110D01*
X67454Y84448D01*
Y81169D02*
X68110Y80513D01*
Y79201D01*
X67454Y78545D01*
X64830D01*
X64174Y79201D01*
Y80513D01*
X64830Y81169D01*
X67454D01*
X66666Y129396D02*
X67322Y130052D01*
Y131364D01*
X66666Y132020D01*
X64042D01*
X63386Y131364D01*
Y130052D01*
X64042Y129396D01*
Y128084D02*
X63386Y127428D01*
Y126116D01*
X64042Y125460D01*
X66666D01*
X67322Y126116D01*
Y127428D01*
X66666Y128084D01*
X66010D01*
X65354Y127428D01*
Y125460D01*
D18*
X234942Y89575D02*
D03*
M02*
